<svg xmlns="http://www.w3.org/2000/svg" xmlns:xlink="http://www.w3.org/1999/xlink" width="1000" height="500" viewBox="-1966 0 3932 1966"><path fill="#296912" d="M-1966 0h3932v1966h-3932z"/><g fill="#FDFC02"><path id="a" d="m0 488 22.96 70.67h74.3l-60.11 43.67L60.11 673 0 629.33-60.11 673l22.96-70.66-60.11-43.67h74.3Z"/><path id="b" d="m0 781 32 182-21 20v687l22 23v171l-33-33-33 33v-171l22-23V983l-21-20Z"/><use xlink:href="#a" y="-392"/><g id="c"><use xlink:href="#a" x="486"/><use xlink:href="#a" x="486" y="-314"/><use xlink:href="#a" x="923" y="-93"/><use xlink:href="#a" x="1271" y="255"/><use xlink:href="#a" x="1494" y="693"/><use xlink:href="#b" transform="rotate(40 0 1326)"/></g><use xlink:href="#c" transform="scale(-1 1)"/></g></svg>