<svg xmlns="http://www.w3.org/2000/svg" width="1200" height="600"><path fill="#c00" d="M0 0h1200v600H0z"/><path fill="#0080ff" d="M0-.397h201.48v600.42H0z"/><path fill="#5b4431" d="M734.4 424.778c-5.66-.239-10.843 1.676-14.956 3.235-1.19.42-2.322.84-3.276 1.137-2.502.78-4.826 1.437-7.269 1.92-2.622.536-5.48.717-8.162.717-2.741-.122-5.362-.181-8.103-.718-2.443-.482-4.767-1.14-7.269-1.92-1.013-.297-2.086-.716-3.278-1.136-4.11-1.559-9.353-3.474-14.954-3.235l-.119-.18-1.073-1.497-1.49 1.019-.596.42-1.49 1.076 1.073 1.496.298.482-3.932-4.732-.119-1.32-.12-1.857-1.847.18h-.356l-.596-.658-.775.658c-1.132-1.077-2.323-1.798-3.575-2.276l-.238-2.398-.18-1.857-1.786.18-.716.06-1.846.18.179 1.798v.239l-1.37 1.437a8.7 8.7 0 0 0-1.729.361l-2.264-8.51-.476-1.793-1.788.477-.715.18-1.728.479.476 1.798 2.027 7.49-1.49-1.198-4.767-13.242-.595-1.677-1.728.6-.656.239-1.728.657.597 1.678 2.204 6.11-.536-.477-5.96-12.881-.774-1.618-1.608.78-.655.297-1.669.78.775 1.618.238.6-4.527-7.91-.895-1.614-1.55.955-.654.36-.716.42a1 1 0 0 0-.595-.18l-3.515-5.094-1.013-1.496-1.49 1.077-.596.42-1.489 1.018 1.013 1.5 1.31 1.858c-1.369 0-2.8.058-4.408.18l2.74-7.55-.059-1.378-2.324-5.03 4.647-12.823.597-1.677-1.669-.658-.715-.243-1.668-.595-.656 1.677-3.157 8.744-1.49-3.354 4.588-12.823.655-1.735-1.728-.6-.655-.238-1.728-.658-.596 1.735-3.157 8.685-1.43-3.051 2.442-13.842.299-1.798-1.788-.298-.715-.12-1.787-.299-.298 1.799-1.37 7.666-.775-1.735 1.191-14.022.18-1.798-1.849-.176-.714-.062-1.788-.181-.178 1.862-.536 6.409-.299-.6v-16.058h-4.349v2.339l-.774-8.929-.179-1.857-1.787.18-.775.059-1.191.122-1.133-6.531-.297-1.798-.835-.059a55 55 0 0 0 1.907-3.176 139 139 0 0 0 5.302-10.303l8.104-3.536 1.608-.777-.715-1.677-.357-.66-.715-1.677-1.668.778-3.695 1.678 1.907-4.612 6.017-4.374 1.49-1.019-1.012-1.499-.417-.599-1.073-1.497-1.31.841-1.132.836 1.191-2.992 4.766-4.016 1.43-1.139-1.192-1.437-.476-.541-1.132-1.377 1.012-2.515 2.86-2.875 1.312-1.258-1.311-1.32-.537-.54-1.25-1.257-1.728 1.679 5.838-6.95 1.133-1.379-1.37-1.199-.537-.477-.894-.78 3.754-5.391 1.013-1.498-1.49-1.078-.596-.42-1.43-1.02.18-.358h-.061l2.86-7.908.655-1.679-1.726-.657-.657-.24-1.727-.599-.596 1.677-3.337 9.165v-.058l-.833-7.37 2.442-6.711 4.41.78 1.786.302.299-1.799.178-.718.298-1.799-1.787-.298-3.695-.66.835-2.276.237-.658h12.096v-4.374h-9.593l1.55-1.08 13.941-1.198 1.788-.18-.119-1.796-.06-.72-.178-1.856-1.788.178-6.435.54.597-.36 13.882-2.515 1.787-.3-.298-1.796-.119-.721-.357-1.796-1.788.3-.596.12 8.759-2.336 1.728-.482-.417-1.735-.238-.719-.299-1.199 1.013-.36 6.912 3.236 1.608.777.775-1.676.298-.659.774-1.679-1.609-.716-2.92-1.38 1.074-.419-.656-1.678-.238-.717-.06-.241 11.083 2.995 1.728.421.476-1.737.179-.721.477-1.736-1.728-.48-7.508-2.037 1.788-.658 13.763 2.454 1.787.361.299-1.857.118-.719.358-1.737-1.788-.361-6.375-1.136.656-.18 14.121 1.199 1.787.18.178-1.859.06-.719.12-1.796-1.788-.18-.476-.061h10.724v-3.714l6.555-.6 1.846-.119-.179-1.857-.06-.72-.12-1.736.3-.18 7.865-2.876 1.727-.6-.596-1.737-.298-.658-.595-1.738-1.728.6-9.533 3.534.417-.42 5.064-5.39 9.176-3.356 9.176 3.356 5.123 5.39.358.42-9.534-3.534-1.667-.6-.657 1.738-.238.658-.596 1.738 1.668.599 7.925 2.876h-.058l.356.18-.119 1.735-.119.721-.118 1.857 1.786.12 6.614.6v3.713h10.724l-.475.06-1.85.181.18 1.796.06.72.18 1.858 1.786-.18 14.12-1.199.597.18-6.315 1.136-1.788.36.298 1.738.12.719.357 1.857 1.787-.36 13.764-2.455 1.728.658-7.448 2.037-1.728.48.416 1.736.24.72.415 1.738 1.789-.421 11.082-2.995-.118.241-.24.717-.596 1.678 1.073.42-2.92 1.379-1.609.716.775 1.68.298.658.774 1.676 1.609-.777 6.853-3.237 1.013.361-.3 1.2-.177.718-.477 1.735 1.788.482 8.757 2.335-.654-.12-1.787-.299-.3 1.796-.119.721-.298 1.796 1.788.3 13.882 2.515.536.36-6.374-.54-1.788-.178-.177 1.857-.06.719-.18 1.796 1.848.18 13.941 1.199 1.49 1.079h-9.533v4.374h12.095l.238.658.834 2.276-3.694.66-1.786.298.296 1.799.12.718.357 1.799 1.728-.302 4.469-.78 2.443 6.711-.834 7.37v.058l-3.337-9.165-.596-1.677-1.728.6-.655.239-1.728.657.597 1.68 2.86 7.907.118.358-1.43 1.02-.596.42-1.49 1.078 1.073 1.498 3.755 5.39-.895.78-.536.478-1.43 1.2 1.19 1.379 5.781 6.949-1.668-1.679-1.311 1.258-.477.538-1.311 1.321 1.311 1.258 2.802 2.875 1.071 2.515-1.132 1.377-.477.54-1.19 1.438 1.369 1.139 4.767 4.016 1.25 2.992-1.132-.836-1.31-.84-1.072 1.496-.419.6-1.013 1.498 1.49 1.019 6.018 4.374 1.907 4.612-3.693-1.678-1.67-.778-.773 1.677-.298.66-.775 1.677 1.667.777 8.104 3.536a139 139 0 0 0 5.303 10.303 54 54 0 0 0 1.907 3.176l-.833.059-.359 1.798-1.132 6.53-1.192-.121-.715-.058-1.786-.181-.18 1.857-.775 8.929v-2.34h-4.348v16.059l-.298.6-.596-6.41-.12-1.861-1.846.18-.715.063-1.788.176.118 1.798 1.251 14.022-.773 1.735-1.37-7.666-.298-1.799-1.788.298-.715.121-1.786.298.297 1.798 2.442 13.842-1.43 3.051-3.158-8.685-.655-1.735-1.668.658-.656.238-1.728.6.596 1.735 4.649 12.823-1.55 3.354-3.157-8.744-.597-1.677-1.728.595-.656.243-1.728.658.656 1.677 4.647 12.822-2.322 5.03-.06 1.38 2.68 7.55a55 55 0 0 0-4.348-.18l1.25-1.858 1.074-1.501-1.49-1.019-.596-.419-1.491-1.077-1.071 1.496-3.517 5.094c-.177 0-.356.058-.594.18l-.656-.42-.655-.36-1.549-.955-.954 1.613-4.527 7.91.297-.6.774-1.617-1.668-.78-.656-.298-1.668-.78-.773 1.619-5.96 12.881-.535.478 2.203-6.111.657-1.678-1.728-.657-.655-.24-1.728-.599-.596 1.677-4.826 13.242-1.432 1.198 2.027-7.49.477-1.798-1.789-.479-.715-.18-1.725-.477-.478 1.794-2.263 8.51a10 10 0 0 0-1.728-.362l-1.43-1.437.058-.24.119-1.798-1.786-.18-.715-.059-1.847-.18-.12 1.857-.239 2.398c-1.25.478-2.443 1.199-3.633 2.276l-.775-.658-.536.658h-.358l-1.848-.18-.179 1.857-.058 1.32-3.992 4.732.357-.482 1.074-1.496-1.491-1.077-.596-.42-1.55-1.018-1.012 1.497zm-8.883-303.69h-.917l-.805.97-.478.54-1.132 1.378-.356-.18-5.803-2.709h-4.144l-.004.011-.357.721-.714 1.616 1.609.78 8.756 4.135h-.058l-7.389.178-10.962-5.152-.715-1.557-1.311.6-1.251-.6-.715 1.557-11.023 5.152-7.389-.178h-.059l8.759-4.136 1.668-.78-.774-1.615-.298-.72-.006-.012h-4.156l-5.849 2.708-.357.18-1.132-1.377-.417-.54-.804-.97h-.918l-.84.731-5.065 4.253-.833-.839-.537-.54-1.25-1.258-1.312 1.257-6.375 6.472.357-.48 1.192-1.378-1.43-1.198-.536-.477-1.37-1.14-1.192 1.379-9.057 10.844-.655.298 3.694-5.272 1.073-1.498-1.49-1.078-.595-.419-1.49-1.018-1.072 1.496-4.767 6.891-.775.42-.715-.78-.238.18.655-1.14.894-1.555-1.55-.9-.654-.418-1.55-.9-.894 1.616-3.992 6.952c-1.906.6-3.395 1.378-4.528 2.274l.3-.777 1.07-.839-.535-.658.775-2.097.655-1.738-1.728-.6-.715-.238-1.668-.66-.656 1.737-.893 2.517-6.138 5.212-1.429-1.079-.596-.419-1.49-1.019-1.072 1.499-3.754 5.451-1.072-.597-.596-.362-1.549-.959-.953 1.619-3.933 6.83-1.787 1.857c-.893.9-1.788 1.677-2.8 2.337-.954.658-2.027 1.256-3.098 1.857-5.065 2.875-7.03 5.87-7.389 9.524l-.894.779-.774.6c.715-1.68 1.37-3.414 2.026-5.152 2.8-7.669 5.54-15.816 8.4-25.044l1.788-8.505-5.005 7.009c-5.183 8.03-9.652 15.396-13.644 22.585a401 401 0 0 0-3.813 6.95l-1.132-.12-.715-.06-1.848-.18-.178 1.858-.596 7.25a190 190 0 0 0-2.383 4.97c-.714 1.559-1.43 3.116-2.085 4.673l-.298.242-.655 1.196-.06.84c-.656 1.558-1.37 3.176-2.026 4.792-.535.718-1.132 1.379-1.669 2.04-4.11 4.849-5.123 8.684-4.23 12.517v.3l-.297 1.619c-.655 1.915-1.37 3.894-2.026 5.872l-1.49-5.095 2.383-13.778.358-1.799-1.787-.358-.716-.12-1.786-.299-.359 1.796-2.382 13.841-4.41 5.93-.357.48 1.787-10.065.298-1.799-1.787-.297-.715-.122-1.787-.36-.299 1.86-1.489 8.265-.06.36-1.727.12-.715.12-1.848.121.18 1.855.536 6.59-1.133.182-.715.18-1.787.298.298 1.798 1.609 8.987-.18-.6-.475-1.798-1.728.48-.716.179-1.787.48.476 1.796 3.397 12.581c-.12.241-.178.539-.238.78l-1.788-5.032-.656-1.738-1.668.598-.714.301-1.669.6.595 1.676 4.768 13.24-.299 1.857-3.276-7.07-.776-1.618-1.667.78-.656.3-1.608.78.774 1.615 5.898 12.76-.595 3.297-5.303-7.547-1.013-1.5-1.49 1.018-.595.419-1.49 1.082 1.014 1.496 7.805 11.142-.954 5.453.298 1.377 2.026 2.876-.894.24-.715.179-1.728.48.476 1.737 1.848 6.948-6.495-15.635-1.549-3.655-1.787-3.593-.18 4.073.06 4.074 3.873 30.013-.297.18-1.548.901.893 1.556 1.668 2.934.477 3.655-.417.302-1.49 1.018 1.072 1.497 1.49 2.159.596 4.728-.417.36-1.37 1.14 1.131 1.439 3.337 3.952 6.553 15.937c.06.239.06.478.06.717.417 5.214 1.728 8.748 3.813 11.263l-6.911-4.011-1.549-.96-.894 1.618-.357.658-.954 1.56 1.61.896 11.736 6.829.954 3.538-7.984-4.616-1.55-.897-.953 1.555-.357.663-.893 1.555 1.549.9 11.796 6.83 1.371 5.332.238.716.656.42 8.4 4.854c.954 1.379 1.669 2.754 2.265 4.133.357.78.656 1.559.954 2.338-5.303-2.996-10.965-5.993-17.101-9.226l-5.839-3.055 3.933 5.931c11.201 10.362 20.853 18.628 30.505 25.939l-.119.301-.775 1.678 1.61.779 8.28 3.831-.594-.18-1.728-.658-.596 1.74-.299.658-.595 1.735 1.728.6 13.227 4.854 3.694 3.713.536.541 2.086 2.096 4.647 4.674h.06l1.072 1.077.833.897.06.063 1.907 1.915c-3.813-.239-7.805-.419-11.917-.599l-3.693-.059-4.17.177 3.693 1.92 3.516 1.496c12.75 4.074 23.653 7.189 34.14 9.586v.898l-17.04 8.09-3.516 1.676 3.515 1.677 5.005 2.335.775.36 1.609.72 4.766 2.277.893.36 1.073.537 3.575 1.677 1.012.482 1.61.717 3.336 1.56 1.072.536 1.073.482.238.117 3.098 1.438 1.133.54.238.06.774.419 2.92 1.32 1.191.6.775.36.477.176 3.456 1.677 1.37.599.893-1.195 16.862-23.905h1.549c-.238.239-.417.478-.476.72l-.298.659-.06.658.119.478.298.42.537.242.655.059.894-.122.655-.18c3.277-.838 6.136-1.676 8.759-2.456 6.255-1.857 11.022-3.295 18.053-3.354h.833c7.09.059 11.857 1.497 18.114 3.354 2.62.78 5.48 1.618 8.757 2.456l.656.18.834.122.715-.06.536-.242.298-.419.119-.478-.058-.658-.299-.658c-.118-.243-.297-.482-.477-.721h1.549l16.863 23.905.834 1.195 1.369-.6 3.516-1.676.417-.176.834-.36 1.192-.6 2.92-1.32.774-.42.237-.058 1.132-.54 3.1-1.44.238-.116 1.073-.482 1.072-.537 3.336-1.56 1.55-.716 1.012-.482 3.635-1.677 1.072-.536.834-.36 4.827-2.277 1.55-.721.772-.36 5.066-2.335 3.514-1.677-3.514-1.676-17.04-8.09v-.898c10.425-2.397 21.39-5.512 34.08-9.586l3.575-1.496 3.693-1.92-4.169-.177-3.694.06c-4.173.18-8.104.36-11.918.598l1.907-1.915v-.063l.895-.897 1.012-1.077h.058l4.649-4.674 1.073-1.019 1.072-1.077.535-.54 3.635-3.714 13.287-4.854 1.728-.6-.655-1.735-.24-.659-.593-1.739-1.728.658-.597.18 8.221-3.831 1.67-.78-.775-1.677-.12-.301c9.654-7.31 19.246-15.577 30.506-25.939l3.933-5.931-5.84 3.055c-6.136 3.233-11.796 6.23-17.099 9.226.299-.779.595-1.559.953-2.338.596-1.38 1.31-2.754 2.264-4.133l8.402-4.855.655-.419.179-.716 1.43-5.332 11.737-6.83 1.61-.9-.895-1.555-.417-.663-.894-1.555-1.549.897-7.983 4.616.952-3.538 11.738-6.829 1.548-.896-.892-1.56-.358-.658-.895-1.618-1.607.96-6.912 4.011c2.145-2.515 3.456-6.049 3.873-11.263v-.717l6.612-15.937 3.277-3.952 1.192-1.439-1.37-1.14-.416-.36.594-4.728 1.49-2.16 1.074-1.496-1.49-1.018-.417-.302.477-3.655 1.667-2.934.895-1.556-1.61-.9-.237-.18 3.873-30.014v-4.074l-.12-4.073-1.788 3.593-1.548 3.655-6.495 15.635 1.846-6.948.478-1.737-1.789-.48-.654-.178-.895-.241 2.027-2.876.298-1.377-.953-5.453 7.804-11.142 1.013-1.496-1.488-1.082-.596-.42-1.49-1.018-1.014 1.5-5.302 7.548-.596-3.297 5.898-12.76.776-1.615-1.67-.78-.654-.3-1.61-.78-.773 1.619-3.277 7.069-.358-1.857 4.825-13.24.596-1.676-1.728-.6-.654-.301-1.728-.598-.596 1.738-1.847 5.032c-.06-.241-.118-.539-.179-.78l3.337-12.581.477-1.796-1.728-.48-.717-.179-1.725-.48-.478 1.799-.18.599 1.61-8.987.298-1.798-1.788-.298-.715-.18-1.19-.183.596-6.589.177-1.855-1.847-.122-.715-.119-1.728-.12-.118-.36-1.43-8.266-.357-1.859-1.728.36-.717.122-1.845.297.357 1.799 1.727 10.065-.297-.48-4.41-5.93-2.442-13.841-.298-1.796-1.788.3-.715.12-1.787.357.299 1.799 2.442 13.778-1.49 5.095c-.715-1.978-1.37-3.957-2.026-5.872l-.298-1.619-.059-.3c.895-3.833-.06-7.668-4.17-12.518-.597-.66-1.132-1.32-1.728-2.04-.657-1.615-1.311-3.233-2.027-4.79l-.06-.84-.655-1.197-.237-.242c-.715-1.557-1.371-3.114-2.087-4.673-.773-1.677-1.608-3.295-2.382-4.97l-.657-7.25-.118-1.859-1.847.18-.715.061-1.132.12a393 393 0 0 0-3.812-6.95c-4.052-7.189-8.521-14.556-13.645-22.585l-5.005-7.009 1.728 8.505c2.86 9.228 5.601 17.375 8.46 25.044.655 1.738 1.31 3.473 1.966 5.152l-.715-.6-.893-.78c-.357-3.653-2.325-6.648-7.388-9.523-1.073-.601-2.145-1.199-3.158-1.857a20 20 0 0 1-2.8-2.337l-1.729-1.857-3.992-6.83-.894-1.619-1.549.959-.654.362-1.013.597-3.754-5.451-1.072-1.499-1.49 1.019-.596.42-1.43 1.078-6.195-5.212-.895-2.517-.596-1.737-1.728.66-.654.238-1.73.6.656 1.738.716 2.097-.478.658 1.074.839.237.777c-1.132-.896-2.561-1.674-4.468-2.274l-3.993-6.952-.894-1.615-1.607.899-.596.419-1.61.9.954 1.554.656 1.14-.298-.18-.655.78-.775-.42-4.827-6.89-1.011-1.497-1.49 1.018-.597.42-1.488 1.077 1.013 1.498 3.694 5.272-.596-.298-9.057-10.844-1.193-1.38-1.369 1.14-.596.478-1.37 1.198 1.132 1.378.417.48-6.374-6.472-1.313-1.257-1.251 1.257-.535.541-.834.839-5.066-4.253zm-24.78 6.182 11.201 5.21 4.588 5.812.299.48-9.176-4.313-1.61-.78-.775 1.68-.298.658-.773 1.617 1.667.778 7.627 3.596.299.181-.36 1.738-.118.716-.298 1.799 1.788.299 5.958 1.019-.299.477-1.013 1.44-.356-.119.058.057-7.922-2.874-1.728-.66-.597 1.737-.237.66-.657 1.736 1.728.6 9.117 3.355h-.12l-7.327.838-5.245-1.915-.417-1.08-.237-.719-.596-1.678-1.728.599-2.443.901-2.443-.901-1.667-.6-.658 1.68-.237.718-.357 1.08-5.304 1.915-7.328-.838h-.06l9.117-3.356 1.668-.599-.596-1.736-.238-.66-.656-1.737-1.669.66-7.923 2.874v-.057l-.299.12-1.012-1.44-.357-.478 6.018-1.02 1.786-.298-.358-1.799-.118-.716-.298-1.738.298-.18 7.626-3.597 1.669-.778-.775-1.617-.298-.659-.775-1.678-1.668.78-9.176 4.312.358-.48 4.588-5.811z"/><path fill="#007cc3" d="M668.385 426.578c6.435.118 12.393 3.115 16.444 4.314 11.62 3.592 20.199 3.592 31.878 0 4.05-1.199 9.949-4.196 16.384-4.314l-1.489 2.218c-8.758 7.067-10.903 12.877-12.631 22.585-.597 5.57-.597 13.837 9.71 21.085l.417.419-.596-.118c-30.624-7.846-24.904-7.846-55.469 0l-.656.118.477-.42c10.307-7.247 10.307-15.513 9.712-21.084-1.728-9.708-3.933-15.518-12.631-22.585zm130.004 19.769c2.443-2.695 4.947-4.913 7.21-7.31-7.21-3.413-16.027-5.509-23.535-8.325l-6.493 1.199-1.43 1.198 7.685-.72 1.847-.122.12 1.798.06.72.179 1.858-1.85.18-13.881 1.199-2.562 2.155 9.176.838 1.788.122-.12 1.856-.06.717-.179 1.798-1.846-.121-10.01-.897c15.431 7.31 23.535 13.12 33.901 1.857m-42.063-26.958c-1.014-.242-2.026-.419-2.92-.482l-.536 5.873 2.562-2.158zm-7.388.357c-.954.419-1.849 1.081-2.74 1.978v.18l-.837 9.227 2.802-2.335zm-7.626 7.31a21.5 21.5 0 0 1-2.802 2.335q1.252.633 2.504 1.262zm98.307-22.765c1.132-3.236 2.263-6.41 4.469-9.524-9.772-.838-19.723.897-29.495.059-9.353-.838-16.444-1.916-21.567-1.677l-3.873 5.571-.776 9.285 9.176.78 10.189-4.792 1.667-.72.776 1.617.297.658.776 1.677-1.67.78-5.957 2.817.417 1.077.238.721.358 1.018c1.013.118 2.024.24 2.979.357 17.338 1.5 26.87 4.854 31.996-9.704m23.654-47.086c.238-3.358.535-6.774 1.905-10.307-9.651 1.676-18.887 5.99-28.54 7.729a3.6 3.6 0 0 0-.833.117l-7.15 5.035-.773 1.676 6.671-3.894 1.55-.897.954 1.618.356.6.895 1.555-1.55.96-12.095 7.008-1.43 3.056 8.64-3.173 1.728-.6.594 1.736.24.658.654 1.74-1.728.599-9.949 3.65c3.873-.238 7.685-.477 11.5-1.135 17.099-3.056 27.168-2.276 28.36-17.73m5.182-53.98c-.893-3.235-1.787-6.53-1.787-10.366-8.46 4.974-15.61 12.163-24.131 17.075-5.778 3.354-10.725 5.931-14.537 8.266l-.955 5.752 3.159 8.748 8.698-3.236 7.21-8.627 1.192-1.438 1.37 1.199.537.478 1.43 1.14-1.192 1.438-4.23 5.093.834.838.536.478.18.18c.297-.18.654-.419 1.012-.6 15.073-8.743 24.786-11.501 20.674-26.418m-6.256-57.334c-1.728-2.935-3.456-5.81-4.348-9.524-3.456 3.414-6.436 7.367-9.415 11.263l-.12.539-3.692 13.72.118.716 2.206-6.11.654-1.737 1.668.66.715.237 1.67.6-.597 1.737-4.767 13.24.298 1.859 3.277-7.071.775-1.677 1.61.78.714.3 1.607.777-.773 1.679-3.575 7.727c11.617-11.502 19.541-16.776 11.975-29.715M825.14 272.97c-.298.36-.537.66-.834.96l2.62 2.634-.356-1.855zm-3.218 4.732c-.18.363-.356.66-.477 1.018l5.84 7.609 1.549 1.08-.596-3.354zm15.73-77.524c-1.847-2.157-3.695-4.313-5.006-7.248-3.277 4.674-5.659 10.006-8.4 15.096l.298-.058.715-.122 1.786-.358.299 1.798 2.443 13.837 1.609 2.16-2.085-7.79-.477-1.74 1.787-.477.656-.18 1.786-.48.477 1.738.299 1.14.417-.122.714-.117 1.789-.302.298 1.798.119.598c.892-1.317 1.667-2.515 2.322-3.712l-.536-3.058-.298-1.796 1.788-.36.716-.118.297-.061c.417-3.117-.596-6.29-3.814-10.066m-14.598 9.886c-.834 1.498-1.728 2.997-2.74 4.435-8.879 12.699-14.778 18.51-10.01 24.861 1.727 2.276 3.693 4.372 5.004 7.309q.717-.988 1.43-1.98l-.475-.835-.894-1.56 1.549-.958.596-.358 1.071-.6-2.8-5.99-.775-1.678 1.67-.719.654-.359 1.61-.72-1.55-8.686-.297-1.796 1.786-.302.715-.12 1.788-.358.298 1.855 1.668 9.587.06-.059 2.085-7.13zm2.145 24.922.118-.12-1.607-2.276-.06-.06.24 1.498zm-20.02-70.631c-2.205-1.258-4.35-2.515-6.315-4.552-1.907 7.07-1.907 14.619-3.813 21.686-3.515 13.3-6.674 19.89-.775 23.726 2.087 1.378 4.35 2.516 6.316 4.551 1.907-7.066 5.66-13.658 7.508-20.669 3.335-12.519 6.97-19.11-2.92-24.742m-39.263-21.445c-2.145-.6-4.23-1.138-6.374-2.398 0 6.412 1.667 12.88 1.667 19.291 0 12.102-1.192 18.51 4.707 20.43 2.086.657 4.29 1.076 6.434 2.396 0-6.472 1.728-12.881 1.728-19.35 0-11.444 1.61-17.854-8.162-20.369m-162.72 303.32c-2.204-2.578-4.588-4.854-7.508-7.194 7.21-3.412 16.207-5.508 23.714-8.324l6.554 1.199 1.43 1.198-7.686-.72-1.847-.122-.18 1.798-.059.72-.118 1.858 1.787.18 13.941 1.199 2.563 2.155-9.176.838-1.847.122.18 1.856.059.717.178 1.798 1.787-.121 10.07-.897c-15.432 7.31-24.011 13.422-33.842 1.74m42.005-26.84c1.013-.243 1.965-.42 2.919-.483l.477 5.873-2.563-2.158zm7.388.356c.953.419 1.847 1.081 2.74 1.978v.18l.776 9.227-2.742-2.335zm7.566 7.31c.895.839 1.788 1.618 2.862 2.335q-1.253.633-2.504 1.262zm-98.246-22.765c-1.133-3.236-2.265-6.41-4.529-9.524 9.771-.838 19.781.897 29.552.059 9.355-.838 16.386-1.916 21.569-1.677l3.873 5.571.774 9.285-9.235.78-10.188-4.792-1.609-.72-.774 1.617-.299.658-.774 1.677 1.608.78 6.018 2.817-.417 1.077-.238.721-.417 1.018c-.953.118-1.966.24-2.979.357-17.279 1.5-26.812 4.854-31.935-9.704m-23.654-47.086c-.298-3.358-.537-6.774-1.908-10.307 9.654 1.676 18.83 5.99 28.48 7.729.299 0 .596.058.895.117l7.15 5.035.774 1.676-6.673-3.894-1.609-.897-.893 1.618-.358.6-.894 1.555 1.55.96 12.094 7.008 1.43 3.056-8.698-3.173-1.668-.6-.597 1.736-.298.658-.596 1.74 1.728.599 9.89 3.65c-3.812-.238-7.685-.477-11.438-1.135-17.1-3.056-27.17-2.276-28.361-17.73m-5.184-53.98c.894-3.235 1.788-6.53 1.728-10.366 8.52 4.974 15.67 12.163 24.19 17.075 5.78 3.354 10.666 5.931 14.479 8.266l1.012 5.752-3.158 8.748-8.698-3.236-7.27-8.627-1.131-1.438-1.37 1.199-.597.478-1.37 1.14 1.132 1.438 4.29 5.093-.894.838-.477.478-.179.18c-.358-.18-.714-.419-1.072-.6-15.014-8.743-24.726-11.501-20.615-26.418m6.256-57.334c1.728-2.935 3.396-5.81 4.35-9.524 3.455 3.414 6.434 7.367 9.414 11.263l.118.539 3.635 13.72-.119.716-2.205-6.11-.596-1.737-1.668.66-.714.237-1.728.6.654 1.737 4.767 13.24-.298 1.859-3.276-7.071-.776-1.677-1.667.78-.656.3-1.609.777.716 1.679 3.634 7.727c-11.678-11.502-19.543-16.776-11.976-29.715m37.06 27.079c.238.36.536.66.774.96l-2.561 2.634.297-1.855zm3.216 4.732c.18.363.3.66.418 1.018l-5.84 7.609-1.488 1.08.596-3.354zm-15.729-77.524c1.848-2.157 3.694-4.313 5.005-7.248 3.278 4.674 5.66 10.006 8.401 15.096l-.357-.058-.715-.122-1.728-.358-.358 1.798-2.382 13.837-1.61 2.16 2.086-7.79.417-1.74-1.728-.477-.715-.18-1.728-.48-.476 1.738-.298 1.14-.417-.122-.715-.117-1.788-.302-.297 1.798-.12.598c-.894-1.317-1.668-2.515-2.323-3.712l.536-3.058.297-1.796-1.786-.36-.716-.118-.297-.061c-.418-3.117.595-6.29 3.812-10.066m14.538 9.886c.894 1.498 1.787 2.997 2.8 4.435 8.819 12.699 14.777 18.51 9.951 24.861-1.669 2.276-3.635 4.372-4.946 7.309l-1.43-1.98.478-.835.893-1.56-1.55-.958-.654-.358-1.013-.6 2.8-5.99.774-1.678-1.668-.719-.655-.359-1.609-.72 1.55-8.686.297-1.796-1.788-.302-.715-.12-1.787-.358-.358 1.855-1.667 9.587v-.059l-2.086-7.13zm-2.145 24.922c0-.06-.06-.12-.118-.12l1.668-2.276.06-.06-.299 1.498zm20.08-70.631c2.145-1.258 4.349-2.515 6.315-4.552 1.907 7.07 1.907 14.619 3.753 21.686 3.576 13.3 6.733 19.89.835 23.726-2.086 1.378-4.35 2.516-6.316 4.551-1.907-7.066-5.66-13.658-7.507-20.669-3.337-12.519-7.03-19.11 2.92-24.742m39.204-21.445c2.145-.6 4.29-1.138 6.435-2.398 0 6.412-1.728 12.88-1.728 19.291 0 12.102 1.192 18.51-4.707 20.43-2.085.657-4.23 1.076-6.375 2.396 0-6.472-1.728-12.881-1.728-19.35 0-11.444-1.61-17.854 8.103-20.369"/><path fill="#fbdd73" d="m690.547 157.584-5.362 5.692-8.58-1.019 5.959-6.292 7.744.902 13.527-4.915.238.66zm-2.084-26.54-4.887 6.11-8.58-.18 5.362-6.828 7.746.24 9.592-4.494.895.42zm-11.978-3.773v.059l11.5-5.45.358.656-12.215 5.754-3.158 8.685-6.613 3.116 3.515-9.705zm-8.698 4.075-3.515 9.703-6.555 3.115 3.516-9.704 3.991-1.916 11.084-9.348.476.6zm-8.699 4.072-3.516 9.706-6.553 3.114 3.515-9.704 4.648-2.218 10.307-10.303.476.478zm-8.64 4.074-3.515 9.704-4.11 1.92c.058-.241.058-.482.119-.719.297-2.517.655-5.035.774-7.489l.119-.3 5.064-2.397 9.295-11.203.596.478zm-6.613-.12 4.886-7.13.595.42-5.481 7.968zm-7.686 1.497 3.039-5.33.656.358-2.742 4.674c-.298.12-.655.18-.953.298m-11.558 8.09.953-2.578 1.132-.897-1.192 3.295zm3.515-9.587.238-.779.715.3-.417 1.138zm55.291 2.818 11.5-5.395-.298-.656-12.214 5.688-8.64-3.173-6.614 3.116 9.653 3.534zm-8.699 4.071-9.652-3.533-6.614 3.114 9.713 3.536 3.991-1.917 14.24-2.518-.119-.718zm-8.7 4.075-9.65-3.534-6.555 3.115 9.652 3.534 4.647-2.218 14.48-1.255-.06-.722zm-8.698 4.073-9.592-3.534-5.124 2.397c-.06.42-.12.778-.179 1.197l8.342 2.995 5.064-2.334h14.538v-.721zm-8.639 4.074-6.375-2.335a37 37 0 0 0-.179 3.653v1.738l5.243-2.457 14.42 1.258.059-.72zm-6.554 5.212 7.15 1.258.12-.12.715-.48-7.985-1.435zm9.95 1.738 1.073.18.12-.72-1.788-.298.476.718zm26.93-12.643h-.058l11.976-4.372.238.72-12.631 4.612-3.873 8.386-6.852 2.52 3.575-7.671h.774v-1.678zm-9.412 4.195-3.933 8.448-6.852 2.515 2.681-5.751h.119l1.847.18.12-1.857.06-.719.178-1.438 3.515-1.318.12-.06zm2.561-3.354 2.086-1.44 1.43-.117-3.516 2.456zm-12.393 8.388-3.157 6.708-6.793 2.518.893-1.918 1.193-.9 1.37-.957 1.37.239.298-1.799.12-.718.357-1.797-1.787-.3h-.06l.595-1.196.716-.302zm1.966-4.253.954-.781h1.132l-1.073.9-.714-.06zm-9.77 4.91-.06.12-.894-.178 1.252-1.26.952.06zm-3.933 8.508-.417.84-1.668.656zm-4.647-2.096h-.06l1.43-3.117 2.442.42zm12.928-11.802.299-.301h1.072l-.417.419zm-13.345 8.685-.776 1.619v-1.799l.18-.239.834.18zm3.872-4.613-.417.48-.417-.06zm37.715 6.892 11.977-4.376-.24-.72-12.69 4.614-8.341-3.894-6.853 2.516 9.355 4.316zm-8.996 3.292-9.296-4.372-6.851 2.517 9.354 4.314 4.17-1.499 14.42-1.257-.06-.721zm-8.997 3.297-9.295-4.374-6.852 2.517 9.354 4.312 4.827-1.738h14.538v-.717zm-8.997 3.293-9.294-4.372-6.673 2.395v.18l3.157 1.499.238-.18 1.49-1.078 1.072 1.5.418.596.595.958 2.205.96 5.183-1.859 14.478 1.26.06-.719zm-8.997 3.297-.775-.361-.297.18-1.609 1.14 1.31-.482 14.241 2.518.119-.72zm-5.362-2.518-2.205-1.016c-.596 1.377-1.548 2.454-3.038 3.295l-.418.78.835.358zm-2.205 6.953 11.44 3.053.179-.719-10.845-2.875zm-3.634 6.107 5.183 2.458.357-.66-4.586-2.157zm-11.797-34.268-6.793 1.68 3.397-7.97 3.634-.897c-.298 2.096-.298 4.492-.238 7.187m-7.865-8.025 9.772-8.21.476.541-10.308 8.687-.834 9.224-5.541 4.735.894-10.305zm-7.328 6.17-.894 10.303-3.277 2.757c-.417-2.696-.775-5.452-1.43-8.15l.06-.238 3.396-2.875 8.281-11.922.596.42zm-6.138 2.696 4.47-7.789.595.36-4.826 8.386c0-.058 0-.119-.06-.18zm-14.478 24.203-.536.48.179-1.798c.118.419.238.899.357 1.318m-1.549-6.65-.715 8.626-5.6 4.674.536-5.932c.893-2.036 1.728-4.135 2.621-6.23l3.04-2.576c0 .477.059.957.118 1.437m-7.805 11.98-.298 2.817-.178.18h-.18v.178l-1.37 1.138c.358-.778.775-1.616 1.133-2.394.297-.66.595-1.259.893-1.92m-6.494-12.28.238-2.697.715.06-.06.958c-.298.54-.596 1.14-.893 1.679m51.776-13.778-7.686-.66-5.601 4.673 10.248.897 3.04-2.515v-2.395m-4.767 6.409-10.248-.9-4.23 3.537c.06.419.12.896.179 1.318l8.698.777 1.431-1.257.357-.54.179.12 1.43-1.257 7.09-3.297c0-.239 0-.539-.06-.778zm-7.387 6.23-6.673-.598c.177 1.198.356 2.397.595 3.535l.894-1.557 1.549.897.536.3 1.49-1.258 2.68-.957.715-1.02zm6.137-1.498 1.19-.419.954-1.138-2.86 1.077.238.18zm-8.759 7.129.655-.898h-.12l-.237.422zm-20.734 5.93-1.55-.119-5.541 4.735 5.243.417 1.37-3.594zm-2.383 6.65-3.873-.358-.18 1.139-.714 4.013 2.92.241zm-8.52 1.139-2.86 2.397c-.12.24-.18.42-.298.659l2.561.18zm12.75-.12 1.012-.058c-.119-.241-.178-.48-.238-.719h-.476zm-14.777 10.067.238.059.894-5.152-3.039-.24c-.178.3-.297.54-.476.837.655 1.139 1.192 2.279 1.787 3.416.18.359.417.72.596 1.08m5.243-3.116.894-.78 1.728.18.298-.717-2.682-.24zm44.865-17.493-.476.059.476-.958v.9m14.776-11.144 8.342-5.87.417.597-8.818 6.231c.059-.358.059-.658.059-.958m-15.43 2.338-.18.119-1.608 9.165-5.959 4.194 1.788-10.184 5.838-4.135c.06.24.12.54.12.84m-7.866 4.612-1.788 10.184-5.48 3.894c-.12-.36-.18-.658-.24-.96l1.55-8.924 3.634-2.576 9.295-11.144.298.242c.06.178.06.358.06.476zm-7.865 5.513-.656 3.894c-.177-.6-.357-1.2-.535-1.86-.12-.358-.18-.719-.298-1.138l8.103-11.621.596.419zm-14.061 18.871-1.49 1.018.537-3.296c.357.718.655 1.498.953 2.278m11.083-23.247 1.012-1.736.656.358-1.37 2.337c-.06-.058-.06-.12-.06-.239-.06-.239-.18-.48-.238-.72M594.8 198.44l-1.311 7.49-5.958 4.194 1.787-10.184 4.706-3.355c.299.6.538 1.258.776 1.855m-7.388 2.817-1.788 10.186-2.92 2.037v-.06a58 58 0 0 1-2.084-3.176l.834-4.794 4.945-3.475 4.945-13.658c.06.419.18.777.297 1.198v.061zm-8.64 5.75 2.443-13.836.715.117-2.562 14.738c-.18-.358-.358-.717-.596-1.018m57.258-19.89 10.427-7.368-.418-.598-11.022 7.788-7.328-1.318-.358.178v-.239l-1.43-.238-5.958 4.193 10.129 1.797zm-7.864 5.513-10.07-1.796-5.958 4.191 10.07 1.799 3.694-2.576 13.584-4.974-.239-.716zm-7.806 5.512-8.163-1.438c.299 1.977.299 3.714-.179 5.213l2.384.419 4.23-2.937 14.001-3.833-.178-.66zm-7.864 5.512-1.074-.18a7.7 7.7 0 0 1-1.786 2.218l1.49-1.02 14.298-2.575-.118-.721zm-14.955 1.619-1.133.777 1.55.3c-.12-.359-.239-.72-.417-1.077m7.09 3.952-.18-.06c-.655.418-1.31.96-1.906 1.498l.894-.6 14.42-1.318-.06-.719zm-6.078-1.08-4.051-.718-5.958 4.194 10.129 1.798 1.132-.84-.656-2.396c-.179-.658-.357-1.377-.596-2.037m-1.787 6.593-10.07-1.799-2.918 2.04c.774 1.135 1.49 2.154 2.204 3.053l4.885.899 4.885-3.475h.299l.238-.78 1.728.658.358.122h11.915v-.718zm-8.76 6.17.12-.06 5.601 1.017.238-.718-6.613-1.2c.238.361.418.66.655.96m10.071 1.676 4.111.78.179-.719-4.052-.719zm-46.175-8.387-4.708 6.291 2.502 8.327 5.125-6.95-2.205-7.55 2.443-14.257-.715-.118zm6.91 9.167 1.966-11.144-.714-.12-1.966 11.083zm-1.489 2.337-7.15 5.093-1.31 7.189 2.085-1.44v-3.115h4.29zm-6.375 12.818-1.728 1.2a55 55 0 0 0 1.728 2.158zm5.422 4.793.357-.599-.119-.237zm-13.585 29.357-.477 2.815.12.3 1.013-.719zm.894 4.253-.655.48.297.839.12-.42-.358-.48.536-.36zm-2.86 7.13-.239 1.316.537-.358zm-.656 3.654-.06.48.359.66.476-1.68zm2.324-65.722 2.205-12.582.715.122-2.324 13.3 5.302 7.608-1.25 6.95c-.298-.419-.656-.78-1.013-1.14l-4.946-7.07zm-1.668 9.467 1.609 2.395-.537 2.038a22.5 22.5 0 0 1-1.43 4.132l-.952-1.376.774-4.373-1.252-14.499.715-.06zm-1.667 9.525.476.659c-.299.599-.597 1.138-.894 1.676l.059-.239-2.562-14.38.715-.177zm-3.04 7.19-2.682-10.126.656-.18 2.503 9.287c-.179.298-.299.66-.477 1.018m5.541 20.548-.596 3.294-.416-1.138-.596-1.676-1.728.596-.656.242-.834.358-2.265-3.293 1.013-5.753-4.945-13.659.655-.24 3.159 8.689c.357 4.491 3.098 8.266 7.21 12.58m-7.508.718 2.801 4.014 2.622 7.191-.775 4.43-2.74-3.893-.18-.359-.893-1.557-.179.12-1.906-2.757 1.013-5.929-6.138-13.303.656-.297zm.12 21.028-3.039-4.374.597-3.533.297.48 5.304 9.284c-.538-.358-1.134-.658-1.728-1.017zm-2.145-9.585.179-.959-8.222-11.8.595-.419 8.699 12.46-.596.358zm62.979-137.97c-5.72 18.39-10.903 32.647-17.277 46.308-1.252 2.754-2.623 5.512-3.994 8.266-.714-1.197-1.37-2.396-2.145-3.594l7.508-17.374-8.341 16.057c-.119-.122-.417-.54-.477-.72l-1.251-1.797a122 122 0 0 1 1.847-4.075c6.315-13.658 13.823-26.837 24.13-43.072m-21.688 80.936-4.646 6.35 2.502 8.267 5.124-6.95-2.264-7.49 2.502-14.258-.715-.119zm-6.314 9.046-.359-1.857-.178 1.077zm-.359-2.037.18-.6-.06-.12zm.417-1.56 3.278-12.28-.715-.18-1.49 5.751-1.251 6.95zm-15.55 60.21-.537 1.977.716-.42.179-1.018zm-.238 3.654-.894.539-1.788 6.771c.06.059.06.12.12.12h.06l3.574-2.098-1.132-1.677-.298-1.377zm3.395 11.863.24-.12.536-1.977-2.146-3.056-3.157 1.858a124 124 0 0 0 4.527 3.295m1.49-68.235 2.383-8.987.18 1.798v.359l-1.788 6.65zm2.383-8.987.656-2.396.715.178-.596 2.157zm-3.932 18.091-.595-1.077 1.787-6.77.12.6 1.549 8.987-.12-.6-.476-1.739-1.788.482zm-1.966-1.676v-8.985h.775v9.945c-.239-.302-.537-.66-.775-.96m-.298 35.047-.655 2.396-3.992-6.948c1.072 1.077 2.264 2.215 3.397 3.356.417.419.834.835 1.25 1.196m-6.375-4.255.119.181-.715.48-1.132-4.313 1.013 1.018zm4.17 12.582-.953 3.416-5.123-8.987.595-2.278zm-6.672-3.294 5.123 8.926-1.608 6.05v-.058h-.06l-.06-.06c-.476-.36-.893-.722-1.369-1.078l-3.873-6.711 1.548-5.873-5.004-13.717.715-.242zm-2.741 10.305-7.15-12.462.596-.42 7.984 13.9c-.477-.36-.953-.72-1.43-1.018m39.323-60.091h-.059l2.204-12.58-.715-.12-2.323 13.3-7.568 5.33-1.25 7.192 8.4-5.934zm-1.668 9.467-8.46 5.931-1.251 7.25 8.46-5.934.774-4.43 6.077-13.181-.654-.3zm-1.668 9.526-8.4 5.929-1.311 7.189 8.46-5.93.893-5.09 7.269-12.643-.655-.358zm-1.669 9.465-8.4 5.931-1.312 7.19 8.462-5.932.953-5.513 8.341-11.92-.596-.42zm-1.667 9.525-8.401 5.871-1.252 7.25 8.402-5.932 1.013-5.75 9.294-11.203-.537-.42zm-1.669 9.465-8.4 5.932-1.253 7.189 8.402-5.932 1.013-5.929 10.307-10.364-.536-.48zm-10.07 15.397-1.25 7.19 8.4-5.933 1.072-6.17 11.739-8.268-.417-.597zM564 231.632l.06.06 2.204-12.64.715.118-2.324 13.36 5.243 7.608-1.25 7.19-5.9-8.448zm-1.668 9.526 5.899 8.445-1.252 7.19-5.898-8.446.774-4.435-1.25-14.438.714-.12zm-1.61 9.465 5.84 8.446-1.251 7.25-5.9-8.509.895-5.09-2.503-14.379.716-.12zm-1.667 9.526 5.899 8.446-1.31 7.19-5.9-8.447 1.013-5.512-3.754-14.14.655-.18zm-1.669 9.465 5.898 8.449-1.31 7.188-5.84-8.448.954-5.751-4.945-13.661.715-.298zm-1.668 9.524 5.899 8.448-1.252 7.19-5.898-8.508 1.014-5.931-6.139-13.238.656-.302zm4.23 17.915-1.25 7.189-5.9-8.446 1.073-6.173-8.222-11.801.595-.42zm33.604-67.279 4.529-12.46-.656-.3-4.29 11.802c.18.3.299.658.417.958m3.694 12.52 4.35-12.04-.715-.239-4.588 12.7-7.984 3.773c-.179.302-.298.6-.476.902l-1.073 2.393-1.311 3.716 9.294-4.374zm-3.277 9.049-9.294 4.374-1.847 4.91.298.24.536.48.416.299 7.389-3.475 1.548-4.192 8.283-11.923-.596-.42zm-3.277 9.045-6.256 2.937-.535.6-3.933 4.732-1.072 2.934 1.191-.539 1.25-1.318.478.48 6.136-2.876.417-.48 1.61-4.493 9.294-11.144-.536-.478zm-4.886 9.826-2.74 1.258.953 1.018zm-4.765 6.112v.058l.357-.477zm11.498-4.016 2.204-1.798-.476-.6-1.132.96zm-4.528 11.083 4.35-3.056-.417-.6-3.396 2.399zm-4.587 11.263 6.792-3.175-.298-.659-6.077 2.815zm.357-48.226c.12.058.179.18.238.3h.06c.06.178.298.48.655.957l.596.839-1.013 2.756-.119-.061-.596-.42-1.252-.957-.237-.478zm-2.681 4.672.06.06-.06.059-.358.48zm.953 6.35-1.192 3.297-.298.358-.297.42-.418-.9zm-3.277 4.735.298.719-2.622 3.175.12-.66zm-1.311 21.866 17.934-23.426c-8.162 19.951-11.32 36.186-24.845 53.8l-3.754-2.159 7.568-14.378-9.414 13.359c-1.013-.6-2.205-1.258-3.516-1.976l.417-2.277 7.865-4.61 1.906-8.868 11.143-7.849 1.49-1.017-1.074-1.498-.416-.6-1.013-1.496-1.49 1.019zm-52.49 19.171-2.384-18.572 8.281 20.008c-.535 2.336-.714 4.374-.596 6.233l-1.787-6.711-.476-1.738-1.728.48-.715.178zm49.57 85.853 1.074 4.011c-1.133 0-2.265-.059-3.396-.117-.477 0-.954-.06-1.43-.06l-3.277-1.92-1.61-6.048-12.452-7.189.417-.662zm1.728-.479 1.192 4.553c.715.058 1.43.058 2.086.058l3.753-6.472-.417-1.496-3.873-1.438zm5.66-8.387.24-.36-.358-.84-.596.957zm-27.526-48.11.536.542 6.197 6.287-.298-.238-1.37-1.137-.774.956-6.138-3.592-1.132-4.314-.179-.301c.537.301 1.013.6 1.55.901.537.298 1.072.6 1.608.897m-1.251 5.094 4.47 2.574-.955 1.14 1.371 1.14 5.064 4.314.417 1.496-1.132-.78-.715 1.019-6.613-3.835-1.37-5.031-8.342-11.984.656-.356zm2.502 9.284 5.124 2.998-.893 1.199 1.489 1.018.656.478a84 84 0 0 1-5.243-1.438l-.716-2.577-9.354-11.2.597-.483zm-5.719 2.16-1.669-1.74.537-.478 2.68 2.695c-.118-.058-.238-.058-.357-.117a24 24 0 0 0-1.191-.36m22.52 32.77 1.432 5.211-8.937-5.152-1.37-5.214c.833.121 1.727.302 2.74.482q.536.086 1.072.18l3.754 2.155-.537 1.677 1.669.599zm-6.91-33.01.18.537.118-.297zm1.608 1.317-.297.478 2.324 1.618-.299-.6zm7.388 32.47 1.074 3.956 1.727-2.939zm5.006-2.813.774-1.38c-1.787-.059-3.515-.18-5.243-.301zm-23.774 1.794.954 3.596 1.311-2.276zm4.47-2.457 1.251-2.276-1.192-.716c-.119 0-.238 0-.358-.064q-1.876-.265-3.574-.536l-.597 1.019zm-6.197-4.011.12.478.177.121.299-.482c-.179-.058-.417-.058-.596-.117m-3.515-30.315-.418.78 3.754 3.772.18-.36zm-4.588-5.571-1.013 1.676 1.49 5.693.535-.54.537-.537 1.311-1.262.119.121.537-.959zm-1.907-10.303-1.608 2.695 1.906 7.068.476-.84-.595-.716 1.371-1.14.535-.478.06-.063 1.073-1.857zm-3.396-4.196 1.192 4.674 1.132-1.979-.12-.18.417-.298.299-.477c-1.013-.6-2.027-1.2-2.92-1.74m12.929 55.536 1.43 5.39-8.937-5.15-1.61-6.05-12.392-7.192.357-.659 19.187 11.146-.597 1.078 1.55.896zm-1.49-5.512.358 1.497v.063l-4.647-2.696c1.31.42 2.741.776 4.29 1.136m-16.443-29.476-7.746-9.285.536-.478 8.342 10.006h-.12zm-1.37-9.046 8.936 5.152 1.608 6.052c-.952-.238-1.906-.54-2.86-.779l-5.778-3.353-1.37-5.035-8.283-11.921.597-.42zm-2.443-9.285 8.877 5.152 1.906 7.067-8.937-5.151-1.132-4.373-7.209-12.579.595-.36zm-2.504-9.347v.062l-3.277-12.4.715-.183 3.456 13.061 5.72 3.354c.774.599 1.55 1.199 2.383 1.74l1.788 6.589-8.878-5.152zm3.039-18.511-1.728-6.41.716-.238 1.31 5.032c-.06.297-.06.597-.119.836-.06.302-.12.539-.179.78m25.024 88.602 1.49 5.571c.417-.059.894-.059 1.311-.117l3.873-6.77-4.47-2.578zm4.946-8.626-.537.96.954.536zm-6.674 9.104 1.37 5.215-2.323.18-6.077-3.534-1.608-6.053-12.393-7.189.357-.658zm39.92-.6 2.205 4.737c-1.013.118-2.027.24-3.099.298-.06.059-.178.059-.238.059l-5.421-1.975-2.682-5.692-13.406-4.913.238-.72zm1.668-.775 2.444 5.332c.417-.063.774-.063 1.132-.121l2.978-8.267-2.622-5.692 4.886-13.54-.655-.239zm-35.69-55.357 9.653 3.534 3.04 6.653-9.653-3.538-1.847-4.075-9.295-11.141.536-.478zm4.052 8.745 9.653 3.538 3.039 6.647-9.653-3.533-2.144-4.732-10.308-10.304.536-.54zm4.053 8.748 9.652 3.534 3.037 6.589-9.651-3.533-2.324-5.03-11.142-9.407.477-.54zm4.05 8.69 9.653 3.533 3.039 6.648-9.652-3.534-2.443-5.272-11.857-8.389.417-.599zm4.053 8.743 9.652 3.534 3.038 6.653-9.652-3.534-2.502-5.512-12.632-7.31.357-.6zm13.703 12.282 3.039 6.59-9.653-3.534-2.621-5.634-13.465-4.971.238-.658zm-15.074-54.157-3.515 9.704 3.038 6.652 3.515-9.708-1.906-4.074-2.502-14.315-.715.117zm3.992 8.748-3.516 9.704 3.099 6.648 3.514-9.704-2.144-4.732-1.31-14.559-.715.06zm4.051 8.744-3.515 9.708 3.098 6.59 3.515-9.708-2.324-5.03v-14.618h-.774zm4.052 8.748-3.515 9.704 3.098 6.59 3.515-9.705-2.442-5.272 1.25-14.496-.715-.063zm4.051 8.744-3.514 9.65 3.097 6.648 3.516-9.704-2.562-5.512 2.562-14.378-.715-.122zm.537 18.394 3.098 6.652 3.516-9.767-2.623-5.63 4.887-13.539-.715-.301zm-51.539 17.374c6.793 3.534 12.99 6.891 18.71 10.186 1.489 4.192 3.276 7.068 5.481 8.924l-.238.361-.358.6-.178.356c-7.329-5.927-14.896-12.58-23.417-20.427m32.592 22.347c1.728.18 3.635.117 5.719 0 1.013.717 2.026 1.379 3.04 2.096h-5.124zm98.252 19.588 2.622 9.947 5.6 3.236c-.893-3.714-1.967-7.19-3.456-10.425l-3.276-1.92-8.341-11.98-.596.42zm-8.342-4.85 2.682 10.005 6.316 3.652-2.682-10.006-4.468-2.574-1.728-2.096-.357.18c-.12.06-.239.06-.359.118zm-.118 5.751-1.61-5.872c-.535.238-1.072.54-1.667.838l.239 2.515zm2.74 12.638 7.448-1.974 6.315 3.651-9.95 2.637-3.694-2.574zm-.595-6.648 6.077 3.475-5.66 1.555zm-57.08-13.418h6.435c-1.668.537-3.337 1.077-5.064 1.614l-11.857-6.887.357-.658zm-2.98 2.993-1.905-.838.298-.658 2.62 1.199c-.356.117-.714.18-1.012.297m23.357 17.434h3.217l.12 1.199 1.787-.122 5.66-.537 4.588 4.611h-6.672a108 108 0 0 0-4.23-.6l-3.457-3.532-2.562-.659c.358-.18.656-.36 1.013-.478zm22.343 18.754h-3.694l-.596-.6c1.43.239 2.8.42 4.29.6m-14.001-23.248.774.78.774-.059v-1.438c-.357.18-.655.298-1.013.478-.177.059-.357.18-.535.24m3.217-1.555v2.096l2.383-.18-2.324-1.98c0 .064-.06.064-.06.064m1.608 6.41 3.515 3.533v-3.835zm5.125-.479v5.63l1.667 1.677c1.193.239 2.324.481 3.456.72v-4.313l-.535-.18-4.23-3.534zm11.915 9.582v-2.334l-3.514-3.534-1.609.18v4.49c1.669.36 3.395.78 5.123 1.198m-1.49-13.057 5.542 4.67-10.248.9-4.766-4.014-14.24 1.257-.06-.716zm1.133-1.378 5.6 4.673-.892-10.308-4.767-4.011-1.251-14.378-.715.059zm-55.589-35.048 10.248-.897 5.54 4.732-10.247.898-3.396-2.876-13.107-6.17.297-.658zm7.328 6.229 10.248-.897 5.542 4.674-10.189.897-3.992-3.295-13.644-5.03.238-.663zm7.389 6.17 10.188-.897 5.6 4.674-10.247.897-4.29-3.592-14.002-3.777.18-.658zm7.328 6.175 10.189-.901 5.6 4.732-10.248.901-4.468-3.777-14.24-2.515.119-.72zm7.328 6.229 10.189-.898 5.6 4.67-10.247.901-4.588-3.894-14.478-1.258.06-.72zm17.577 5.273 5.542 4.67-10.248.96-4.768-4.075-14.24 1.257-.06-.716zm-36.464-42.656.894 10.304 5.6 4.674-.893-10.308-3.456-2.876-8.281-11.858-.597.42zm7.388 6.171.895 10.303 5.54 4.733-.893-10.303-3.933-3.354-7.269-12.642-.656.36zm7.33 6.229.892 10.303 5.542 4.674-.894-10.303-4.23-3.597-6.137-13.238-.656.298zm7.327 6.17.894 10.303 5.542 4.674-.895-10.244-4.41-3.773-5.003-13.661-.656.239zm7.329 6.233.894 10.245 5.6 4.732-.893-10.307-4.648-3.894-3.753-14.135-.716.239zm8.222 16.474 5.6 4.673-.893-10.303-4.826-4.015-1.191-14.378-.775.117zm21.628 30.495c-28.48-2.1-48.678-6.35-79.478-16.176 33.306 1.438 54.04 4.493 82.878 12.94l-1.31 1.375-28.838-5.747-17.16-2.88h-.119l.12.063 18.589 3.655 26.573 5.751c-.416.478-.715.6-1.251 1.019zm-22.045 24.56-3.932-1.858 5.899-8.387-6.733 8.027-4.052-1.916 7.984-9.465-8.996 8.987-4.29-1.978 10.427-10.425-11.678 9.825-4.41-2.095 13.227-11.142-14.835 10.425-4.588-2.16 16.623-11.682-18.59 10.786-4.825-2.276 20.257-11.683c.775.118 1.608.298 2.383.42 1.073.176 2.145.356 3.159.536l2.919 2.938c9.295 0 14.12-.599 20.436-.062zm-12.571-27.08-22.522 10.665-5.005-2.335 18.59-8.807h6.255c.894.18 1.788.36 2.682.478m20.972-11.98 5.422-1.676 4.469 2.573 2.62 1.439 2.802-1.439 5.124 3.115-3.219-3.412 1.193-.78.834-.54.834-.596-.953 1.736 2.204 2.456-.536 2.096-4.111-1.676-1.549 1.135 4.29 3.777-15.254-8.446 14.599 9.406-.835 1.194-10.844-4.25-4.766-3.357zm-82.46-34.208h10.307l5.125 5.151H582.41l-3.157-3.173-12.513-7.252.358-.658zm6.792 6.77h10.307l5.125 5.151h-10.308l-3.634-3.656-13.168-6.17.298-.658zm6.792 6.828h10.249l.178.18c-1.787.658-3.576 1.379-5.303 2.217l-1.907.839-2.025-2.038-13.645-4.97.239-.718zm-1.966-18.39v3.476l5.123 5.151v-9.167c-.059 0-.059 0-.059.058h-.537c-.297.064-.595.064-.893.122h-.358c-.118 0-.238.058-.357.058h-.417v.064h-.358q-.982.087-1.786.175c-.12 0-.239.064-.358.064m6.733-.063v10.367l5.183 5.152v-3.417l-3.217-1.857-1.55-.897.894-1.56.357-.658.954-1.555 1.55.898 1.012.54v-1.857l-3.694-3.655-1.013-2.159c-.238 0-.476.063-.715.063zm6.792 6.833v1.136l2.74 1.618-1.549-1.555-3.097-8.568-.895-.302zm0 6.229v2.457l.119-.181.298-.658.476-1.077zm.238 4.376.536.478c.12 0 .239-.059.357-.121l-.177-.059zm6.852-5.336-1.43-5.45-.835-.238 1.431 5.21zm18.351 25.763v-1.258l-2.622-.72c-.834.418-1.667.72-2.502 1.018v.063l.417.058zm83.17-296.554 5.364 5.692 8.52-1.019-5.898-6.292-7.745.902-6.733-2.458-1.072.419zm-12.928-5.51-.358-.122-.118.3zm15.015-21.03 4.825 6.11 8.64-.18-5.363-6.828-7.804.24-13.048-6.112-.298.66zm11.975-3.773v.059l-11.558-5.45-.298.656 12.215 5.754 3.158 8.685 6.553 3.116-3.514-9.705zm8.7 4.075 3.515 9.703 6.553 3.115-3.514-9.704-4.052-1.916-11.083-9.348-.417.6zm8.638 4.072 3.517 9.706 6.612 3.114-3.515-9.704-4.648-2.218-10.308-10.303-.535.478zm8.7 4.074 3.515 9.704 4.052 1.92c0-.241-.06-.482-.06-.719-.357-2.517-.655-5.035-.834-7.489l-.06-.3-5.063-2.397-9.356-11.203-.535.478zm6.612-.12-4.944-7.13-.596.42 5.54 7.968zm7.688 1.497-3.039-5.33-.655.358 2.68 4.674c.357.12.655.18 1.014.298m11.5 8.09-.895-2.578-1.132-.897 1.191 3.295zm-3.456-9.587-.24-.779-.715.3.417 1.138zm-55.294 2.818-11.558-5.395.359-.656 12.154 5.688 8.698-3.173 6.556 3.116-9.653 3.534zm8.7 4.071 9.653-3.533 6.554 3.114-9.653 3.536-4.052-1.917-14.239-2.518.119-.718zm8.64 4.075 9.652-3.534 6.613 3.115-9.653 3.534-4.646-2.218-14.478-1.255.058-.722zm8.699 4.073 9.65-3.534 5.127 2.397c.058.42.118.778.118 1.197l-8.281 2.995-5.065-2.334h-14.54v-.721zm8.698 4.074 6.376-2.335c.12 1.197.18 2.454.18 3.653v1.738l-5.245-2.457-14.418 1.258-.06-.72zm6.495 5.212-7.15 1.258-.12-.12-.716-.48 7.986-1.435zm-9.89 1.738-1.132.18-.119-.72 1.847-.298-.478.718zm-26.931-12.643-11.977-4.372-.238.72 12.69 4.612 3.873 8.386 6.854 2.52-3.577-7.671h-.774v-1.678zm9.413 4.195 3.933 8.448 6.852 2.515-2.68-5.751h-.18l-1.789.18-.179-1.857-.058-.719-.119-1.438-3.575-1.318-.12-.06zm-2.562-3.354-2.086-1.44-1.488-.117 3.574 2.456zm12.392 8.388 3.1 6.708 6.851 2.518-.894-1.918-1.25-.9-1.312-.957-1.369.239-.359-1.799-.118-.718-.299-1.797 1.789-.3-.536-1.196-.775-.302zm-1.966-4.253-1.012-.781h-1.132l1.073.9.774-.06zm9.772 4.91v.12l.953-.178-1.25-1.26-.953.06zm3.934 8.508.356.84 1.728.656zm4.646-2.096-1.43-3.117-2.382.42zm-12.93-11.802-.356-.301h-1.013l.417.419zm13.347 8.685.715 1.619c0-.6.06-1.2.06-1.799l-.18-.239-.833.18zm-3.873-4.613.417.48.418-.06zm-37.774 6.892h.058l-11.975-4.376.238-.72 12.631 4.614 8.4-3.894 6.794 2.516-9.295 4.316zm8.996 3.292 9.355-4.372 6.791 2.517-9.294 4.314-4.171-1.499-14.418-1.257.058-.721zm8.997 3.297 9.355-4.374 6.793 2.517-9.297 4.312-4.825-1.738h-14.54v-.717zm9.057 3.293 9.294-4.372 6.614 2.395c.06.061.06.122.06.18l-3.218 1.499-.238-.18-1.49-1.078-1.013 1.5-.417.596-.654.958-2.145.96-5.245-1.859-14.418 1.26-.118-.719zm8.996 3.297.776-.361.237.18 1.67 1.14-1.311-.482-14.3 2.518-.12-.72zm5.302-2.518 2.206-1.016c.654 1.377 1.61 2.454 3.098 3.295l.417.78-.834.358zm2.266 6.953-11.441 3.053-.177-.719 10.843-2.875zm3.634 6.107-5.242 2.458-.299-.66 4.588-2.157zm11.737-34.268 6.851 1.68-3.395-7.97-3.693-.897c.297 2.096.297 4.492.237 7.187m7.865-8.025-9.712-8.21-.477.541 10.31 8.687.773 9.224 5.6 4.735-.893-10.305zm7.388 6.17.895 10.303 3.277 2.757c.356-2.696.773-5.452 1.37-8.15v-.238l-3.397-2.875-8.341-11.922-.596.42zm6.137 2.696-4.468-7.789-.655.36 4.825 8.386c.06-.058.06-.119.06-.18zm14.478 24.203.478.48-.12-1.798c-.12.419-.238.899-.358 1.318m1.55-6.65.714 8.626 5.601 4.674-.536-5.932a194 194 0 0 1-2.621-6.23l-3.04-2.576c0 .477-.058.957-.119 1.437m7.805 11.98.238 2.817.238.18h.119l.06.178 1.37 1.138c-.418-.778-.774-1.616-1.132-2.394-.298-.66-.597-1.259-.893-1.92m6.494-12.28-.238-2.697-.715.06.06.958c.296.54.594 1.14.893 1.679m-51.775-13.778 7.685-.66 5.54 4.673-10.247.897-2.978-2.515zm4.764 6.409 10.25-.9 4.17 3.537c0 .419-.06.896-.118 1.318l-8.7.777-1.49-1.257-.357-.54-.119.12-1.49-1.257-7.09-3.297c.06-.239.06-.539.06-.778zm7.33 6.23 6.732-.598c-.179 1.198-.356 2.397-.596 3.535l-.892-1.557-1.61.897-.476.3-1.491-1.258-2.68-.957-.774-1.02zm-6.077-1.498-1.253-.419-.891-1.138 2.857 1.077-.296.18zm8.698 7.129-.595-.898h.118l.238.422zm20.794 5.93 1.489-.119 5.6 4.735-5.302.417-1.31-3.594zm2.383 6.65 3.812-.358.24 1.139.655 4.013-2.918.241zm8.522 1.139 2.859 2.397c.059.24.177.42.298.659l-2.562.18zm-12.812-.12-.952-.058c.058-.241.18-.48.238-.719h.477zm14.837 10.067-.297.059-.895-5.152 3.097-.24c.12.3.299.54.417.837l-1.786 3.416q-.27.54-.536 1.08m-5.244-3.116-.953-.78-1.728.18-.237-.717 2.62-.24zm-44.923-17.493.535.059-.535-.958v.9m-14.777-11.144-8.281-5.87-.417.597 8.758 6.231c0-.358 0-.658-.06-.958m15.431 2.338.238.119 1.609 9.165 5.957 4.194-1.786-10.184-5.9-4.135c0 .24-.058.54-.118.84m7.925 4.612 1.786 10.184 5.483 3.894c.06-.36.118-.658.237-.96l-1.549-8.924-3.693-2.576-9.294-11.144-.299.242c0 .178 0 .358-.06.476zm7.804 5.513.715 3.894c.18-.6.298-1.2.477-1.86.12-.358.238-.719.359-1.138l-8.104-11.621-.596.419zm14.122 18.871 1.489 1.018-.597-3.296a96 96 0 0 0-.892 2.278m-11.143-23.247-.953-1.736-.654.358 1.37 2.337c0-.058.06-.12.06-.239zm13.228 18.152 1.31 7.49 5.958 4.194-1.787-10.184-4.766-3.355c-.238.6-.476 1.258-.715 1.855m7.389 2.817 1.728 10.186 2.918 2.037c.06 0 .06 0 .06-.06a58 58 0 0 0 2.085-3.176l-.893-4.794-4.885-3.475-4.946-13.658c-.12.419-.238.777-.299 1.198 0 .061-.058.061-.058.061zm8.58 5.75-2.385-13.836-.715.117 2.562 14.738c.179-.358.358-.717.537-1.018m-57.2-19.89-10.425-7.368.417-.598 11.022 7.788 7.328-1.318.299.178v-.239l1.43-.238 5.957 4.193-10.128 1.797zm7.805 5.513 10.13-1.796 5.958 4.191-10.129 1.799-3.635-2.576-13.584-4.974.238-.716zm7.866 5.512 8.102-1.438c-.237 1.977-.237 3.714.18 5.213l-2.325.419-4.229-2.937-14.003-3.833.18-.66zm7.865 5.512 1.071-.18a7.7 7.7 0 0 0 1.789 2.218l-1.49-1.02-14.3-2.575.12-.721zm14.895 1.619 1.132.777-1.49.3zm-7.091 3.952.24-.06c.654.418 1.25.96 1.846 1.498l-.893-.6-14.421-1.318.06-.719zm6.136-1.08 3.994-.718 5.957 4.194-10.13 1.798-1.071-.84.596-2.396c.18-.658.417-1.377.654-2.037m1.789 6.593 10.068-1.799 2.92 2.04c-.834 1.135-1.549 2.154-2.203 3.053l-4.886.899-4.946-3.475h-.238l-.298-.78-1.668.658-.358.122H791.24v-.718zm8.698 6.17-.058-.06-5.601 1.017-.298-.718 6.672-1.2c-.238.361-.477.66-.715.96m-10.01 1.676-4.17.78-.12-.719 3.993-.719zm46.177-8.387 4.646 6.291-2.44 8.327-5.126-6.95 2.205-7.55-2.503-14.257.715-.118zm-6.912 9.167-1.965-11.144.714-.12 1.966 11.083zm1.49 2.337 7.15 5.093 1.25 7.189-2.025-1.44v-3.115h-4.351zm6.375 12.818 1.728 1.2c-.597.718-1.132 1.439-1.728 2.158zm-5.422 4.793-.358-.599.12-.237zm13.524 29.357.538 2.815-.12.3-1.012-.719zm-.832 4.253.654.48-.298.839-.118-.42.298-.48-.536-.36zm2.858 7.13.24 1.316-.597-.358zm.656 3.654.059.48-.357.66-.477-1.68zm-2.324-65.722-2.205-12.582-.713.122 2.322 13.3-5.303 7.608 1.253 6.95c.296-.419.654-.78 1.01-1.14l4.887-7.07zm1.668 9.467-1.608 2.395.476 2.038c.358 1.498.894 2.814 1.49 4.132l.894-1.376-.775-4.373 1.251-14.499-.715-.06zm1.67 9.525-.478.659c.298.599.596 1.138.894 1.676l-.06-.239 2.503-14.38-.715-.177zm3.038 7.19 2.68-10.126-.714-.18-2.443 9.287c.119.298.298.66.477 1.018m-5.542 20.548.596 3.294.358-1.138.655-1.676 1.668.596.717.242.833.358 2.264-3.293-1.013-5.753 4.944-13.659-.654-.24-3.158 8.689c-.358 4.491-3.1 8.266-7.21 12.58m7.448.718-2.742 4.014-2.62 7.191.774 4.43 2.74-3.893.18-.359.894-1.557.178.12 1.907-2.757-1.072-5.929 6.137-13.303-.657-.297zm-.059 21.028 3.04-4.374-.657-3.533-.238.48-5.363 9.284c.596-.358 1.192-.658 1.728-1.017zm2.145-9.585-.18-.959 8.224-11.8-.596-.419-8.699 12.46.594.358zm-63.04-137.97c5.779 18.39 10.963 32.647 17.278 46.308 1.311 2.754 2.623 5.512 4.052 8.266a57 57 0 0 1 2.145-3.594l-7.566-17.374 8.4 16.057c.12-.122.359-.54.477-.72l1.25-1.797a125 125 0 0 0-1.846-4.075c-6.316-13.658-13.824-26.837-24.19-43.072m21.687 80.936 4.648 6.35-2.443 8.267-5.123-6.95 2.203-7.49-2.501-14.258.714-.119zm6.376 9.046.357-1.857.179 1.077zm.298-2.037-.12-.6v-.12zm-.416-1.56-3.22-12.28.655-.18 1.551 5.751 1.19 6.95zm15.61 60.21.535 1.977-.715-.42-.18-1.018zm.177 3.654.955.539 1.786 6.771c-.058.059-.119.12-.178.12l-3.635-2.098 1.193-1.677.296-1.377zm-3.335 11.863-.24-.12-.536-1.977 2.145-3.056 3.158 1.858h-.058a215 215 0 0 1-4.47 3.295m-1.49-68.235-2.383-8.987-.18 1.798v.359l1.789 6.65zm-2.383-8.987-.656-2.396-.716.178.596 2.157zm3.931 18.091.596-1.077-1.786-6.77-.121.6-1.607 8.987.179-.6.476-1.739 1.727.482zm1.907-1.676v-8.985h-.715v9.945c.238-.302.478-.66.715-.96m.359 35.047.654 2.396 3.992-6.948a171 171 0 0 0-3.396 3.356 23 23 0 0 1-1.25 1.196m6.374-4.255-.119.181.654.48 1.193-4.313c-.358.36-.715.657-1.013 1.018zm-4.171 12.582.894 3.416 5.124-8.987-.596-2.278zm6.614-3.294-5.123 8.926 1.608 6.05h.06v-.058h.06v-.06q.713-.542 1.43-1.078l3.872-6.711-1.549-5.873 4.945-13.717-.655-.242zm2.8 10.305 7.149-12.462-.655-.42-7.925 13.9c.478-.36.955-.72 1.43-1.018m-39.323-60.091-2.206-12.58.716-.12 2.324 13.3 7.566 5.33 1.253 7.192-8.403-5.934zm1.667 9.467 8.403 5.931 1.25 7.25-8.4-5.934-.775-4.43-6.079-13.181.657-.3zm1.67 9.526 8.4 5.929 1.25 7.189-8.4-5.93-.893-5.09-7.27-12.643.655-.358zm1.667 9.465 8.4 5.931 1.254 7.19-8.403-5.932-.953-5.513-8.341-11.92.596-.42zm1.668 9.525 8.402 5.871 1.251 7.25-8.4-5.932-1.013-5.75-9.295-11.203.536-.42zm1.67 9.465 8.4 5.932 1.25 7.189-8.4-5.932-1.073-5.929-10.247-10.364.477-.48zm10.07 15.397 1.25 7.19-8.402-5.933-1.072-6.17-11.737-8.268.417-.597zm-2.325-65.716v.06l-2.205-12.64-.715.118 2.324 13.36-5.303 7.608 1.311 7.19 5.839-8.448zm1.668 9.526-5.899 8.445 1.25 7.19 5.9-8.446-.774-4.435 1.311-14.438-.775-.12zm1.667 9.465-5.896 8.446 1.25 7.25 5.9-8.509-.895-5.09 2.562-14.379-.715-.12zm1.67 9.526-5.899 8.446 1.25 7.19 5.9-8.447-.955-5.512 3.754-14.14-.713-.18zm1.668 9.465-5.9 8.449 1.251 7.188 5.9-8.448-1.014-5.751 4.947-13.661-.657-.298zm1.669 9.524-5.899 8.448 1.251 7.19 5.899-8.508-1.013-5.931 6.136-13.238-.656-.302zm-4.231 17.915 1.25 7.189 5.899-8.446-1.073-6.173 8.223-11.801-.596-.42zm-33.664-67.279-4.469-12.46.657-.3 4.29 11.802c-.18.3-.298.658-.478.958m-3.635 12.52-4.348-12.04.655-.239 4.648 12.7 7.983 3.773c.119.302.298.6.417.902l1.073 2.393 1.37 3.716-9.355-4.374zm3.279 9.049 9.294 4.374 1.786 4.91-.237.24-.596.48-.359.299-7.447-3.475-1.488-4.192-8.282-11.923.594-.42zm3.277 9.045 6.255 2.937.475.6 3.994 4.732 1.071 2.934-1.192-.539-1.309-1.318-.42.48-6.135-2.876-.417-.48-1.61-4.493-9.352-11.144.594-.478zm4.885 9.826 2.74 1.258-1.014 1.018zm4.766 6.112v.058l-.357-.477zm-11.558-4.016-2.145-1.798.475-.6 1.074.96zm4.527 11.083-4.29-3.056.417-.6 3.397 2.399zm4.648 11.263-6.793-3.175.298-.659 6.078 2.815zm-.417-48.226c-.06.058-.12.18-.24.3-.118.178-.298.48-.654.957l-.596.839 1.013 2.756.06-.061.594-.42 1.311-.957.24-.478zm2.74 4.672-.06.06.06.059.357.48zm-1.012 6.35 1.19 3.297.298.358.359.42.417-.9zm3.335 4.735-.356.719 2.68 3.175-.119-.66zm1.311 21.866-17.993-23.426c8.222 19.951 11.38 36.186 24.845 53.8l3.814-2.159-7.566-14.378 9.352 13.359c1.074-.6 2.206-1.258 3.576-1.976l-.357-1.857-8.044-4.852-.833-3.594-.955-5.452-11.141-7.849-1.489-1.017 1.072-1.498.417-.6 1.012-1.496 1.49 1.019zm52.432 19.171 2.443-18.572-8.282 20.008c.536 2.336.715 4.374.536 6.233l1.789-6.711.475-1.738 1.788.48.715.178zm-49.511 85.853-1.074 4.011c1.132 0 2.266-.059 3.337-.117.478 0 1.013-.06 1.489-.06l3.278-1.92 1.607-6.048 12.394-7.189-.358-.662zm-1.728-.479-1.25 4.553c-.657.058-1.373.058-2.088.058l-3.693-6.472.357-1.496 3.872-1.438zm-5.662-8.387-.237-.36.356-.84.538.957zm27.527-48.11-.536.542-6.255 6.287.298-.238 1.43-1.137.774.956 6.136-3.592 1.132-4.314.179-.301c-.536.301-1.072.6-1.549.901-.535.298-1.073.6-1.609.897m1.253 5.094-4.47 2.574.953 1.14-1.43 1.14-5.064 4.314-.357 1.496 1.071-.78.717 1.019 6.673-3.835 1.31-5.031 8.342-11.984-.596-.356zm-2.503 9.284-5.124 2.998.834 1.199-1.49 1.018-.655.478a86 86 0 0 0 5.303-1.438l.654-2.577 9.355-11.2-.536-.483zm5.659 2.16 1.728-1.74-.536-.478-2.68 2.695c.118-.058.237-.058.297-.117.417-.121.834-.243 1.19-.36m-22.52 32.77-1.372 5.211 8.877-5.152 1.43-5.214c-.834.121-1.786.302-2.74.482q-.536.086-1.072.18l-3.814 2.155.596 1.677-1.668.599zm6.97-33.01-.18.537-.179-.297zm-1.61 1.317.299.478-2.324 1.618.298-.6zm-7.447 32.47-1.013 3.956-1.728-2.939zm-4.944-2.813-.776-1.38c1.728-.059 3.517-.18 5.243-.301zm23.772 1.794-.954 3.596-1.37-2.276zm-4.468-2.457-1.312-2.276 1.251-.716c.121 0 .24 0 .359-.064a194 194 0 0 0 3.574-.536l.596 1.019zm6.196-4.011-.118.478-.24.121-.238-.482c.18-.058.357-.058.596-.117m3.455-30.315.477.78-3.754 3.772-.238-.36zm4.648-5.571 1.013 1.676-1.549 5.693-.535-.54-.478-.537-1.31-1.262-.12.121-.536-.959zm1.907-10.303 1.549 2.695-1.847 7.068-.477-.84.596-.716-1.37-1.14-.596-.478v-.063l-1.073-1.857zm3.396-4.196-1.25 4.674-1.074-1.979.118-.18-.415-.298-.297-.477c1.012-.6 2.025-1.2 2.918-1.74m-12.928 55.536-1.432 5.39 8.877-5.15 1.61-6.05 12.452-7.192-.356-.659-19.185 11.146.594 1.078-1.607.896zm1.488-5.512-.417 1.497.06.063 4.647-2.696c-1.37.42-2.74.776-4.29 1.136m16.444-29.476 7.746-9.285-.536-.478-8.341 10.006h.06zm1.311-9.046-8.877 5.152-1.61 6.052c.955-.238 1.848-.54 2.802-.779l5.839-3.353 1.31-5.035 8.34-11.921-.594-.42zm2.504-9.285-8.878 5.152-1.907 7.067 8.878-5.151 1.192-4.373 7.207-12.579-.596-.36zm2.501-9.347-.058.062 3.335-12.4-.715-.183-3.514 13.061-5.662 3.354c-.773.599-1.549 1.199-2.443 1.74l-1.728 6.589 8.88-5.152zm-3.04-18.511 1.67-6.41-.656-.238-1.37 5.032c.06.297.12.597.18.836.058.302.119.539.177.78m-25.081 88.602-1.432 5.571c-.475-.059-.892-.059-1.309-.117l-3.873-6.77 4.409-2.578zm-4.886-8.626.536.96-.954.536zm6.673 9.104-1.37 5.215 2.264.18 6.136-3.534 1.61-6.053 12.391-7.189-.356-.658zm-39.98-.6-2.144 4.737c.952.118 2.025.24 3.097.298.06.059.12.059.24.059l5.421-1.975 2.622-5.692 13.465-4.913-.24-.72zm-1.609-.775-2.501 5.332c-.358-.063-.715-.063-1.074-.121l-3.039-8.267 2.623-5.692-4.886-13.54.714-.239zm35.69-55.357-9.653 3.534-3.098 6.653 9.653-3.538 1.906-4.075 9.296-11.141-.538-.478zm-4.05 8.745-9.653 3.538-3.1 6.647 9.653-3.533 2.205-4.732 10.247-10.304-.477-.54zm-4.053 8.748-9.652 3.534-3.098 6.589 9.65-3.533 2.385-5.03 11.141-9.407-.476-.54zm-4.052 8.69-9.652 3.533-3.098 6.648 9.653-3.534 2.501-5.272 11.856-8.389-.417-.599zm-4.052 8.743-9.65 3.534-3.1 6.653 9.713-3.534 2.501-5.512 12.572-7.31-.357-.6zm-13.703 12.282-3.097 6.59 9.711-3.534 2.62-5.634 13.468-4.971-.24-.658zm15.075-54.157 3.514 9.704-3.039 6.652-3.515-9.708 1.848-4.074 2.5-14.315.718.117zm-4.052 8.748 3.514 9.704-3.037 6.648-3.517-9.704 2.145-4.732 1.25-14.559.777.06zm-4.052 8.744 3.516 9.708-3.039 6.59-3.517-9.708 2.324-5.03v-14.618h.716zm-4.05 8.748 3.514 9.704-3.039 6.59-3.515-9.705 2.444-5.272-1.254-14.496.717-.063zm-4.052 8.744 3.514 9.65-3.04 6.648-3.514-9.704 2.503-5.512-2.503-14.378.716-.122zm-.537 18.394-3.039 6.652-3.516-9.767 2.622-5.63-4.886-13.539.657-.301zm51.538 17.374c-6.793 3.534-12.93 6.891-18.65 10.186-1.488 4.192-3.276 7.068-5.481 8.924l.179.361.358.6.177.356c7.39-5.927 14.956-12.58 23.417-20.427m-32.531 22.347c-1.789.18-3.694.117-5.72 0-1.013.717-2.026 1.379-3.04 2.096h5.124zm-98.247 19.588-2.683 9.947-5.54 3.236c.894-3.714 1.966-7.19 3.456-10.425l3.277-1.92 8.342-11.98.596.42zm8.282-4.85-2.622 10.005-6.316 3.652 2.68-10.006 4.41-2.574 1.787-2.096.359.18c.119.06.177.06.298.118zm.18 5.751 1.548-5.872c.596.238 1.131.54 1.667.838l-.18 2.515zm-2.738 12.64-7.448-1.974-6.315 3.651 9.948 2.637 2.444-1.375-.18-.063 1.432-1.136zm.596-6.648-6.078 3.475 5.659 1.555zm57.02-13.418h-6.377c1.67.537 3.337 1.077 5.065 1.614l11.856-6.887-.356-.658zm3.038 2.993 1.845-.838-.296-.658-2.563 1.199c.358.117.656.18 1.014.297m-23.357 17.434h-3.217l-.119 1.199-1.846-.122-5.662-.537-4.587 4.611h6.732c1.372-.238 2.8-.419 4.171-.6l3.514-3.532 2.564-.659c-.358-.18-.715-.36-1.013-.478zm-22.343 18.754h3.695l.595-.6c-1.43.239-2.86.42-4.29.6m13.942-23.248-.775.78-.715-.059v-1.438c.298.18.657.298.955.478.177.059.356.18.535.24m-3.157-1.555v2.096l-2.383-.18 2.324-1.98a.06.06 0 0 0 .059.064m-1.61 6.41-3.514 3.533v-3.835zm-5.184-.479v5.63l-1.607 1.677c-1.192.239-2.324.481-3.516.72v-4.313l.596-.18 4.17-3.534zm-11.856 9.582v-2.334l3.516-3.534 1.607.18v4.49c-1.728.36-3.453.78-5.123 1.198m1.49-13.057-5.6 4.67 10.247.9 4.767-4.014 14.299 1.257.06-.716zm-1.192-1.378-5.54 4.673.894-10.308 4.765-4.011 1.253-14.378.713.059zm55.65-35.048-10.249-.897-5.6 4.732 10.248.898 3.456-2.876 13.048-6.17-.297-.658zm-7.329 6.229-10.249-.897-5.599 4.674 10.247.897 3.934-3.295 13.642-5.03-.238-.663zm-7.39 6.17-10.186-.897-5.6 4.674 10.246.897 4.232-3.592 14.061-3.777-.179-.658zm-7.326 6.175-10.25-.901-5.54 4.732 10.248.901 4.469-3.777 14.24-2.515-.118-.72zm-7.329 6.229-10.249-.898-5.54 4.67 10.247.901 4.59-3.894 14.476-1.258-.058-.72zm-17.578 5.273-5.54 4.67 10.189.96 4.825-4.075 14.24 1.257.061-.716zm36.405-42.656-.894 10.304-5.54 4.674.894-10.308 3.395-2.876 8.281-11.858.597.42zm-7.327 6.171-.894 10.303-5.543 4.733.895-10.303 3.933-3.354 7.268-12.642.596.36zm-7.329 6.229-.894 10.303-5.6 4.674.952-10.303 4.231-3.597 6.137-13.238.654.298zm-7.328 6.17-.895 10.303-5.6 4.674.894-10.244 4.469-3.773 4.944-13.661.715.239zm-7.33 6.233-.893 10.245-5.601 4.732.894-10.307 4.587-3.894 3.813-14.135.657.239zm-8.28 16.474-5.543 4.673.894-10.303 4.767-4.015 1.25-14.378.715.117zm-21.629 30.495c28.48-2.1 48.738-6.35 79.478-16.176-33.246 1.438-53.98 4.493-82.817 12.94l1.25 1.375 28.899-5.747 17.098-2.88h.18l-.12.063-18.588 3.655-26.635 5.751c.477.478.715.6 1.253 1.019zm22.104 24.56 3.933-1.858-5.957-8.387 6.732 8.027 4.11-1.916-7.983-9.465 8.997 8.987 4.229-1.978-10.366-10.425 11.677 9.825 4.409-2.095-13.286-11.142 14.895 10.425 4.588-2.16-16.624-11.682 18.53 10.786 4.827-2.276-20.199-11.683c-.833.118-1.609.298-2.443.42-1.012.176-2.084.356-3.157.536l-2.92 2.938c-9.235 0-14.12-.599-20.376-.062zm12.573-27.08 22.461 10.665 5.063-2.335-18.588-8.807h-6.316c-.893.18-1.726.36-2.62.478m-21.034-11.56-5.361-2.096-6.258 3.655-3.573-1.14-5.006 2.578 3.574-3.358-3.453-1.375 1.308 1.434-2.382 2.997.654 1.56 4.293-1.678 1.369 1.137-3.992 3.713 13.347-7.067-12.811 8.145.834 1.199 11.618-4.494 4.35-3.232zm82.46-34.628h-10.248l-5.182 5.151h10.307l3.159-3.173 12.51-7.252-.356-.658zm-6.792 6.77H807.21l-5.124 5.151h10.247l3.635-3.656 13.168-6.17-.298-.658zm-6.733 6.828h-10.307l-.119.18c1.788.658 3.575 1.379 5.303 2.217l1.847.839 2.086-2.038 13.642-4.97-.237-.718zm1.968-18.39v3.476l-5.124 5.151v-9.167s.059 0 .059.058h.535c.299.064.597.064.895.122h.356c.12 0 .24.058.298.058h.417c.06 0 .06.064.06.064h.357c.656.058 1.192.117 1.73.175h.058c.119 0 .238.064.359.064m-6.793-.063v10.367l-5.124 5.152v-3.417l3.158-1.857 1.607-.897-.952-1.56-.357-.658-.894-1.555-1.549.898-1.013.54v-1.857l3.634-3.655 1.012-2.159c.24 0 .538.063.775.063zm-6.733 6.833v1.136l-2.74 1.618 1.49-1.555 3.157-8.568.892-.302zm0 6.229v2.457l-.119-.181-.298-.658-.477-1.077zm-.238 4.376-.537.478c-.12 0-.238-.059-.356-.121l.118-.059zm-6.911-5.336 1.488-5.45.775-.238-1.37 5.21zm-18.352 25.763v-1.258l2.68-.72c.834.418 1.67.72 2.504 1.018v.063l-.477.058z"/><path fill="#1f1a17" d="M607.79 191.974h185.118v182.127c0 37.562-39.86 31.932-58.926 31.932-14.658 0-20.913.357-33.604 11.562-12.75-11.205-19.008-11.562-33.664-11.562-19.066 0-58.927 5.63-58.927-31.932V191.974z"/><path fill="#de411a" d="m787.547 385.057-.773 2.159-.955 1.916-1.071 1.74-1.251 1.617-1.313 1.438-1.488 1.258-1.55 1.136-1.727 1.08-3.693 1.736-4.113 1.317c-2.203.54-4.409.96-6.672 1.32-3.098.36-6.197.6-9.355.658-5.899.121-11.798-.121-17.695-.239-6.138 0-12.333-.121-18.412 1.2-2.205.535-4.229 1.257-6.315 2.154-2.264 1.077-4.29 2.275-6.374 3.714a62 62 0 0 0-4.41 3.357 75 75 0 0 0-6.614-4.796c-2.383-1.437-4.707-2.573-7.329-3.533a47 47 0 0 0-6.435-1.497c-5.004-.658-10.128-.599-15.193-.599-5.898.118-11.737.36-17.636.24-3.157-.06-6.255-.299-9.413-.659-2.265-.36-4.41-.78-6.674-1.32l-4.111-1.317-3.694-1.735-1.668-1.081-1.608-1.136-1.43-1.258-1.37-1.438-1.192-1.617-1.073-1.74-.953-1.916-.835-2.159-.654-2.335-.478-2.636-.297-2.876-.12-3.173v-70.515h177.555v70.515l-.119 3.173-.298 2.876-.536 2.636-.656 2.335z"/><path fill="#fff" d="M643.953 287.585c-4.826-.24-9.653-.42-14.48-.478-6.076 0-12.093.179-18.111.719v-17.674c4.23 0 9.056.777 13.942 2.516 9.472 3.354 16.504 9.285 18.649 14.917m5.6-10.064v.058c1.013.483 1.967 1.02 2.92 1.5 1.787 1.018 3.396 2.036 4.825 3.474a8.6 8.6 0 0 1 1.49 1.796c.954 1.44 1.669 2.937 2.145 4.554-4.945-.419-9.83-.838-14.776-1.137v-.242a33 33 0 0 0-1.132-2.515l-1.013-1.678c-.596-.837-1.192-1.558-1.848-2.335a28 28 0 0 0-2.322-2.279 30 30 0 0 0-2.622-2.156c-1.37-.958-2.681-1.796-4.111-2.576 0-.059-.06-.059-.06-.059 1.668.059 3.396.18 5.183.42 4.171.599 7.985 1.676 11.32 3.175m-12.453-5.332c-.833-.12-1.728-.18-2.561-.242-1.312-.058-2.562-.058-3.873-.058-.537 0-1.072.058-1.61.12-1.011-.48-2.024-.839-3.037-1.258l-2.563-.778c-1.667-.48-3.277-.899-5.005-1.2-1.191-.179-2.382-.359-3.634-.478-1.191-.12-2.323-.12-3.455-.178v-5.873c1.728.06 3.515.18 5.362.42 9.056 1.318 16.623 5.033 20.376 9.525m2.325-6.11c0 .06.06.118.06.178l2.085.9c.774.419 1.43.899 2.145 1.379.774.597 1.43 1.196 2.084 1.855a32 32 0 0 1 1.848 2.217l.893 1.618.298.777c-.893-.297-1.787-.657-2.68-.957-1.252-.359-2.504-.72-3.755-1.019-.833-.12-1.668-.3-2.502-.48-.358-.6-.774-1.196-1.252-1.737l-1.37-1.436a24 24 0 0 0-2.324-1.917c-.893-.661-1.787-1.2-2.68-1.799-1.014-.539-2.026-1.077-3.098-1.557-.299-.12-.656-.24-.954-.42 4.17.3 7.984 1.139 11.202 2.398m-16.088-4.435h-1.013c-.06 0-.119 0-.238.061a8 8 0 0 0-1.132-.3q-1.965-.45-3.933-.718l-1.31-.18c-1.49-.12-2.92-.24-4.35-.24v-6.23c1.669.419 3.516 1.018 5.244 1.856 2.74 1.377 5.302 3.295 6.732 5.751m5.362-4.013.06.06c.775.24 1.49.478 2.146.778a20.6 20.6 0 0 1 4.408 2.396c.656.48 1.252 1.02 1.787 1.56.24.177.478.418.656.657.119.121.18.241.298.359l-1.787-.537a66 66 0 0 0-4.768-.9 41 41 0 0 0-3.812-.36c-.716-.058-1.37-.058-2.086-.058l-.714-1.319-1.013-1.44a21 21 0 0 0-2.026-1.915l-1.252-1.019c2.92.3 5.661.9 8.103 1.738m-5.72-5.033c.895.54 1.729 1.02 2.563 1.619.238.239.477.419.655.599-1.31-.3-2.562-.541-3.932-.72a39 39 0 0 0-3.814-.36c-.654-.06-1.31-.06-1.906-.06-.656-.24-1.252-.539-1.847-.778-1.133-.358-2.204-.719-3.277-1.018h-.06v-1.558a25.6 25.6 0 0 1 7.984.897c1.251.361 2.444.841 3.635 1.38"/><path fill="#007cc3" d="M611.245 299.752v-10.245c8.579-.898 16.921-1.018 25.262-.779 8.58.3 17.16 1.018 26.038 1.918-.775-3.175-1.55-6.051-3.755-8.868-2.204-2.754-5.362-4.372-7.864-5.69-.894-5.154-6.078-9.887-9.711-11.263-1.073-2.457-1.848-3.295-4.052-5.092-2.205-1.858-3.814-2.517-6.316-3.355-3.873-5.631-11.678-8.146-19.602-7.371v-53.198H788.8v103.946H611.245z"/><path fill="#fff" d="M714.083 211.503c1.311-1.557 2.918-1.319 4.05-.059 1.253 1.438 1.49 4.733 3.934 6.83 3.097 2.754 6.495 2.396 8.877 1.977.834-.06 3.098-.84 4.41-2.04 1.012-.896 1.55-2.814 0-3.353-.537-.24-1.191-.419-.954-1.018.298-.72 1.013-.42 1.43-.12.18.12.536.42.776 1.02.176.657.176 1.257 0 1.853-.12.541-.478 1.082-.894 1.619-.299.36-.597 1.559.356 2.339 1.131.956 3.754-.48 5.542-2.34 1.549-1.618 2.501-3.533 1.072-4.371.775-1.977 2.205-2.157 3.872-2.337-.595.18-1.609.539-2.026 1.438-1.667 3.536 2.206 5.45 4.53 4.135 3.873 1.857 10.664-1.56 12.87-4.793 1.548-2.337.714-5.454-1.312-6.11-3.812-1.26-2.978-4.435-2.087-5.154 1.016-.84 2.266-1.018 3.16-1.077-.595.18-1.55.237-2.443 1.377-.835 1.199-.416 3.534 1.072 4.433 1.013.658 3.516.06 4.946-.359 1.43-.36 4.05-1.856 4.765-3.055.955-1.68 1.372-2.995 1.013-4.134-.177-.838-1.19-.838-1.728-.72-.594.121-1.071 0-1.132-.6-.058-.478.359-.838 1.311-.777 1.49.119 2.085 1.198 2.027 2.217-.06 1.316-.655 2.695-1.251 3.775.417-.48 1.488-2.04 1.905-3.416.298-.959.298-2.157.24-2.876h-28.957c-1.43.48-2.145 1.077-2.145 1.077s1.786-.658 3.514-.178c.657.178 1.193.777 1.61 1.377.654 1.14.834 2.636.417 2.936-.536.359-.834.122-1.132-1.676-.536-3.056-3.635-2.398-4.707-2.157-1.073.239-2.74 2.157-3.039 2.695-.298.539-2.026 4.313.477 5.87 2.444 1.56 5.422-1.498 5.422-1.498s-.359 1.679-2.504 2.459c-2.144.777-4.944-1.68-6.195-3.175-1.252-1.5 1.072.058-2.265-3.237-3.335-3.355-8.34-2.934-8.34-2.934.536.117 1.132.358 2.264 1.018 2.026 1.198 1.907 3.715 1.907 3.715-.477-1.26-.955-2.34-1.728-2.936-2.443-1.858-5.96-2.518-9.415-1.977-3.338.538-6.435 3.714-7.268 4.613-.238.239-1.966 1.915-3.515 2.215-1.372.3-3.396.48-2.862-.78.538-1.257 1.55.48 2.981.181.952-.18 2.263-.777 3.158-1.796-3.218-.96-7.152-1.86-9.295-1.918-6.495-.178-10.905 2.157-12.751 7.61h20.376z"/><path fill="#1f1a17" d="M683.16 207.311v5.09h2.62v11.622c-3.693 2.157-6.731 5.452-8.757 9.288-1.669 3.294-2.74 7.008-2.92 10.963h-4.826v5.99h-4.35v41.04h72.57v-41.04h-4.409v-5.99h-5.065c-.417-10.306-6.733-18.99-15.313-21.988v-5.693h1.43v-5.09l-5.72-4.192z"/><path fill="#fff" d="M684.648 208.747h22.343v2.217h-22.343zm19.066 13.659c-.596-.24-1.192-.478-1.788-.658v-8.985h2.443v9.942zm-3.991-1.197a17 17 0 0 0-1.728-.241c-.477-.059-.953-.118-1.43-.118h-1.549l-.655.06c-.954.058-1.908.238-2.86.418v-8.565h8.638v8.507zm-10.19.719c-.416.12-.833.239-1.19.419-.418.178-.776.3-1.073.48v-10.064h2.383v9.104zm-14.18 22.944c.06-.54.12-1.078.12-1.677l.12-.78.059-.778.179-.838.119-.78.178-.777.239-.78.238-.78.297-.777.24-.72.356-.777.299-.719.416-.72.36-.72.415-.657.417-.66.477-.718.476-.599.478-.66.535-.6.536-.6.596-.536.596-.54.597-.54.594-.479.657-.48.655-.42.716-.418.654-.42.715-.36.776-.358.714-.3.775-.3c.417-.119.774-.238 1.191-.358.417-.06.834-.18 1.25-.241l.418-.058v2.215c-.714.121-1.31.301-1.966.48l-.893.36-.894.359-.834.36-.835.478-.774.48-.417.3-.477.358-.477.358-.417.363-.476.417-.417.42-.418.36-.417.477-.357.422-.357.42-.358.48-.358.477-.357.48-.298.48-.297.477-.3.48-.297.54-.238.538-.239.48-.238.538-.238.54-.238.54-.179.538-.178.6-.18.539-.12.54-.238 1.138-.237 1.197-.12 1.138c-.118 1.558-.238 3.117-.297 4.615h-4.588v5.99h-4.41v35.947h-2.145v-38.164h4.35v-5.93h4.707zm25.085-21.626 1.07.358.776.242.717.297.713.36.715.3.715.42.657.419.715.419.593.477.658.483.596.48.595.538.537.6.535.536.535.6.538.6.476.66.417.657.477.659.417.66.358.719.417.718.298.72.357.719.298.777.237.721.3.777.178.78.237.778.18.78.119.838.118.78c.06.419.121.838.121 1.196.058.84.119 1.618.18 2.459h4.706v5.929h4.409v38.164h-2.205v-35.947h-4.349v-5.99h-4.59c-.118-1.62-.177-3.175-.356-4.793l-.06-.658-.12-.719-.118-.66-.119-.66-.18-.658-.179-.661-.176-.658-.24-.658-.238-.66-.298-.6-.238-.657-.298-.598-.358-.6-.299-.599-.356-.6-.417-.54-.535-.778-.596-.719-.597-.72-.596-.659-.655-.599-.714-.6-.657-.597-.773-.48-.717-.477-.774-.48-.833-.42-.776-.36-.894-.3-.834-.239-.893-.239-.537-.121v-2.215c.537.058 1.074.177 1.61.299m-5.839-.54h2.384v67.163h-2.384zm17.935 27.078H717v5.992h4.41v34.09h-6.85v-32.054l-.122-.657-.179-.66-.238-.66-.237-.6-.358-.538-.417-.539-.417-.48-.478-.419-.535-.42-.597-.357-.596-.3-.594-.24-.656-.12-.715-.12-.715-.061-.655.06-.654.12-.657.122-.654.239-.596.3-.538.358-.534.42-.479.418-.476.48-.416.539-.298.539-.298.599-.238.66-.18.66-.118.656v32.055h-2.087V227.02c.596.118 1.193.359 1.789.537l.535.18.536.241.538.24.536.299.477.239.536.301.477.36.475.358.478.36.417.358.475.42.419.418.593.6c.299.302.597.66.837 1.019.296.3.535.66.773 1.018q.359.54.715 1.08c.18.36.417.78.596 1.137s.356.78.535 1.2c.18.358.299.777.478 1.198.119.359.238.778.359 1.197l.356 1.258c.06.42.119.84.238 1.257.06.48.06.9.118 1.319.18 2.036.3 4.135.42 6.17m-19.723-22.763v62.844h-2.085v-31.333l-.06-.721-.119-.657-.178-.66-.239-.66-.239-.599-.357-.539-.417-.538-.417-.48-.476-.42-.537-.419-.595-.358-.596-.3-.596-.239-.656-.121-.715-.12-.655-.06-.715.06-.656.12-.655.121-.655.239-.596.3-.536.358-.536.42-.477.419-.476.48-.359.538-.357.539-.297.6-.239.66-.179.66-.119.656v32.054h-6.792v-34.09h4.35v-5.992h4.468c.119-1.318.178-2.574.238-3.894.06-.419.06-.838.119-1.257 0-.478.06-.9.12-1.377.059-.48.179-1.019.237-1.56l.239-1.018.239-.958.297-1.019.358-.957.179-.48.179-.478.476-.899.477-.9.536-.838.536-.78.656-.777.595-.719.715-.719.715-.66.715-.6.418-.297.774-.539.834-.482.417-.239.417-.18.477-.237.417-.182.477-.18c.596-.178 1.25-.42 1.906-.537zm44.687 61.945c17.101-.06 34.201-13.238 51.3-13.598v6.111c-17.099.24-34.199 9.763-51.3 9.825zm51.3-39.36v6.113c-17.099.716-34.199 25.7-51.3 25.819v-2.276c17.101-.18 34.201-28.817 51.3-29.657m0 8.806v6.172c-17.099.539-34.199 20.13-51.3 20.25v-2.336c17.101-.122 34.201-23.365 51.3-24.086m0 8.748v6.112c-17.099.419-34.199 14.738-51.3 14.797v-2.337c17.101-.061 34.201-18.03 51.3-18.572"/><path fill="#1f1a17" d="M729.155 389.255v-9.29h-3.873c-.538-.657-1.073-1.193-1.728-1.676-.24-.239-.538-.419-.834-.599-.3-.176-.538-.356-.894-.478-.298-.18-.657-.298-.955-.42l-1.07-.36c-.835-.239-1.67-.419-2.504-.599-.953-.18-1.966-.298-2.98-.478-1.192-.18-2.323-.477-3.455-1.14-.894-.537-2.203-1.614-2.68-2.515-.597-1.257-.417-2.696.775-3.475.833-.537 1.965-.838 2.918-.956 1.074-.18 2.205-.301 3.278-.423-.12-.658-.3-1.375-.537-2.033-.298-.662-1.25-2.1-1.907-2.637 3.693-.18 7.687-.482 11.74-1.32 4.527-.897 8.816-2.457 13.167-4.133 3.395-1.438 6.553-2.993 9.711-4.854 2.145-1.316 4.17-2.755 6.255-4.25.536-.483 2.504-2.038 4.171-3.237 1.25-.897 2.145-1.618 2.206-2.217 0-.42-.417-1.38-.657-1.798-.597-1.195-1.37-1.916-2.501-2.574a8.4 8.4 0 0 0-1.132-.42c-.478-.18-.955-.301-1.49-.419v-2.339h6.912c-.418-.955-.835-1.915-1.312-2.812-.477-.901-1.074-1.74-1.728-2.52-1.074-1.018-2.144-1.735-3.575-2.275v-2.935H646.217v2.935c-1.371.54-2.443 1.257-3.516 2.276-.714.78-1.25 1.618-1.787 2.519-.476.897-.834 1.857-1.252 2.812h6.912v2.34a14 14 0 0 0-1.55.419 7.6 7.6 0 0 0-1.071.419c-1.192.658-1.907 1.379-2.563 2.574-.178.419-.655 1.378-.596 1.798.06.6.954 1.32 2.146 2.217 1.727 1.2 3.634 2.754 4.23 3.236 2.026 1.496 4.11 2.935 6.256 4.25 3.099 1.862 6.316 3.417 9.652 4.855 4.35 1.676 8.64 3.236 13.228 4.133 4.05.838 7.983 1.14 11.737 1.32-.715.537-1.61 1.975-1.907 2.637-.238.658-.416 1.375-.596 2.033 1.132.122 2.205.243 3.337.423.953.118 2.086.42 2.92.956 1.132.78 1.37 2.218.774 3.475-.476.901-1.787 1.978-2.74 2.515-1.073.663-2.205.96-3.457 1.14-.953.18-1.966.298-2.978.478-.834.18-1.67.36-2.444.6l-1.072.36a7.4 7.4 0 0 0-1.013.419c-.297.122-.596.302-.893.478-.298.18-.537.36-.835.6-.595.482-1.19 1.018-1.668 1.676h-3.932v9.29z"/><path fill="#007436" d="M690.668 375.415a8.6 8.6 0 0 0 2.206-1.736c.595-.72 1.132-1.5 1.31-2.397.238-1.136.18-2.277-.536-3.295-.298-.42-.596-.659-1.013-.96h15.432c-.359.301-.715.54-1.013.96-.655 1.018-.776 2.159-.536 3.295.238.896.715 1.676 1.37 2.397a8.6 8.6 0 0 0 2.205 1.736zm62.023-40.858v2.456H648.007v-2.456zm.359-6.229c1.609.118 2.74.839 3.93 1.975.716.838 1.372 1.798 1.85 2.816h-116.9c.417-1.018 1.072-1.978 1.846-2.816 1.132-1.136 2.264-1.857 3.932-1.975h105.338zm0-2.758v1.32H647.652v-1.32zm-43.137 35.35c8.937-.063 14.238-1.14 20.256-2.818 6.674-2.217 12.692-5.034 18.59-8.865 3.336-2.339 6.435-4.795 9.593-7.37v-.062a6.8 6.8 0 0 0-.656-1.317c-.655-.896-1.489-1.496-2.8-1.856-2.503-.721-2.92-.659-5.54.297-3.1 1.14-6.614 4.733-9.89 8.451-2.146 2.393-4.828 4.79-7.807 6.59-5.957 3.713-12.333 5.39-21.746 6.95m-1.789-.96c0 .058.538 0 .775-.06 5.361-.598 6.852-.301 12.572-2.1 10.665-3.713 12.57-5.93 16.148-9.582 2.145-2.217 3.991-4.313 6.017-6.77 3.158-3.713-5.184-4.435-7.508-1.68-2.68 3.119-2.92 3.894-5.54 6.832-2.86 3.115-6.078 7.788-11.442 10.065-2.799 1.198-6.851 2.154-10.307 3.056-.237.058-.834.18-.715.238m-2.264-.42c.06 0 .417-.058.657-.121 4.23-.78 6.195-.897 10.366-2.574 7.806-3.114 8.64-5.57 11.797-8.928a84 84 0 0 0 5.066-6.59c2.44-3.592-5.005-4.011-6.614-1.496-3.219 4.97-3.694 7.247-7.746 11.619-2.802 2.938-7.566 5.692-12.93 7.67-.179.118-.833.299-.596.42m-2.62-.482c.117.063.475-.058.655-.058 3.337-.6 5.123-1.317 7.864-2.754 5.242-2.759 8.044-5.571 9.951-8.627 1.309-2.159 2.441-3.836 3.813-6.35 1.965-3.534-5.601-4.197-7.09-1.078-1.967 4.25-2.265 6.107-5.363 10.303-2.205 2.993-5.123 6.112-9.413 8.028-.12.059-.655.36-.417.536m-1.907 0c.119.063.417-.058.478-.058 2.263-1.02 2.442-1.317 4.466-2.754 3.933-2.759 6.018-5.571 7.983-8.627 1.134-1.798 1.908-3.836 2.921-6.35 1.43-3.534-6.374-4.616-7.865-.18-1.37 4.132-1.37 5.511-3.158 9.405-1.549 3.475-2.084 4.972-4.468 8.028-.12.117-.537.36-.357.536m-.715-.058c.18 0 .298-.18.356-.298 3.28-5.035 4.947-8.929 7.269-17.014 1.253-4.372-6.733-5.215-6.97-.18l-.774 17.014c0 .117 0 .478.119.478m-13.228 6.589h25.918a4.06 4.06 0 0 0-.953-1.618c-2.025-2.213-4.17-3.295-6.553-3.831-1.67-.42-3.458-.541-5.303-.6h-.24a20 20 0 0 0-2.74.18c-.892.06-1.727.18-2.562.42-2.383.536-4.587 1.618-6.613 3.83a6.2 6.2 0 0 0-.954 1.619m29.315 11.623c1.966.361 4.05.839 5.718 2.038.3.18.596.477.894.717H677.44c.24-.24.537-.537.834-.717 1.728-1.2 3.754-1.677 5.78-2.038.656-.12 1.311-.238 1.966-.297h28.718c.656.059 1.311.176 1.967.297m11.023 4.196v1.556h-54.696v-1.556zm0 2.994v3.416h-54.696v-3.416zm-36.941-23.483c-8.937-.062-14.18-1.14-20.198-2.817-6.673-2.217-12.691-5.034-18.65-8.865-3.336-2.339-6.434-4.795-9.532-7.37l-.06-.062c.239-.478.417-.956.715-1.317.595-.896 1.43-1.496 2.74-1.856 2.563-.721 2.98-.659 5.6.297 3.04 1.14 6.555 4.733 9.891 8.451 2.145 2.393 4.827 4.79 7.746 6.59 6.018 3.713 12.333 5.39 21.748 6.95m1.847-.96c-.06.06-.597 0-.834-.058-5.303-.6-6.793-.302-12.573-2.1-10.664-3.714-12.57-5.932-16.086-9.583-2.145-2.217-4.052-4.313-6.078-6.77-3.098-3.713 5.184-4.435 7.567-1.68 2.622 3.119 2.86 3.894 5.542 6.832 2.8 3.115 6.077 7.788 11.44 10.065 2.74 1.198 6.852 2.154 10.247 3.056.239.058.834.18.775.238m2.265-.419a3.6 3.6 0 0 1-.656-.121c-4.23-.78-6.256-.897-10.428-2.574-7.745-3.114-8.579-5.57-11.737-8.928a62 62 0 0 1-5.064-6.59c-2.502-3.592 5.004-4.011 6.613-1.496 3.158 4.97 3.634 7.247 7.745 11.619 2.742 2.938 7.567 5.692 12.93 7.67.18.118.774.299.597.42m2.62-.482c-.178.063-.535-.058-.655-.058-3.336-.6-5.184-1.317-7.925-2.754-5.183-2.759-7.984-5.571-9.95-8.627-1.31-2.159-2.442-3.836-3.812-6.35-1.907-3.534 5.66-4.197 7.09-1.078 2.025 4.25 2.264 6.107 5.362 10.303 2.204 2.993 5.183 6.112 9.414 8.028.178.059.715.36.477.536m1.847 0c-.06.063-.357-.058-.476-.058-2.205-1.02-2.443-1.317-4.469-2.754-3.873-2.759-5.957-5.571-7.985-8.627-1.071-1.798-1.846-3.836-2.858-6.35-1.431-3.534 6.314-4.616 7.805-.18 1.429 4.132 1.37 5.511 3.157 9.405 1.55 3.475 2.145 4.972 4.529 8.028.06.117.476.36.297.536m.775-.058c-.18 0-.358-.18-.358-.298-3.276-5.035-4.945-8.929-7.268-17.014-1.252-4.372 6.733-5.215 6.971-.18l.773 17.014c0 .117 0 .478-.118.478"/><g fill="#f8d407"><path fill-rule="evenodd" d="M99.192 160.79v-35.324h1.202v70.648h-1.202z"/><path d="M97.175 402.63h5.031v197.35h-5.031z"/><path fill-rule="evenodd" d="M86.142 157.17v-29.868h1.202v59.736h-1.202zm-17.118-3.01v-20.713h1.202v41.426h-1.202zm-14.037-.14v-11.68h1.202v23.36h-1.202zm58.493 2.66v-29.868h-1.207v59.736h1.207zm17.19-3v-20.713h-1.207v41.426h1.207zm14.1-.15v-11.68h-1.207v23.36h1.207z"/></g><path fill="#f8d407" fill-rule="evenodd" d="M96.206 264.85c-41.115-28.291-18.287-11.807-35.331-23.909l-30.988-22.003-.023-27.799c-.027-31.015-.081-26.609 1.585-25.165 3.547 3.073 22.538 14.656 26.033 17.164 10.636 7.623 23.633 14.697 32.978 21.867l5.352 4.116-.183 28.98c.306 11.035.692 23.185.576 26.749zm-.404 66.59c-41.115-28.291-18.287-11.807-35.331-23.909l-30.988-22.003-.023-27.799c-.027-31.015-.081-26.609 1.585-25.165 3.547 3.073 22.538 14.656 26.033 17.164 10.636 7.623 23.633 14.697 32.978 21.867l5.352 4.116-.183 28.98c.306 11.035.692 23.185.576 26.749zm-.334 66.98c-41.115-28.291-18.287-11.807-35.331-23.909l-30.988-22.003-.023-27.799c-.027-31.015-.081-26.609 1.585-25.165 3.547 3.073 22.538 14.656 26.033 17.164 10.636 7.623 23.633 14.697 32.978 21.867l5.352 4.116-.183 28.98c.306 11.035.692 23.185.576 26.749zM104.02 265.49c41.188-28.291 18.32-11.807 35.393-23.909l31.043-22.003.023-27.799c.027-31.015.081-26.609-1.588-25.165-3.553 3.073-22.577 14.656-26.08 17.164-10.654 7.623-23.673 14.697-33.036 21.867l-5.362 4.116.184 28.98c-.307 11.034-.693 23.184-.577 26.748zm.41 66.59c41.188-28.291 18.32-11.807 35.393-23.909l31.043-22.003.023-27.799c.027-31.015.081-26.609-1.588-25.165-3.553 3.073-22.577 14.656-26.08 17.164-10.654 7.623-23.673 14.697-33.036 21.867l-5.362 4.116.184 28.98c-.307 11.035-.693 23.185-.577 26.749m.33 66.98c41.188-28.291 18.32-11.807 35.393-23.909l31.043-22.003.023-27.799c.027-31.015.081-26.609-1.588-25.165-3.553 3.073-22.577 14.656-26.08 17.164-10.654 7.623-23.673 14.697-33.036 21.867l-5.362 4.116.184 28.98c-.307 11.035-.693 23.185-.577 26.749"/></svg>