<svg xmlns="http://www.w3.org/2000/svg" width="900" height="600"><path fill="#007000" d="M0 300h900v300H0z"/><path fill="#0070ff" d="M0 0h900v300H0z"/><path fill="#fff" d="M0 200h900v200H0z"/><circle cx="450" cy="300" r="75" fill="none" stroke="gold" stroke-width="10"/><circle cx="450" cy="300" r="16" fill="gold"/><g transform="matrix(2 0 0 2 450 300)"><path stroke="gold" stroke-width="2" d="M0 0h25"/><circle cx="25" r="5" fill="gold"/></g><g transform="matrix(1.7321 -1 1 1.7321 450 300)"><path stroke="gold" stroke-width="2" d="M0 0h25"/><circle cx="25" r="5" fill="gold"/></g><g transform="matrix(1 -1.7321 1.7321 1 450 300)"><path stroke="gold" stroke-width="2" d="M0 0h25"/><circle cx="25" r="5" fill="gold"/></g><g transform="matrix(0 -2 2 0 450 300)"><path stroke="gold" stroke-width="2" d="M0 0h25"/><circle cx="25" r="5" fill="gold"/></g><g transform="matrix(-1 -1.7321 1.7321 -1 450 300)"><path stroke="gold" stroke-width="2" d="M0 0h25"/><circle cx="25" r="5" fill="gold"/></g><g transform="matrix(-1.7321 -1 1 -1.7321 450 300)"><path stroke="gold" stroke-width="2" d="M0 0h25"/><circle cx="25" r="5" fill="gold"/></g><g transform="matrix(-2 0 0 -2 450 300)"><path stroke="gold" stroke-width="2" d="M0 0h25"/><circle cx="25" r="5" fill="gold"/></g><path stroke="gold" stroke-width="4" d="M450 300v50"/></svg>