<svg xmlns="http://www.w3.org/2000/svg" width="600" height="400" fill-rule="evenodd" viewBox="0 0 169.33 112.89"><path fill="#9000cc" d="M45.156 80.635v8.063h4.838v-1.612H46.77v-6.451zm6.451 0v8.063h4.838v-1.612h-3.226v-1.613h3.226V83.86h-3.226v-1.613h3.226v-1.612zm10.483 1.612v1.613h1.612a.806.806 0 0 1 0 1.613h-1.613v1.612h1.613a2.419 2.419 0 1 0 0-4.838zm1.612-3.225a5.644 5.644 0 1 0 0 11.289 5.644 5.644 0 0 0 0-11.289m0 1.613a4.032 4.032 0 1 1 0 8.063 4.032 4.032 0 0 1 0-8.063"/><path fill="red" d="M70.96 80.635v8.063h1.612v-5.062l3.225 5.062h1.613v-8.063h-1.613v5.062l-3.225-5.062z"/><path fill="#9000cc" d="M79.023 80.635h1.612v8.063h-1.612zm3.225 0v8.063h4.032a2.42 2.42 0 0 0 2.419-2.419v-3.225a2.42 2.42 0 0 0-2.42-2.42zm1.613 1.612h2.419c.445 0 .806.361.806.807v3.225a.806.806 0 0 1-.806.807h-2.42zm14.514-1.612-1.613 1.612h2.42a.806.806 0 0 1 0 1.613 2.42 2.42 0 0 0-2.42 2.42v2.418h4.838v-1.612h-3.225v-.807c0-.445.361-.806.806-.806a2.419 2.419 0 1 0 0-4.838zm10.483-1.613a5.644 5.644 0 1 0 0 11.289 5.644 5.644 0 0 0 0-11.289m0 1.613a4.032 4.032 0 1 1 0 8.063 4.032 4.032 0 0 1 0-8.063m7.257 1.612v6.451h1.613v-8.063zm3.225-1.612v4.838h2.42a.806.806 0 0 1 0 1.612h-2.42l1.613 1.613h.806a2.419 2.419 0 1 0 0-4.838h-.806v-1.613h3.225v-1.612z"/><path fill="#d61a0c" d="M0 0h169.33v112.89H0z"/><path fill="#fecc00" d="M0 75.259h169.33v18.815H0z"/><g fill-rule="nonzero"><path d="M91.206 17.982a.6.6 0 0 1 .338-.167c.131-.012.299.08.392.15a8.2 8.2 0 0 1 2.897-.668c1.457-.065 3.953.148 5.254 1.211 1.039.849 1.374 2.131 1.08 3.883.21.083.377.364.304.579a.8.8 0 0 1-.174.248c.432.905.67 1.742.73 2.725.636.212 3.733 1.106 3.733 2.086a3.67 3.67 0 0 1 1.215 2.31c.354.53.41 1.23.608 1.823.07.209.144.41.243.608.272.526.412 1.126.06 1.58.333.548.6 1.002.6 1.623.01.234.089.36.19.565.348.385.672.807 1.027 1.198.554.61 1.139 1.197 1.636 1.831 1.029 1.31 2.095 3.172 2.959 4.589.75 1.23 1.516 1.574 2.479 2.784 1.854 2.331 3 4.964 3.943 7.898.346 1.012.643 2.055.902 3.093.19.757.459 1.566.51 2.348.016.237-.006.478.01.766.06.982.42 2.028.818 2.903-2.155-1.39-2.418-2.867-3.04-5.166l-.364.73c-.54-.76-.61-1.434-.79-2.37l-.182.242c-.423-.651-.43-1.26-.608-1.945-.061.122-.061.304-.122.486-1.049-1.024-1.128-3.047-1.328-4.475-.172-1.228-.428-2.646-1.147-3.496.818 2.13 1.117 4.274 1.017 6.513l-.304-.122c.195.782.27 1.727 0 2.37.324.974.434 2.275.182 3.282.874 1.493 1.457 3.095 2.012 4.724.31.909.483 1.576.931 2.058.278.298.662.525 1.25.694.069 1.887.014 2.99-.159 4.587-.181 1.677-.56 3.476-.555 5.213.001.53.048 1.056.11 1.6.14 1.232.178 2.341-.125 3.551-1.455.274-2.603 1.331-2.978 2.614h-7.171c.497-1.81 2.095-2.948 4.254-3.04.085-.495.37-.984.73-1.458.964-1.016 1.947-2.607 2.005-4.072.096-1.352.089-2.807-.098-4.166-.17-1.242-.717-2.284-1.357-3.31-.623-.998-1.041-2.125-1.462-3.22-.435-1.174-1.391-2.17-2.431-2.918.291 1.433.282 2.422.152 3.588-.081.964-.035 1.911.3 2.824.142.387.276.731.095 1.125-.35.874-.853 1.745-1.338 2.552a109 109 0 0 0-1.8 3.194c-1.044 1.96-2.013 4.263-2.454 6.47-1.538.572-3.168 1.136-4.059 2.43h-6.76c.422-1.786 1.659-2.718 3.38-3.023a8 8 0 0 1 1.361-.136c1.022-.265.89-.656 1.155-1.155.185-.487.815-.923 1.195-1.277a14 14 0 0 0 1.586-1.881c.96-1.37 2.222-3.787 2.628-5.412.063-1.404-.2-3.752-.486-5.288-.406-1.29-1.87-3.387-2.575-6.412-.909-.911-1.655-2.05-2.4-3.092-1.255.615-3.212 1.374-5.053 1.117l.182.547a9.3 9.3 0 0 1-1.763.061l.122.182c-.827.387-2.247.607-3.95.243.162.163.418.29.607.426-1.153.057-2.309.11-3.464.06.947 3.01 1.321 6.39.364 8.57.518 2.61.378 5.062.468 7.514.013.541.492 1.492.662 2.663.146 1.001.017 2.252-.279 3.437l-.06.304c-1.503-.425-3.339 2.17-3.799 2.553h-6.473c.255-1.085.672-1.752 1.561-2.339a5.7 5.7 0 0 1 2.329-.882c.38 0 .531-.433.73-.73.371-.743 1.12-1.293 1.797-1.732.253-.165.501-.343.694-.577.303-1.198-.106-3.612-.425-4.802-.22-1.023-.533-2.853-1.094-3.828-.366-.366-.78-.7-.881-1.32-.258-1.583-1.32-3.884-1.806-5.146-.403 1.07-.732 1.975-1.568 2.758-.267 2.266-.976 3.052-1.64 4.255-.369.667-.4 1.16-.488 1.745a32 32 0 0 0-.363 4.782c0 .67.006 1.381.06 2.042v1.702c0 .182.017.426 0 .608-.017.183-.19.327-.425.425-1.561.65-2.327 1.7-3.282 3.039h-6.967c.163-1.074.672-2.105 1.642-2.66.661-.378 1.453-.529 2.225-.683l.304-.06c.324-.162.762-.578.82-.99.065-.477.35-.84.68-1.164.276-.272.68-.603 1.036-.92.312-.277.747-.65.831-1.093.21-1.104.308-3.207.41-4.123.227-2.054.171-2.884-.92-4.595.264-1.663.278-2.973-.06-4.673a2.4 2.4 0 0 1-.67.418c.12-.356.027-1.149 0-1.519a6.6 6.6 0 0 1-1.276.73c.281-.487.564-1.307.547-1.945-.477.391-.956.6-1.52.79.838-.89 1.078-1.653.912-2.796-.146-.734-.322-1.362-.688-1.974-.624 1.569-1.479 2.609-2.195 3.92-.693 1.266-1.33 2.905-1.25 4.314-.344-.551-.784-1.248-.911-1.884-.237.475-.197 1.47-.243 1.823-.278-.383-.65-.712-.851-1.155-.367 1.278-1.256 2.138-2.37 2.553.511-.812.965-1.813.79-2.796-.234.936-.386 1.626-1.155 2.25-.187-.978-.673-1.524-1.52-2.371-1.621-1.297-3.517-3.297-4.01-5.227 0 1.055.06 1.682.303 2.735-1.394-1.394-2.553-3.379-2.553-5.41-.187.656-.222 1.299-.243 1.946-.67-.924-1.172-3.028-.911-4.316-.402.538-.726.74-1.277.973.652-1.336.857-2.308.79-3.89-.287.426-.71.811-1.111 1.124.351-1.464.445-3.195.504-4.72.046-1.21.147-2.395.608-3.576a3.5 3.5 0 0 1-.67.365v-.243c-.35.335-.733.64-1.154.85.119-.276.174-.59.304-.85-.409.476-.909.663-1.52.79.61-.763.851-1.682.851-2.674 0-1.653-.43-3.651.547-5.105-.588.145-1.104.521-1.64.79-.553.415-1.037.394-1.52-.122-.089-.133-.425-.593-.425-.73-.68.065-1.176-.076-1.452-.739-.327-.787.049-1.678.573-2.322.465-1.746 1.813-2.257 3.5-2.968a19 19 0 0 0 2.337-1.178c1.087-.641 2.266-1.716 2.593-2.97.188-.722-.077-1.294-.501-1.856.455.137.867.318 1.276.608.178-.356-.1-1.012-.243-1.337.45.111 1.213.716 1.52 1.397.18-.266.192-1.074.182-1.337.492.723.969 1.484 1.136 2.285.382-.456.412-1.39.505-1.98.601.587.929 1.315 1.094 2.126.314-.58.426-.953.547-1.58.3.4.668 1.063.668 1.58.296-.295.4-.83.486-1.215a3.3 3.3 0 0 1 .547 1.823c.316-.2.616-.43.912-.669v1.034l.486-.608a3.3 3.3 0 0 1 .122 1.459l.364-.243c.13.446.062.774 0 1.154l.244-.06c.029.334-.007.834-.061 1.215 1 .162 1.733 1.143 2.174 1.978.313.594.827 1.91.925 2.763.3.899.378 2.252.284 2.903.225 1.089.365 2.108.203 3.113l-.426-.243c0 .547 0 1.094-.06 1.641 1.133-3.066 2.287-5.478 4.68-7.9 1.21-1.227 2.75-2.5 4.314-3.283.479-1.675 1.336-3.887 2.833-4.868.091-1.109.383-2.16.74-3.056-.256-.19-.292-.415-.08-.682-.376-.789-.493-1.559-.318-2.348.604-2.71 3.853-3.502 6.177-3.483 1.4.012 2.885.247 4.478.683"/><path fill="#c1c1c1" d="M64.856 30.034c-.121.364-.425.85-1.033 1.398-.668.547-1.64.364-1.64.364 1.495-.135 2.613-1.393 2.613-2.795l-.233.243c-.176.708-.922 1.188-1.59 1.337 1.212-.758 1.601-1.61 1.458-2.614l-.669.669v-1.155c-.222.183-.373.343-.596.486-.115.698-.254 1.216-.376 1.459.304-.06.547-.06.608.06.121.183-.243.548-.426.79-.243.244-.972 1.277-1.64 1.581-.73.304-1.52.243-1.946 0 .986-.06 1.65-.865 2.31-1.52-.92-.06-1.913.198-2.735.609.763-.872 2.08-1.006 3.16-.79-.413.982-1.162 1.355-1.64 1.64 0 0 .607-.06 1.276-.607.729-.547.85-1.216 1.276-1.52 0 0-.486.061-1.094 0-.547 0-1.641 0-2.249.244-.608.182-1.215.668-1.215.668.228-.798 1.079-.963 1.63-1.094.567-1.136.805-2.801.01-3.89-.11.79-.202 1.119-.664 1.58.24 1.196-.358 2.402-1.28 3.161.993-1.363 1.467-2.98.304-4.862-.042.748-.4 1.18-.365 1.215.064 0-.502-1.071-.98-1.537.034.304.037.653-.114.93.243.243.669.79.85 1.64.305 1.398-.728 2.128-.728 2.128.364-.608.547-1.337.425-2.067-.06-.547-.473-1.287-.73-1.58-.175-.2-.385-.338-.607-.486.654 1.89-1.232 3.707-2.696 4.544-.758.433-1.561.782-2.288 1.17a15 15 0 0 0-1.701.79c-1.034.546-1.398 1.275-1.52 1.64.182-.182.486-.425.73-.547.425-.243 1.033-.425 1.276-.365.304 0 .304.426.06.608-.243.183-.79 0-1.397.304-.426.182-.912.608-1.155.851-.243.425-.426 1.033-.243 1.52.243.607.79.607 1.094.546.364-.243 1.337-.85 1.884-1.215.73-.486 1.702-.973 1.823-1.033.06 0 .183.243.243.303.061.122.365.365.183.487-.183.182-.547 0-.79 0-.244 0-.548.06-.79.182-.21.125-.878.538-1.335.823-.631.394-1.204.59-.428 1.365.121.182.425.426 1.033 0a7.9 7.9 0 0 1 3.039-1.276c-1.729 1.743-1.459 3.47-1.459 5.895 0 .912-.182 1.641-.364 2.066.425-.303 1.08-.868 1.141-2.57.06-1.762.5-4.601 1.594-5.33-1.277 2.066-1.043 4.467-1.165 5.683-.182 1.276-.476 1.914-.537 2.035.541-.455.855-1.11 1.1-1.74.796-2.041.487-3.208 1.452-4.885-.868 2.31.107 3.04-1.701 6.321 1.667-1.55 2.517-4.029 2.492-6.381.304 1.033.011 2.431.011 2.431.493-.64.783-1.802.943-2.358l-.286-.438c.692.507 1.84.54 2.37.304 0 .02-.546-.093-1.033-.547 1.094.243 1.757-.11 2-.353-.06 0-.967.049-1.696-.559 1.462.461 1.846-.211 1.946-.274 0 0-.973-.03-1.581-.698 0 0 1.033.486 1.823.425.85-.121 1.276-.608 1.276-.608s-.911.365-2.127-.304c1.27.468 3.101.024 3.636-1.276-.707 0-1.513-.17-2.117-.547 2.432.429 4.088-.385 4.044-2.72zm-4.414-.576c.547-.06.832-.046 1.197-.046.306-1.042.509-2.181-.004-3.207-.17.566-.313.85-.718 1.187-.043.633-.14 1.514-.475 2.066m1.462-.032c.217 0 .376-.014.586-.014.32-.733.513-2.083.24-2.842-.152.405-.247.489-.522.765.06.547-.072 1.644-.304 2.092zm18.534.576c-.178-.861-.239-1.869-.2-2.757-1.3 1.098-2.067 3.111-2.563 4.704a17.8 17.8 0 0 0-4.425 3.358c-1.439 1.5-2.388 3.03-3.106 4.33-.933 1.823-2.203 5.592-2.492 8.57l-.729-.122c1.201-2.404 1.16-7.429 1.216-7.415l.445.263c0-2.37-.75-3.484-.75-3.484.21.176.413.29.514.574a5.93 5.93 0 0 0-.878-3.31c.158.05.422.394.486.487-.078-.75-.436-1.623-.853-2.356-.432-.76-.968-1.622-1.9-1.777-.32 1.001-.845 1.783-2.17 1.945l.426.122s-.547 1.276-1.398 1.58c0 0-.578.869-1.55 1.051 0 0-.395.407-.699.529h.608s-.42.833-1.575.893l.486.243s-.977.82-2.315.334c0 0-.486 2.176-1.276 2.784 0 0-.486 1.702-1.459 2.796-.364.972-.85 2.553-.85 4.315s-.183 2.978-.304 3.708c.293-.294.466-.62.668-.973.428 1.326.332 2.52-.121 3.83.663-.73 1.25-1.924 1.392-3.486.173 1.542-.387 2.381-.505 3.303-.122 1.154.024 2.31.267 3.038.122-.79.426-2.005 1.034-2.917-.506 2.358-.048 4.593 1.398 6.564-.183-1.276.182-3.1.668-3.647-.64 2.918 1.745 5.027 3.768 7.05.67.537 1.305 1.24 1.58 2.067.335-.501.547-1.204.63-1.811.102-.752-.256-1.838.282-2.504 0 0-.304 1.276.182 2.188.487.972.183 1.762-.121 2.492 1.292-1.05 1.551-2.316 1.337-3.89.315.668.23 1.75.79 2.31-.039-.913.603-1.783.85-2.675.003.844-.153 1.608.305 2.37.17-1.025.766-2.306 1.273-3.163 1.656-2.801 3.29-4.675 2.617-8.141.85 2.006 0 4.072 0 4.072s.547.608.85 2.249c.183.85 0 1.52-.182 2.006.183-.122 1.763-1.58 1.337-5.896.669 4.011-.547 5.47-.547 5.47.061.486-.06 1.277-.182 1.702 0 0 1.276-.73 1.58-2.006 0 .912-.73 1.763-.73 1.763.065.426.119.82.122 1.184.122-.121.851-.88 1.277-2.704-.183 1.885-.73 2.492-.73 2.492.669 1.52.243 4.498.122 4.984 1.174 1.595 1.152 2.924.938 4.656-.044.592-.099 1.29-.161 1.961-.12 1.284-.266 2.477-.412 2.682-.122.243-.426.486-.851.85-.304.244-.608.548-.973.912-.425.426-.486.669-.547.973-.14.564-.58 1.022-1.065 1.319-.636.39-1.651.87-1.996 1.314a2.9 2.9 0 0 0-.518 1.378h5.099c.425-.73 1.154-1.52 1.762-2.066.486-.426.912-.669 1.216-.79.243-.122.486-.244.486-.365.06-.122.06-.973 0-1.945 0-.669 0-1.459-.06-2.31 0-2.43.425-4.983.546-5.713.06-.547.365-1.033.73-1.701.724-.967 1.154-2.386 1.276-3.586.87-.789 1.439-2.304 1.714-3.38 1.839-2.09 1.723-5.827.838-8.29.558.853.857 2.08.936 3.257.368-1.515.447-3.346.037-4.715.192.227.305.442.416.79.844-2.809-.432-5.383-.807-6.199.948 1.46 2.013 3.61.999 6.746.093 1.404-.073 2.822-.547 4.315 2.127.973 5.652.912 6.989.851-.194-.194-.366-.457-.547-.668 1.396.31 2.843.535 4.254.182l-.79-.79a6.05 6.05 0 0 0 2.614.365l-.243-.608c1.732.293 3.853-.291 5.392-1.072-2.455-4.204-2.803-9.264-1.943-14.128-1.445.643-3.233.705-4.917.391-2.333-.434-4.667-.125-6.923.53-3.509 1.02-7-.375-7.898-3.874-.813-3.175-.038-6.876 1.057-9.958zm7.92 46.1c-.072-2.4.027-4.97-.432-7.341a19.8 19.8 0 0 0-1.494-4.631s1.192 1.798 1.678 3.925c.365-1.094.328-2.041.328-2.588-.121-.669-.425-1.763-1.155-2.674.482.336.926.712 1.113 1.292-.135-1.641-.6-3.246-.843-4.097-1.458-.06-2.93-.304-4.206-.85-.026 0-.017 2.148-1.534 4.08.304.669.73 1.702 1.155 2.735.547 1.277.73 2.249.851 2.796 0 .531.536.773.79 1.155.365.425.79 1.945 1.337 4.68.486 2.43.426 3.828.243 4.315-.121.304-.486.486-.85.73-.735.44-1.377 1.05-1.763 1.822-.184.246-.426.669-.79.669-1.52.79-2.127 2.006-2.31 2.613h4.559c.808-.883 2.035-2.59 3.707-2.674.286-1.193.41-2.421.267-3.28-.157-.937-.54-1.645-.65-2.676zm31.805-8.386c-.243 0-.668-.183-1.094-.547-.425-.365-.746-1.216-1.11-2.31-.416-1.663-1.24-3.337-2.023-4.828.336-1.866-.085-3.543-1.06-4.653.608.364 1.033.873 1.033.873.014-1.413-.305-2.616-1.216-3.487.44.268.925.667 1.322 1.25.104-3.522-.91-5.822-1.263-6.674a12 12 0 0 0-.89-.687c.674 1.599.944 3.9.136 5.538l-.139-.18c.244 1.823-.098 3.05-.148 3.084l-.139-.264c.122 1.154-.52 2.249-.52 2.249l-.182-.122c.122.972-.304 1.945-.304 1.945l-.121-.243c-.122 1.276-.973 3.16-1.277 3.768 1.762 1.107 2.44 2.298 2.828 3.192.477 1.1.717 2.26 1.488 3.25.425.608 1.154 2.067 1.337 3.343.182 1.155.182 2.431.06 4.437-.06 1.762-1.58 3.586-2.127 4.193-.281.444-.562.907-.592 1.448-1.392.361-2.5 1.064-3.155 2.442h5.51c.79-2.005 2.43-2.492 2.978-2.552.243-1.094.121-2.189.06-3.282-.06-.547-.12-1.094-.12-1.58 0-1.398.303-3.647.546-5.288.12-1.446.182-2.862.182-4.315m-18.135-41.372c.01.51-.026.937-.107 1.447 1.992 3.781 1.818 9.586-.663 13.278-.499.743-1.07 1.22-1.756 1.607-1.128 6.007-.392 12.415 3.964 17.076-.615-2.604-1.657-6.32-1.657-6.32 1.398 3.282 2.066 7.294 3.22 10.09.426 1.033 1.399 2.856 1.52 3.281 0 0 .669 4.133.426 5.41-.243 1.215-1.459 4.01-2.674 5.59-.973 1.338-2.006 2.25-2.492 2.675-.497.744-.388 1.543-1.641 1.702-.122 0-.304.06-.426.06-1.884.548-2.501 2.006-2.745 2.493h4.872c.365-.547 1.338-1.52 4.012-2.37.182-.608.85-3.526 2.492-6.443.668-1.276 1.337-2.37 1.823-3.282.79-1.276 1.276-2.188 1.337-2.492 0-.182-.06-.425-.182-.79a7.4 7.4 0 0 1-.304-2.917c.186-1.442.004-2.597-.183-3.89.686-1.105 1.497-4.038 1.277-5.288l.331.784c.17-.806.123-1.55-.027-2.303l.452.762c.334-.535.448-2.258.277-3.254l.313.935c.208-.66.201-2.51-.313-3.487.317.263.526.6.66.908.676-1.97.165-3.938-.781-6.074l2.187 1.701c.851.912 1.377 2.257 1.675 4.194.194 1.256.166 2.628.817 3.768 0-.182.426-1.398.426-1.398 0 .365.243 2.431.486 2.978l.425-.911v.972c.061.365.183 1.398.487 2.006.169-.382.345-.73.547-1.094.367 1.816.701 3.822 2.127 5.226-.243-.668-.486-1.64-.426-2.674 0-.182-.304-1.945-1.398-5.348-1.154-3.525-2.492-6.139-4.01-7.901-.763-.839-1.924-1.72-2.432-2.735-.365-.608-1.884-3.282-2.856-4.437-.89-1.016-1.865-2.02-2.675-3.1-.243-.303-.305-.668-.304-.972.002-.265-.511-1.563-1.033-2.006.2-.1.498.134.608.244.232-.697-.28-1.469-.972-1.642 0 0 .06-.182.547 0-.353-1.058-.295-2.031-1.459-2.613 0 0 .304-.182.73.182-.183-.79-.85-1.699-1.642-2.005 0 0 .122-.061.426-.061-.238-.238-1-.854-3.307-1.562z"/><path fill="#fff" d="M103.034 58.006c-.576-2.257-1.225-4.573-1.225-4.573l-.224-1.167s2.351 5.422 3.628 8.825c1.215 3.404 2.37 5.288 2.37 5.288-.486 1.52-.182 4.072-.182 4.072.79-1.58 2.735-2.796 2.735-2.796.001-.945.21-1.716.243-2.674.06-1.094-.122-2.37-.122-2.735.9-2.044 1.431-4.166 1.155-6.746q.531.6.85 1.52c.018-1.205-.456-2.758-.546-2.736.169.097.286.182.452.467.608-3.1-.33-5.086-.33-5.086a4.4 4.4 0 0 1 1.093.851c.486-3.707-1.58-6.868-1.58-6.868l.73.183c-.304-.79-1.642-2.674-2.25-3.525-.607-.851-1.762-2.128-2.37-3.16-.665-1.257-.502-2.758-1.585-3.771q.338-.004.674.124c.06-.973-1.014-1.971-1.014-1.971.199-.05.495.017.66.1-.118-1.05-.586-1.795-1.226-2.14l.729-.062c-.304-1.093-1.641-1.64-1.641-1.64l.425-.244c-.514-.171-1.42-.402-1.91-.524.927 1.887 2.025 4.74 1.971 7.574-.06 3.04-1.58 6.2-2.492 7.111-.85.912-1.823 1.52-2.188 1.945-.364.365-.547 2.674-.547 2.674l.487-1.701c-.03 0-.138 2.37-.365 3.707l.365-.85c.182 1.397.06 3.16.121 4.254l.243-1.216s.365.669.365 1.155c.06.486.304 2.492.85 4.133l.061-1.277s.4 1.66 1.59 3.48zM65.217 31.07l-.014-.001v.001zm-1.35 33.554q.023-.12.038-.238c.048-.351-.004-.775-.02-1.195-.073-.997.3-1.276.546-1.795 0 0-.061 1.397.06 1.762.183.426.365 1.216.365 1.216.547-.912.73-2.614 1.155-3.708.486-1.094 1.459-2.066 1.459-2.066-1.459 2.31-1.094 5.166-1.094 5.166.182-.669.911-1.763.911-1.763.183-1.823 2.37-4.862 2.918-5.956.547-1.155.85-3.039.85-3.039l.67.608c.063.712.166 1.415.06 2.127l.182.608c-.119.344-.117.688-.06 1.033l.243-.668.3.734c-.243.79-.06 1.155-.06 1.155.06-.426.243-.73.243-.73l.246.907c-.182.547-.243 1.58-.243 1.58.425-.547.79-2.127.85-2.735a10 10 0 0 1-.013.367c.043-.631.035-1.357-.047-2.19.16.963.212 1.778.199 2.462.163 1.676-.1 3.737-.2 3.737.285-.234.6-.618.833-.958l.019-.075v.048q.105-.157.182-.291c.06 1.094-.425 2.249-.425 2.249.329-.409.741-1.26.908-1.75l.003-.013-.001.015.244.35-.486 1.883.365-.547.06.73c-.243.425-.364 1.215-.364 1.215l.425-.79.061.486-.304 1.033.365-.425c.304 3.1-.06 3.707-.06 3.707s.607.73.729 1.824c.121 1.094-.365 4.923-.487 6.564-.121 1.64-1.215 1.823-2.127 2.674-.972.911-1.155 1.762-1.155 1.762h.487c.486-1.58 1.884-2.005 1.884-2.005-1.034.668-1.459 2.066-1.459 2.066l.73.06a2.48 2.48 0 0 1 1.701-1.518c-.972.486-1.398 1.58-1.398 1.58.73.304 1.216.121 1.945-.304.73-.486.547-1.641.486-3.282-.06-1.641.061-4.74.243-5.713.183-.973-.121-1.216-.121-1.398 0-.243.121-.426.608-1.58.486-1.155.607-3.83.607-3.83.669 2.736-.364 4.438-.364 4.438 1.64-1.945 1.094-4.376 1.094-4.376 2.613-2.492 1.58-5.167 1.58-5.167.243 2.432-.669 3.404-.669 3.404-.243-2.857-1.945-4.68-1.945-4.68 1.338 2.857.061 5.41.061 5.41s.182-2.006-.972-3.586c-1.216-1.58-1.884-3.525-2.067-4.62-.182-1.093 0-2.127 0-2.127-2.43-.425-2.127-3.828-2.127-3.828-.425.425-.972 1.276-.972 1.276-.912-1.945-.061-5.896-.061-5.896l-.547.365c-.06-2.066 1.216-5.166 1.216-5.166-.426.304-1.034.73-1.034.73.487-2.492 3.1-6.139 3.1-6.139-2.363 2.438-3.684 5.386-4.35 7.285-.518 1.48-.796 3.073-1.348 4.534-.709 1.874-2.323 1.647-3.077-.1-.374-.865-.345-1.861-.402-2.785.182.061.538.313.538.313-.122-.364-.434-1.172-.434-1.172.182.06.564.251.564.251-.121-.425-.486-1.224-.486-1.224.425.122.669.252.669.252-.244-.608-.548-1.094-.548-1.094.287.009.67.241.67.241-.183-.547-.609-1.274-.609-1.274.243.06.73.425.73.425-.365-1.702-1.46-3.039-1.46-3.039.73.304 1.338 1.094 1.338 1.094.06-.304-.06-.972-.06-.972.242.182.668.486.668.486-.182-.486-1.216-1.702-1.216-1.702.365.183 1.034.547 1.034.547-.244-.547-.608-.668-.608-.668.243-1.276-.912-2.127-.912-2.127.79.121 1.459.607 1.459.607-.183-.364-.669-.79-.669-.79.061-1.276-.972-1.762-.972-1.762.972.06 1.64.425 1.64.425-.668-.73-1.397-.972-1.397-.972l-.973.608-.303.243c-.79 1.155-3.16 3.22-5.166 5.044-2.067 1.945-3.04 4.498-3.708 6.686s-.243 5.591-.243 5.591l.547-1.58c.425 1.459.122 2.796-.06 3.707-.122.912-.062 2.188-.062 2.188.547-1.64 1.58-2.978 1.58-2.978.061.851-.364 1.337-.425 3.282-.06 1.945.73 3.465.73 3.465.364-2.37 1.58-3.708 1.58-3.708-.973 4.011 1.519 6.442 3.22 7.901s1.763 2.188 1.763 2.188c.192-.144.309-.365.41-.6zm9.92-2.638q.173-.23.31-.508l-.003-.001a3.3 3.3 0 0 1-.307.509m-4.149 22.202h3.774c.186-.342.81-1.118 1.16-1.365 0 0-1.984-.351-3.032-.104-1.153.272-1.773.649-1.902 1.468M87.526 62.55s-.122-1.034-.365-1.52c0 0-2.492-.121-3.1-.304 0 0-.121 1.763-.486 2.674 0 0 .426 2.25.669 3.16.304.912 1.459 3.465 1.945 4.56.486 1.093.972 3.767 1.033 5.712.06 1.884 0 2.735 0 2.735l.122.486s-.973.122-1.824.73c-.85.668-1.24 1.344-1.24 1.344l.722-.036s1.126-1.37 2.098-1.612c0 0-1.235 1.062-1.478 1.61l1.053.119s.365-.392.547-.514c.243-.121.73-.182.85-.304.123-.06.548-1.215.426-2.248-.06-1.034-.607-2.25-.79-2.735-.121-.547-.06-2.128-.182-3.465-.182-1.337-.365-2.856-.304-3.829.06-.911-.06-2.491-.425-3.464S85.52 63.4 85.52 63.4l.365-.121s1.215.911 1.641 1.884c0 0-.06-1.945-1.823-3.89h.486s.73.365 1.337 1.277m-6.073 21.637h3.016c.34-.556 1.51-1.487 1.562-1.455 0 0-.9-.153-1.886-.088-1.095.073-2.148.334-2.692 1.542zM98.83 54.77c-.973.912-3.1.973-3.1.973l.06.304c-.85.486-2.248.182-2.248.182l.06.243c-.607.669-2.856.547-2.856.547-.79.669-2.613.122-2.613.122l.06.364c-1.82.882-3.813-.396-4.327-.811q-.056.417-.145.841c1.32.461 2.893.578 2.893.578l2.795 1.033-1.149-.999 2.046-.095 2.75.608-1.227-.79 1.297-.122 2.118.547-.807-.736.935-.178 1.682.323-.95-.615.97-.245 1.573.297-.877-.513c.972-.365 1.789-.52 1.789-.52zm-16.106-5.105s.669 1.215.547 2.613l-.911-1.458s.243-.79.364-1.155m-.547 1.762c.034-.016.995 1.387.912 2.431 0 0-.425-.79-.85-1.337 0 0 .364 1.16.485 1.889 0 0-.79-1.402-1.458-1.585.105 0 .909 1.58.79 2.492-.273-.942-.853-2.249-1.35-2.968.432.248 1.263.093 1.472-.922zm-.364 6.808s-1.033-3.222-2.492-3.89c0 0 1.823 4.072 1.459 6.382 0 0-1.034-2.31-1.945-2.857 0 0 1.276 2.431.911 4.558 0 0-1.398-3.525-3.22-4.74 0 0 .668 1.276.972 2.492s.425 2.31.364 2.795c0 0-.607-1.884-1.52-3.1-.91-1.276-1.701-3.524-1.215-5.348 0 0 1.763-.182 2.128-2.005.083.331.488 1.398 1.495 1.094.864-.262 1.057-.912 1.24-1.398-.052 0 1.924 1.884 1.823 6.017m30.27 25.952h3.957c.182-.642.558-1.047 1.023-1.52-2.01-.326-3.847.09-4.98 1.52m6.317-16.775s.912.911 1.033 1.154c.061.183-.304 2.735-.364 3.16l-1.277-.972s.608 1.641.73 3.343c.121 1.702.243 3.708.243 4.74.06.973.182 2.675-.669 2.979-.85.304-2.31-.06-2.31-.06s1.642-2.432 1.702-4.741c.122-2.31-.121-5.592-.607-7.233 0 0 .911.182 1.398.669 0 0 .364-1.398.121-3.04m-3.95-10.697s.303 1.094.486 1.52c.243.486.304 1.701.79 3.038s1.64 4.255 1.58 4.984c0 .79-.669 2.492-.669 2.492s-.85-.973-1.337-2.188c-.486-1.155-1.398-2.674-1.701-3.16-.365-.487-.365-2.067-.061-3.16.304-1.156.911-3.526.911-3.526zM97.695 44.255c-1.134-.188-2.55-.142-3.666-.12-2.431.048-6.138 1.58-9.481 1.094-3.464-.486-6.017-3.039-5.956-6.138 0-1.86.298-3.064.584-4.005.222-1.754.7-3.5 1.262-5.083a9 9 0 0 1-.11-.659c-.276.132-.55.367-.825.752-1.215 1.58-.972 2.43-.972 2.43s-.608.365-.669 1.155c0 0-1.58 0-3.403 2.675-1.823 2.552-2.127 4.436-2.127 4.436l1.154-.425s-1.458 2.492-1.64 4.801l.972-.486s-1.094 3.221-.79 5.774c0 0 .911-1.033 1.155-1.155 0 0-.547 4.011 1.397 4.133 2.006.182 2.553-1.763 2.735-2.431.093.533.536 2.149 1.374 1.737.927-.456.936-1.676.936-1.676s.547 1.094 1.337.79c.79-.365 1.763-2.25 1.276-5.531.704.848 1.356 2.106 1.738 3.446.428 1.245.582 2.79-.036 4.698q.04.594.016 1.195c.414.534 1.368 1.593 2.962 1.48 0 0-.85-.365-1.215-.79 0 0 1.094.06 1.58-.062 0 0 1.094.547 2.127.426l-1.276-.547.972-.243s1.823.79 3.039.425l-2.188-.73 1.702-.425s1.52.851 2.917.73c0 0-1.763-.669-2.31-.973l1.398-.364s1.824.729 3.04.243l-2.432-.547.912-.547s1.884.182 2.674-.183l-2.006-.121.487-.547s1.094 0 1.884-.426l-1.52-.06s.304-.547.365-.851c0 0 .73-.06 1.215-.243l-1.094-.183c.354-2.288.491-4.561.506-6.87zm21.922 13.737c-.19-1.034-.235-2.05-.001-3.169-.563.343-.692.874-.85 1.224-.216-1.19-.338-2.365-.278-3.563-.415.414-.62 1.028-.755 1.558 0 0-.183-1.52-.426-2.553s-.486-2.127-1.276-3.95c0 0 3.525 5.287 4.315 9.177 0 0-.425.668-.73 1.276m-11.973 17.14c-2.067 3.038-3.465 5.59-3.465 5.59s1.216-1.215 1.702-1.883c0 0-.486 1.276-.547 1.64-.121.365.122 1.216-.425 1.399-.608.243-1.702-.243-2.249-.79 0 0 1.762-1.46 2.735-3.343a234 234 0 0 1 2.43-4.802v1.155s1.156-1.823 1.338-2.552-.06-1.398-.669-.912c-.607.425-.547-.426-.121-.851.85-.85 2.066-1.033 2.066-1.033s.304.79.426 1.033c0 0-1.155 2.249-3.221 5.348zm-6.443 9.055h-3.11s.242-1.008 1.773-1.387c1.57-.387 2.596-.11 3.039.05-.553.156-1.534.954-1.702 1.337m19.51-26.256s.486 1.398.547 2.553c0 0-.547-.851-.547-2.553M64.022 30.903c.483-.51.774-1.187.774-1.902l-.232.243a1.6 1.6 0 0 1-.524.806c-.016.027-.035.045-.035.045l.002-.016-.037.03c-.43.541-1.058.594-1.058.594.668.121 1.033-.122 1.033-.122-.608.669-1.58.608-1.58.608a4 4 0 0 1-.547.547c.92-.087 1.701-.436 2.205-.833zm.42-2.844-.011-.091-.187.186c-.11.698-.355 1.413-.907 1.88.783-.447 1.082-1.193 1.106-1.975m-.68.456v-1.033c-.09.074-.167.144-.244.211-.03.834-.16 1.369-.181 1.369.122-.122.304-.304.425-.547m-4.376 3.343c.412-.026.768-.181 1.09-.4-.44.185-.946.278-1.637.278 0 0 .608-.182 1.094-.425.547-.244.851-.608 1.216-.73 0 0-.304-.121-1.337.304-.973.426-1.094.669-1.094.669a2.1 2.1 0 0 0-.42-.413c.346-.357.893-.588 1.34-.723.74-.39 1.678-.423 2.483-.262-.413.983-1.162 1.355-1.64 1.64 0 0 .607-.06 1.276-.607.73-.547.85-1.216 1.276-1.52 0 0-.486.062-1.094 0-.547 0-1.641 0-2.249.244-.607.182-1.215.668-1.215.668.075-.264.22-.459.398-.606a3.3 3.3 0 0 1 .453-.548c.425-.365 1.215-.79.911-2.735 0 0-.339.792-.745 1.284-.085.914-.605 1.773-1.321 2.362q-.195.148-.426.244l-.243-.305c.899-1.01 1.024-2.822.373-4.091a7 7 0 0 0-.378-.59c.04.35.005.7-.05 1.05.166.278.325.637.42 1.079a2.09 2.09 0 0 1-.574 1.992l-.034.074c-.182.304-.365.547-.486.73 0 0-.243 1.276-1.276 1.64-.973.305-2.127.061-3.04.426-.85.365-4.436 2.188-4.618 2.917-.243.73.425.73.73.669.364-.122 1.032-.608 1.64-.972.587-.294 1.401-.7 1.784-.619l.1-.05c.061 0 .183.243.243.304.061.121.365.365.183.486-.167.167-.486.028-.725.003a1.2 1.2 0 0 0-.552.24c-.54.27-1.71 1.072-1.915 1.372-.065.096-.011.26.02.362.041.143.086.27.194.272.121.001.478-.173.85-.365.363-.187 1.105-.583 1.58-.74.392-.131 1.099-.117 1.249-.07.02.007.036.02.036.043-.002.097-.263.393-.373.889-.121.486-.486 1.944-.547 3.585 0 0 .365-1.702.669-2.856.304-1.094.547-1.641 1.337-1.824 0 0-.486 1.034-.668 1.702-.183.73-.244 1.641-.244 1.641s.79-2.613 1.216-3.464l.486-.121s-.668 1.215-1.033 2.43c-.365 1.277-.365 1.763-.547 2.796 0 0 .486-1.52.912-3.039.364-1.458.972-2.309.972-2.309l.06.243s-.12.304-.303 1.398c-.122 1.155-.304 2.43-.73 3.89 0 0 .73-1.277.851-2.492.122-1.216.304-2.674.304-2.674l.304.303c.122.244.243.73.243 1.095.058.46-.047 1.082-.265 1.713q-.022.21-.045.356c.31-.353.772-1.261.371-2.981.547.365 1.337.73 2.127.85v.002a1.8 1.8 0 0 0 .462-.112c-1.252-.177-2.277-.81-3.318-1.652l.608-.243s1.762 1.702 3.22 1.094c0 0-.79.304-3.099-1.155 0 0 .547-.243.912-.486 0 0 1.46 1.006 2.639.781a1.2 1.2 0 0 0 .279-.082s-.356-.012-.772-.169c-.436-.074-1.127-.259-2.025-.651 0 0 .304-.244.486-.487.993.497 2.106.894 3.228.838.401-.183.601-.412.601-.412s-.518.207-1.295.022c-.825-.083-1.643-.363-2.412-.63l.304-.365c.013.018 3.666 1.338 4.678-.614a4.5 4.5 0 0 1-1.246-.24c-.489-.045-2-.413-3.066-.062.122-.426.18-1.028.18-1.028.223 0 .448-.044.67-.061zm2.804.96c1.648-.02 2.73-.815 2.815-2.52-.073.242-.183.53-.26.674-1.114 2.09-4.264 1.493-4.264 1.493.719.206 1.264.316 1.71.352m-13.44.498c.322-.183.747-.332 1.041-.368.246-.122.729-.302 1.39-.483.487-.121 1.401-.42 2.31-.79.883-.359 2.033-.736 2.67-1.23 1.217-.947 1.494-2.757.551-3.997 0 0 .122 1.216-.486 2.128q-.427.64-1.188 1.282c-.69.581-1.624 1.157-2.459 1.574-1.458.73-2.37.912-3.646 1.763-.06.06-.122.06-.183.121m13.977-6.74c-.083.222-.15.347-.239.461.055 1.492-.184 2.268-.184 2.268.474-.83.472-1.904.423-2.729m-.849.328a3 3 0 0 0-.242-.699l-.059.187c.203 1.595-.403 2.791-.428 2.791.64-.697.723-1.616.73-2.28"/></g><path fill="#e08600" fill-rule="nonzero" d="M90.747 21.216c-.116-.31.226-.678.545-.578a78 78 0 0 0-.174-2.282c-1.557-.425-3.034-.684-4.393-.695-1.975-.016-5.284.775-5.82 3.181-.153.685-.032 1.407.296 2.106 2.979-1.098 6.346-1.618 9.546-1.732m1.42 12.3c-.093.117-.268.233-.428.225-.105-.004-.258-.1-.335-.162-1.55.832-3.262 1.328-5.02 1.325-2.466-.007-4.345-.962-5.384-3.24a10 10 0 0 1-.402-1.07c-.94 2.844-1.581 6.3-.895 9.163.795 3.314 4.1 4.74 7.46 3.764 2.318-.674 4.718-1.017 7.116-.57 2.55.475 5.143.144 6.704-2.11 2.335-3.372 2.453-9.05.851-12.423-.04.171-.13.473-.18.642-.892 3.028-2.545 4.88-6.227 4.908-.977.007-2.045-.123-3.26-.451zm-.776-10.89c-.33.219-.735-.15-.66-.483-3.224.105-6.358.575-9.408 1.731-.879 2.13-1.076 5.304-.013 7.63.97 2.127 2.796 3.038 5.1 3.037 1.688 0 3.388-.484 4.875-1.287v-.012c.167-3.535.241-7.079.106-10.616m1.51-.506c.092.305-.241.654-.554.554.13 3.491.06 6.99-.102 10.478 1.196.323 2.269.463 3.22.452 1.893-.023 3.736-.716 4.794-2.326v-.002l.002-.003a8.8 8.8 0 0 0 1.074-2.392c.53-1.873.444-3.862-.412-5.6-.769-.264-1.576-.454-2.38-.63-1.88-.413-3.736-.52-5.642-.531m-.65-1.437c.334-.215.751.174.648.51 1.945.024 3.924.158 5.824.523.705.135 1.414.33 2.098.553.248-1.56-.058-2.73-.956-3.464-1.22-.995-3.678-1.192-5.014-1.132-.97.044-1.901.24-2.782.615q.11 1.196.181 2.396"/><path fill="#fecc00" fill-rule="nonzero" d="M81.247 23.6a28 28 0 0 1 2.561-.818c2.373-.628 4.72-.871 7.144-.932l.216-.194-.178-.16c-2.432.076-4.917.408-7.254 1.027-.835.222-1.797.456-2.597.757-.077.028-.161.116-.124.221s.156.128.232.1m11.421-1.767c2.003.006 3.96.104 5.934.52.741.156 1.626.39 2.373.643.115.037.197-.029.218-.115s-.019-.192-.15-.235a22 22 0 0 0-2.375-.625c-1.948-.41-4-.53-6-.542l-.196.177zm-.717 11.457.002-.023c.17-3.612.241-7.212.096-10.814l-.23-.207-.154.14c.15 3.62.077 7.24-.093 10.87v.022a.185.185 0 0 0 .185.177c.09.003.18-.05.194-.165m.023-12.364q-.074-1.296-.192-2.594c-.023-.263-.403-.233-.38.022q.114 1.253.187 2.504l.23.208zm-.72 1.445.353-.318-.226-.204-.331.299c-.169.152.053.36.205.223m1.005-.908.328-.297c.127-.114-.083-.333-.204-.223l-.35.316zm.282.641-1.253-1.133c-.16-.144-.365.078-.235.195l.024.023 1.254 1.133c.192.174.407-.04.21-.218m-.105-3.038c.022.504-.036 1.018.05 1.53l.006.028c.18.016.343.16.401.332 2.044.048 4.273.297 6.455.71 1.292.246 1.25-.83.995-1.756a1.7 1.7 0 0 0-.296-.378c-1.817-1.736-6.339-1.044-7.611-.466m.333 4.836c-.018 2.078.01 4.155.447 6.222.288 1.359.147 2.198 1.917 2.276 4.368.194 6.546-3.249 5.888-7.528-.28-.702-.777-1.265-1.469-1.485-1.573-.5-3.069-.848-4.631-.934-1.818-.1-2.139-.211-2.152 1.45zm-10.958-1.371c-1.265-3.482 4.28-5.22 9.176-3.686q.081.89.143 1.78a.5.5 0 0 0-.39.35c-3.2.124-6.189.678-8.929 1.556m9.34.16c.112 2.58.162 5.209-.135 7.702-.12 1.019.041 2.068-1.123 2.411-2.026.596-5.489.651-6.681-.743-.947-1.107-1.4-3.165-1.391-5.724.004-1.081-.044-1.989 1.199-2.414 2.569-.878 5.089-1.445 7.715-1.6a.495.495 0 0 0 .415.368m-10.493 9.685c1.72 2.894 4.886 3.55 9.038 2.65 1.68-.365 3.618-.304 5.637-.221 2.475.101 4.575-.946 6.297-2.996.4 7.864-2.812 11.237-9.51 9.588-1.125-.277-2.056-.379-3.086.19-3.335 1.84-6.616 3.067-8.218-1.01-.925-2.837-.665-5.534-.158-8.2z"/><path fill="#cdc9c6" d="m55.8 30.155-.226.165-.503-.226c1.945-1.458 1.884-2.917 1.884-2.917.365 1.398-.486 2.431-1.154 2.978m2.464 3.525.232-.547c1.167-.287 2.406.504 3.5.443-.828.733-2.717-.08-3.732.104m5.437-.243-.046-.293.35.05c-.06 2.31-1.823 4.011-1.823 4.011.972-.182 1.58.122 1.58.122-2.37 1.337-3.16 3.707-3.16 3.707 2.37-.668 2.431 0 2.431 0-1.52.426-2.249 1.945-2.249 1.945 1.155-.182 1.945.365 1.945.365-2.188 1.094-2.553 3.221-2.553 3.221 1.155-.73 2.614-1.094 2.614-1.094-4.133 4.011-1.276 7.476-1.276 7.476-2.979-2.25-.851-6.017-.851-6.017-.608.364-1.641 1.215-1.641 1.215.182-3.1 2.43-4.68 2.43-4.68-1.093.061-2.127.973-2.127.973.547-1.884 2.189-3.221 2.189-3.221-1.52.304-2.431 1.398-2.431 1.398.85-3.282 3.403-5.045 3.403-5.045-1.337.06-2.978 1.58-2.978 1.58.608-1.52 2.188-2.796 3.282-3.768s.912-1.945.912-1.945zm5.232 12.366.304-.912s1.332 3.315 1.271 5.989c-.06 2.674-1.154 4.862-1.154 4.862-.061-.911-.486-1.945-.486-1.945-.304 1.58-.851 2.492-.851 2.492l-.304-.364c-.061 2.127-1.58 4.072-1.58 4.072l-.244-.487-.668 1.155-.547-1.033c-.064 1.436-1.161 1.91-1.337 3.039-.243-1.337.607-1.823.85-2.978.244-1.155-.303-2.614-.303-2.614.608.79 1.366 2.602 1.366 2.602.608-.972.032-2.845.032-2.845.668.73.99 1.847.99 1.847 1.397-1.762 1.015-4.703 1.015-4.703.345.536.512.909.65 1.202.79-1.215.566-3.815.566-3.815a9 9 0 0 0 .79 2.066c1.033-3.282-.36-7.63-.36-7.63m29.715 36.62c-1.155.182-2.066.608-2.795 2.31h.68c.73-1.52 1.447-2.067 2.115-2.31M81.99 82.32c-1.183.192-2.5 1.26-2.79 2.414h.935c.364-1.277 1.186-1.988 1.855-2.414m-12.362.308c.344-.196.768-.377 1.123-.569-1.883.086-3.022 1.135-3.343 2.675h.957c.06-.79.484-1.66 1.263-2.106m43.254-.182c-1.874.502-2.505 1.558-2.809 2.288h.482c.182-.365.868-1.68 2.327-2.288m-2.748-14.79c.415.126.736-.194.305-.583-.248-.223-.449-.371-.548-.694-.243-.79-.425-.972-.486-1.763 0-.79.121-2.005-.73-3.22 0 0 1.459-1.581 1.277-4.924l.972.426s0-1.52-.182-2.37c0 0 .486.243.79.607 0 0 .06-1.094-.365-2.188l.486.426c-.06-.365.061-1.702-.486-3.282l.608.304s-.365-2.188-.912-3.464c0 0 .79.425.973.729 0 0 .182-2.006-1.216-4.62-1.337-2.613-3.585-3.585-3.585-3.585s2.674 1.459 3.707 6.625c0 0-.851-.669-2.492-1.216 0 0 1.823.851 2.066 3.768 0 0-.972-.911-2.005-1.458 0 0 1.945 1.58 2.005 4.315 0 0-.85-.912-1.762-1.58 0 0 1.458 1.458 1.52 3.586 0 0-.912-.851-1.46-1.58 0 0 1.095 2.066 1.155 3.707 0 0-.607-.608-1.398-1.58l.247.948c1.021 1.327.186 4.284-.611 5.555l-.973-.547s.79.79 1.216 1.458c.425.669.668 1.702.79 2.492.06.79.06 1.459.182 1.824.122.364.31.92-.425 1.519-.726.592-1.105 1.398-1.155 1.945.638-.872 1.32-1.661 2.492-1.58m-12.638-23.54 1.171.333c-1.05.951-2.148 2.093-3.606 2.358-1.337.304-1.247-.234-1.094-1.033 0 0-.607.85-1.884 1.58-1.276.668-1.58.668-1.458.304.121-.365.121-.851.121-.851s-2.917 2.492-6.199.669c0 .08 3.768.941 6.382-1.702 0 0 .768-.069 1.498-.616 0 0-.696 1.185-1 1.915.882-.11 2.491-1.665 3.219-2.267-.215.397-.348.768-.294 1.25.035.322.311.488 1.135-.04 1.641-1.154 2.009-1.9 2.009-1.9"/><g fill-rule="nonzero"><path d="M55.926 30.834a.896.896 0 1 1-1.649.597q-.42.16-.837.324c-.04-.342.033-.659.383-.854a.63.63 0 0 1 .394-.458c.117-.22.33-.31.565-.3a.65.65 0 0 1 .613-.015.57.57 0 0 1 .432.021q.045.02.09.05h.001q.022.014.046.032a.5.5 0 0 1 .388.102.5.5 0 0 1 .066.065v.001c.056.067.095.148.136.223q-.316.105-.628.211z"/><path fill="#fff" d="M54.942 31.185c.03.028.05.067.05.112a.153.153 0 0 1-.305 0v-.018l-.167.062a.417.417 0 1 0 .779-.287z"/><path fill="#c1c1c1" d="M53.73 31.359a56 56 0 0 1 2.37-.863c-.072-.016-.144 0-.215.012-.165-.144-.278-.19-.51-.09-.197-.116-.334-.13-.532-.007-.21-.02-.34.018-.435.241-.232.077-.316.18-.346.419-.137.07-.267.134-.331.288z"/></g></svg>