<svg xmlns="http://www.w3.org/2000/svg" width="813.203" height="538.847" fill-rule="evenodd" clip-rule="evenodd" image-rendering="optimizeQuality" shape-rendering="geometricPrecision" text-rendering="geometricPrecision" viewBox="0 0 215.16 142.57"><defs><style>.fil4{fill:#f2c12e}.fil5{fill:#fc0}</style></defs><path d="M0 .002h215.17v142.57H0z" style="fill:#00a652"/><path d="M.005 59.489H215.17V-.008H.005z" style="fill:#e40102"/><path d="M97.83 39.215h17.94v-1.328H97.83z" style="fill:#da251d"/><path d="M96.532 50.45c3.286-.376 7.363-.6 11.771-.6 3.574 0 6.97-.139 9.824.403 3.814.725 6.519 1.778 7.036-.42-.175-.134 0-.23-.192-.365l1.712-.738-.841-1.105-.503-.662.11-.536c1.393.23 1.479-.249 1.338-1.109-.03-.179-.056-.344-.17-.538q-.255-.158-.508-.304l1.565-3.587a2.85 2.85 0 0 0 1.029-.903c.582.3.973.298 1.593.117.761-.313 1.447-1.022 1.131-1.892 1.114-1.085.219-3.054-1.342-3.093 1.921-3.113 1.688-7.41 1.133-9.87-1.31-4.739-5.525-8.46-13.334-8.899l-.028-.157-1.184-.134a84 84 0 0 0-1.133 2.114 13.6 13.6 0 0 1-2.84.191l.236-.754-1.183-.248c-.635.701-2.448 1.482-3.334 1.073 1.965-.43 2.821-2.215 2.821-4.128l-.228-.072c-.12-.759-.332-1.38-.845-1.958l-1.224-2.836 2.411 1.097V5.715l-2.411 1.098 1.097-2.412h-4.821l1.097 2.412-2.411-1.098v4.822l2.41-1.097-1.184 2.728-.009.009c-.57.61-.806 1.254-.932 2.062l-.098.029c-.056 1.894.788 3.612 2.652 4.126q-.184.076-.351.183c-1.142-.17-2.19-.473-2.834-1.457l-1.05.795.258.711a16 16 0 0 1-3.081-.279c-.26-.603-.534-1.21-.815-1.804l-.975.009-.178.11c-8.292.259-13.236 3.82-14.384 8.506-.61 2.651-.517 7.571 1.356 10.552-2.552-.078-2.416 1.548-2.015 2.95.417-.05.84-.087 1.252-.167l-.039.197 2.11 1.145c.262 1.047 1.044 1.817 2.111 2.033a.64.64 0 0 0 .363.03l1.277 2.403q-.305.172-.605.378c-.08.077-.197.194-.21.23-.057.151-.11.284-.11.428.002.938.523 1.322 1.495.994l.001.085-1.612 1.459 1.639 1.102.012.12c-.581 3.155 1.123 2.295 6.174 1.343" style="fill:#1f1a17"/><path d="m90.363 46.686.695.467.694.467-.614.556-.615.556-.695-.467-.694-.467.615-.556zm34.667.498.51.666.5.666-.76.328-.76.328-.51-.666-.5-.666.76-.328zm-17.32-3.021 1.2.774 1.2.774-1.25.711-1.24.71-1.2-.774-1.21-.774 1.25-.71z" class="fil4"/><path d="M102.36 31.816c-.597-6.342-1.965-11.835-3.6-15.086h-.796c1.666 3.775 3.123 9.17 4.01 15.307l.028-.023zm8.7-13.694c-.948 2.628-1.745 6.034-2.264 9.865l-.137-.08-.07-.03-.203-.119-.245-.103-.216-.059c.537-.187.924-.698.924-1.298 0-.544-.319-1.017-.78-1.239a1.7 1.7 0 0 0 1.1-1.586 1.69 1.69 0 0 0-.709-1.376 2.02 2.02 0 0 0 1.03-1.757c0-.518-.198-.991-.52-1.349.803-.167 1.52-.47 2.09-.869m-4.698 9.85q-.088-.622-.186-1.226c.144.416.483.742.907.869a4 4 0 0 0-.395.143l-.223.131zm.128-5.875c-.428.307-.709.81-.709 1.376 0 .724.458 1.344 1.1 1.586-.459.221-.778.69-.78 1.231-.538-3.176-1.267-5.98-2.104-8.185.545.392 1.231.692 2.003.866a2.008 2.008 0 0 0 .49 3.126m1.07-7.906c1.186 0 2.276.165 3.133.44v.07c0 .503-.11.98-.306 1.406-.804-.22-1.778-.35-2.827-.35-1.013 0-1.956.121-2.744.328a3.35 3.35 0 0 1-.295-1.483c.842-.257 1.896-.411 3.039-.411m2.53 2.518c-.574.779-1.472 1.282-2.478 1.282-1.129 0-2.12-.632-2.672-1.575a12 12 0 0 1 1.974-.162c1.205 0 2.313.171 3.176.455m-2.83-8.299-.503 1.105-.748 1.644a3.56 3.56 0 0 1 3.122-.04l-.73-1.604-.503-1.106 1.106.503 1.807.822V6.446l-1.807.822-1.106.503.503-1.105.822-1.807h-3.288l.822 1.807.503 1.105-1.106-.503-1.806-.822v3.288l1.806-.822zm3.18 5.658a2.83 2.83 0 0 0-1.388-2.069v2.069zm-3.68-2.343v2.095h1.663v-2.105a2.6 2.6 0 0 0-1.663.01m-2.1 2.343a2.83 2.83 0 0 1 1.389-2.069v2.069zm7.76 3.794c-1.235 2.687-2.296 6.658-2.953 11.277l-.031.001-.036-.174-.074-.213-.104-.205-.134-.19-.097-.104c.659-4.297 1.668-7.986 2.834-10.532q.3.084.595.14m-9.03-.154c1.086 2.724 2.067 6.324 2.802 10.424l-.091.096-.14.2-.108.212-.077.222-.011.056c-.77-4.308-1.813-8.067-2.962-10.84q.306-.172.587-.37m4.09 1.503a1.13 1.13 0 0 1 0 2.258c-.622 0-1.13-.507-1.13-1.129s.508-1.129 1.13-1.129" class="fil5"/><path d="M107.53 22.444c.595 0 1.08.485 1.08 1.08a1.081 1.081 0 0 1-2.16-.001c0-.595.486-1.079 1.08-1.079m-.05 3.232c.393 0 .714.32.714.714a.716.716 0 0 1-.714.714.715.715 0 0 1 0-1.428M96.328 38.019c-1.306-.373-2.558-2.669-.913-3.53-.85 1.172-.228 2.772.913 3.53m4.252-4.489-.125-.935a23 23 0 0 0-3.086.658l.153.423.148.062.361.248.312.313.257.37.196.418a4 4 0 0 1 .147.577 3 3 0 0 1-.038 1.038l-.06.216-.013.037a23 23 0 0 1 1.897-.388l-.175-.127-.177-.173-.154-.2-.128-.224c-.117-.289-.211-.58-.211-.895l.042-.292.07-.264.1-.246.127-.225.154-.2.177-.172zm11.05 6.395a5 5 0 0 1-.902-.257q.067-.755.154-1.53l.4.083.46.018.054-.007a70 70 0 0 0-.166 1.693m-8.63 0q.293-.09.558-.257a113 113 0 0 0-.082-1.326l-.024.004-.448-.008-.1-.02q.054.816.096 1.607m-4.407-12.506a65 65 0 0 0-1.56-3.397 21.5 21.5 0 0 0-3.22.913 71 71 0 0 1 1.613 3.443 21 21 0 0 1 3.167-.959m-3.729 2.207a20 20 0 0 0-3.412 1.855q.609 1.447 1.187 3a20.5 20.5 0 0 1 3.446-1.632 75 75 0 0 0-1.221-3.223m6.956 10.18-.508-2.477c-.85.21-1.665.477-2.44.792.857 1.265 1.56 1.517 2.948 1.685m-4.144-20.705-.424-1.377-.308-.862-2.938.327q.742.972 1.5 2.18a23 23 0 0 1 2.17-.268m2.23 8.068-.621-2.853-.19-.614q-.573.063-1.136.151a67 67 0 0 1 1.522 3.388q.211-.039.425-.072m-1.033-4.19-1.01-3.273q-1.016.084-1.995.252c.584.971 1.168 2.04 1.745 3.19q.623-.101 1.26-.169m-2.195.342a45 45 0 0 0-1.787-3.174c-1.113.242-2.18.564-3.191.958.59.968 1.18 2.019 1.763 3.144a21.4 21.4 0 0 1 3.215-.928m3.612 8.441a80 80 0 0 0-1.308-3.419c-1.103.23-2.165.538-3.176.912a83 83 0 0 1 1.292 3.252 23 23 0 0 1 3.192-.745m-9.531-10.264a18 18 0 0 0-3.405 1.984 42 42 0 0 1 1.778 3.066 18.4 18.4 0 0 1 3.433-1.935 37 37 0 0 0-1.806-3.115m2.154 3.796a18.4 18.4 0 0 0-3.44 1.912 63 63 0 0 1 1.66 3.527 18 18 0 0 1 3.374-1.968 59 59 0 0 0-1.594-3.471m-4.114-6.189-.512.232a11.8 11.8 0 0 0-2.504 2.153q.493.639.993 1.384a18 18 0 0 1 3.394-1.99 20 20 0 0 0-1.371-1.779m5.556.293q-.683-1.052-1.354-1.908a11.6 11.6 0 0 0-3.153.903q.66.904 1.328 1.963a21 21 0 0 1 3.179-.958m-7.369 16.136q.27-.542.601-1.061a55 55 0 0 0-1.957-3.305 11.2 11.2 0 0 0-1.272 2.747q.303.745.698 1.44l.003-.003c.133-.082.25-.137.398-.189l.282-.052c.301-.01.53.035.81.148l.243.13q.104.071.194.145m-2.889-2.322c.273-.903.669-1.771 1.173-2.595a35 35 0 0 0-1.743-2.414q-.056.573-.056 1.159c0 1.345.22 2.64.626 3.85m4.712-5.509a14.5 14.5 0 0 0-2.618 2.657 92 92 0 0 1 1.93 3.342 14.4 14.4 0 0 1 2.423-2.51 51 51 0 0 0-1.735-3.489m-2.263-3.578a14 14 0 0 0-2.55 2.818q.91 1.33 1.839 2.834a14.4 14.4 0 0 1 2.617-2.712 29 29 0 0 0-1.906-2.94m-3.065 2.079.14.2a14 14 0 0 1 2.513-2.81 15 15 0 0 0-.936-1.06 11.6 11.6 0 0 0-1.717 3.67m5.782 7.041q-.5.506-.947 1.037.443.596.884 1.217h.01c.179.023.323.057.492.116.202.096.356.192.515.35l.33-.275.215-.125.225-.094.23-.059h.01q.406-.297.837-.574-.588-1.532-1.204-2.937-.854.635-1.597 1.344" class="fil5"/><path d="M94.14 34.597a19 19 0 0 0-1.179.656q.529 1.478 1.02 3.06.338-.177.686-.342a4.1 4.1 0 0 1-.605-1.492 4 4 0 0 1 .078-1.882m-.543 4.41q-.18-.485-.365-.956-.21.144-.415.292c-.102.11-.214.207-.353.287l.05.074.098.198.07.205.04.211.008.202q.423-.265.867-.513" class="fil5"/><path d="m95.038 40.437.184-1.289-.859.368z" class="fil4"/><path d="M89.693 40.163c.68.724 1.685 1.236 2.842 1.353 2.022.205 3.833-.86 4.322-2.44q.037-.123.064-.248l.007-.03.008-.04.01-.054.003-.022.01-.072.002-.014.009-.071.001-.01v-.007l.354-.143a2.1 2.1 0 0 0 .607-.241l.012-.009.185-.074q.076.17.17.33l.003.006.038.063v.001c.766 1.25 2.324 2.108 4.114 2.108 2.342 0 4.286-1.47 4.578-3.362h1.253c.292 1.892 2.236 3.362 4.579 3.362 1.79 0 3.347-.858 4.113-2.108v-.001l.038-.063.003-.005a4 4 0 0 0 .17-.331l1.158.467v.006l.002.01.008.072.002.014a2 2 0 0 0 .024.148l.007.04.007.03q.027.126.065.247c.488 1.58 2.3 2.646 4.321 2.44 1.157-.116 2.163-.628 2.842-1.352l.57.751a6.3 6.3 0 0 1-2.535 1.423c-2.6.755-5.23-.199-6.26-2.146-1.084.846-2.564 1.383-4.203 1.416-2.243.045-4.232-.865-5.335-2.255h-.405c-1.103 1.39-3.092 2.3-5.335 2.255-1.638-.033-3.12-.57-4.203-1.416-1.03 1.947-3.66 2.901-6.26 2.146a6.3 6.3 0 0 1-2.535-1.423zm24.617-6.633.126-.935q1.596.23 3.085.658l-.153.423-.147.062-.362.248-.312.313-.256.37-.197.418a4 4 0 0 0-.147.577c-.046.36-.036.683.038 1.038l.06.216.014.037a23 23 0 0 0-1.898-.388l.176-.127.176-.173.154-.2.128-.224c.117-.289.212-.58.212-.895l-.043-.292-.07-.264-.099-.246-.128-.225-.154-.2-.176-.172z" class="fil5"/><path d="m113.6 39.773-.537.034.509-2.478q1.379.416 2.64.984l-.599.755-1.057.554zm3.94-21.043.517-1.344.365-.84 2.909.524a29 29 0 0 0-1.643 2.074 23 23 0 0 0-2.148-.414m-2.77 7.9.813-2.804.23-.6q.569.1 1.123.227a67 67 0 0 0-1.746 3.277q-.21-.052-.42-.1m1.31-4.111 1.228-3.197q1.008.152 1.975.386a48 48 0 0 0-1.957 3.066q-.615-.144-1.246-.255m2.17.489a45 45 0 0 1 1.998-3.046c1.093.317 2.136.71 3.118 1.171a53 53 0 0 0-1.97 3.018 21.4 21.4 0 0 0-3.146-1.143m-4.17 8.178c.5-1.15 1.014-2.26 1.536-3.322a22 22 0 0 1 3.107 1.124 83 83 0 0 0-1.509 3.157 23 23 0 0 0-3.134-.959m10.2-9.597c1.2.64 2.295 1.383 3.263 2.21a42 42 0 0 0-1.981 2.938 18.4 18.4 0 0 0-3.294-2.162 37 37 0 0 1 2.012-2.986m2.11-2.255.496.266c.89.66 1.682 1.44 2.353 2.317q-.536.604-1.085 1.314a18 18 0 0 0-3.252-2.214q.76-.957 1.488-1.683m-5.56-.083q.753-1.002 1.48-1.812a11.6 11.6 0 0 1 3.085 1.114 35 35 0 0 0-1.457 1.87 21 21 0 0 0-3.108-1.172m-4.93 7.957a65 65 0 0 1 1.786-3.284c1.103.302 2.157.681 3.15 1.129a71 71 0 0 0-1.842 3.326 21 21 0 0 0-3.094-1.171m5.81-1.737a18.4 18.4 0 0 1 3.302 2.14 62 62 0 0 0-1.893 3.407 18 18 0 0 0-3.234-2.192 58 58 0 0 1 1.825-3.355m3.93 2.681a14.5 14.5 0 0 1 2.433 2.828 93 93 0 0 0-2.151 3.204 14.4 14.4 0 0 0-2.248-2.669 51 51 0 0 1 1.966-3.363m5.58-1.376-.153.19a14 14 0 0 0-2.318-2.973q.513-.556 1.006-.995a11.6 11.6 0 0 1 1.465 3.778m-11.51 2.636a20 20 0 0 1 3.114 2.32 77 77 0 0 0-1.6 2.801 20.5 20.5 0 0 0-3.18-2.104 75 75 0 0 1 1.666-3.017m5.03 4.377q.424.57.79 1.161l-.193.194a3 3 0 0 0-.156-.008c-.174.01-.32.033-.488.075a1.5 1.5 0 0 0-.541.31l-.17-.079-.197-.062-.205-.035-.212-.006-.213.025-.212.056-.205.087-.191.114-.138-.044q-.324-.31-.668-.61a69 69 0 0 1 1.609-2.735q.755.75 1.39 1.557M121.72 36q.132.12.26.241l-.052.114a2 2 0 0 0-.16.758l.02.221c.057.236.124.45.278.643-.15.19-.197.396-.226.632l.008.19.09.354c.079.17.16.305.27.456l.247.261c.15.124.294.224.46.324q.114.056.226.104l-.23.345a4.3 4.3 0 0 1-2.182-.28 15 15 0 0 0-.975-1A51 51 0 0 1 121.72 36m5.37-.162q-.232-.554-.524-1.089a55 55 0 0 1 2.176-3.165c.491.904.858 1.85 1.084 2.826q-.215.44-.461.857a1.9 1.9 0 0 0-.765-.207c-.18.004-.33.022-.506.061-.182.06-.327.125-.493.22a2.7 2.7 0 0 0-.429.382zm3.04-2.111a11.2 11.2 0 0 0-.995-2.668 36 36 0 0 1 1.903-2.291q.015.575-.023 1.16a12.1 12.1 0 0 1-.885 3.799m-1.83-9.232a14 14 0 0 1 2.354 2.984 72 72 0 0 0-2.026 2.703c-.652-1.033-1.47-2-2.428-2.882a29 29 0 0 1 2.1-2.805m-11.67-8.168 1.004.171a85 85 0 0 0-5.214 15.132l-.025-.029-.278-.198-.31-.129c1.22-5.12 2.813-10.25 4.823-14.947m-9.06 16.752c.83 0 1.505.864 1.505 1.924 0 1.059-.676 1.923-1.505 1.923s-1.505-.864-1.505-1.924c0-1.059.676-1.923 1.505-1.923m-7.07 1.913c.104-1.194 1.164-1.491 1.87-.993l.061-.077c-1.624-1.466 1.826-2.9 3.101.058l-.009.04c-1.459.636-2.359.72-3.951.885 1.535-.04 2.284.105 3.951.885l.035.156c-1.254 3.04-4.763 1.596-3.127.12l-.06-.077c-.707.498-1.767.201-1.87-.993h-.001z" class="fil5"/><path d="M107.41 28.068c1.18.107 1.472 1.19.98 1.912l.076.063c1.448-1.662 2.864 1.866-.056 3.17l-.04-.009c-.629-1.492-.712-2.412-.874-4.04.04 1.57-.104 2.335-.874 4.04l-.154.036c-3.001-1.282-1.576-4.87-.118-3.197l.076-.063c-.492-.722-.2-1.805.98-1.912z" class="fil5"/><path d="M114.52 34.89c-.105-1.11-1.17-1.387-1.88-.924l-.06-.071c1.64-1.597-2.08-2.988-3.323-.206 1.057.613 1.835.765 2.997 1.04-1.324-.082-1.795.253-2.86 1.264 1.18 2.823 4.87 1.44 3.185-.104l.061-.072c.71.464 1.775.188 1.88-.923zm-6.99-2.928c.058.297.125.497.244.776a1.5 1.5 0 0 0-.48-.023c.088-.252.166-.496.236-.753m-2.93 2.882q.559.146 1.114.31a3 3 0 0 1 .044-.69 9 9 0 0 1-1.158.38" class="fil5"/><path d="M110.31 34.842a2.8 2.8 0 0 0-.851.438c.051-.347.049-.494-.037-.836.304.164.574.285.888.398m-13.826-.715c.818-.157 1.642.533 1.834 1.535s-.318 1.947-1.136 2.104-1.642-.532-1.834-1.534.318-1.948 1.136-2.105m22.656-.037c-.867-.26-1.834.392-2.154 1.454s.126 2.141.993 2.402c.866.26 1.834-.392 2.154-1.454s-.126-2.141-.993-2.402m-32.424 4.867c.373-.408 1.182-.28 1.8.285s.818 1.359.445 1.767-1.182.28-1.8-.284-.819-1.36-.445-1.768m3.734-2.33-.186.483-.303.003c.286-1.294-2.313-1.685-2.033.99.951.452 2.067.4 2.959-.238-.79.791-.897 1.022-1.333 1.958 1.068 1.484 3.771.092 1.937-1.339l-.055-.141c2.523-.37.55-3.69-.986-1.716m-4.259 1.715.913.074c.18-.798.174-.974-.012-1.776-.556-1.156-1.989-1.332-2.122.135l-.099.025c-.908-1.338-2.463-.248-1.8 1.16.713-.083 1.12-.145 1.75-.47.264.417.435.431.914.507l.271.222z" class="fil5"/><path d="m84.39 38.404 1.591.863.012-.333-.357-.333-.592-.493-.58-.074z" class="fil5"/><path d="M89.402 39.542c.242-.427.458-.732.76-1.115-.55.255-.744.273-1.327.3.312.29.402.418.567.815" class="fil4"/><path d="M122.55 36.485c.558-.814 1.438-.598 1.743.045l.15-.03c-.323-1.124 2.523-1.192 2.126 1.296l-.023.025c-.263.586-2.02-.23-3.062-.593.763.545 1.075.87 1.528 1.77l.036.739c-2.057.808-3.658-1.61-1.696-1.7l.024-.098c-.671.077-1.287-.56-.827-1.451v-.001z" class="fil5"/><path d="m124.65 38.116 1.05.572.01-.221-.24-.22-.39-.327-.38-.049zm-17.04 5.028 2.071 1.234 2.07 1.235-2.07 1.234-2.071 1.234-4.142-2.468zm0 .61 1.56.93 1.558.929-1.559.929-1.559.93-1.559-.93-1.56-.93 1.56-.928z" class="fil5"/><path d="M105.69 47.54c-5.871.162-10.915 1-13.762 2.183l.445-.384 2.082-1.797-2.093-1.48-.537-.38c2.891-1.232 8.152-2.099 14.264-2.234l-3.632 2.165 2.58 1.537zm-9.39-2.625 3.196-.373a1.52 1.52 0 0 1 1.682 1.331 1.52 1.52 0 0 1-1.33 1.681l-3.197.373a1.52 1.52 0 0 1-1.682-1.331 1.52 1.52 0 0 1 1.33-1.681m12.831-1.474c6.803.122 12.593 1.15 15.306 2.586l-1.22.482-2.314.913 1.653 1.912c-3.005-.994-7.675-1.676-13.002-1.801l.642-.383 2.58-1.537-2.58-1.538zm9.23 1.43-3.196-.373a1.52 1.52 0 0 0-1.681 1.33 1.52 1.52 0 0 0 1.33 1.682l3.197.373a1.52 1.52 0 0 0 1.681-1.331 1.52 1.52 0 0 0-1.33-1.682" class="fil5"/><path d="m124.74 46.54-.31.122-2.32.914 1.73 2 .22.249.15-.722-1.16-1.344 1.56-.619zm-33.863-.768.717.507 1.86 1.315-1.85 1.596-.685.59-.01-.936 1.449-1.25-1.473-1.042zm17.653-3.573q.048.093.095.172a.7.7 0 0 0 .433.312c-.281.059-.623.08-.885-.045-.125-.054-.23-.159-.354-.403a3 3 0 0 0-.079-.155.88.88 0 0 0-.47-.312c.562-.087.964-.118 1.26.431m-.28-.408c.178-.03.358-.058.617-.042a.96.96 0 0 1 .636.461q.047.093.092.173a.64.64 0 0 0 .446.344c-.549.062-1.062.046-1.323-.526a4 4 0 0 0-.095-.172.8.8 0 0 0-.374-.238m.88.013c.73-.152 1.126-.039 1.518.65a.67.67 0 0 0 .385.28c-.573.14-1.068.045-1.348-.521a4 4 0 0 0-.092-.172c-.174-.15-.25-.215-.463-.237m1.013.02c.201-.033.363-.047.568-.028.283.047.53.173.722.514q.047.093.092.172c.096.172.212.27.338.326-.313.058-.501.022-.777-.1-.126-.054-.231-.16-.36-.407q-.039-.085-.076-.157a.97.97 0 0 0-.507-.32m1.019.023c.646-.096 1.078.067 1.375.703.08.175.18.27.29.322a1.45 1.45 0 0 1-.787-.098c-.148-.075-.27-.197-.425-.462q-.047-.092-.092-.172a.8.8 0 0 0-.361-.293m.951.052c.662-.03 1.086-.025 1.404.727.122.181.222.278.318.327-.29.004-.683.031-.928-.151-.118-.101-.164-.157-.3-.408h.001l-.07-.162a.95.95 0 0 0-.425-.333m1 .083c.722-.066 1.07.127 1.31.733.104.163.23.251.372.297-.737.051-.93.006-1.21-.545l-.066-.165a1 1 0 0 0-.406-.32m.868.06c.67-.028 1.114.075 1.383.77a.7.7 0 0 0 .353.326c-.3.022-.612-.019-.883-.153-.12-.06-.215-.168-.315-.41a3 3 0 0 0-.063-.162.87.87 0 0 0-.475-.37m.922.103c.66-.03 1.12.073 1.356.771.104.201.228.302.366.353-.308.01-.643-.03-.914-.187-.101-.06-.181-.168-.266-.41a3 3 0 0 0-.054-.162c-.157-.199-.311-.307-.488-.365m.97.143c.662-.067 1.113.108 1.344.78.078.18.166.274.27.33a1.8 1.8 0 0 1-.64-.089c-.093-.045-.166-.075-.24-.123-.102-.06-.182-.167-.267-.41l-.053-.161a.84.84 0 0 0-.413-.327m.909.092c.61-.011.96.138 1.133.796.09.19.187.284.303.337-.217.005-.489-.023-.674-.15-.097-.067-.169-.18-.236-.428l-.042-.165c-.146-.213-.3-.327-.484-.39m.74.099c.638.007.974.116 1.147.817.087.213.188.3.312.343-.242.01-.542-.05-.739-.169-.097-.066-.169-.18-.236-.428l-.041-.165c-.125-.222-.268-.337-.442-.398m.812.133c.175.014.323.027.493.072.422.086.389.54.46.709.124.223.308.338.52.41-.254-.013-.616-.053-.832-.212-.09-.067-.158-.18-.22-.429l-.04-.164c-.108-.209-.232-.322-.381-.386m-10.224.08c-.285.037-.6.104-.92-.068-.125-.047-.23-.145-.353-.376a3 3 0 0 0-.08-.155.86.86 0 0 0-.525-.31c.2-.022.31-.058.602-.063.46.028.653.243.904.664a.53.53 0 0 0 .372.308m-1.023.002c-.29.043-.514.04-.796-.042-.132-.05-.242-.152-.372-.395q-.042-.087-.083-.163a.84.84 0 0 0-.445-.29c.616-.063 1.035-.05 1.364.593a.54.54 0 0 0 .332.297m-.932.015c-.288.027-.465.047-.75-.041-.132-.048-.243-.148-.375-.384a3 3 0 0 0-.084-.158.9.9 0 0 0-.461-.285c.219-.035.249-.044.47-.046.367.037.648.2.879.618a.57.57 0 0 0 .321.296m-.846.024c-.278.024-.525.065-.8-.017-.137-.05-.252-.153-.388-.396q-.043-.087-.086-.162a.84.84 0 0 0-.443-.27c.159-.012.26-.037.478-.035.403.019.636.204.874.583a.55.55 0 0 0 .365.297m-.899.036c-.292.034-.525.084-.816-.006-.137-.048-.251-.148-.387-.384a3 3 0 0 0-.086-.158.84.84 0 0 0-.48-.27c.181-.035.223-.052.45-.067.477.033.687.192.942.593a.54.54 0 0 0 .377.292m-.9.049c-.365.022-.568.08-.85-.015-.143-.048-.263-.148-.404-.384q-.045-.085-.09-.158a.77.77 0 0 0-.43-.236l.48-.04c.38.016.668.162.902.546.102.181.24.26.391.287m-.78.052c-.336.044-.632.117-.968.013-.135-.048-.248-.148-.381-.384a4 4 0 0 0-.085-.158.7.7 0 0 0-.404-.235c.555-.08.998-.098 1.272.465.14.24.348.3.567.299m-.97.078c-.306.052-.532.107-.84.029-.142-.046-.26-.141-.4-.365a3 3 0 0 0-.09-.15.8.8 0 0 0-.604-.237c.6-.102 1.08-.2 1.467.426a.54.54 0 0 0 .467.297m-.895.086c-.303.046-.532.081-.843.039-.142-.046-.26-.14-.4-.365a3 3 0 0 0-.09-.15.75.75 0 0 0-.492-.2c.472-.138 1.036-.229 1.388.398a.56.56 0 0 0 .437.278m-.863.077c-.26.052-.598.12-.856.065-.155-.038-.29-.13-.457-.36q-.055-.083-.107-.153a.83.83 0 0 0-.455-.204c.53-.193 1.075-.148 1.403.393.124.182.29.247.472.26m-.894.13c-.319.074-.573.146-.878.082-.162-.04-.302-.136-.476-.375q-.058-.087-.112-.16a.84.84 0 0 0-.389-.186l.35-.074c.413-.039.737.071 1 .45a.6.6 0 0 0 .505.264m-.92.129c-.51.105-.985.3-1.383-.247a3 3 0 0 0-.115-.157c-.081-.051-.16-.1-.246-.126a.9.9 0 0 0-.325-.025c.343-.1.74-.246 1.096-.11.172.068.315.213.448.412.155.17.334.238.525.253m-.979.161c-.32.07-.597.152-.913.134-.192-.037-.343-.125-.506-.349a4 4 0 0 0-.131-.143.96.96 0 0 0-.52-.148c.537-.181.939-.367 1.465.112q.06.085.115.157c.149.154.314.22.49.237m-1.018.195c-.41.104-.498.169-.884.126-.197-.03-.356-.113-.533-.33q-.07-.076-.136-.138a1 1 0 0 0-.439-.13q.198-.051.401-.1l-.055.023c.387-.124.71-.116 1.046.175q.068.076.132.144a.7.7 0 0 0 .468.23m-.9.19q-.252.056-.5.116c-.163.01-.3.024-.424.018-.197-.01-.359-.076-.543-.269q-.073-.073-.142-.133a.96.96 0 0 0-.495-.11c.282-.119.432-.156.677-.195.244-.027.472.03.713.222q.07.076.137.139c.183.178.38.225.578.212m-1.01.243q-.35.09-.682.184c-.306.008-.487-.047-.77-.245q-.112-.072-.213-.13a.73.73 0 0 0-.428-.107c.47-.208.963-.424 1.44-.03q.075.073.142.134a.7.7 0 0 0 .51.194m-.996.275c-.821.271-.903.19-1.556-.132a1.1 1.1 0 0 0-.573-.016c.427-.324.812-.48 1.44-.073.079.056.146.092.214.13a.76.76 0 0 0 .475.09m-.815.236-.288.15c-.785.325-1.119-.39-1.862-.16 1.15-.776 1.258.076 2.15.01m-.779.317q-.228.08-.45.162c-.102.03-.192.057-.278.07-.2.033-.375.008-.6-.137q-.09-.05-.17-.09a1 1 0 0 0-.45-.01c.586-.366.739-.286 1.384-.032.212.066.368.075.564.037m-.753.276c-.169.12-.283.177-.489.245-.125.036-.263.047-.526-.023-.242-.153-.315-.213-.405-.218v-.156c.286-.186.584.007.83.136.208.06.4.056.59.016m-.608.306-.36.192q-.083.031-.16.05a.8.8 0 0 1-.292.02v-.483c.137.114.347.342.812.221m-.677.38q-.069.042-.135.086v-.065a1 1 0 0 0 .135-.021m29.39-3.208q.336.065.661.132c.205.074.35.216.445.531.134.31.264.493.48.6-.247.005-.564-.1-.855-.264-.178-.102-.299-.231-.386-.49a4 4 0 0 0-.067-.188.53.53 0 0 0-.277-.321m.951.212c.706.107.871.164 1.15.708.16.294.304.47.529.575-.436-.045-.624-.033-.942-.269-.157-.114-.26-.252-.317-.52a4 4 0 0 0-.099-.189 1.1 1.1 0 0 0-.32-.305m.865.231c.8.019 1.07.174 1.268.764.11.262.216.438.366.558-.443-.111-.37-.066-.744-.27-.164-.119-.274-.26-.34-.532-.05-.066-.093-.137-.132-.19a1.3 1.3 0 0 0-.418-.33m1.065.237c.576.133 1.12.18 1.2.794.1.312.206.505.397.633-.333-.057-.541-.112-.817-.295-.156-.128-.258-.276-.311-.562q-.045-.097-.089-.182a1.2 1.2 0 0 0-.38-.388m1.151.346c.533.11.916.232 1.002.845.087.264.177.446.313.577-.37-.096-.494-.122-.718-.338-.153-.135-.249-.287-.288-.566a3 3 0 0 0-.04-.19q-.107-.196-.269-.328m.884.362c.218.003.37.046.545.125.332.182.435.35.525.777.108.267.213.456.362.604-.305-.083-.42-.114-.71-.271-.17-.173-.28-.355-.343-.689a4 4 0 0 0-.045-.19 1.1 1.1 0 0 0-.334-.356m.955.385c.328.153.7.28.814.702.052.236.118.376.262.478v.322l-.133-.057c-.126-.083-.226-.13-.324-.218-.144-.16-.23-.328-.25-.623a3 3 0 0 0-.044-.186 1.4 1.4 0 0 0-.325-.418m.853.437q.115.069.223.138v.453a.5.5 0 0 1-.093-.267l-.016-.124a.8.8 0 0 0-.114-.2m-19.65 3.179c.538-.07 1.124-.106 1.456.204.09.111.163.238.23.36.048.08.096.158.143.226.236.204.421.291.604.325-.83.181-1.14.112-1.708-.543a5 5 0 0 0-.143-.226c-.192-.211-.309-.317-.582-.346m-1.16.042c.504-.08.96-.194 1.376.17.09.111.162.238.23.36.048.08.096.158.142.226.225.193.404.284.579.325-.807.16-1.123.118-1.69-.543h.001a5 5 0 0 0-.143-.226c-.173-.174-.287-.274-.495-.312m-1.27.032c.515-.084.994-.206 1.399.146.09.111.162.238.23.36.048.08.095.158.143.226.238.196.426.287.609.327-.852.218-1.283.171-1.734-.513a5 5 0 0 0-.143-.226c-.179-.175-.297-.276-.504-.32m-1.39.066c.37-.09.772-.175 1.204-.062.13.04.21.095.326.182.09.111.163.238.23.36.048.08.096.158.143.226.217.174.392.266.56.313-.425.117-.698.106-1.118.033-.281-.11-.407-.326-.572-.516a4 4 0 0 0-.132-.21c-.2-.219-.312-.315-.641-.326" class="fil5"/><path d="M101.01 48.358a3.1 3.1 0 0 1 1.18-.079.86.86 0 0 1 .415.196c.084.103.15.22.213.334q.067.113.132.209c.215.186.385.268.552.303-.34.098-.754.153-1.187.054-.299-.099-.422-.317-.588-.507a4 4 0 0 0-.126-.2c-.186-.205-.292-.297-.591-.31" class="fil5"/><path d="M99.834 48.455c.343-.078.694-.14 1.064-.088a.8.8 0 0 1 .382.183c.08.099.143.21.202.318.043.07.085.14.126.2.219.214.388.29.563.313a2.6 2.6 0 0 1-1.094.054c-.29-.094-.41-.305-.569-.49-.041-.067-.081-.134-.121-.191-.177-.194-.278-.283-.553-.299" class="fil5"/><path d="M98.644 48.574c.347-.077.703-.148 1.08-.109a.8.8 0 0 1 .354.175c.077.094.138.202.195.305q.063.105.122.193c.217.213.382.283.556.304-.346.074-.686.11-1.019.063-.283-.087-.398-.29-.55-.466a4 4 0 0 0-.115-.181c-.186-.205-.284-.286-.623-.284" class="fil5"/><path d="M97.676 48.688c.302-.077.611-.148.928-.11.176.034.25.08.371.172.073.09.13.191.184.289q.059.097.115.18c.221.219.386.278.566.292-.34.058-.671.11-.995.073-.265-.086-.375-.279-.52-.447q-.057-.094-.111-.175c-.168-.184-.261-.265-.538-.274" class="fil5"/><path d="M96.684 48.824c.293-.083.594-.173.918-.127.15.032.219.077.33.161.07.086.125.185.177.279.038.062.075.123.111.175.205.202.36.263.526.28-.314.062-.623.114-.947.083-.25-.082-.354-.265-.492-.424a3 3 0 0 0-.105-.166c-.16-.177-.25-.254-.518-.261" class="fil5"/><path d="M95.766 48.97c.258-.083.523-.17.856-.137.14.03.207.073.312.153.067.081.12.175.17.265h-.001q.054.09.105.166c.196.193.344.25.502.266-.319.079-.627.155-.938.097-.24-.078-.338-.253-.47-.405a4 4 0 0 0-.101-.16c-.141-.154-.224-.228-.435-.245" class="fil5"/><path d="M94.792 49.152c.272-.098.55-.217.89-.167.11.028.171.068.262.137.064.078.114.168.162.254q.05.085.1.159c.19.187.333.241.487.255-.319.082-.623.15-.904.11-.21-.074-.3-.231-.419-.369q-.048-.08-.093-.148c-.148-.162-.227-.228-.485-.231" class="fil5"/><path d="M94.013 49.323c.21-.086.407-.199.743-.163.13.027.189.065.283.136.06.073.106.156.15.235q.048.08.094.148c.165.162.291.216.423.233-.277.078-.53.19-.837.123-.2-.072-.286-.222-.4-.353q-.045-.077-.09-.142c-.12-.133-.194-.199-.366-.217m-.758.195c.324-.117.592-.292.896-.063.056.07.101.15.144.226q.045.076.09.142c.159.157.281.208.41.224-.213.082-.443.154-.712.126-.182-.067-.26-.203-.365-.323q-.042-.07-.082-.13c-.12-.132-.189-.193-.381-.202" class="fil5"/><path d="M92.572 49.731c.193-.103.398-.232.639-.2a.54.54 0 0 1 .217.113c.051.063.092.136.131.206q.042.07.082.13c.148.145.26.192.38.205-.185.074-.331.165-.633.137-.174-.058-.248-.183-.346-.293q-.038-.062-.075-.116c-.12-.128-.184-.18-.395-.182" class="fil5"/><path d="M91.979 49.96c.14-.106.285-.222.572-.222a.5.5 0 0 1 .223.107c.048.056.086.122.121.184q.039.064.076.116c.147.141.256.179.376.187-.17.08-.306.178-.546.148-.179-.044-.258-.162-.36-.263l-.079-.106c-.12-.114-.185-.16-.383-.151" class="fil5"/><path d="M91.43 50.242c.146-.122.313-.286.53-.274.095.015.141.04.215.088a1 1 0 0 1 .127.17q.04.057.079.106c.159.134.27.158.393.155-.158.075-.267.17-.487.175-.173-.026-.264-.13-.374-.217l-.091-.097c-.132-.098-.201-.137-.392-.106" class="fil5"/><path d="M91.41 50.254a.5.5 0 0 1 .219.062c.054.045.101.1.145.153q.047.053.091.097c.162.107.271.124.385.112-.12.077-.21.165-.33.18-.68.1-1.133-.47-.51-.604m31.56-.474c.234.044.454.082.644.178.44.454.139.803.027.764-.222-.081-.245-.148-.226-.432a2 2 0 0 0-.03-.143.78.78 0 0 0-.415-.367" class="fil5"/><path d="M122.1 49.551c.551.089.932.093 1.022.656.042.216.103.355.235.457-.23-.028-.357-.026-.634-.184-.161-.176-.124-.379-.22-.58a.76.76 0 0 0-.403-.349" class="fil5"/><path d="M121.25 49.298c.485.074.951.104 1.123.688.072.244.153.394.3.497a1.4 1.4 0 0 1-.596-.16l-.178-.101a.63.63 0 0 1-.223-.423 2 2 0 0 0-.028-.14.97.97 0 0 0-.398-.361" class="fil5"/><path d="M120.04 49.078c.566-.067 1.261.032 1.435.668.112.266.219.423.41.532-.752-.057-.898.016-1.402-.77a6 6 0 0 0-.142-.24 3 3 0 0 0-.301-.19m-1.36-.25c.348.003.813-.07 1.3.298.089.118.16.253.227.382.048.085.096.168.142.24.188.162.345.256.492.31-.32.007-.664-.002-1.051-.14-.294-.127-.427-.371-.602-.586h.001a6 6 0 0 0-.142-.24 2 2 0 0 0-.367-.264m-1.35-.172c.373-.003.735-.013 1.087.12.1.04.173.093.272.173.09.118.161.253.228.382.048.085.095.168.142.24.185.153.34.248.485.308-.32-.002-.652-.007-.999-.114-.36-.118-.509-.381-.707-.61a6 6 0 0 0-.152-.24 1.5 1.5 0 0 0-.356-.259m-1.49-.165c.585-.079 1.09-.132 1.456.282.096.118.172.253.243.382.052.085.102.168.152.24.21.162.384.248.549.29-.892.055-1.145.197-1.78-.65a6 6 0 0 0-.151-.24c-.174-.149-.3-.248-.469-.304m-1.48-.138c.59-.082 1.205-.126 1.57.3.096.118.172.253.244.382a4 4 0 0 0 .152.24c.222.176.404.277.575.336-.387.051-.784.01-1.192-.095-.355-.12-.503-.38-.7-.607a6 6 0 0 0-.152-.24.86.86 0 0 0-.497-.316m-1.46-.085c.556-.082 1.21-.108 1.57.259.096.117.172.252.244.382q.077.129.151.24c.227.2.41.298.587.346-.422.06-.852.106-1.316-.043-.328-.128-.455-.399-.628-.637a5 5 0 0 0-.152-.24c-.168-.152-.29-.251-.456-.307m-1.56-.082c.577-.065 1.155-.154 1.62.247.096.118.172.253.244.383.051.084.102.167.151.24.217.212.392.31.564.355-.39.054-.767.036-1.135-.03-.333-.125-.472-.38-.658-.605q-.074-.125-.146-.232c-.206-.227-.328-.335-.64-.358" class="fil5"/><path d="M110.04 48.146c.705-.084 1.085-.17 1.575.26.093.115.166.245.235.37q.075.125.147.23c.208.206.376.3.542.344-.342.029-.694.056-1.137-.038-.35-.113-.495-.368-.688-.59a5 5 0 0 0-.146-.231c-.18-.198-.295-.305-.528-.345m-1.4-.016c.548-.095 1.178-.185 1.553.223.092.114.166.244.235.37q.075.123.146.23c.225.221.403.315.582.353-.366.064-.696.097-1.151.002-.338-.127-.479-.385-.667-.613-.05-.081-.098-.161-.146-.231-.193-.188-.318-.294-.552-.334m-.24-.028c.182.05.275.113.419.225.093.114.166.244.235.37.05.081.099.161.147.23.22.218.397.312.573.35-.344.042-.697.09-1.046-.011-.327-.114-.465-.357-.649-.569a4 4 0 0 0-.143-.226c-.206-.226-.325-.33-.644-.35.36-.012.673-.098 1.108-.019" class="fil5"/><path d="M107.63 39.73c.513.765.793 1.067 1.521 1.628-1.133-.116-1.934-.124-3.07.029a9 9 0 0 0 1.549-1.657m9.71.92c-.654.547-1.1.744-1.885 1.081q1.624.22 3.156.465c-.587-.563-.876-.857-1.271-1.546m-19.358.268c.46.35.81.543 1.336.787q-1.164.171-2.264.356c.403-.397.637-.66.928-1.143" class="fil4"/><path d="M128.26 38.21c-.373-.408-1.182-.28-1.8.285s-.818 1.359-.445 1.767c.374.409 1.182.28 1.8-.284s.818-1.36.445-1.768" class="fil5"/><path d="m129.54 36.333-.166.43.008-.201c.166-1.088-2.16-1.431-2.092 1.087.85.403 1.845.357 2.64-.212-.705.706-.8.911-1.19 1.747.691 1.08 2.981-.272 1.729-1.195l-.05-.126c2.25-.329.49-3.291-.879-1.53" class="fil5"/><path d="M128.72 38.562c.145-.255.274-.437.455-.667-.33.153-.445.164-.794.18.186.173.24.25.339.487" class="fil5"/><path d="m89.11 41.8 1.224 2.048c.978-.335.978-.354 2.186-.677-1.251-.148-2.393-.622-3.41-1.371m37.45-.313-1.087 2.53c-1.083-.467-1.083-.488-2.416-.97 1.276-.212 2.449-.747 3.503-1.56m-32.056-.895-.665-.847c-.379.172-.733.32-1.128.451-.06.228-.17.368-.442.496l.03.29c.908.083 1.71.01 2.205-.39m17.836-22.029a67 67 0 0 0-2.536 10.497l.134.068.182.133.157.154.245.355.163.398.088.433.012.458-.046.325c.205.045.412.097.63.155.86-4.485 2.2-8.943 4.07-13.139-.98.14-2.018.198-3.099.163m-9.54.219a66.4 66.4 0 0 1 2.48 10.181c-.073.02-.145.044-.208.064l-.207.108-.182.135-.157.157-.243.36-.16.403-.085.437-.007.462.072.47c-.376.068-.756.146-1.159.237a58.4 58.4 0 0 0-3.227-13.33c.972.195 2.005.303 3.083.316m15.34 26.403-2.765-.294a1.204 1.204 0 0 0-1.33 1.055c-.07.65.416 1.24 1.078 1.31l2.765.295a1.204 1.204 0 0 0 1.33-1.055c.07-.65-.415-1.24-1.078-1.311m-21.515.033 2.765-.288a1.205 1.205 0 0 1 1.329 1.058c.067.65-.42 1.24-1.082 1.309l-2.766.288a1.204 1.204 0 0 1-1.328-1.058c-.068-.65.42-1.24 1.082-1.309m13.335-6.213.197-1.25c-.389-.247-.619-.417-.934-.752l-.369.238c.179.864.502 1.19 1.106 1.764m-5.77.457-.198-1.136c.813-.19 1.257-.46 1.854-1.333l.423.27c-.347 1.112-.96 1.75-2.079 2.199" class="fil4"/><path d="M.005 58.657h215.16v25.262H.005z" style="fill:#fff"/></svg>