<svg xmlns="http://www.w3.org/2000/svg" xmlns:xlink="http://www.w3.org/1999/xlink" width="900" height="600"><defs><linearGradient id="a"><stop offset="0" stop-color="silver"/><stop offset=".5" stop-color="#f7f7f7"/><stop offset="1" stop-color="silver"/></linearGradient><linearGradient id="b"><stop offset="0" stop-color="#d4af38"/><stop offset=".5" stop-color="#ffd90d"/><stop offset="1" stop-color="#d4af38"/></linearGradient><linearGradient xlink:href="#a" id="d" x1="25.719" x2="104.84" y1="251.69" y2="373.66" gradientTransform="translate(-745.66 -302.38)scale(1.3268)" gradientUnits="userSpaceOnUse"/><linearGradient xlink:href="#a" id="e" x1="39.346" x2="132.15" y1="221.86" y2="174" gradientTransform="translate(-745.66 -302.38)scale(1.3268)" gradientUnits="userSpaceOnUse"/><linearGradient xlink:href="#b" id="f" x1="228.88" x2="314.68" y1="169.16" y2="227.5" gradientTransform="translate(-745.66 -302.38)scale(1.3268)" gradientUnits="userSpaceOnUse"/><linearGradient xlink:href="#a" id="g" x1="-759.19" x2="-751.8" y1="108.78" y2="108.78" gradientTransform="translate(1493.6 94.745)scale(1.3268)" gradientUnits="userSpaceOnUse"/><linearGradient xlink:href="#a" id="h" x1="-124.18" x2="-116.78" y1="761.95" y2="761.95" gradientTransform="translate(-59.611 -1495.4)scale(1.3268)" gradientUnits="userSpaceOnUse"/><linearGradient xlink:href="#b" id="i" x1="479.12" x2="509.03" y1="557.54" y2="590.98" gradientTransform="translate(-1111.4 -1002.3)scale(1.3268)" gradientUnits="userSpaceOnUse"/><linearGradient xlink:href="#a" id="j" x1="432.55" x2="476.11" y1="600.5" y2="600.5" gradientTransform="translate(-1111.4 -1002.3)scale(1.3268)" gradientUnits="userSpaceOnUse"/><linearGradient xlink:href="#b" id="k" x1="390.13" x2="450.86" y1="608.51" y2="552.53" gradientTransform="translate(-1111.4 -1002.3)scale(1.3268)" gradientUnits="userSpaceOnUse"/><linearGradient xlink:href="#b" id="l" x1="456.64" x2="506.18" y1="616.69" y2="616.69" gradientTransform="translate(-1113.1 -1002.3)scale(1.3268)" gradientUnits="userSpaceOnUse"/><linearGradient xlink:href="#b" id="m" x1="405.04" x2="454.58" y1="616.57" y2="616.57" gradientTransform="translate(-1113.1 -1002.3)scale(1.3268)" gradientUnits="userSpaceOnUse"/><linearGradient xlink:href="#b" id="n" x1="228.88" x2="314.68" y1="169.16" y2="227.5" gradientTransform="translate(-745.66 -204.28)scale(1.3268)" gradientUnits="userSpaceOnUse"/><linearGradient xlink:href="#b" id="t" x1="228.88" x2="314.68" y1="169.16" y2="227.5" gradientTransform="translate(-745.66 -106.17)scale(1.3268)" gradientUnits="userSpaceOnUse"/></defs><path fill="#c42730" d="M0 0h900v600H0z"/><path fill="#2e418a" d="M92.688 450C64.319 461.641 26.81 474.404 0 466.406v133.59h900v-143.06c-31.312 9.757-63.019 18.085-103.81-6.937-44.439 17.903-86.394 29.48-112.41 0-38.401 14.421-77.067 24.96-118.09 0-38.088 15.628-76.288 27.64-115.69 0-39.364 10.64-70.024 31.133-120.78 0-34.54 16.843-89.956 29.48-115.97 0-38.401 14.421-77.415 34.86-120.56 0z"/><path fill="#fff" d="M94.812 534.19C65.694 546.138 26.921 559.259 0 549.909v20.844c24.291.515 52.953-9.565 75.719-18.906 43.148 34.86 82.162 14.422 120.56 0 26.012 29.48 81.429 16.844 115.97 0 50.757 31.134 81.417 10.64 120.78 0 39.399 27.64 77.599 15.629 115.69 0 41.026 24.961 79.693 14.422 118.09 0 26.012 29.48 67.967 17.904 112.41 0 48.153 29.537 83.655 12.618 120.78 1.719v-11.781c-30.626 9.457-61.816 16.863-101.69-7.594-44.439 17.904-86.394 29.48-112.41 0-38.401 14.422-77.067 24.961-118.09 0-38.088 15.629-76.288 27.64-115.69 0-39.364 10.64-70.024 31.134-120.78 0-34.54 16.844-89.956 29.48-115.97 0-38.401 14.422-77.415 34.86-120.56 0zm-2.125-55.188c-28.369 11.641-65.878 24.404-92.688 16.406v20.188c23.824-.088 51.489-9.867 73.594-18.938 43.148 34.86 82.162 14.422 120.56 0 26.012 29.48 81.429 16.844 115.97 0 50.757 31.134 81.417 10.64 120.78 0 39.399 27.64 77.599 15.629 115.69 0 41.026 24.961 79.693 14.422 118.09 0 26.012 29.48 67.967 17.904 112.41 0 49.076 30.103 84.999 11.947 122.91 1.094V485.94c-31.312 9.756-63.019 18.085-103.81-6.938-44.439 17.904-86.394 29.48-112.41 0-38.401 14.422-77.067 24.961-118.09 0-38.088 15.63-76.288 27.64-115.69 0-39.364 10.64-70.024 31.134-120.78 0-34.54 16.844-89.956 29.48-115.97 0-38.401 14.422-77.415 34.86-120.56 0z"/><path fill="#c42730" d="M240.857 49.811H50.155l95.351 110.102z"/><path fill="#183883" d="M147.372 286.15c1.11-1.926 2.442-3.693 4.174-5.165 3.932-3.343 9.603-5.23 17.765-5.23h62.702c4.438 0 7.182-.548 8.74-1.97s2.4-4.08 2.4-9.17V52.914l-95.781 110.573v122.666z"/><path fill="#0093dd" d="M47.848 52.902v211.714c0 5.09.86 7.75 2.413 9.17 1.554 1.42 4.276 1.97 8.713 1.97h62.702c8.163 0 13.834 1.887 17.766 5.23 1.724 1.466 3.053 3.224 4.16 5.139l.014-122.649z"/><path fill="#d4af38" d="m47.848 52.902 95.768 110.574-.013 122.649a28 28 0 0 1 1.892 3.913 28 28 0 0 1 1.878-3.887V163.485l95.78-110.573v-3.105h-2.295l-95.35 110.102L50.155 49.807h-2.308V52.9z"/><path fill="#fff" d="m47.86 47.155-2.856 2.458 98.615 113.858-.017 131.097h3.773v-131.08l98.631-113.88-2.855-2.457-97.643 112.752L47.866 47.151z"/><path fill="#d4af38" d="M45.009 46.967v217.65c0 5.402.875 9.028 3.323 11.266s5.99 2.717 10.643 2.717h62.702c7.73 0 12.605 1.732 15.922 4.552s5.192 6.854 6.525 11.786l1.367 5.07 1.368-5.07c1.333-4.932 3.207-8.966 6.524-11.786s8.192-4.552 15.923-4.552h62.701c4.654 0 8.192-.48 10.644-2.717s3.34-5.864 3.34-11.267V46.967zm2.838 2.839h195.306v214.81c0 5.09-.848 7.751-2.406 9.173s-4.302 1.973-8.74 1.973h-62.702c-8.162 0-13.824 1.883-17.756 5.226-2.843 2.417-4.704 5.551-6.058 9.052-1.354-3.501-3.215-6.635-6.057-9.052-3.932-3.343-9.594-5.226-17.757-5.226H58.976c-4.438 0-7.17-.552-8.723-1.973s-2.405-4.082-2.405-9.173z"/><path fill="#fff" d="m120.683 195.51-.415.45-1.073 10.262-8.913 3.825h8.515l-.536 5.244-9.277 3.53h8.896l-.571 5.417-10.401 3.34h10.055l-1.627 15.637-2.354 9.25h1.368l6.334-4.759 6.317 4.76h1.384l-2.302-9.25-1.678-15.637h10.055l-10.401-3.34-.572-5.418h8.913l-9.294-3.53-.536-5.244h8.532l-8.93-3.825-1.073-10.263zm0 4.43.295 2.89h-.589zm-.38 3.72h.761l.242 2.233h-1.246zm.38 2.77.693.277.294 2.734h-1.973l.294-2.734zm-1.574.623-.26 2.596h-6.317zm3.15 0 6.593 2.596h-6.334zm-2.285 3.219h1.419l-.71 1.142zm-.45.83.675 1.108-.952 1.54zm2.319 0 .277 2.649-.952-1.54zm-1.16 1.887 1.143 1.852-1.143-.225-1.142.225zm0 2.388 1.662.381.277 2.683h-3.877l.277-2.683zm-2.509.693-.26 2.37h-6.542zm5.019 0 6.801 2.37h-6.542zm-4.154 2.751h3.288l-1.644 1.783zm-.415.78 1.506 1.609-1.87 2.042zm4.119 0 .173 1.713.19 1.938-1.869-2.042zm-2.06 2.232 1.8 1.938-1.8-.38-1.8.38zm0 2.094 2.579.761.277 2.544h-5.711l.277-2.544zm-3.444 1.021-.242 2.284h-7.476zm6.888 0 7.719 2.284h-7.477zm-6.334 2.63h5.78l.278 2.718-3.167 3.53-3.168-3.548zm-.398 3.79 2.752 3.064-3.479 3.877zm6.577.053.71 6.87-3.427-3.842zm-3.271 3.634 4.136 4.621.363 3.41h-9.016l.346-3.358zm-3.704 8.861h7.373l-3.687 2.77zm-1.038.242 3.98 2.994-5.901 4.5zm9.45 0 1.92 7.494-5.901-4.5z"/><path fill="url(#d)" d="M-711.54 31.56v36.695l84.46 125.14h20.524v-8.873h-9.578l-66.589-98.64 15.673 5.805 60.494 92.836 5.805 8.873h12.19v-7.92h-6.385l-58.255-88.648 18.658 6.925 54.068 89.643h10.49v-6.966h-5.1l-50.751-79.443 11.568 4.27 49.963 82.139h6.758v-6.137h-6.385l-45.692-79.153V87.001l-101.92-55.436z" transform="translate(357.8 174.6)scale(.4174)"/><path fill="#cfcfcd" d="M101.408 221.036v-9.663l-5.402-2.851v10.51zm-16.876-18.57v12.313l8.418 3.121v-10.99zm-15.507-8.185v14.748l10.35 3.838v-13.123z"/><path fill="#666" d="M66.914 191.096v2.077l-.675-.364h-1.523v10.194l33.713 48.615h2.198l-31.601-46.8v-8.185l2.405 1.263v-2.336l9.813 5.174v9.38l27.258 42.02.969-.12-24.316-37.003 2.77 1.021-3.393-4.517v-6.697l.623.346v-2.354l8.975 4.72v10.805l22.35 34.076h1.28l-21.183-33.16 2.285.848-2.856-4.015v-5.261h.571v-1.99l5.521 2.902v7.295l19.799 33.727h.519l-19.072-33.039v-8.809z"/><path fill="#c1c1c1" d="M60.803 203.09v52.233h35.254z"/><path fill="url(#e)" d="m-652.51-40.896 10.173-5.196h13.784l41.036-23.692s15.914-5.436 19.445 0c2.418 3.722-5.414 12.165-5.414 12.165l-44.078 25.449-20.256 35.085-17.281 9.977 10.299-28.658-24.931 13.716S-676.3 1.49-680.32.82c-9.892-1.648-14.72-13.154-26.22-21.026 0 0-4.972 5.36-9.297 7.958 0 0 .25-7.59 4.355-10.89l-7.371-2.495s5.612-5.772 14.576-4.523c9.123 1.27 21.455 15.362 33.816 8.191l25.994-15.078c-3.653.337-5.646-2.094-8.042-3.853z" transform="translate(357.8 174.6)scale(.4174)"/><path fill="url(#f)" d="M-432.03-79.588c25.651 3.336 30.779 9.752 46.236 17.08 7.092-.864 16.08-.315 21.277 2.848-.7 3.856-.984 8.009-4.691 9.717 7.707 7.54 15.675 14.751 23.12 22.617 1.375 1.453-1.703 2.363-3.35 2.848 4.117 2.877 8.836 5.353 11.726 9.047 18.932 1.424 24.46 7.037 24.46 7.037-9.01 1.684-20.06 8.433-20.774 21.78-2.822-1.528-8.235-9.53-16.418-24.46-2.958.885-5.265 1.786-7.455.083-7.342-5.708-15.463-10.962-24.041-15.33 0 0-2.45 4.172-3.102 8.377-.71 4.582-5.647-4.431-6.95-11.895-39.93-19.182-49.071-35.915-50.763-43.81-1.422-6.635 6.038-6.55 10.726-5.94z" transform="translate(357.8 174.6)scale(.4174)"/><path d="M173.088 142.032a.25.25 0 0 0-.052.467c1.19.64 2.133 1.806 2.458 3.462a.25.25 0 1 0 .484-.087c-.351-1.79-1.38-3.115-2.7-3.825a.25.25 0 0 0-.19-.017m5.368.518a.704.704 0 0 0-.693.693c0 .374.32.675.693.675s.675-.301.675-.675a.69.69 0 0 0-.675-.692"/><path fill="url(#g)" d="M486.63 165.04h9.154v148.07h-9.154z" transform="matrix(-.29166 -.2986 -.2986 .29166 357.8 174.6)"/><path fill="url(#h)" d="M-224.04-555.29h9.154v141.67h-9.154z" transform="rotate(-45.673 386.205 -337.526)scale(.4174)"/><path fill="url(#i)" d="m-481.56-256.83 39.535 40.476c1.808.484 4.776.761 5.989-1.794l-3.795-23.333-28.027-28.693z" transform="translate(357.8 174.6)scale(.4174)"/><path fill="url(#j)" d="M-533.89-215.29h50.541l7.266 19.538h-65.073z" transform="translate(357.8 174.6)scale(.4174)"/><path fill="url(#k)" d="M-550.69-242.37c.516 3.868 3.3 8.089 3.3 8.089l-6.396 6.548c.03.03-2.766-1.753-11.275-4.787-9.788-3.49-25.028 36.654-28.742 37.623-1.938-6.62 11.738-38.553 25.835-51.671 14.452-13.448 38.915-26.481 54.74-22.606-12.815 8.561-38.194 21.319-37.462 26.804" transform="translate(357.8 174.6)scale(.4174)"/><path fill="url(#l)" d="M-499.66-193.81h50.541l7.266 19.538h-65.073z" transform="translate(357.8 174.6)scale(.4174)"/><path fill="url(#m)" d="M-568.13-193.97h50.541l7.266 19.538h-65.073z" transform="translate(357.8 174.6)scale(.4174)"/><path fill="#d4af38" d="m135.585 147.899 7.113 9.899h2.803l-9.847-9.847zm9.916 9.899 9.83-9.847-9.83 7.043zm0 0 9.9 9.9-7.096-9.9zm0 0-9.847 9.847 9.847-7.043z"/><path fill="gold" d="m135.593 167.707 9.908-9.908h-2.803zm19.816-.002-9.908-9.908-.001 2.803zm-.002-19.816-9.908 9.908h2.803zm-19.815 0 9.908 9.909.001-2.804z"/><path fill="#d4af38" d="m145.502 138.12-2.786 16.892 2.786 2.786zm0 19.678h19.678l-16.892-2.786zm0 0v19.677l2.786-16.89zm0 0h-19.677l16.89 2.786z"/><path fill="gold" d="M125.83 157.798h19.673l-2.782-2.782zm19.673 19.673v-19.673l-2.782 2.782zm19.674-19.673h-19.674l2.782 2.782zm-19.674-19.673v19.673l2.782-2.782z"/><path fill="url(#n)" d="M-432.03 18.518c25.651 3.336 30.779 9.752 46.236 17.08 7.092-.864 16.08-.315 21.277 2.848-.7 3.856-.984 8.009-4.691 9.717 7.707 7.54 15.675 14.751 23.12 22.617 1.375 1.453-1.703 2.363-3.35 2.848 4.117 2.877 8.836 5.353 11.726 9.047 18.932 1.424 24.46 7.037 24.46 7.037-9.01 1.684-20.06 8.433-20.774 21.78-2.822-1.528-8.235-9.53-16.418-24.46-2.958.885-5.265 1.786-7.455.083-7.342-5.708-15.463-10.962-24.041-15.33 0 0-2.45 4.172-3.102 8.377-.71 4.582-5.647-4.431-6.95-11.895-39.93-19.182-49.071-35.915-50.763-43.81-1.422-6.635 6.038-6.55 10.726-5.94z" transform="translate(357.8 174.6)scale(.4174)"/><path d="M173.088 182.981a.25.25 0 0 0-.052.468c1.19.64 2.133 1.805 2.458 3.461a.25.25 0 1 0 .484-.087c-.351-1.79-1.38-3.114-2.7-3.824a.25.25 0 0 0-.19-.018m5.368.519a.704.704 0 0 0-.693.693c0 .374.32.675.693.675s.675-.301.675-.675a.69.69 0 0 0-.675-.692"/><path fill="url(#t)" d="M-432.03 116.62c25.651 3.336 30.779 9.752 46.236 17.08 7.092-.864 16.08-.315 21.277 2.848-.7 3.856-.984 8.009-4.691 9.717 7.707 7.54 15.675 14.751 23.12 22.617 1.375 1.453-1.703 2.363-3.35 2.848 4.117 2.877 8.836 5.353 11.726 9.047 18.932 1.424 24.46 7.037 24.46 7.037-9.01 1.684-20.06 8.433-20.774 21.78-2.822-1.528-8.235-9.53-16.418-24.46-2.958.885-5.265 1.786-7.455.083-7.342-5.708-15.463-10.962-24.041-15.33 0 0-2.45 4.172-3.102 8.377-.71 4.581-5.647-4.432-6.95-11.895-39.93-19.182-49.071-35.915-50.763-43.81-1.422-6.635 6.038-6.55 10.726-5.94z" transform="translate(357.8 174.6)scale(.4174)"/><path d="M173.088 223.933a.25.25 0 0 0-.052.467c1.19.64 2.133 1.805 2.458 3.461a.25.25 0 1 0 .484-.086c-.351-1.791-1.38-3.115-2.7-3.825a.25.25 0 0 0-.19-.017m5.368.517a.704.704 0 0 0-.693.692c0 .374.32.675.693.675s.675-.301.675-.675a.69.69 0 0 0-.675-.692"/></svg>