<svg xmlns="http://www.w3.org/2000/svg" width="900" height="600"><path fill="#fff" fill-rule="evenodd" d="M0 0h900v600H0z"/><path fill="#a92211" d="M0 0v600h92.461l20.039-20.039-17.109-17.109-14.297 14.297 5.742 5.742 8.555-8.555 5.625 5.625-14.18 14.297-17.227-17.109 20.039-20.039-20.04-19.922 17.228-17.227 14.18 14.297-5.625 5.743-8.555-8.555-5.742 5.742 14.297 14.297 17.109-17.227-20.039-19.922 20.039-20.039-17.109-17.109-14.297 14.297 5.742 5.625 8.555-8.555 5.625 5.743-14.18 14.297-17.227-17.11 20.039-20.038-20.04-20.04L86.837 434.3l14.18 14.297-5.625 5.742-8.555-8.672-5.742 5.742 14.297 14.297 17.109-17.109-20.039-20.039 20.039-20.039-17.109-17.109-14.297 14.297 5.742 5.742 8.555-8.554 5.625 5.625-14.18 14.297-17.227-17.11 20.039-20.038-20.04-19.922 17.228-17.227 14.18 14.297-5.625 5.742-8.555-8.555-5.742 5.742 14.297 14.297 17.109-17.227-20.039-19.922 20.039-20.039-17.109-17.109-14.297 14.297 5.742 5.625 8.555-8.554 5.625 5.742-14.18 14.297-17.227-17.11 20.039-20.038-20.04-20.04 17.228-17.108 14.18 14.297-5.625 5.742-8.555-8.555-5.742 5.625 14.297 14.297 17.109-17.109-20.039-20.039 20.039-19.922-17.109-17.227-14.297 14.297 5.742 5.743 8.555-8.555 5.625 5.742-14.18 14.297-17.227-17.227 20.039-19.922-20.04-20.039 17.228-17.109 14.18 14.297-5.625 5.625-8.555-8.555-5.742 5.743L95.392 208.6l17.109-17.11-20.039-20.038 20.039-20.04-17.109-17.108L81.094 148.6l5.742 5.742 8.555-8.672 5.625 5.742-14.18 14.297L69.609 148.6l20.039-20.039-20.04-20.039 17.228-17.109 14.18 14.297-5.625 5.742-8.555-8.554-5.742 5.625 14.297 14.297 17.109-17.11-20.039-20.038L112.5 65.75 95.391 48.523 81.094 62.82l5.742 5.742 8.555-8.555 5.625 5.742-14.18 14.297L69.609 62.82l20.039-19.922-20.04-20.039L86.837 5.75l14.18 14.297-5.625 5.625-8.555-8.554-5.742 5.742 14.297 14.297 17.109-17.11L92.461.009z"/><path fill="#b17842" stroke="#b17842" stroke-width=".938" d="M463.27 122.27h85.078v5.531H463.27z"/><path fill="#d1a345" stroke="#b17842" stroke-linejoin="round" stroke-width=".938" d="M505.79 31.152c-4.122 3.89-7.882 8.15-11.491 12.553 4.272 3.276 7.836 6.906 11.491 10.429 3.655-3.523 7.22-7.153 11.491-10.429-3.61-4.403-7.37-8.663-11.491-12.553zM469.772 48.92c-2.624 3.473-4.45 7.314-5.987 11.298 3.525 2.221 6.87 4.734 10.139 7.339 1.855-3.972 3.551-7.906 5.89-11.877a130 130 0 0 0-10.043-6.76zm72.037 0a130 130 0 0 0-10.043 6.76c2.34 3.97 4.035 7.906 5.89 11.877 3.27-2.605 6.615-5.118 10.14-7.34-1.537-3.984-3.363-7.825-5.988-11.297zm-51.469.193c-5.254 7.42-9.1 14.168-12.746 21.63a78.3 78.3 0 0 1 9.946 11.105c1.694-4.512 4.136-8.942 6.856-13.326 1.792 1.887 3.406 3.975 5.022 6.084-4.326 6.722-7.831 13.553-10.236 20.182-3.92-6.454-8.558-12.49-14.098-18.251-3.11 7.54-5.804 15.055-7.629 22.596-5.452-10.804-11.786-21.206-19.023-31.287 6.217 1.729 9.872 3.7 13.326 6.663a32 32 0 0 0-1.738 2.317l6.373 9.56c1.518-4.552 3.217-8.9 5.118-13.326-9.63-9.307-25.12-20.236-41.33-21.437 15.793 17.36 26.208 39.602 33.218 61.608-.292.094-.577.193-.87.29l.773 10.139c28.36-3.022 56.714-3.158 85.073 0l.676-10.14c-.258-.083-.514-.11-.772-.193 7.01-22.035 17.404-44.32 33.218-61.705-16.211 1.202-31.796 12.13-41.426 21.437 1.901 4.427 3.696 8.774 5.214 13.326l6.277-9.56a32 32 0 0 0-1.738-2.317c3.454-2.963 7.109-4.934 13.326-6.663-7.237 10.081-13.571 20.482-19.023 31.287-1.825-7.54-4.422-15.055-7.532-22.596-5.54 5.762-10.276 11.797-14.195 18.251-2.416-6.66-5.882-13.526-10.236-20.278a75 75 0 0 1 5.118-5.987c2.72 4.384 5.161 8.814 6.856 13.326 2.766-3.752 5.926-7.48 9.85-11.105-3.646-7.462-7.396-14.21-12.65-21.63A124.7 124.7 0 0 0 505.79 65.53c-4.503-5.727-9.629-11.288-15.45-16.416zm15.45 35.15c4.073 7.236 7.124 14.984 8.594 22.498-5.7-.376-11.43-.352-17.092 0 1.468-7.507 4.432-15.268 8.498-22.499z"/><path fill="#b17842" d="m530.94 118.78 8.057-2.663-7.852-3.96-8.262 2.526zm-33.799-4.507 8.672-3.687 8.671 3.687-8.671 3.414zm-16.456 4.507-8.057-2.663 7.852-3.96 8.262 2.526z"/><path fill="#d1a345" stroke="#b17842" stroke-linejoin="round" stroke-width="1.875" d="M548.35 123.63c2.692 1.379.585 4.475 0 4.165-5.372-2.84-23.608-4.653-42.539-4.507-18.931-.146-37.167 1.667-42.539 4.507-.585.31-2.692-2.786 0-4.165 5.409-2.771 23.608-4.653 42.539-4.507 18.931-.146 37.131 1.736 42.539 4.507zm.956-13.797c1.668.76 1.64 4.507-.205 3.691-5.256-2.324-24.359-4.243-43.29-4.097-18.93-.146-38.034 1.773-43.29 4.097-1.845.816-1.873-2.931-.205-3.691 5.23-2.383 24.564-4.243 43.495-4.097 18.931-.146 38.265 1.714 43.495 4.097z"/><path d="M358.48 127.38v306.443c0 20.888 16.117 37.03 35.273 37.03h74.883c12.09 0 19.729 4.037 24.961 9.375 5.232 5.339 8.04 12.157 9.492 17.578l.469 1.641h4.453l.469-1.64c1.452-5.421 4.26-12.24 9.492-17.579 5.232-5.338 12.871-9.375 24.961-9.375h74.883c19.157 0 35.273-16.144 35.273-37.03V127.38H358.484zm5.625 5.625h283.36v300.82c0 18.019-13.649 31.406-29.648 31.406h-74.883c-13.386 0-22.749 4.81-28.945 11.133-3.94 4.02-6.367 8.426-8.203 12.773-1.836-4.339-4.154-8.761-8.086-12.773-6.196-6.323-15.676-11.133-29.062-11.133h-74.883c-16 0-29.648-13.388-29.648-31.406v-300.82z" color="#000" style="block-progression:tb;text-indent:0;text-transform:none"/><g fill="#1f1a17" fill-rule="evenodd" stroke="#1f1a17" stroke-width=".28"><path d="M500.93 201.41c1.06-2.543 3.143-4.272 6.396-3.838 1.884.25 2.609.443 3.946 1.78.79.79 1.025 3.154 1.493 3.466-1.113 2.291-5.802 2.204-7.701 1.107-1.611-.93-3.44-.467-4.134-2.515zm-15.35 98.81c-2.662 0-4.811-.817-6.837-2.29-2.458-1.788-5.325-4.296-5.69.096-.145 1.739-3.762-4.938-3.762-2.025 0 .661-.521 2.945-.193 3.471 1.507 2.41-7.34-2.648-8.197-3.279-2.212-1.624-3.157-3.968-5.112-5.98-.685-2.058-4.115-7.35-5.497-9.547-2.803-4.456-5.75-4.381-6.365-5.98-1.778-4.621-8.274-18.325-14.756-14.273-2.533 1.583-1.447-11.545-1.447-14.273 0-9.418.25-18.407 10.03-7.813 10.523 11.4 16.265 17.548 30.765 23.628 6.38 2.676 10.166-9.115 15.605-9.007 10.184 12.33 13.934 36.058 1.456 47.27z"/><path d="M504.2 380.88c-1.05-.611-2.662-4.211-4.931-4.068l.018 14.196c.007 3.86-2.066 7.687-1.314 8.993-2.098-.865-2.999-4.478-3.58-4.402-.349.424.727 2.898 1.07 6.67.693 7.613 2.92 13.233.93 15.646-.806.98-5.15 2.227-7.642 4.31-3.644 3.043-6.93 7.005-7.68 7.341-4.333 1.943-7.857 1.93-17.638 1.93-5.202 0-12.415 2.605-14.262 4.38-.026-1.48.158-2.182.582-3.71.638-2.295 2.069-2.692 1.964-2.676-.105.015-2.964.452-5.585 2.77s-1.809 2.088-1.926 1.952c-2.283-3.303 4.368-8.092 3.807-8.336-1.673-.725-6.864 3.732-8.219 4.068-.702-2.876 6.955-8.442 6.934-8.266-.099.793-5.89 2.613-6.718 2.94-.155-.622-.193-2.525 2.674-4.07 4.795-2.582 8.109-3.062 14.335-3.427 4.028-.235 7.24.16 9.484-.71 2.11-.819 3.864-2.063 5.125-3.656 1.962-2.477 3.595-6.851 1.886-12.614-.85-2.866-2.27-4.259-2.69-5.266-1.235 1.078-2.682.809-3.03 2.737-1.776-2.278-1.968-7.158-3.159-7.992-.925-.647-3.437 2.529-3.877 4.642-.408-4.377.344-13.293-.652-13.49-.7 1.965-2.128 2.168-3.768 2.964.67-.74 1.294-2.142 1.789-3.8 1.058-3.55.493-8.504.536-9.782.236-6.997 2.146-13.416 4.568-17.838 3.5-6.39 12.23-9.114 17.627-13.69 5.59-4.742 11.262-13.902 12.836-19.443 1.312-8.529-5.332-12.135-6.394-11.317-.48-.315-.852-.868-1.173-1.272-3.25-4.098-1.046-10.354-2.962-15.334-1.216-3.162-2.009-5.819-3.118-4.027-.747-1.835-.64-.912-1.153-4.364-.512-3.452 2.536-16.154 1.973-15.984-2.853.86-3.04 1.782-4.478 2.135.997-1.97 2.095-3.354 3.104-5.561 1.342-2.936 3.549-8.194 4.609-10.294s4.027-6.164 4.423-6.987c-2.17.768-4.557 3.166-5.012 3.174-.242-1.3 2.928-5.342 3.085-9.4.095-2.417-1.952-4.457-3.517-6.023s-3.77-2.357-6.111-2.357c-1.473 0-2.43 1.245-3.068 1.317-.531.06-.831-1.067-.831-3.628 0-.662.022-1.482.58-1.576 1.2-1.028 4.323-.977 6.981-.22 1.9.542 3.703 2.003 4.599 2.217 6.024 1.44 7.01-4.032 2.954-6.582-2.173-1.365-5.931-1.123-9.401-.97-2.046.09-3.835.773-5.329.448-.683-.15-1.408-1.28-1.756-1.872-.443-.752-1.13-2.471-2.26-3.846-1.067-1.296-2.54-2.303-2.624-3.351-.042-.512.688-1.31 1.105-1.624 3.044-2.282 9.288-3.706 14.037-4.489 2.908-.479 4.462-.059 6.709-1.383 2.076-1.223 6.168-4.549 8.471-4.669 3.023-.157 6.505.392 9.675.829 1.101.151 1.997.71 3.055.71 3.87-1.088 10.332-5.275 12.54.53.399 1.048.818 2.513.958 3.872.074.711-.212 1.483-.018 1.975.232.595 2.04.75 3.31 1.963 3.69 3.525 9.003 10.021 10.816 11.877 1.106 1.132 1.773 1.968 1.564 2.223-.205.25-1.953-.447-2.559-.163-.168.413.144 1.43.803 2.994 1.066 2.526 6.894 4.676 9.482 6.258.647.395 1.436 1.53 1.354 1.883-.682-.018-3.582.174-2.654 2.786.195.548 1.756 1.073 3.825 1.776 4.11 1.397 9.412 5.702 10.483 7.177s1.72 2.283 2.491 3.32c.801 1.078 1.846 1.843.096 2.022-.477.049.184 2.693 1.305 2.693-11.97 16.52-21.471 34.161-10.014 53.257 3.172 5.287 20.005 14.711 26.663 12.206 1.251 1.49 6.874 7.437 5.884 10.522-1.55-.603-.985-1.104-.83.645l.481 5.439c.282 3.189-2.19-.29-3.947-.29-2.461 0 .304.76 1.688 2.746 1.526 2.189 3.308 10.878 4.197 17.201.415 2.95 4.628 5.529 5.825 6.949-3.157-1.001-.775 4.891 2.355 10.092 2.292 3.806 5.212 7.655 6.943 11.288 1.212 2.545 5.194 9.91 3.283 12.567-.956 1.328-3.173 2.524-5.154 5.03-3.865 4.496-7.164 12.471-7.652 18.171-.667 8.01-9.198 8.65-14.962 10.126-2.857 3.399-3.438 2.916-3.93 3.017-.96-1.12-.576-2.256-.386-5.015.023-.328-.978.748-2.41 1.494-2.06 1.073-4.84 2.059-5.312 2.218-.212-.918 1.165-3.771.973-3.43-.287.511-1.748.64-3.194 1.329-1.335.635-2.52 1.53-3.076 1.764-.049-1.11-.68-.165.033-2.8.376-1.388.658-1.866.555-1.867s-2.547.227-3.533 1.143c-1.571 1.459-2.786 1.967-3.221 2.077-.115-1.01.758-3.553 2.09-5.234 1.518-2.102 3.006-3.855 5.435-4.414 2.585-.594 5.503-.345 7.624-2.388 2.902-2.794 7.053-7.976 8.237-12.493 1.876-7.157.771-16.97-7.785-19.116-1.326-.332-.866 1.809.621 3.096-1.171 1.456-5.551-4.015-5.993-3.44-.148 1.35-.083 3.115.855 4.097-.806.143-1.74-1.377-3.43-2.658-3.569-2.707-4.334-2.761-8.36-2.761 4.801-6.527 9.553-14.324 4.448-23.882-15.044-28.168-40.593-4.365-50.682 9.473-2.825 3.875-3.817 7.9-3.783 8.651z"/></g><g stroke="#1f1a17" stroke-width=".28"><path fill="none" d="M510.92 205.49c2.442.777 4.378-3.414 7.626-1.558 1.993 1.14 1.996 3.448 1.996 5.549"/><path fill="#a92211" fill-rule="evenodd" d="M581.36 324.16c1.905 1.276.651.508 2.12 2.409-.078.096-.37-.195-.892-.217 2.438 2.712 2.13 1.005 3.188 4.555-.942-.595-1.688-1.775-2.835-2.031 1 1.295 1.942 3.448 2.071 5.063-.399-.455-1.562-1.667-1.73-1.928-.015 1.68 2.148 3.63 1.606 5.97-1.418-.987-1.913-1.718-3.767-2.258.216.584.077.7.339 1.33-.96-.404-3.97.083-4.897-.4l1.54-12.914c1.123.337 2.134-.33 3.257.421z"/><path fill="none" d="M502.63 207.71c-1.862.532.727 2.398-1.859 2.816-1.792.288-3.268 1.148-5.248 1.148"/></g><g fill="#a92211" fill-rule="evenodd"><path d="m486.15 235.9.895-.53q.077.294.117.619l.85-.458-.372 1.094 1.173-.922c.039.343.038.773.007 1.259l-.377 1.233.284-.088c-.199 2-.562 4.405-.277 5.6l6.217-2.135.239.771-.544 1.288.769-.564.23.74-.798 1.475.986-.869.29.937s1.445-.632 2.116-.898l-1.258 1.957-.483.604-.523.926-.806-.322-2.053 1.047.322-4.147-2.457 1.932-1.248 2.295 1.248-.362-5.667 6.765c-2.01 3.17-4.342 6.53-5.945 9.932l4.884-2.87.132 2.192 4.02-6.477-.221 6.782 2.032-3.761.87-1.644c.887 2.048.501 2.625 1.434 5.91l1.36-3.864.323 3.02.926-2.295.692 2.14.532-1.985.804 1.746 1.193-2.143.721 1.176 26.82-4.115.16-2.134-.2-1.248 3.14-5.074v.725l1.208-1.53-4.228-5.878-.725 3.22-5.757-4.63-.04 2.416-.846 2.98-1.37-1.41-1.368-2.536-.443 1.57-1.45 1.731-1.57-.926-.242-1.087 1.812 1.168.926-1.127.242-2.094.684-.08 2.537 3.543.403-2.255-.161-3.1 5.516 3.865.12-4.107 1.45.845.242-.765 4.24 4.645.298-3.637 2.658.682-1.955-3.46 5.139 2.351-1.918-2.875 6.842 2.203-3.943-4.78 5.57 2.4-3.557-4.735 4.97 2.43-4.728-4.202.926.08-7.295-4.228 3.832.825-1.734-3.471 2.094-1.027-3.582-3.242-.955 2.601-4.043.65.483 1.329-1.933-.282.242 2.416-1.53-.846 2.16 2.613-.484-.04.04 1.288-2.441-1.284.04 2.94-2.94-1.53.283 3.744-3.865-2.295-.725 5.516-3.262-3.785 2.014.926 1.167-3.905 3.181 1.49.443-3.302 2.859 1.812-.765-3.785 1.973 1.047-1.248-2.175 2.214.363-.886-2.698 2.094.604s-.967-1.45-.725-1.41 2.994-.045 2.994-.045l-1.886-1.937 3.837.6-2.297-1.54q.273-.057.55-.119l2.365-.236c-.47-.986-2.85-.798-2.146-2.44.235-.657-2.095-1.923-2.682-2.251v-.657h1.173c0-.493-.938-1.478-1.642-1.478l-3.12-1.223c-1.021 0-1.266-1.215-1.164-2.206l-.146-2.628c-.352-3.12-.851-3.962-2.494-4.947-3.401-2.136-10.016 1.625-10.25 1.461-.613 0-6.569-1.321-8.71-1.541-1.856 0-3.365-.301-4.557.039-4.787 1.366-5.416 4.556-9.717 5.41-5.53 1.096-7.532 1.333-11.455 2.193-3.05 1.15-3.761 2.407-4.348 5.199-.821 3.777 1.777 6.22 3.44 7.021.938.164 10.634-1.132 11.9-.93 4.489.169 10.198 7.843 6.367 10.382-2.463 1.478-13.255-2.956-16.774-2.956-3.87 0-2.815 2.792-1.876 2.627 2.815-.492 1.525-.656 4.222 0 2.81.678 6.577 1.133 8.07 3.49l-.401 1.678z"/><path stroke="#1f1a17" stroke-width=".28" d="M573.97 343.9c-.14.11-1.708-.306-2.34-.294.932 1.624-1.783-.78-2.028-.838-1.664-.396 5.704 5.797 4.55 5.318.375.783 1.879-12.335 5.036-10.377 1.21.75 5.904 6.684 6.22 11.291.053.793-2.413-1.31-2.185-.578.45 1.449 2.608 4.02 2.988 5.277.222.736-3.314-.707-3.101-.013 2.71.299 2.735 2.825 3.894 4.749l-1.692-.261 4.437 4.969-5.035-3.369 5.268 5.041-3.917-1.555 5.04 3.782-5.936-2.007 7.56 5.378-6.257-.429 7.58 3.499c-1.566.142-4.07.107-5.49.016.633 1.095 3.987-.226 6.889 2.496.967.908 2.144 2.927 3.277 4.753l3.854 6.78 2.27 4.338c.304.58.938 5.57.294 6.07-3.242 2.507-9.385 10.63-10.526 14.982l-.896 3.565c-.623 1.926-2.257 8.818-3.834 9.964-1.694 1.231-1.368 1.305-3.236 2.014l-.388.99-.261-.907-1.45.639-.58-.958-1.37 1.886-.362-1.786-1.215 1.432-.28-1.292-.925-.343-3.04 1.082 2.005-2.925c-5.768 4.229-4.544 2.835-5.771 1.07-.09-.127-1.579.074-1.649-.084-.118-.267 4.427-3.014 4.254-3.276-.096-.145-4.546 2.24-4.724 2.215l-1.279.648-1.652-.69-.25-.472 2.615-1.242 3.282-1.992c1.2-1.395 2.824-2.3 4.888-4.586-1.905-.589-5.68 3.61-6.963 4.606l-3.692 1.753-1.244.37-.467.19-.845-.33-.626-1.736 2.788-.503 1.347-.562 2.248-1.31-.94-.25 5.541-3.302-2.179-.248 3.679-1.425-1.786-.863 4.474-5.942-1.4.059 2.122-1.476-1.543-.06 2.61-1.972-1.383-.033 2.375-1.53-1.702-.087 2.595-1.878-2.044-.52-1.814-1.659.506-6.436-1.255.18.495-2.03-1.264 1.232-.103-3.374-1.083 2.126-.786-2.174.905-2.538-1.582 2.318.36-4.34-1.13 3.168-.681-5.094-.274 5.036-1.837-6.628.487 5.51-2.854-4.18.81 4.9-3.017-3.699.63 4.815-4.301-5.416c.094 1.81-.104 3.46.306 5.579l-7.01-3.513 1.175-6.25 6-3.16 5.924-9.264c3.04-7.07.603-22.188 5.936-27.405 1.222-.304 1.967-.46 2.774.067.531.347-4.736 5.247-4.815 5.308z"/><path d="m459.25 290.29.629-3.454c.432 1.246 1.146 4.595 1.498 5.58l-.015-5.015 1.698 6.582.413-3.955 1.373 5.088-.082-3.938 3.902 8.433c0-.165-.149-5.97.438-8.269l1.122 3.313.872-2.984.352-.329.82.329.47.985.704-.328.938.492.821-.985 1.056 1.807.704-.986.704.821.82-.328.939 1.642 1.173-.492 2.209 4.014-.012-.63c-4.928-12.031-4.944-28.598.175-41.498-2.415 1.083-9.038 6.777-11.5 7.383-1.362.03-1.108-.197-3.995-.987-6.664-1.824-11.553-4.64-16.574-9.396-3.968-3.767-15.598-18.045-18.867-17.192v1.971c0 1.478-1.055 1.478-.117 3.12.587.986 1.173 1.643 1.76 2.628 1.642 2.793 0 3.12-.118 6.57-2.583 1.702-3.29 7.5-.626 9.599.903.711 2.432-.035 3.919 1.38s4.253 5.436 4.605 6.093c.804 1.125 1.69 6.236 3.636 7.9 1.064.91 2.73-1.382 3.611.007 3.412 5.175 6.763 10.103 10.543 15.029z"/><path stroke="#1f1a17" stroke-width=".28" d="m542.36 239.922 10.81 3.845-4.236-.922 8.1 4.345-4.144-.919 2.99 2.175-5.544-1.088 6.137 2.508-4.517-.919 7.32 3.424-4.517-1.168 4.704 2.507-3.582-.417 3.956 1.919-3.177-.418 2.616 1.673-13.177 4.427-13.613-.498-3.77-5.184 1.496-2.505 2.274-1.42 1.588-1.087.187-1.59-2.46.586 3.956-5.264-4.144 1.922 1.994-2.256 3.178-1.003 1.433-.75 4.61-.085z"/></g><g fill-rule="evenodd"><path fill="#1f1a17" d="m501.12 354.57.235 1.15c-1.76.492-1.877-3.12-3.754 3.449l-1.056.328-.234 1.971-1.056-.164-4.105 4.106.117 1.642-3.05 2.628.118.822.352-.822c1.055 0 1.876 3.12 1.876 3.778 0 1.313-.938.985-.234 2.463l.234-.492c2.58.328-.352-1.15 2.58-.329 1.643-2.463.705-6.57 2.816-9.033.938-.821 2.698-6.405 3.754-6.898.938 0 3.284 1.478 3.87 2.463-.117-3.284 2.346 4.435 1.525.165-.82-4.106-.586-2.628.821.164 1.525 2.792-.586-4.106-.469-4.27.235-.986 2.463 5.912 2.815 3.12.117-.985-2.463-5.912-1.525-5.42.352.329 3.05 6.406 1.995 2.464 0-.164-2.346-7.227-.587-3.285 1.877 3.942.352-1.97-.235-3.12l.118.82-2.229-.163-.704-.986-.586 1.643-.821-.329.117 1.15-.235-.164z"/><path fill="#1f1a17" d="m488.34 370.5.82 7.39-.468.165-2.58-2.3-.94.165c-.117.985 1.526 5.256 1.526 7.062v1.314c0 .657 0 .493-.352.986l-1.642-1.478-.235.163-.234 1.972-.704.328 1.407 1.15v1.97h.235l.469-.492.235-.986 2.346-.82.117-.986.117-.165-.352-1.97v-1.643c0-.986 0-.493.47-1.15l.938 2.136c1.407-.493.82-5.913.82-7.391-.703-1.478.236-1.15.236-2.464 0-.657-.822-3.777-1.877-3.777z"/><path fill="#d1a345" d="m561.23 433 6.42-4.939c.704-5.772-6.909 2.03-6.42 4.939"/></g><path fill="none" stroke="#1f1a17" stroke-width="2.492" d="m479.839 273.872-2.15 11.258 3.396-3.707" class="fil0 str4"/><g fill-rule="evenodd"><path fill="#d1a345" d="m567.21 433.23 5.784-3.547c1.332-5.215-7.425.576-5.784 3.547m-11.2-2.27 7.278-5.595-.999-1.599h-.856c-1.998-.4-5.566 5.995-5.423 7.194"/><path fill="#1f1a17" d="M511.21 205.94c.117 2.463 2.933 3.285 4.692 1.807l-.704-1.643.352-.328 1.994.82.939-.82c2.697.328 1.525 2.792 2.228 3.777 1.173-1.806-.47-4.927-2.815-5.748-1.877-.657-5.747.985-6.686 2.135"/><path fill="#a92211" d="m502.18 200.68 7.507.657h.47l.82-.164c-.234-1.314-2.697-2.792-4.222-2.792h-1.29c-1.173 0-3.402.985-3.285 2.3"/></g><g fill="none" stroke="#1f1a17"><path stroke-width="1.246" d="M495.9 211.9c1.156 0 1.887-.007 2.898-.355.303-.105.533-.465.874-.465.595 0 3-.662 3.061-1.203.057-.497-.546-.835-.546-1.449 0-.703.488-.638.803-.877"/><g stroke-linejoin="round"><path stroke-width="1.246" d="M509.32 210.92c.391.064.742.137 1.145.137h.779m-3.344 1.393c.888 0 1.567.321 2.382.492.382.08.616.097.87-.054m-4.262 1.282c.737.026 1.334.219 2.107.219.527 0 .628-.008 1.054-.11m-4.851 1.531c.47 0 .492.128.87.246.626.195 1.583.191 2.29.191m-4.3.983c1.301.431 2.466.574 3.94.574m-6.51.196c0 .623 2.54.875 3.39.875m-5.96.465c.464 0 .882.218 1.283.355.999.342 1.933.356 3.069.356"/><path stroke-width=".623" d="M457.8 277.7c.847 3.143 1.667 4.592 1.667 4.592l.656-2.624 1.394 5.084s.875-4.128.875-3.963c0 .164 1.312 4.51 1.312 4.674s.984-2.843.957-2.597 1.503 4.291 1.503 4.291.601-3.198.656-3.006c.055.191 1.422 2.733 1.422 2.733s.327-2.515.355-2.35c.026.163.847 2.268.847 2.268s.082-2.57.328-2.241 1.449 2.487 1.449 2.487l.218-2.487 1.067 1.667s.273-2.651.437-2.487 1.039 1.995 1.039 1.995"/></g></g><path fill="#d1a345" fill-rule="evenodd" d="m448.26 425.12 2.112-.821.234-.165c-.117-.82-.587-1.642-.587-1.642l-1.055-.329c-2.58 0-6.334 2.792-6.569 5.092 3.285 0 2.815-1.807 5.865-2.135m3.28 3.01v-.493l.117-.328-2.815-.985c-1.877 1.149-4.223 3.284-3.636 5.748.938.164 2.111-.821 2.698-1.479 1.407-1.313 1.642-.82 3.519-1.642zm2.3.54c-1.876 1.15-3.636 2.956-3.05 5.42.939.164 1.877-1.314 2.463-1.97 2.699-1.315 6.452-.165.587-3.45m-12.53-4.86c.866-.407 3.75-2.095 6.167-2.674.05-.49.333-.956.366-1.283l-.266-.853c-1.934.464-6.551 1.81-6.267 4.81"/><path fill="none" stroke="#1f1a17" stroke-width=".623" d="M473.21 217.57c-.365.491-.37.935-.201 1.65.003.012-.01.147 0 .162.018.03.06.041.08.12m1.411-1.372c-.339.508-.2 1.691.161 2.174m.839-1.974c-.188.438-.136 2.063.765 2.063m.565-2.183c-.762.737.231 1.895.785 1.976m.345-2.136c-.84.887.456 2.157 1.23 1.78m.06-1.66c.042.646.369 1.584 1.229 1.35m.121-1.35c.054.34.353 1.112 1.123.953"/><path fill="#a92211" fill-rule="evenodd" stroke="#1f1a17" stroke-width=".28" d="m480.4 339.58-6.56 4.106c-2.81 1.758-6.006 5.804-8.788 9.878-3.168 4.64-3.747 9.687-4.67 15.033l.118 3.66 1.46-3.36-2.44 7.375 4.563-7.168-3.699 9.432 4.715-7.32-3.311 10.707 5.437-9.374-6.38 15.09 6.25-12.295-5.416 14.68 5.517-13.095-2.941 10.985 3.857-7.994-2.35 9.113 2.905-6.072-2.018 8.6 2.874-6.444-1.74 9.578 2.975-6.719-1.799 7.3 2.87-4.604-.28 4.756 1.753-1.606c-.114 1.006.015 2.65-.05 3.692.508-.356 1.346-1.58 1.938-2.122l-.93 4.639 1.88-2.677-.971 4.523c.733-.544 1.065-.468 1.69-.96l-1.235 2.657 1.004-.146-1.678 2.294 1.355-.615-1.564 2 1.724-.33-2.297 1.68 1.97-.168-2.62 1.604 2.607-.433-3.103 1.614 2.013-.043-2.556 1.32 1.612.84c-1.066.508-1.618.044-2.62.476l1.706.915-2.904.27 4.15 1.683-5.444-.83c-3.22 1.378-2.402 1.395-9.065 1.786-4.761.28-5.005.48-9.691 2.15.27.634.049 1.166.25 1.506.603 1.019 1.369.877 1.498 1.148.43.9 1.228.713 1.553 1.83.263.902-.055 2.716.57 3.346.54.544 1.239.798 1.588 1.221.567.69 1.355.895 1.78 1.18 1.177.789 1.65.596 2.883.718l.746-.79.308-.635.514-.387-.023.795-.49 1.036.37.368c.889-1.225.974-1.223 1.716-2.066l.215.581-.268.592-.47.866.404.034.791-.874.347-.677.354-.384.447.2-.389.594-.766 1.132.687.07 1.127-1.183.51-.596-.818 1.612.647.111 1.541-1.669c-.044 2.88 4.206 1.102 6.632 1.216 3.436.018 5.112-1.399 7.58-3.586 1.95-1.729 3.191-3.968 4.683-5.1 4.475-3.401 8.593-3.807 8.866-6.258.66-5.933-1.738-12.324-1.907-17.303-.058-1.716.146-1.848.547-3.917.116-.597 1.932 1.512 2.703 3.42.19-1.663-.682-6.09-.802-6.78.464.479 1.367 1.456 1.618 1.791.196-2.366-1.067-4.554-1.633-6.815.456.901.533.49 1.584 2.226-.246-2.027-2.137-5.955-2.138-7.078.797.665 2.088 2.933 2.35 3.31.106-.262-.282-2.575-1.236-6.66l1.33 2.814-.836-5.11.875.972.178-2.753 1.442 1.36.339-2.393 1.758 3.848-.433-4.284 2.029 5.769-.422-5.84 1.376 1.457-1.176-5.454c1.587 3.326 1.424 3.134 2.027 3.813-.168-1.337-1.055-3.364-1.2-5.4l1.445 2.173-.765-4.949 1.345 2.349-.24-2.755 1.5 2.854.575-1.978.65 5.889 2.591-7.52-4.247-23.866.675-1.492-5.67-11.847-1.437.833-1.135.475c4.787 7.143 9.323-6.688.568-.237l-5.51-7.733-.469 7.77-.535-4.462-.486 4.758-.93 4.274-.607-.112.454-3.936c-.882 2.498-.788 4.666-1.619 7.251l-.115-5.28-1.075 5.579-.357 1.039-.143-4.317-.893 3.976-.807 1.67.126-4.387-1.933 5.968.679-4.271-2.071 6.956.39-4.443-2.106 5.786.04-4.015-2.536 4.676 1.068-3.68z"/><path fill="#a92211" fill-rule="evenodd" stroke="#1f1a17" stroke-width=".28" d="m481.28 282.29 2.32 4.31.777-5.236.987 3.105 1.532-5.13.949 2.578 1.743-3.49 1.014 3.356 2.995-7.235-2.669 3.802-.643-4.127-2.204 4.208-1.13-1.72-1.195 4.208c.06-4.829-.262-6.66-.587-7.942-.795 2.09-.963 4.32-2.556 8.713l-.582-4.428-3.492 6.549 2.744-16.448 1.741-3.628 1.089 3.304 2.594-5.482-.294 7.422 3.388-5.405 2.34 4.68 2.823-5.002.305 3.174.943-2.782.637 1.104 1.388-2.011.56.27.927-1.288 2.613 63.612-2.743-2.663c.334-6.453-1.568-2.332-1.454-9.794l-.555 7.218-1.198-5.366-1.356 2.687.384-6.975-1.515 2.288.627-3.901-1.821 1.691.301-5.469-2.019 3.263-.449-5.806-1.465 3.46-.172-5.232-1.94 4.882-.427-7.688-1.437 2.281-.379-8.558-2.203 1.05z"/><path fill="none" stroke="#1f1a17" stroke-linejoin="round" stroke-width=".935" d="M599.38 389.95c.85 1.21 2.201 1.492 2.598 3.114.134.55.225 1.136.357 1.692.093.39.056.989.188 1.41m-3.983-3.846c.675.828 2.053 1.966 2.283 2.949.103.434.06.779.418 1.102.277.249.17.832.214 1.148m-3.165-3.309c1.122 1.544 1.85 3.036 2.024 4.844m-2.104-2.794c-.043 1.085.985 2.193 1.332 3.183.132.377.439.9.391 1.365M597.17 398c.176.657.34 1.238.679 1.792.134.219.305.39.399.636.203.537.171 1.054.299 1.62m-2.527-1.908c.266.503.426 1.256.692 1.66.411.626 1.128 1.76 1.144 2.435"/><path fill="#1f1a17" d="m596.8 404.41-.98.126-.007-.055-.012-.054-.01-.054-.014-.053-.015-.053-.018-.05-.019-.054-.02-.054-.024-.054-.023-.051-.024-.054-.027-.056-.028-.055-.03-.056-.03-.054-.033-.06-.032-.059-.033-.058-.035-.062-.035-.061-.037-.064-.034-.064-.038-.067-.036-.068-.037-.07-.037-.07-.035-.073-.035-.074-.035-.078-.033-.08-.032-.08-.032-.082.932-.333.022.062.023.06.026.06.026.058.029.06.03.058.029.06.03.06.033.059.031.058.035.06.033.06.035.061.035.062.037.063.035.063.034.063.036.067.035.067.035.068.034.069.034.07.032.076.03.074.03.074.028.078.026.083.024.08.022.085.02.087.015.089zm.004 1.372-.98-.1.003-.045.004-.042.004-.04.003-.04.003-.04.006-.073.003-.04.003-.034v-.172l.003-.033v-.163l-.003-.032v-.034l-.003-.032-.003-.036v-.034l-.004-.035-.004-.035-.003-.035-.004-.037-.005-.037-.003-.04-.006-.037.98-.126.005.046.007.044.004.044.004.044.006.044.003.043.003.042.004.042.003.04.003.044.003.041v.086l.003.041v.247l-.003.042-.003.042-.003.043-.003.043-.003.04-.003.044-.004.045-.003.043-.004.046-.004.045-.004.046z"/><g fill="none" stroke="#1f1a17"><g stroke-linejoin="round"><path stroke-width=".935" d="M594.14 403.72c.278.637.706 1.116.81 1.805.051.34.336.604.3.958m-1.48.187c-.184.649-.043 1.12-.049 1.784-.003.24.114.385.274.558.115.123.115.457.137.61"/><path stroke-width=".312" d="m486.92 388.03-.498-5.35 2.738 2.363-1.867-9.705 4.853 5.475s-2.489-12.692-1.866-11.448 3.608 6.097 3.608 6.097m-1.998-8.712c1.053 1.34 1.737 2.007 2.115 3.608.258 1.088.498 2.466.498 3.61m-.993-9.578c.493 1.134 1.37 2.091 1.617 3.235.22 1.011.391 2.286.747 3.236m-1.864-8.221c.41 1.433 1.681 3.05 2.364 4.355.692 1.322.498.851.498-.622 0-1.317-.108-2.7.125-3.982 0 .637.096 1.287.248 1.867.465 1.767.125-1.636.125-2.365 0-3.564 1.12 4.09 1.12.623 0-.416-.131-4.709.622-1.867.696 2.626.622-1.558.622-1.99 0-.767-.097-1.63.125-2.365.28-.926 1.183 1.928 1.493 1.618.565-.565.871-2.104.871-2.862"/><path stroke-width="1.246" d="M491.62 389.58c.666.476 1.336 1.325 1.616 2.112.222.628.31 1.308.31 1.988m-3.976-5.22c.559 1.025 1.17 2.072 1.74 3.044.386.66.844 1.46.994 2.175.112.534.031 1.462.31 1.926m-3.174-5.275c1.205 1.772 3.044 4.604 3.044 6.772m-2.604-4.542c.2.536.423 1.248.684 1.74.553 1.046.683 1.84.683 3.044m-1.747-2.914c0 1.154.884 1.89.932 3.044.03.71.062 1.442.062 2.175m-1.924-2.049c.123.918 1.197 1.44 1.43 2.299.086.32.063 1.526-.063 1.864m-2.107-3.173c0 .938.122 1.771.186 2.672.05.7.056 1.062-.435 1.553m-1.311-2.365v1.988c0 .448.192 1.055-.435.498-.345-.307-.438-.764-.683-1.12-.637-.922-.622 1.431-.622 1.803 0 .166-.163.385-.186.372-.47-.258-.566-1.304-.994-1.304-.315 0-.224.701-.31.994-.455 1.53-.356-.253-.374-.808-.018-.582-.435-.93-.435-1.553"/></g><path stroke-width=".623" d="M477.1 421.67c.385-.385 1.685-.578 1.685-.578l1.203-1.492 1.059.385 1.636-2.31m1.437-2.065c-.117.255-.028.229-.096.433-.047.14-.107.22-.145.385-.025.11-.135.172-.144.337-.018.313-.24.44-.24.77v.53m2.455-3.855c-.092.702-.077 1.247-.337 1.829-.02.046.018.145 0 .192-.081.212-.358.883-.53 1.012m1.927-4.523c-.26 1.298.23 3.232-.915 3.995m2.555-6.305c0 1.231.21 2.949-.337 4.043-.105.211-.867 1.433-.867 1.637m2.064-3.9c.108.72.347 1.438.578 2.118.078.23.204.419.288.625.296.723.179.13.338-.53.157-.653.096-1.668.096-2.358 0-2.37-.073 2.589.77 2.215.558-.248.385-4.198.385-5.102 0-1.64.04-.44.24.337.068.262.471 3.436 1.06 2.599.815-1.16.529-2.798.529-4.091"/><path stroke-linejoin="round" stroke-width=".312" d="M437.17 258.68c-.163.354-.144 1.159-.144 1.54 0 .247-.02.504.048.722.094.303.192.684.192 1.011m1.104-2.613c-.125.544-.048 1.22-.048 1.781 0 .54-.114 1.83.145 2.262m.893-2.553c-.14.747-.094 1.716.048 2.455.048.246.103 1.927.241 1.973m1.211-2.588c-.392 1.372-.045 3.338.144 4.669m.286-5.639c.355.887.289 3.335.289 4.332 0 .864.063 2.093.24 2.985"/></g><path fill="#1f1a17" d="M441.833 269.392v-.517l.032-.19.03-.2v-.205l.032-.209v-.211l.031-.215.031-.215.031-.212.031-.212.032-.209v-.2l.03-.195.032-.187.031-.175v-.165l.031-.152.031-.138v-.121l.031-.103v-.149l.032-.044.28.093v.191l-.031.102-.031.122v.137l-.031.15-.032.165v.174l-.03.184-.032.193-.031.2-.031.205v.209l-.031.211-.032.212-.03.212v.209l-.032.205-.031.2v.193l-.031.187v.922-.013l-.031-.037-.094.427-.093-.087-.062-.11-.032-.108v-.374z"/><path fill="none" stroke="#1f1a17" stroke-linejoin="round" stroke-width=".312" d="M443.46 266.52c-.817 1.77-.679 4.393-.43 6.135m.86-5.655c-.7 2.709-.26 6.764.086 7.579"/><path fill="#1f1a17" d="m444.762 274.426-.063-.277-.062-.29-.031-.299-.062-.308-.063-.318-.03-.32-.063-.328-.031-.33-.031-.333-.063-.33-.03-.33-.032-.33v-.328l-.031-.318-.031-.314v-1.162l.03-.262.032-.246.031-.234.031-.215.063-.196.062-.18.28.118-.031.152-.062.178-.031.196-.032.218-.03.234-.032.252v1.135l.031.308.031.317v.321l.032.324.03.327.063.33.031.33.031.328.063.324.03.318.063.314.031.305.063.296.062.287.062.277.031.262.063.246.062.23.031.215.062.197.032.174.062.15-.312.09-.03-.159-.063-.18-.062-.2-.032-.215-.062-.237-.031-.249z"/><path fill="none" stroke="#1f1a17" stroke-linejoin="round" stroke-width=".312" d="M445.65 269.41c-.193.589-.252 1.498-.216 2.069.03.49.83 3.868.913 4.369m.293-5.818c.074 1.565.477 4.217 1.322 5.484m.838-4.324c-.19.829-.245 4.73.385 5.15m1.685-1.3c-.5 1.5.153 3.317.433 4.717m1.537-2.407c-.32.957.446 5.808 1.107 6.69m.103-4.96c.074 1.347.717 2.742.77 4.14.034.894.562 1.767.674 2.55m.676-5.44c-.707 1.768.336 5.702.963 7.268m1.347-2.978c0 .492-.037.895.144 1.348.267.672.25 1.339.434 2.022.118.44.244 2.09.481 2.406m.431-1.356c.305 1.133.445 2.4 1.059 3.321.556.835.905 1.839 1.444 2.647m3.027-.188c-.457 1.487.048-.485.048.53 0 .356.129.801.241 1.154.148.468.289 1.102.433 1.493.18.482.722 1.008.819 1.492m9.579-37.049c0 1.355-1.618 2.566-1.925 3.899-.285 1.237-.385 2.41-.385 3.754m.94-6.733c-.342.887-1.838 2.77-2.095 3.698-.204.734-.145 1.658-.145 2.503"/><path fill="#1f1a17" d="m473.89 264.38-.226-.213.033-.034.032-.036.032-.037.032-.037.032-.036.031-.038.032-.038.03-.038.032-.04.032-.04.03-.039.03-.04.032-.04.031-.04.03-.041.031-.04.062-.084.03-.041.03-.042.031-.042.031-.042.03-.042.032-.043.03-.042.032-.042.031-.043.031-.042.032-.043.032-.041.032-.042.032-.043.245.19-.03.04-.032.042-.031.041-.03.041-.032.042-.03.042-.031.041-.03.042-.032.043-.061.083-.03.043-.032.042-.031.042-.062.083-.03.043-.033.041-.03.042-.032.04-.032.043-.033.04-.032.041-.032.04-.033.041-.032.04-.034.04-.034.04-.034.038-.034.038-.035.038zm-.226-.213.226.213-.012.012-.012.01-.021.012-.014.006-.028.008-.007.001h-.043l-.028-.009-.014-.006-.021-.012-.006-.004-.012-.01-.012-.012-.01-.012-.012-.02-.015-.036v-.064l.015-.035.012-.02.004-.007.01-.012zm-1.272 4.15h-.31v-.174l.002-.17.005-.164.007-.159.01-.154.01-.15.015-.146.017-.141.02-.139.023-.134.025-.133.029-.128.032-.127.036-.124.039-.122.043-.12.047-.119.05-.116.056-.116.058-.115.063-.115.068-.113.071-.113.076-.114.08-.114.086-.114.09-.116.094-.116.1-.118.104-.12.11-.121.114-.125.226.213-.111.12-.107.119-.101.116-.097.114-.09.111-.086.11-.08.11-.077.107-.07.106-.068.107-.062.106-.059.106-.054.105-.05.107-.047.108-.043.109-.04.11-.036.113-.034.115-.03.117-.027.12-.024.124-.021.127-.02.131-.015.135-.013.14-.012.144-.009.149-.007.154-.005.16-.003.165v.172z"/><path fill="none" stroke="#1f1a17" stroke-linejoin="round" stroke-width=".312" d="M473.2 262.59c-.044.665-.746 1.668-1.155 2.166-.156.19-.285.577-.433.818-.174.284-.19.672-.385.915m.043-3.949c-.16.205-.698 1.41-.83 2.264m-.54-2.264c-.542.045-1.038.986-1.221 1.445m-.509-1.885c-.348.417-1.044 1.11-1.426 1.493m-.194-1.433c-.503-.116-1.555.773-1.673 1.246"/><g fill-rule="evenodd" stroke="#1f1a17"><ellipse fill="#1f1a17" stroke-width=".9" rx="9.794" ry="10.159" transform="matrix(.15054 -.02068 .02068 .15054 495.84 208.6)"/><path fill="#fff" stroke-width="1.246" d="M492.45 207.7c.024.75.44 1.547 1.106 2.07.519.407 1.224.638 1.8.613.939-.042 2.354-1.166 1.953-3.2-2.508-.417-2.662-.127-4.859.517z"/><path fill="#1f1a17" stroke-width=".28" d="M493.36 207.57c-.033.252.27 1.215.38 1.438.511 1.032 2.846 1.007 2.856-.558 0-.223.027-1.516-.396-1.557-.48-.047-1.11-.017-1.557.168-.256.106-1.135.328-1.283.509z"/><path fill="#fff" stroke-width=".28" d="M495.09 209.22c.398-.185.514-.359.722-.71.02-.032.027-.129.037-.092.07.248.125.501.068.754-.05.223-.337.281-.528.218-.066-.022-.241-.163-.299-.17z"/></g><path fill="none" stroke="#1f1a17" stroke-linejoin="round" stroke-width=".623" d="M461.69 226.96c6.096 0 9.168-3.519 15.369-3.519 3.085 0 5.705.287 8.205.802 1.402.29 2.992.26 4.448.99 2.273 1.352 2.016 4.005.152 4.443-1.32.31-3.47.28-4.441-.022-3.847-1.193-11.173-4.097-14.942-2.272-1.67.81-3.545 1.247-5.584 1.361-.894.05-1.672.164-2.488-.234-.513-.25-1.662-1.253-.718-1.55z"/><g fill-rule="evenodd"><path fill="#a92211" d="M461.69 226.96c6.096 0 9.168-3.519 15.369-3.519 3.085 0 5.705.287 8.205.802 1.402.29 2.992.26 4.448.99 2.273 1.352 2.016 4.005.152 4.443-1.32.31-3.47.28-4.441-.022-3.847-1.193-11.173-4.097-14.942-2.272-1.67.81-3.545 1.247-5.584 1.361-.894.05-1.672.164-2.488-.234-.513-.25-1.662-1.253-.718-1.55z"/><g stroke="#1f1a17"><path fill="#fff" stroke-width=".935" d="M480.3 221.34c.101.086-.26 1.677-.286 1.912-.078.66-.132 1.528-.316 2.158-.04.138-.348 1.488-.558 1.284-.935-.911-1.987-3.604-2.021-4.973z"/><path fill="#1f1a17" stroke-width=".28" d="m453.04 424.23.97-.22c.23-.185 2.137-1.048 2.384-1.067.225-.019 4.32-.623 4.32-.623l.98-.546 1.056-.24 1.229-.281-.366.33c-.365.33-1.22.59-1.22.59l.835.504-.647.292-4.862.442-4.234 2.355-.71-1.532h.265zm2.13 4.1 1.472-1.61 1.483-.459 2.385.447-2.41.582s-1.293.753-1.436.774c-.143.018-.974.628-.974.628z"/></g></g><g stroke="#1f1a17"><path fill="none" stroke-width="1.869" d="M450.79 421.72c.481-.24 1.066-.626 1.54-.626.209 0 .655-.234.915-.289.533-.11 1.078-.433 1.636-.433.275 0 .915-.097 1.059-.289"/><path fill="#d1a345" fill-rule="evenodd" stroke-width=".28" d="M574.51 433.819v.716l1.588-1.059 1.558-1.589 2.056-1.152 1.122-.436-1.184-.997-.935-.063-1.402.094-1.775 1.464-.78 1.807z"/><path fill="none" stroke-width=".28" d="m486.15 207.28 3.802-.649c2.162-.622 4.398-2.528 6.504-3.324l-.015-.179-1.03.063-1.511.937-2.07 1.396-1.877 1.107"/></g><g fill-rule="evenodd"><path fill="#1f1a17" stroke="#1f1a17" stroke-width=".28" d="m496.505 203.403-1.37.657-1.402.782-1.34.754-.997.63-1.308.395.062-.11 2.087-1.27.78-.527.934-.629.685-.539.53-.408 1.62-.196zM471.43 210.94c-1.247.281-5.009.763-4.621 2.635.158.764.571 1.378 1.12 1.953.43.45 1.84 3.19 2.789 2.46.996-.765.89-.64 1.12-1.75.137-.661-.242-1.148-.628-1.648-.352-.456 1.32-1.056 1.503-1.548.451-1.213-1.08-1.58-1.283-2.102z"/><path fill="#fff" d="M469.87 210.86c-.31 0-.489.146-.701.358-.08.08-.484.213-.605.276-.837.437.145 1.33.811.661.28-.281.597-.543.866-.813.381-.38-.064-.51-.371-.482"/></g><path fill="none" stroke="#1f1a17" stroke-width="2.492" d="M484.17 255.27c-1.559 2.753-5.638 8.333-6.36 11.258 1.065-.958 5.144-2.786 5.872-3.397"/><path fill="#405a9f" d="m423.98 162.66-2.578.469-3.633 35.859-25.664 1.406v4.57l31.875 4.22 31.758-4.22v-4.57l-25.664-1.406-3.633-35.86z"/><path fill="#405a9f" d="M416.97 202.92h13.921V425H416.97z"/><path fill="#d1a345" stroke="#405a9f" stroke-width="2.813" d="m423.934 158.456 5.345 5.346-5.345 5.346-5.346-5.346zm-34.14 38.948 5.346 5.346-5.346 5.345-5.345-5.345zm68.279 0-5.346 5.346 5.346 5.345 5.346-5.345z"/><path fill="#d4cac6" d="M421.3 202.92h5.26v68.73h-5.26z"/><path fill="#d1a345" stroke="#103e6f" stroke-width=".938" d="M408.52 196.95h30.825v13.59H408.52zm15.46 209.34c-1.97 1.7-2.815 3.282-3.398 4.688.497 1.169 1.168 2.431 1.875 4.101-.92.073-3.317-.03-5.508.469v9.492c0 1.678 1.977 5.625 7.031 5.625s6.914-3.947 6.914-5.625v-9.492c-2.19-.499-4.472-.397-5.39-.469.707-1.67 1.26-2.932 1.757-4.101-.583-1.406-1.31-2.988-3.28-4.688zm0-44.42c-3.897 0-5.42.42-7.031 1.055-1.211 1.218-1.212 4.658 0 6.094 2.249.238 3.774.585 7.031.585 3.258 0 4.665-.347 6.914-.585 1.212-1.436 1.21-4.876 0-6.094-1.612-.634-3.017-1.055-6.914-1.055zm-.05-66.32c-3.897 0-5.42.42-7.031 1.055-1.211 1.218-1.212 4.658 0 6.094 2.249.238 3.774.585 7.031.585 3.258 0 4.665-.347 6.914-.585 1.212-1.436 1.21-4.876 0-6.094-1.612-.634-3.017-1.055-6.914-1.055z"/><path fill="#405a9f" stroke="#d1a345" stroke-width="2.879" d="M569.68 368.41c12.934-27.721 8.918-71.777 11.079-107.98 0 0-11.027-2.206-39.786-2.206-28.758 0-39.786 2.206-39.786 2.206 2.162 36.205-1.854 80.261 11.079 107.98 6.169 13.222 13.434 22.465 28.706 29.869 15.272-7.404 22.537-16.646 28.706-29.869z"/><g fill-rule="evenodd"><path fill="#d1a345" d="m535.36 308.91 6.278-6.278 6.278 6.278-6.278 6.278zm6.278 10.464-10.464-10.464 10.464-10.464 10.464 10.464zm27.205 2.093-6.278 6.278-10.464-10.464 2.093-2.093 8.37 8.37 2.093-2.092-10.464-10.464-10.464 10.464 10.464 10.464 2.093-2.092-8.37-8.371 2.092-2.093 10.464 10.464-6.278 6.278-12.556-12.556-12.556 12.556-6.278-6.278 10.464-10.464 2.092 2.093-8.37 8.37 2.092 2.093 10.464-10.464-10.464-10.464-10.464 10.464 2.093 2.093 8.37-8.37 2.093 2.092-10.464 10.464-6.278-6.278 12.556-12.556-12.556-12.556 6.278-6.278 10.464 10.464-2.092 2.092-8.371-8.37-2.093 2.092 10.464 10.464 10.464-10.464-10.464-10.464-2.093 2.093 8.371 8.37-2.092 2.093-10.464-10.464 6.278-6.278 12.556 12.556 12.556-12.556 6.278 6.278-10.464 10.464-2.093-2.092 8.37-8.371-2.092-2.093-10.464 10.464 10.464 10.464 10.464-10.464-2.092-2.092-8.371 8.37-2.093-2.092 10.464-10.464 6.278 6.278-12.556 12.556z"/><path fill="#1f1a17" d="M416.97 232.4c-4.042 7.509-4.523 12.871-1.262 21.289.393 1.014.806 1.73 1.976 1.81.235.017 1.715 3.235 2.523 3.732.317.194 3.457 2.747 3.457 1.207 0-1.588-1.921-3.93-2.689-5.323-.087-.158 1.342 1.217 3.292 1.866 2.809.934-2.127-6.533-2.798-7.352-.148-.181 1.959.69 3.073.932 3.752.817.45-2.535-.384-3.785-.884-1.327-3.98-2.799-1.262-2.799 4.613 0 1.514-1.725-.055-3.95-1.793-2.544-3.641-5.398-5.87-7.627"/><path fill="#a92211" d="M415.95 235.66c0 4.451-2.449 8.543-.793 12.847.234.606 2.488 6.273 3.171 3.772.643-2.353-.924-3.463-.52-5.494.552-2.766-.955-5.413.192-8.31.565-1.428-.21-3.804-2.05-2.815"/></g><path fill="#bb9858" fill-rule="evenodd" d="M419.1 237.63c-1.423 0-.822 2.205-.492 2.952.963 2.182 2.72 2.815 4.975 2.815.765 0 .1-.294-.273-.765-.342-.432-1.027-.77-1.422-1.148-.62-.592-1.193-1.306-1.777-1.996-.475-.562-.678-1.453-1.011-1.858m1.2 7.24c-.42-.4-2.3-.336-1.613 1.203.898 2.01 3.254 3.67 5.494 3.826.889.063-1.235-1.972-1.612-2.35-.444-.444-1.922-2.23-2.269-2.679m.47 5.47c-.58-.548-.908-1.381-1.64-.41-1.71 2.27 2.654 5.147 3.963 6.368.604.563.603.554.547-.3-.057-.875-.971-2.632-1.503-3.362-.563-.773-.752-1.682-1.367-2.296m-.58 5.22c-.187-.403-.573-1.93-1.148-1.995-1.364-.156-1.123 1.614-.494 2.485.714.988 1.281 1.814 1.97 2.79.456.647 3.067 2.865 2.023.601-.324-.702-.681-1.35-1.067-2.05-.284-.517-1.097-1.428-1.284-1.83"/><path fill="#1f1a17" fill-rule="evenodd" d="M432.02 234.43c-.728-.206-1.464-.885-2.411-.587-1.165.367-3.243 2.975-4.116 4.214-.195.276-1.819 1.969-1.583 1.969 1.053 0 1.807.17 2.776-.45.933-.594 1.515-1.312 2.582-1.312.394 0 2.8.427 2.8-.138 0-1.26.127-2.455-.048-3.696"/><path fill="#bb9858" fill-rule="evenodd" d="M431.31 234.68c-.647-.044-1.35-.408-2.132-.081-.963.403-2.476 2.446-3.097 3.402-.139.213-1.357 1.576-1.155 1.545.904-.139 1.57-.123 2.338-.67.74-.527 1.165-1.091 2.08-1.231.34-.052 2.108-.038 2.049-.421-.131-.855-.06-1.689-.083-2.544"/></svg>