<svg xmlns="http://www.w3.org/2000/svg" width="563.8" height="376.5" fill-rule="evenodd" clip-rule="evenodd" image-rendering="optimizeQuality" shape-rendering="geometricPrecision" text-rendering="geometricPrecision" version="1.0" viewBox="0 0 160 106"><path fill="#fff" d="M0-.423h160v106.85H0z"/><path d="M.478-.098v85.05L140.1-.098z" style="stroke:#da251d;stroke-width:.0762;fill:#da251d" transform="translate(-.442 -.302)scale(1.0056)"/><path d="M21.916 106.1 159.52 17.85v88.25z" style="stroke:#0093dd;stroke-width:.0762;fill:#0093dd" transform="translate(-.442 -.302)scale(1.0056)"/><path d="M14.007 8.447c.207.18.495.53.54.773.557.09 1.006.45 1.41.854.558.018 1.152-.072 1.556.297.54.279 1.034.674 1.654.755.908.081 1.88.054 2.77-.018.557-.018 1.006.117 1.51.26.71.244 1.582.244 2.373.172.647.054 2.994.188 3.335 1.034.18.143.342.323.549.413.18.072.152.306.341.378.638.674 2.23 1.393 2.976.458.198-.243.09-.647.108-.97-.791-1.592-3.3-1.88-4.819-1.7-.53.018-1.043.144-1.6.108-.98 0-2.544.17-3.452-.27-.54-.234-1.025-.458-1.618-.62-1.17-.35-.8-1.61.206-1.61 1.412-.557 2.805 1.052 4 .621.711 0 1.358-.18 2.078-.135.845-.162 1.654.045 2.499.054 1.996.414 4.567 1.223 4.962 3.623.297 2.068-1.978 3.92-4 3.246.162.746.827 2.517 1.663 2.831.377.234.89.09 1.231.405.28.737.495 1.51.908 2.22.046.37-.952 1.682-1.132 2.221h-4.243c-.387-.53.35-1.843.26-1.681.306-.405.728-.71 1.187-.836-.153-.126-.243-.405-.477-.378-.602-.467-1.348-.647-1.896-1.222-.063.08-.171.161-.171.224-.522.62-.288 1.61-.971 2.149-.872.315-1.043 1.214-1.564 1.681h-7.83c-.127-1.16.386-2.068 1.5-2.346.019-.045.073-.108.01-.153-.432-.35-.971-1.394-1.475-1.591-.36.53-.431 1.07-.827 1.546-.45.063-.89.378-1.294.63-.845.485-.944 1.366-1.187 1.977-.108.081-.234.027-.387.027h-4.549c.036-1.34.908-2.292 2.248-2.454.288-.728 1.124-1.151 1.438-1.87.171-.746.297-1.484.594-2.176-.99-.422-2.005-1.51-2.49-2.481-.288-.189-.648-.279-.873-.575-.431.009-1.15-.405-1.501-.243-.306.027-.674.054-.944-.081-.467.17-.917-1.573-.306-1.987.315-.189.765.072 1.034-.162-.593-.153-1.213.378-1.744-.305-.225-.28.144-.585-.099-.845-.503-.063-.395-.99-.027-1.223.234-.063.45-.162.702-.144.197-.126.386-.26.629-.288.845.045 1.294-.944 2.22-.692.44.054.926.072 1.385.045.395-.252 1.276-.458 1.6.054m10.617 9.224c-.207.764.17 1.897.396 2.634-.342.36-.702.764-1.187 1.016a4 4 0 0 0-.926.234c-.045-.576.144-1.214-.369-1.52-.314-.503-.728-1.186-.89-1.77 1.124-.055 2.041-.495 2.976-.594" style="fill:#1f1a17" transform="translate(-.442 -.302)scale(1.0056)"/><path d="M14.47 20.787c0 .027 0 .045-.027.072-.35-.063-.575.072-.44-.333zm-.17-.701c.332.305.754.35 1.105.503-.063.27-1.052-.108-1.187-.234-.009-.116.081-.395.081-.27m11.848-.171.342.027c-.234.153-.557.117-.854.144v-.19c.018.01.404-.179.512.019m-5.834-.333-.486.477c-.18-.018-.18.009-.18-.189.081-.027.126-.072.216-.08v-.046c.18-.009.279-.198.45-.216zm-5.772-.117c.18.063.396.054.576.117.377.198.88.414 1.267.701-.503-.161-1.142-.431-1.717-.35-.27-.072-.315-.297-.26-.548.062 0 .098.044.134.08m12.442.09c-.404.018-1.276.072-1.573-.224l.009-.117c.602-.054 1.043.251 1.564.341m3.695-.602c-.126.225-.89.656-1.088.459.171-.135.845-.468 1.088-.459m-10.24-.09c.072.234-.917.665-1.187.665-.063-.063-.063-.153-.152-.188.107-.1.27.008.404-.045.342-.036.665-.207.935-.432m-5.043.207c.197 0 .98.575 1.186.701v.045c-.638-.413-1.366-.494-2.031-.8.018-.072.018-.144.053-.198.315-.027.594.018.792.252m4.387-.459c-.234.198-.657.01-.854.225-.081-.018-.072.072-.126.09-.162 0-.486-.036-.558-.189.162 0 .315-.036.477-.099.35-.027.71-.045 1.06-.09zm10.76-.296c0 .009.01.018.019.027-.171.063-.378.099-.54.206-.215.054-.368.225-.557.315s-.396-.018-.593-.036v-.045c.602-.216 1.033-.422 1.672-.467m-4.422.08c.242.028 1.087.207 1.276.396-.71-.297-1.447.108-2.112-.243-.234-.413.737-.18.836-.152m-10.41-.17c.323.207.629.521.935.719-.603-.216-1.295-.54-1.933-.647-.027-.639.755-.117.998-.072m10.132-.468c.386.09.782.315 1.186.423-.512.018-.944-.225-1.483-.153-.036-.027-.459-.17-.26-.324.206-.018.359.081.557.054m-9.97.081c.224.108.422.234.665.315l-.018.009c.396.314.818.647 1.232.917-.054.243-.225.503-.405.719-.135.252-.18.593-.306.854-.962.243-2.472 1.42-2.562 2.562l-3.83.018c-.08-.602.846-.989 1.223-1.177.189-.081.414-.063.602-.126.522-.747 1.376-1.43 1.718-2.22.134-.64.305-1.331.52-1.952-.062-.341 1.07.054 1.16.081m14.375-.225c-.126.135-.369-.009-.513.18-.305.171-.611.333-.899.567-.234.063-.386-.081-.584-.153a5.6 5.6 0 0 1 1.996-.638zm-10.464-.143c-.198.197-.62.17-.827.36-.315.08-.99 1.096-1.385.557-.063-.018-.17-.027-.17-.09.368.027.638-.216.943-.342v-.045c.414-.207.99-.369 1.439-.44m10.096-.36c-.234.117-.54.099-.765.27-.422.072-.656.485-1.07.557-.026-.063-.404-.018-.422-.225.45.09.647-.386 1.034-.45.423-.026.81-.152 1.223-.206zm-10.518-.234a1.2 1.2 0 0 1-.414.126c-.467.26-.935.62-1.366.962-.162.072-.71.081-.71-.189.233.063 1.195-.665 1.474-.773.314-.027.683-.108 1.016-.126m9.916-.323c-.836-.054-1.142 1.007-2.014.782-.108-.054-.27-.018-.36-.09.18-.117.495-.027.648-.27.548-.234 1.096-.44 1.726-.45zm-11.067-.171c-.108.063-.351.153-.44.207-.297.215-.45.629-.801.818-.252.108-.521 0-.764-.072 0-.171 1.78-1.016 2.014-1.052.072.027-.01.063-.01.099m-2.05-.89c-.17.377-.369 1.169-.665 1.43-.198.098-.36-.046-.432-.019.288-.278.459-.584.782-.89-.009-.144.198-.44.279-.54zm-.764-.513c-.063.261-.144.549-.216.81-.26-.027-.548.593-.728.773-.189.018-.414.018-.495-.18.522-.072 1.187-1.313 1.538-1.7-.054.09-.01.243-.1.297m11.822.62c.548.037 1.708.046 2.13.468-.665-.072-1.357.036-2.004.09-.288-.126-.549-.315-.827-.44-.09-.045-.702-1.232-.648-1.133.53.584.63.79 1.349 1.016m-12.73-1.348c-.081.53-.746 1.861-1.367 1.24.71-.278.935-.628 1.322-1.24zm4.315-.054c.243.189.369.495.63.639.404.332-.055.719-.028 1.015-.161-.018-.17-.422-.18-.53.126 0-.458-1.07-.467-1.124zm9.907-.35c.063.296.126.656.252.953-.54-.504-.81-.827-.935-1.619.225.198.584.288.683.666m-5.825-.738c.27.477.36.9.548 1.358 0 .647.683 1.106.377 1.798-.062-.54-.35-.818-.647-1.223-.305-.404-.189-1.42-.305-1.933zm-2.446.01c.027.27.171.44.315.7.252.585.377 1.241.207 1.898-.063.224-.135.431-.162.647-.054-.387.036-.845-.081-1.214-.108-.773-.36-1.483-.378-2.247.1.009.054.153.1.215m7.066.062c.19.504.378 1.034.729 1.466-.315-.198-.558-.378-.881-.585-.171-.431-.459-.79-.72-1.213-.027-.036-.099-.018-.117-.081.396-.01.72.144.99.413m-1.69-.404c.144.09.513.225.486.476 0 .198.278 1.358.638 1.358 0 .099.494.431.557.593-1.096-.593-1.519-.989-1.888-2.148 0-.01-.368-.324-.36-.378.235-.063.378.09.567.099m-1.312-.072c.153.072.296.18.45.27.134.045.386 2.013.296 2.301-.153-.35-.26-.764-.522-1.07-.116-.413-.161-.854-.305-1.24-.09-.162-.288-.19-.35-.36.17-.027.26.117.43.099m-.926-.09c.341.18.54 1.169.638 1.573.117.27.297.459.414.737.018.297-.054.594.071.89l-.062-.008c-.243-.819-1.043-1.493-1.052-2.311-.108-.315-.414-.926-.728-1.052.287-.045.476.117.719.171m-12.2.746c-.19.045-.378.207-.603.153.396-.35.702-.791.971-1.223a1.85 1.85 0 0 1-.368 1.07m7.56-1.222c1.142.197 3.866-.612 3.677 1.33-.323.656.405 1.07.153 1.735-.153-.216-.198-.728-.467-.935-.27-.413.018-.89-.027-1.366-.162-.171-.162-.495-.504-.432-.773.701.26 1.807-.144 2.535.01.261-.134.513-.072.756-.053-.378-.017-.828-.026-1.25-.37-.665-.603-1.205-.971-1.834-.171-.225-.198-.135-.36-.162-.674.872.387 1.726.054 2.688-.072-.332-.162-.683-.315-.989-.521-.45-.036-1.51-.818-1.726-.386.207-.323 1.124-.135 1.43-.305 0-.422-1.466-.494-1.673-.018-.18-.243-.107-.288-.27.243.073.477.154.737.163m-4.99-.18c-.17.575-1.617 3.03-2.345 1.987 1.078-.261 1.699-1.061 2.274-1.96.027-.01.045-.036.072-.027m3.507-.252c.71.521.432.737.207 1.456 0 .333.225.576.252.9-.054.52-.288.961-.522 1.402-.054.54-.63.746-.854 1.205h-.045c.135-.477.656-.738.737-1.232.081-.396.171-.791.234-1.205 0-.674-.62-.287-.854 0-.018-.17.144-.278.17-.44.54-.459.648-1.43.612-2.086zm-.431-.306c.026.1.17.126.143.261.072.08-.018.207-.027.288-.35.431-.575 1.016-.818 1.51 0 .216-.314.944-.584.962.252-.647.44-1.348.746-2.014.126-.45.207-.674-.198-.926-.17.854-.692 2.095-1.25 2.76h-.053c.144-.287.656-1.501.512-1.834-.225-.054-.216.297-.431.243-.081-.216.45-1.286.557-1.456.414-.324 1.034-.01 1.403.206m-7.049-.143c.378.341.558 1.042.081 1.393 0 .458-1.115.243-1.34.243v-.045c.414-.018 1.133-.1 1.268-.594.036-.278.153-.692-.18-.872-.17-.152-.35-.278-.575-.305-.18-.18.72.17.746.18m.854-.333c.315.638.207 1.06-.296 1.564-.153-.153.512-1.052-.171-1.438-.198-.171-.674-.36-.926-.288V10.7c.557.09.854-.297 1.393.225m4.235-.144c.224.342-.027 1.196-.261 1.492-.135-.018-.036-.18-.081-.26-.072.153-.755 1.33-.917 1.33-.045-.296.62-1.357.638-1.762.1-.189.19-1.07-.009-1.24h.063zm-3.2-.494c.197.323.269.575.404.908h.063c-.054.296.063 1.276-.243 1.492-.135-.189.225-1.214-.207-1.358-.198.19-.323.423-.44.648-.045.036-.117 0-.153.054.018-.1.189-.63.225-.684.027-.332-.027-.917.152-1.177.036.072.135.072.198.117m2.274-.045c0 .332-.324 1.007-.486 1.34-.54.386-1.016 1.716-1.654 1.833.8-.63.665-1.375.953-2.22.432-.351.566-.971.512-.108.054-.01.081.072.126.027.243-.243.045-.71.288-.998.126-.045.26-.027.26.126m-4.666-.072.027.045c-.44.251-.89.458-1.33.773 0-.054-.055-.18.044-.207.44-.162.657-.854 1.223-.692zm3.497-.72c-.036.396-.207.648-.54.837-.026-.351.37-.62-.062-1.007.036-.153.575-.1.602.17m.485.045c-.018.369.153.926-.314 1.187-.18 0-.315.01-.35-.225.215-.494.503-.818.296-1.357.26-.01.243.252.368.395m-.152-.764c.206.234.476.44.485.755-.018.01-.045-.009-.063.018.072.01.054.09.072.126.36.144.782.1 1.052.432.27.09.458.404.72.54.404.035.844-.01 1.23.09 1.664 1.23 3.04 1.024 5 .952.61-.018 1.222.189 1.788.36.62.135 1.349.099 2.005.063.683.054 1.43.134 2.104.287v.045c.737.063.854.755 1.483 1.034.063.063.063.207.17.207.909 1.034 1.844 1.169 3.174 1.097.216-.171.8-.369.836-.71.306-.225.252-1.151.144-1.412-.117-.827-1.699-1.645-2.427-1.933-.656-.099-1.33-.17-2.005-.225-1.789-.072-4.441.675-6.032-.197-.576-.198-1.214-.423-1.744-.684.108-.386 1.142-.332 1.42-.332.953.216 2.023.953 3.048.674 1.52-.189 3.3-.252 4.818-.009 1.529.378 3.408 1.052 3.93 2.706.503 1.762-1.376 3.398-3.147 2.949-.432-.036-.8-.19-1.196-.324.027.405.324.755.476 1.16.19.908.675 2.095 1.412 2.706.072.395 1.312.62 1.618.683 0 .647.477 1.393.71 1.95-.189.486-.701.909-.827 1.457l-3.39.018c.019-.989.99-1.555 1.898-1.564.036-.018.009-.054.018-.08-.261-.316-.647-.73-.854-1.062-.746-.323-1.376-.8-2.068-1.213-.17-.117-.225-.297-.369-.432-.395-.306-.782-.602-1.141-1.007-1.816-1.15-3.3-1.007-5.277-.332a3.4 3.4 0 0 1-1.412.054c-.135-.18-.162-.405-.252-.603.027-.162-.17-.198-.26-.315-.44-.125-.89-.503-1.259-.845.117.072.081.333.243.378.198.279.494.45.746.62.108.01.198.045.26.135.01.522.288.9.37 1.412.458.7.638 1.645 1.276 2.247 0 .495-.153 1.942.162 2.338.117-.018.18-.162.251-.252.18-.414.828-.908 1.313-.836.153.018 1.501-1.052 1.753-1.304-.08-.467-.378-.917-.45-1.43.028-.566-.314-1.14 0-1.644-.18-.486 2.329.494 2.347.503.063.054.98.881.97.962-.179.144-.143.396-.368.494-.314.504-.62 1.295-.683 1.924-.189.315-.53.378-.593.432-.53.395-.603.998-1.115 1.375h-6.913c.332-1.267.988-1.123 1.42-1.348.08-.234.35-.737.018-.854-.387-.423-.728-.962-1.169-1.358-.162-.296-.485-.431-.737-.62-.746-.36-1.294-.737-1.825-1.358-.683-.431-1.456-.602-2.175-.926-.648-.431-1.115-.952-1.7-1.465l-.413-.854c-.324-.216-.746-.297-.953-.656-.369-.171-.81 0-1.124-.315.189-.099.728-.333.728-.566-.072-.045-.125-.162-.242-.126-.414.503-1.655 1.133-2.167.404.08-.197-.036-.422 0-.656.045 0 .08.01.117-.009-.036-.027-.081-.018-.117-.036-.027-.108.036-.18.117-.252.117.081-.036.396.225.306.152.189.935-.207.97-.45.396-1.348-1.186-.602-1.788-.844.098-.306.054-.342.009-.567.36-.198.467-.467.431-.872.854-.53 1.924.216 2.805.216-.126-.432.09-.423-.396-.611-.377.071-.782.071-1.186.071.09-.044.296-.422.476-.413.252-.225 1.924-.072 2.257-.063.162-.099.314-.198.512-.216.126-.135.288.036.45 0m-5.34 1.034c0 .252-.297.755-.567.468h.01c-.01-.09-.046-.19-.046-.315.072-.162.459-.252.603-.153m.97 1.762c-.116.036-.098-.09-.17-.135-.063.108.018.279-.072.396-.117-.063-.171-.216-.234-.324-.126.054-.072.207-.135.324-.108-.045-.252-.315-.252-.423l.9-.036a.3.3 0 0 1-.037.198m.558.369c-.117.243-.324.53-.647.53 0-.368.26-.53.647-.53" style="fill:#fff500" transform="translate(-.442 -.302)scale(1.0056)"/></svg>