<svg xmlns="http://www.w3.org/2000/svg" width="900" height="600"><path fill="#c60001" d="M0 0h900v600H0z"/><path fill="#c60001" d="M142.4 73.667c-4.51.062-9.138 1.407-13.673 4.498-20.149 13.732 2.636 39.955 2.636 39.955l.011.011c1.994-.081 4.183.408 6.663 1.784 5.615-6.782 11.321-13.405 26.147-4.364 3.226-3.225 4.91-7.302 13.135-7.302s9.91 4.077 13.135 7.302c14.826-9.041 20.531-2.418 26.147 4.364 2.48-1.376 4.67-1.865 6.663-1.784l.011-.011s22.785-26.222 2.636-39.955c-4.536-3.091-9.164-4.436-13.673-4.498-16.105-.22-30.769 15.897-34.918 27.066-4.149-11.169-18.814-27.287-34.918-27.066z"/><path fill="#f8d501" stroke="#000" stroke-linejoin="round" stroke-width=".754" d="M142.21 71.008c-4.965-.037-10.062 1.166-15.019 4.072-24.708 14.48.606 43.813.606 43.813h.01a11.2 11.2 0 0 1 3.568-.763l-.011-.011s-22.785-26.222-2.636-39.955c4.535-3.091 9.164-4.436 13.673-4.498 16.105-.221 30.769 15.897 34.918 27.066 4.149-11.17 18.814-27.287 34.918-27.066 4.509.062 9.138 1.407 13.673 4.498 20.149 13.732-2.636 39.955-2.636 39.955l-.011.011c1.256.052 2.438.328 3.567.763h.01s25.315-29.332.606-43.813c-4.957-2.906-10.055-4.109-15.019-4.072-16.218.12-31.043 13.529-35.109 24.475-4.066-10.946-18.89-24.355-35.109-24.475zm-6.304 47.918c.2.075.402.148.606.236-.202-.088-.408-.16-.606-.236zm82.825 0c-.2.075-.402.148-.606.236.202-.088.408-.16.606-.236z"/><path fill="#c60001" stroke="#000" stroke-linejoin="round" stroke-width=".754" d="M216.21 145.8a38.899 8.246 0 1 1-77.798 0 38.899 8.246 0 1 1 77.798 0z"/><g fill="#f2f2f2" stroke="#000" stroke-linejoin="round"><path stroke-width=".718" d="M177.32 108.25c-8.225 0-9.91 4.077-13.135 7.302-14.826-9.041-20.531-2.418-26.147 4.364-5.784-3.21-9.97-1.633-13.842.897 6.324 8.036 11.741 16.235 14.223 24.99 0-4.553 17.417-8.243 38.9-8.243s38.9 3.69 38.9 8.244c2.482-8.757 7.9-16.955 14.223-24.991-3.871-2.53-8.057-4.107-13.842-.897-5.615-6.782-11.321-13.405-26.147-4.364-3.225-3.225-4.91-7.302-13.135-7.302z"/><path stroke-width=".359" d="M239.59 114.24a4.17 4.17 0 1 1-8.34 0 4.17 4.17 0 1 1 8.34 0zm4.36-8.76a4.17 4.17 0 1 1-8.34 0 4.17 4.17 0 1 1 8.34 0zm2.35-9.045a4.17 4.17 0 1 1-8.34 0 4.17 4.17 0 1 1 8.34 0zm-3.47-6.986a4.17 4.17 0 1 1-2.837-7.842 4.17 4.17 0 1 1 2.837 7.842zM233.66 80.148a4.17 4.17 0 1 1 4.988-6.683 4.17 4.17 0 1 1-4.988 6.683zm-2.61-7.362a4.17 4.17 0 1 1-6.915-4.66 4.17 4.17 0 1 1 6.915 4.66zM221.87 67.279a4.17 4.17 0 1 1-8.34 0 4.17 4.17 0 1 1 8.34 0zm-10.75.094a4.17 4.17 0 1 1-8.34 0 4.17 4.17 0 1 1 8.34 0zm-11.8 6.523a4.17 4.17 0 1 1-2.835-7.843 4.17 4.17 0 1 1 2.835 7.843zm-84.28 40.344a4.17 4.17 0 1 0 8.34 0 4.17 4.17 0 1 0-8.34 0zm-4.36-8.76a4.17 4.17 0 1 0 8.34 0 4.17 4.17 0 1 0-8.34 0zm-2.35-9.045a4.17 4.17 0 1 0 8.34 0 4.17 4.17 0 1 0-8.34 0zm3.47-6.986a4.17 4.17 0 1 0 2.838-7.842 4.17 4.17 0 1 0-2.838 7.842zM120.97 80.148a4.17 4.17 0 1 0-4.988-6.683 4.17 4.17 0 1 0 4.988 6.683zm2.61-7.362a4.17 4.17 0 1 0 6.916-4.66 4.17 4.17 0 1 0-6.916 4.66zM132.76 67.279a4.17 4.17 0 1 0 8.34 0 4.17 4.17 0 1 0-8.34 0zm10.75.094a4.17 4.17 0 1 0 8.34 0 4.17 4.17 0 1 0-8.34 0zm11.8 6.523a4.17 4.17 0 1 0 2.835-7.843 4.17 4.17 0 1 0-2.835 7.843z"/></g><g fill="#f8d501" stroke="#000" stroke-linejoin="round"><path stroke-width=".754" d="M163.03 73.117c-.843.72-1.535 1.066-2.692 2.569 6.236 7.798 11.049 17.985 13.023 32.944l3.96-.382 3.96.382c1.973-14.958 6.785-25.146 13.022-32.944-1.157-1.503-1.848-1.85-2.692-2.569-4.381 2.218-8.152 5.057-14.29 5.519-6.138-.462-9.909-3.301-14.29-5.519z"/><path stroke-width=".359" d="M174.73 41.999v6.42h-4.827v4.427h4.827v4.608h5.162v-4.608h4.827V48.42h-4.827v-6.421z"/><path stroke-width=".359" d="M188.07 67.877a10.759 10.759 0 1 1-21.517 0 10.759 10.759 0 1 1 21.517 0z"/><path stroke-width=".754" d="M163.03 73.117c4.344 9.02 11.947 19.652 11.98 35.255a21 21 0 0 1 2.31-.123c.838 0 1.6.044 2.311.123.033-15.602 7.636-26.235 11.98-35.255-4.381 2.218-8.152 5.057-14.29 5.519-6.138-.462-9.909-3.301-14.29-5.519z"/><path stroke-width=".359" d="M177.32 57.122c-1.047.08-2.535.029-3.264.666v8.97c-2.453-.125-4.909-.36-7.314-.876a10.95 10.95 0 0 0 .46 5.665c5.046.95 10.227 1.03 15.336.658 1.643-.135 3.282-.335 4.9-.658.65-1.803.806-3.78.46-5.665-2.405.517-4.861.751-7.314.875v-9.13a10.7 10.7 0 0 0-3.264-.505z"/></g><path fill="#999" stroke-width=".359" d="M190.32 121.99s-2.98 3.167-3.269 5.192c-.293 2.045 1.41 5.768 1.41 5.768s3.625-3.265 4.647-4.999c.611-1.036 1.058-4.903 1.058-4.903l-1.378-.064c-.238 3.702-2.06 4.236-3.301 5.928 0 0-.551-.844-.545-1.442.019-1.924 2.436-5 2.436-5-.234-.812-.66-.567-1.058-.48m13.01-7.24s-2.98 3.167-3.269 5.192c-.293 2.045 1.41 5.769 1.41 5.769s3.625-3.266 4.647-5c.611-1.036 1.058-4.903 1.058-4.903l-1.378-.065c-.238 3.703-2.06 4.237-3.301 5.93 0 0-.551-.845-.545-1.443.019-1.924 2.436-5 2.436-5-.234-.812-.66-.567-1.058-.48m8.03 12.57s-2.765 2.94-3.034 4.82c-.272 1.898 1.309 5.354 1.309 5.354s3.365-3.031 4.313-4.64c.567-.963.982-4.552.982-4.552l-1.28-.06c-.22 3.437-1.91 3.933-3.063 5.504 0 0-.512-.784-.506-1.339.017-1.786 2.26-4.64 2.26-4.64-.216-.755-.612-.528-.98-.447m9.619-4.87s-2.765 2.94-3.034 4.82c-.272 1.898 1.309 5.354 1.309 5.354s3.365-3.031 4.313-4.64c.567-.963.982-4.552.982-4.552l-1.28-.06c-.22 3.437-1.91 3.933-3.063 5.504 0 0-.512-.784-.506-1.339.017-1.786 2.26-4.64 2.26-4.64-.216-.755-.612-.528-.98-.447zm-45.92-9.82s-2.98 3.167-3.269 5.192c-.293 2.045 1.41 5.768 1.41 5.768s3.625-3.265 4.647-4.999c.611-1.036 1.058-4.903 1.058-4.903l-1.378-.065c-.238 3.703-2.06 4.237-3.301 5.93 0 0-.551-.845-.545-1.443.019-1.924 2.436-5 2.436-5-.234-.812-.66-.567-1.058-.48m-10.73 10.96s2.98 3.167 3.269 5.192c.293 2.045-1.41 5.768-1.41 5.768s-3.625-3.265-4.647-4.999c-.611-1.036-1.058-4.903-1.058-4.903l1.378-.065c.238 3.703 2.06 4.237 3.301 5.93 0 0 .551-.845.545-1.443-.019-1.924-2.436-5-2.436-5 .234-.812.66-.567 1.058-.48m-10.47-6.66s2.98 3.167 3.269 5.192c.293 2.045-1.41 5.769-1.41 5.769s-3.625-3.266-4.647-5c-.611-1.036-1.058-4.903-1.058-4.903l1.378-.064c.238 3.702 2.06 4.236 3.301 5.928 0 0 .551-.844.545-1.442-.019-1.924-2.436-5-2.436-5 .234-.812.66-.567 1.058-.48m-10.47 9.87s2.98 3.167 3.269 5.192c.293 2.045-1.41 5.768-1.41 5.768s-3.625-3.265-4.647-4.999c-.611-1.037-1.058-4.903-1.058-4.903l1.378-.065c.238 3.703 2.06 4.237 3.301 5.93 0 0 .551-.845.545-1.443-.019-1.924-2.436-5-2.436-5 .234-.812.66-.567 1.058-.48m-10.34-5.9s2.98 3.167 3.269 5.192c.293 2.045-1.41 5.769-1.41 5.769s-3.625-3.266-4.647-5c-.611-1.036-1.058-4.903-1.058-4.903l1.378-.064c.238 3.702 2.06 4.236 3.301 5.928 0 0 .551-.844.545-1.442-.019-1.924-2.436-5-2.436-5 .234-.812.66-.567 1.058-.48"/><g fill="#f2f2f2"><path stroke="#000" stroke-linejoin="round" stroke-width=".359" d="M178.43 85.437a3.273 3.273 0 1 1-2.225-6.155 3.273 3.273 0 1 1 2.225 6.155zm-.22 5.807a2.632 2.632 0 1 1-1.79-4.95 2.632 2.632 0 1 1 1.79 4.95zm-.26 5.109a1.863 1.863 0 1 1-1.266-3.504 1.863 1.863 0 1 1 1.266 3.504zm0 4.487a1.863 1.863 0 1 1-1.266-3.504 1.863 1.863 0 1 1 1.266 3.504zm0 5a1.863 1.863 0 1 1-1.266-3.504 1.863 1.863 0 1 1 1.266 3.504z"/><path d="M101.85 145.71v101.54c0 41.836 33.789 75.748 75.467 75.748s75.467-33.912 75.467-75.748V145.71l-8.334 5.44-8.346-5.44v17.465h-16.88V145.71l-8.346 5.44-8.334-5.44v17.465h-16.893V145.71l-8.334 5.44-8.346-5.44v17.465h-16.88V145.71l-8.335 5.44-8.345-5.44v17.465H118.53V145.71l-8.345 5.44z"/></g><path fill="none" stroke="#000" stroke-width="1.077" d="M101.85 145.71v101.54c0 41.836 33.789 75.748 75.467 75.748s75.467-33.912 75.467-75.748V145.71l-8.334 5.44-8.346-5.44v17.465h-16.88V145.71l-8.346 5.44-8.334-5.44v17.465h-16.893V145.71l-8.334 5.44-8.346-5.44v17.465h-16.88V145.71l-8.335 5.44-8.345-5.44v17.465H118.53V145.71l-8.345 5.44z"/><path d="M172.95 226.25c-3.933 0-4.88 3.006-4.88 3.006h-3.387v1.301l-38.844-.404c-2.992-.427-3.41-.85-4.621-1.278-1.302 2.211-2.434 5.663-2.434 8.098s1.132 5.899 2.434 8.11c1.212-.427 1.629-.851 4.621-1.279l87.043-.897c4.51.583 8.365 1.592 9.994 4.094.728.125 1.153 1.167 2.311 0 2.211-1.882 1.243-4.586 2.816-6.281.723-.78 1.769-1.237 2.938-1.57.52 1.433 1.533 2.411 2.704 2.411 1.699 0 3.073-2.056 3.073-4.588s-1.374-4.576-3.073-4.576c-1.171 0-2.184.978-2.704 2.412-1.17-.337-2.215-.803-2.938-1.582-1.573-1.696-.605-4.4-2.816-6.281-.434-.438-.772-.558-1.054-.539-.47.031-.802.46-1.257.539-1.63 2.502-5.484 3.522-9.994 4.105l-32.82-.337v-1.076h-1.795s-1.384-3.388-5.317-3.388"/><path fill="#fff" d="M234.42 235.92a.833 2.308 0 1 1-1.666 0 .833 2.308 0 1 1 1.666 0" opacity=".881"/><rect width="71.375" height="1.667" x="130.97" y="231.95" fill="#f2f2f2" rx="5.985" ry=".833"/><g stroke="#000" stroke-linejoin="round" stroke-width=".538"><path fill="#f8d501" d="m186.96 243.18-40.56.415v11.239h20.269l20.639 34.357h25.058l-2.12-3.264c-5.063-8.41.629-19.632-13.258-21.738l-10.005-21.01z"/><path fill="#c60001" d="m198.96 243.05-11.98.123 10.005 21.01c13.887 2.106 8.195 13.328 13.258 21.737l2.12 3.264 9.03-6.326-2.12-3.264c-5.063-8.41.617-19.62-13.27-21.727z"/><path fill="#c60001" d="m198.96 243.05-5.99.056 8.525 17.913c13.887 2.107 8.195 13.33 13.258 21.738l2.12 3.264 4.52-3.163-2.12-3.264c-5.062-8.41.618-19.621-13.27-21.727z"/></g><g fill="#f8d501"><g stroke="#000"><g stroke-width=".538"><path d="M157.498 235.564c-14.69 0-26.607 11.916-26.607 26.607s11.916 26.595 26.607 26.595 26.595-11.905 26.595-26.595-11.904-26.607-26.595-26.607zm0 3.814c12.587 0 22.793 10.205 22.793 22.793s-10.206 22.781-22.793 22.781-22.793-10.194-22.793-22.781 10.206-22.793 22.793-22.793z"/><path d="M150.51 240.848c2.596 2.415 5.701 4.601 4.789 7.044-.924 2.474-1.202 3.103-1.202 3.769 0 1.878 1.561 3.399 3.395 3.399s3.406-1.521 3.406-3.4c0-.665-.278-1.294-1.202-3.768-.912-2.443 2.193-4.629 4.79-7.044-1.315 1.156-3.948 1.952-6.989 1.952s-5.673-.796-6.988-1.952z"/><path d="M157.498 239.376c-2.546 0-4.993.419-7.28 1.19 1.188 1.307 3.998 2.231 7.28 2.231 3.286 0 6.095-.921 7.28-2.232a22.8 22.8 0 0 0-7.28-1.189zm21.314 15.804c-2.416 2.597-4.602 5.702-7.044 4.79-2.474-.924-3.103-1.202-3.77-1.202-1.877 0-3.398 1.561-3.398 3.395s1.52 3.406 3.399 3.406c.666 0 1.295-.278 3.769-1.202 2.442-.912 4.628 2.193 7.044 4.79-1.156-1.315-1.952-3.948-1.952-6.988s.796-5.674 1.952-6.989z"/><path d="M180.28 262.169c0-2.546-.419-4.993-1.19-7.28-1.307 1.188-2.231 3.998-2.231 7.28 0 3.286.921 6.095 2.232 7.28a22.8 22.8 0 0 0 1.189-7.28zm-29.774 21.314c2.596-2.416 5.701-4.602 4.79-7.044-.924-2.474-1.202-3.103-1.202-3.77 0-1.877 1.56-3.398 3.394-3.398s3.406 1.52 3.406 3.399c0 .666-.278 1.295-1.202 3.769-.912 2.442 2.194 4.628 4.79 7.044-1.315-1.156-3.947-1.952-6.988-1.952s-5.674.796-6.988 1.952z"/><path d="M157.494 284.954c-2.546 0-4.993-.418-7.28-1.189 1.188-1.307 3.998-2.232 7.28-2.232 3.287 0 6.095.922 7.28 2.232a22.8 22.8 0 0 1-7.28 1.19zm21.318-29.774c-2.416 2.597-4.602 5.702-7.044 4.79-2.474-.924-3.103-1.202-3.77-1.202-1.877 0-3.398 1.561-3.398 3.395s1.52 3.406 3.399 3.406c.666 0 1.295-.278 3.769-1.202 2.442-.912 4.628 2.193 7.044 4.79-1.156-1.315-1.952-3.948-1.952-6.988s.796-5.674 1.952-6.989z"/><path d="M180.28 262.169c0-2.546-.419-4.993-1.19-7.28-1.307 1.188-2.231 3.998-2.231 7.28 0 3.286.921 6.095 2.232 7.28a22.8 22.8 0 0 0 1.189-7.28zm-44.103 6.981c2.415-2.596 4.601-5.701 7.044-4.79 2.474.924 3.103 1.202 3.769 1.202 1.878 0 3.399-1.56 3.399-3.394s-1.521-3.406-3.4-3.406c-.665 0-1.294.278-3.768 1.202-2.443.912-4.629-2.194-7.044-4.79 1.156 1.315 1.952 3.947 1.952 6.988s-.796 5.673-1.952 6.988z"/><path d="M134.705 262.162c0 2.546.419 4.993 1.19 7.28 1.307-1.188 2.231-3.998 2.231-7.28 0-3.287-.921-6.095-2.232-7.28a22.8 22.8 0 0 0-1.189 7.28zm2.775-10.133c3.544-.128 7.285-.778 8.367 1.594 1.096 2.402 1.344 3.044 1.816 3.515 1.327 1.328 3.506 1.3 4.803.003s1.333-3.484.005-4.812c-.47-.47-1.112-.719-3.514-1.815-2.373-1.082-1.723-4.824-1.595-8.368-.112 1.748-1.41 4.172-3.56 6.322s-4.575 3.449-6.322 3.56z"/><path d="M141.381 246.049a22.8 22.8 0 0 0-4.306 5.988c1.764.085 4.405-1.248 6.725-3.57 2.324-2.323 3.658-4.96 3.57-6.725a22.8 22.8 0 0 0-5.989 4.307zm36.128 5.98c-3.544-.128-7.286-.778-8.368 1.594-1.096 2.402-1.344 3.044-1.815 3.515-1.328 1.328-3.507 1.3-4.804.003-1.296-1.297-1.333-3.484-.005-4.812.471-.47 1.113-.719 3.515-1.815 2.372-1.082 1.722-4.824 1.594-8.368.113 1.748 1.411 4.172 3.561 6.322s4.575 3.449 6.322 3.56z"/><path d="M173.603 246.049c1.8 1.8 3.235 3.827 4.307 5.988-1.764.085-4.405-1.248-6.725-3.57-2.324-2.323-3.658-4.96-3.57-6.725a22.8 22.8 0 0 1 5.989 4.307zm-36.123 26.253c3.544.128 7.285.778 8.367-1.594 1.096-2.403 1.344-3.044 1.816-3.515 1.327-1.328 3.506-1.3 4.803-.003s1.333 3.484.005 4.811c-.47.472-1.112.72-3.514 1.816-2.373 1.082-1.723 4.823-1.595 8.367-.112-1.747-1.41-4.171-3.56-6.321s-4.575-3.449-6.322-3.561z"/><path d="M141.381 278.282a22.8 22.8 0 0 1-4.306-5.988c1.764-.085 4.405 1.248 6.725 3.569 2.324 2.324 3.658 4.961 3.57 6.726a22.8 22.8 0 0 1-5.989-4.307zm36.128-5.98c-3.544.128-7.286.778-8.368-1.594-1.096-2.403-1.344-3.044-1.815-3.515-1.328-1.328-3.507-1.3-4.804-.003-1.296 1.297-1.333 3.484-.005 4.811.471.472 1.113.72 3.515 1.816 2.372 1.082 1.722 4.823 1.594 8.367.113-1.747 1.411-4.171 3.561-6.321s4.575-3.449 6.322-3.561z"/><path d="M173.603 278.282c1.8-1.8 3.235-3.827 4.307-5.988-1.764-.085-4.405 1.248-6.725 3.569-2.324 2.324-3.658 4.961-3.57 6.726a22.8 22.8 0 0 0 5.989-4.307z"/></g><path stroke-width=".484" d="M165.082 262.165a7.589 7.589 0 1 1-15.177 0 7.589 7.589 0 1 1 15.177 0z"/><path stroke-width=".538" d="M160.115 262.166a2.62 2.62 0 1 1-5.24 0 2.62 2.62 0 1 1 5.24 0z"/></g><g stroke-width=".359"><path stroke="#000" stroke-linejoin="round" d="M202.06 173.12c-1.889 12.172-12.19 19.41-12.327 23.208-.112 3.1 5.648 9.379 6.528 15.042l4.711 1.357.763-2.389c.911-4.264.007-9.035 3.5-12.922-1.441-1.277-2 .297-2.804 1.088l2.624-9.344c-.979-.585-1.71.298-2.535.64 2.876-5.749.15-11.15-.46-16.68z"/><path d="M198.62 212.05c-.88-5.663-6.639-11.946-6.526-15.047.137-3.798 10.439-11.033 12.328-23.205.61 5.531 3.328 10.93.453 16.679.824-.342 1.559-1.22 2.538-.635l-2.629 9.337c.805-.791 1.37-2.364 2.81-1.088-4.163 4.633-2.067 10.535-4.26 15.32 9.886-13.295 6.31-49.48 25.562-37.075-13.933-6.335-14.55 15.05-18.492 29.097 6.05-6.628 6.83-31.844 18.696-17.966-7.594-7.355-11.744 12.836-17.178 22.754 6.751-5.644 13.503-23.99 20.254-11.666-14.794-4.053-15.677 29-34.453 27.157-16.151-1.585-12.766-18.188-14.333-32.517-.184-1.682-5.108-3.04-4.804-5.076.29-1.957 2.698-2.99 5.257-2.357 7.833 1.936-.583 18.393 14.775 26.287z"/><path stroke="#000" stroke-linejoin="round" d="M179.28 186.72c-1.91.525-3.67 1.416-5.911 1.167-.415 1.95 1.315 2.268 2.22 2.31 1.38.064 3.027.187 4.835.337-1.062-.729-1.975-1.502-1.84-2.412a2.57 2.57 0 0 1 .696-1.402z"/></g></g><g stroke-width=".359"><path d="M181.89 187.4c1.615-1.058 2.47.26 3.43 1.25-1.144-.297-2.287-.03-3.43-1.25m0-10.94a1.173 1.173 0 0 0 0 2.344c.25.9.428 2.121.527 3.388.093 1.185.14 2.34.18 3.399q.375.013.762.078a91 91 0 0 0-.19-3.533c-.104-1.317-.254-2.594-.55-3.6a1.167 1.167 0 0 0-.729-2.076m-2.984 2.12c-.646 0-1.166.52-1.166 1.167a1.164 1.164 0 0 0 1.48 1.121c.831 1.59 1.556 2.953 1.784 4.88q.355-.094.74-.135c-.255-2.079-1.052-3.565-1.895-5.182a1.164 1.164 0 0 0-.942-1.85m7.538.123c-.646 0-1.178.52-1.178 1.167 0 .323.136.618.348.83-.76 1.53-1.413 3.158-1.649 5.093.26.07.494.166.718.269.203-1.897.85-3.495 1.615-5.037.049.006.096.023.146.023.646 0 1.167-.532 1.167-1.178s-.521-1.167-1.167-1.167"/><path fill="none" stroke="#000" stroke-linejoin="round" d="M198.62 212.05c-.88-5.663-6.639-11.946-6.526-15.047.137-3.798 10.439-11.033 12.328-23.205.61 5.531 3.328 10.93.453 16.679.824-.342 1.559-1.22 2.538-.635l-2.629 9.337c.805-.791 1.37-2.364 2.81-1.088-4.163 4.633-2.067 10.535-4.26 15.32 9.886-13.295 6.31-49.48 25.562-37.075-13.933-6.335-14.55 15.05-18.492 29.097 6.05-6.628 6.83-31.844 18.696-17.966-7.594-7.355-11.744 12.836-17.178 22.754 6.751-5.644 13.503-23.99 20.254-11.666-14.794-4.053-15.677 29-34.453 27.157-16.151-1.585-12.766-18.188-14.333-32.517-.184-1.682-5.108-3.04-4.804-5.076.29-1.957 2.698-2.99 5.257-2.357 7.833 1.936-.583 18.393 14.775 26.287z"/></g><g fill="#f8d501"><path stroke="#000" stroke-width=".359" d="M200.48 225.72a14.4 14.4 0 0 1-2.513.011l-1.155 3.702s-1.267.677-2.109 1.424l4.913.056c-.009-.597-.493-1.67-.493-1.67s.75-1.935 1.357-3.523zm-7.09-.94-2.782 4.476c-1.746.368-3.67.906-3.399 1.862.305 1.073 1.624-.222 2.233-.27-.155.705-.233 1.036.426 1.1.442.042.753-.403 1.38-.752.57.302.94 1.35 1.727.751.29-.424-.078-2.288-.078-2.288s2.105-2.96 2.972-4.206a16.4 16.4 0 0 1-2.479-.673z"/><path d="M0 511.16h900v30H0zm0-144.1h900v30H0z"/></g><g fill="#f2f2f2"><path d="M225.52 231.16c-.942 1.294-1.384 2.907-1.497 4.71-.035.551-.035 1.448.012 1.998.155 1.796.733 3.436 1.732 4.746.334.439.842.344 1.07-.159.175-.39.09-1.09-.177-1.574-.617-1.115-.93-1.872-1.035-3.014-.05-.549-.049-1.447.007-1.996.123-1.227.488-2.143 1.069-3.223.261-.486.222-1.231-.107-1.675-.234-.316-.749-.259-1.074.187" color="#000" opacity=".999" style="font-feature-settings:normal;font-variant-alternates:normal;font-variant-caps:normal;font-variant-east-asian:normal;font-variant-ligatures:normal;font-variant-numeric:normal;font-variant-position:normal;font-variation-settings:normal;inline-size:0;isolation:auto;mix-blend-mode:normal;shape-margin:0;shape-padding:0;text-decoration-color:#000;text-decoration-line:none;text-decoration-style:solid;text-indent:0;text-orientation:mixed;text-transform:none;white-space:normal"/><rect width="11.632" height="2.938" x="206.88" y="231.69" opacity=".999" rx="3.053" ry="1.469"/><rect width="11.632" height="2.938" x="206.67" y="239.37" opacity=".999" rx="3.053" ry="1.469"/><rect width="16.494" height="2.938" x="204.72" y="235.57" opacity=".999" rx="2.885" ry="1.469"/></g></svg>