<svg xmlns="http://www.w3.org/2000/svg" xmlns:xlink="http://www.w3.org/1999/xlink" width="800" height="533.68"><defs><linearGradient id="a"><stop offset="0" stop-color="#00adef"/><stop offset=".562" stop-color="#46c3f3"/><stop offset="1" stop-color="#8cd9f7"/></linearGradient><linearGradient id="b"><stop offset="0" stop-color="#00adef"/><stop offset=".5" stop-color="#46c3f3"/><stop offset="1" stop-color="#8cd9f7"/></linearGradient><linearGradient xlink:href="#a" id="c" x1="-347.32" x2="-295.76" y1="592.96" y2="624.08" gradientUnits="userSpaceOnUse"/><linearGradient xlink:href="#b" id="d" x1="-346.49" x2="-408.37" y1="654.37" y2="654.37" gradientUnits="userSpaceOnUse"/><linearGradient xlink:href="#b" id="e" x1="-310.32" x2="-295.11" y1="663.9" y2="673.45" gradientUnits="userSpaceOnUse"/></defs><path fill="#009bde" d="M0 0h800v533.68H0z"/><path fill="#ccc" stroke="#000" stroke-width="1.2" d="M363.4 114.93v6.29h73.542v-6.29z"/><g fill="#fff" stroke="#000" stroke-width="1.59"><path d="M-622.71 1522.9v41.75h264.15v-41.75zm27.78-28.5c-8.928 9.52-15.463 19.19-27.75 28.5h264.12c-12.287-9.31-18.822-18.98-27.75-28.5zm33.88-568.72v12.5h140.876v-12.5zm-22.53 413.72v132.44h185.938V1339.4zm-3.6-75.7c-4.432 0-8 3.568-8 8v12.75c0 4.432 3.568 8 8 8h193.124c4.432 0 8-3.568 8-8v-12.75c0-4.432-3.568-8-8-8z" transform="matrix(.50328 0 0 .50316 647.09 -279.26)"/><path d="M-564.68 907.02a6.51 6.51 0 0 0-6.531 6.531v9.188a6.51 6.51 0 0 0 6.531 6.53h148.124a6.51 6.51 0 0 0 6.531-6.53v-9.188a6.51 6.51 0 0 0-6.531-6.531zm-6-112.59v20.75h160.124v-20.75z" transform="matrix(.50328 0 0 .50316 647.09 -279.26)"/><path d="M-579.93 812.68v18.5h178.624v-18.5zm25.5 125.53-16.5 325.47h160.624l-16.5-325.47z" transform="matrix(.50328 0 0 .50316 647.09 -279.26)"/><path d="M-579.83 831.05c17.476 24.523 13.15 58.92 26.375 75.969h125.688c13.225-17.049 8.9-51.446 26.375-75.969zm-16.1 489.15v22.25h210.62v-22.25z" transform="matrix(.50328 0 0 .50316 647.09 -279.26)"/><path d="M-289.5 1372.6a7.5 7.5 0 1 1-15 0 7.5 7.5 0 0 1 15 0z" transform="matrix(.50328 0 0 .50316 584.155 -240.705)"/><path d="M-528.65 1356.6c0 14.755-17.026 30.938-30.938 30.938v45.125c14.249 0 31.125 14.71 31.125 31.125h75.656c0-16.415 16.876-31.125 31.125-31.125v-45.125c-13.911 0-30.938-16.183-30.938-30.938z" transform="matrix(.50328 0 0 .50316 647.09 -279.26)"/><path d="M-519.3 1382.3c-2.359 3.503-3.592 6.062-9.281 8.938v32.5c4.746 3.096 6.473 4.2 9.375 9.03h57.156c2.902-4.83 4.629-5.934 9.375-9.03v-32.5c-5.69-2.876-6.923-5.435-9.281-8.938z" transform="matrix(.50328 0 0 .50316 647.09 -279.26)"/><path d="M-289.5 1372.6a7.5 7.5 0 1 1-15 0 7.5 7.5 0 0 1 15 0z" transform="matrix(.50328 0 0 .50316 584.155 -285.487)"/><path d="M-438.66 851.51c-.781-6.128-.65-11.373-9.634-17.501-11.06 4.071-17.716 10.55-18.65 22.009" transform="matrix(.50328 0 0 .50316 647.09 -279.26)"/><path d="M-365.57 1183.7c8.31 0 10.174-4.976 11.699-8.308 0 0 3.003 8.308 10.575 8.308s10.175-8.308 10.175-8.308 1.925 8.213 8.75 8.308c6.825.094 9.25-8.308 9.25-8.308s1.186 8.308 8.625 8.308 8.625-8.308 8.625-8.308.022 8.308 5.497 8.308 6.503-8.371 6.503-8.371" transform="matrix(.50328 0 0 .50316 584.155 -241.317)"/><path d="M-490.63 941.48c6.766 0 8.283 3.48 9.524 5.809 0 0 2.444-5.809 8.608-5.809s8.284 5.809 8.284 5.809 1.567-5.743 7.123-5.809c5.555-.066 7.53 5.809 7.53 5.809s.965-5.809 7.02-5.809 7.022 5.809 7.022 5.809.018-5.809 4.475-5.809 4.635 5.809 4.635 5.809" transform="matrix(.50328 0 0 .50316 647.09 -279.369)"/><path d="m-297.94 1175.4-12.482-304.23m-4.638 304.23-9.344-304.23m-8.736 304.23-6.055-304.23m-14.725 304.23-2.051-304.23" transform="matrix(.50328 0 0 .50316 584.155 -241.317)"/><path d="M-289.5 1372.6a7.5 7.5 0 1 1-15 0 7.5 7.5 0 0 1 15 0z" transform="matrix(.50328 0 0 .50316 513.696 -240.705)"/><path d="M-289.5 1372.6a7.5 7.5 0 1 1-15 0 7.5 7.5 0 0 1 15 0z" transform="matrix(.50328 0 0 .50316 513.696 -285.487)"/><path d="M-365.57 1183.7c8.31 0 10.174-4.976 11.699-8.308 0 0 3.003 8.308 10.575 8.308s10.175-8.308 10.175-8.308 1.925 8.213 8.75 8.308c6.825.094 9.25-8.308 9.25-8.308s1.186 8.308 8.625 8.308 8.625-8.308 8.625-8.308.022 8.308 5.497 8.308 6.566-8.308 6.566-8.308" transform="matrix(-.50328 0 0 .50316 216.187 -241.317)"/><path d="M-490.63 941.48c6.766 0 8.283 3.48 9.524 5.809 0 0 2.444-5.809 8.608-5.809s8.284 5.809 8.284 5.809 1.567-5.743 7.123-5.809c5.555-.066 7.53 5.809 7.53 5.809s.965-5.809 7.02-5.809 7.022 5.809 7.022 5.809.018-5.809 4.475-5.809 4.723 5.809 4.723 5.809" transform="matrix(-.50328 0 0 .50316 153.252 -279.369)"/><path d="m-297.94 1175.4-12.482-304.23m-4.638 304.23-9.344-304.23m-8.736 304.23-6.055-304.23m-14.725 304.23-2.051-304.23" transform="matrix(-.50328 0 0 .50316 216.187 -241.317)"/><path d="M-543.69 851.51c.781-6.128.65-11.373 9.634-17.501 11.06 4.071 17.716 10.55 18.65 22.009" transform="matrix(.50328 0 0 .50316 647.09 -279.26)"/><path d="M-490.62 835.53c-3.368 1.286-20.221 10.578-12.656 25.75.99 1.985-1.533 3.883-3.25 1.438-15.779-22.466-34.821 16.317-8.937 14.312 0 0-.407-5.617 4.656-5.188 4.373.37 5.41 7.432 4.656 10.312-3.553 13.588-22.806 13.341-34.531 4.25-4.945-3.834-9.228-14.27-5.156-17.438 4.435-3.45 6.093 2.208 3.625 4.125 29.059-1.91.819-39.435-10.25-11.125-.888 2.271-2.399 1.016-2.188-.312 5.5-34.658-36.65-20.566-21.312-5.125.842-3.728 10.338-1.428 13.812 13.469 9.261 39.71 52.625 47.477 71.531 20.28 18.906 27.195 62.24 19.43 71.5-20.28 3.474-14.896 12.97-17.196 13.812-13.47 15.338-15.44-26.813-29.533-21.312 5.125.211 1.329-1.3 2.584-2.187.313-11.07-28.31-39.31 9.216-10.25 11.125-2.468-1.917-.81-7.576 3.625-4.125 4.071 3.167-.212 13.603-5.156 17.438-11.725 9.091-30.978 9.339-34.531-4.25-.754-2.88.283-9.942 4.656-10.312 5.062-.429 4.656 5.188 4.656 5.188 25.883 2.004 6.841-36.78-8.938-14.312-1.717 2.445-4.24.547-3.25-1.438 7.565-15.172-9.257-24.464-12.625-25.75zm-100.81 633.67c-5.54 0-10 4.46-10 10v5.25c0 5.54 4.46 10 10 10h201.62c5.54 0 10-4.46 10-10v-5.25c0-5.54-4.46-10-10-10zm-17.75-176.8v32.5h237.12v-32.5z" transform="matrix(.50328 0 0 .50316 647.09 -279.26)"/></g><g stroke="#000"><path fill="maroon" stroke-width=".995" d="M-289.7 504.99h-149.83c0-8.284 33.238-16.102 74.659-16.102s75.171 7.818 75.171 16.102z" transform="matrix(.52175 0 0 .48412 590.884 -127.814)"/><g stroke-width=".994"><path fill="url(#c)" d="M-312.8 632.97c10.559-5.22 23.412-1.178 25.75-6.25 8.196-17.784-14.132-11.472-29.188-20.812-4.63-2.872-10.827-16.972-17.609-21.655-11.067-7.642-22.516-5.198-22.516.655 0 28.81 38.529 54.811 43.562 48.062z" transform="matrix(.50328 0 0 .50316 647.09 -206.624)"/><path fill="#00adef" d="M-356.45 584.13c1.765 18.885 18.189 21.188 19.915 26.617 3.6 12.222-17.682 27.323-18.324 26.681 1.469-15.598-3.82-39.156-1.591-53.298z" transform="matrix(.50328 0 0 .50316 647.09 -206.624)"/><path fill="url(#d)" d="M-428.05 635.72c7.208 34.461 82.487 31.782 89 12 1.757-5.335-.12-11.621 1.018-17.445 1.102-5.644 5.31-10.764 1.482-19.805 2.094 25.676-64.071 45.808-82.5 30.5-3.634-3.634-5.222-3.046-9-5.25z" transform="matrix(.50328 0 0 .50316 647.09 -206.624)"/><path fill="#00aeef" d="M-297.32 654.31c-.17-5.295 8.785-22.758 10.479-28.314-4.997 7.207-22.686.126-26.072 2.014-9.803 6.536 10.118 24.931 15.593 26.3z" transform="matrix(.50328 0 0 .50316 647.09 -206.624)"/><path fill="url(#e)" d="M-291.22 680.92c9.22 9.686 7.626 20.707 6.718 25.102 8.059-7.674 8.29-15.138 7.247-22.627-4.71-33.832-39.864-36.912-36.15-55.331-2.816.433-4.177 5.516-1.679 21.52-5.52 4.818-4.053 12.071.883 17.37 9.091 9.761 21.886 21.601 9.9 42.957 10.46-2.912 12.271-18.817 13.08-28.991z" transform="matrix(.50328 0 0 .50316 647.09 -206.624)"/></g><g stroke-width=".994"><path fill="url(#c)" d="M-312.8 632.97c10.559-5.22 23.412-1.178 25.75-6.25 8.196-17.784-14.132-11.472-29.188-20.812-4.63-2.872-10.827-16.972-17.609-21.655-11.067-7.642-22.516-5.198-22.516.655 0 28.81 38.529 54.811 43.562 48.062z" transform="matrix(-.50328 0 0 .50316 152.431 -206.624)"/><path fill="#00adef" d="M-356.45 584.13c1.765 18.885 18.189 21.188 19.915 26.617 3.6 12.222-17.682 27.323-18.324 26.681 1.469-15.598-3.82-39.156-1.591-53.298z" transform="matrix(-.50328 0 0 .50316 152.431 -206.624)"/><path fill="url(#d)" d="M-428.05 635.72c7.208 34.461 82.487 31.782 89 12 1.757-5.335-.12-11.621 1.018-17.445 1.102-5.644 5.31-10.764 1.482-19.805 2.094 25.676-64.071 45.808-82.5 30.5-3.634-3.634-5.222-3.046-9-5.25z" transform="matrix(-.50328 0 0 .50316 152.431 -206.624)"/><path fill="#00aeef" d="M-297.32 654.31c-.17-5.295 8.785-22.758 10.479-28.314-4.997 7.207-22.686.126-26.072 2.014-9.803 6.536 10.118 24.931 15.593 26.3z" transform="matrix(-.50328 0 0 .50316 152.431 -206.624)"/><path fill="url(#e)" d="M-291.22 680.92c9.22 9.686 7.626 20.707 6.718 25.102 8.059-7.674 8.29-15.138 7.247-22.627-4.71-33.832-39.864-36.912-36.15-55.331-2.816.433-4.177 5.516-1.679 21.52-5.52 4.818-4.053 12.071.883 17.37 9.091 9.761 21.886 21.601 9.9 42.957 10.46-2.912 12.271-18.817 13.08-28.991z" transform="matrix(-.50328 0 0 .50316 152.431 -206.624)"/></g></g><path fill="#f3cd00" stroke="#000" stroke-width=".994" d="m-497.61 382.39 4.596 16.591-16.59-4.596v15.364l16.59-4.596-4.596 16.59h15.364l-4.596-16.59 16.59 4.596v-15.364l-16.59 4.596 4.596-16.591z" transform="matrix(.50328 0 0 .50316 647.09 -176.027)"/><g fill="#9a6105" stroke="#000"><path stroke-width=".874" d="M-328.45 383.66c0 4.198-2.355 7.601-5.26 7.601s-5.258-3.403-5.258-7.601 2.354-7.601 5.259-7.601c2.904 0 5.259 3.403 5.259 7.601z" transform="matrix(.53136 0 0 .61567 585.997 -183.743)"/><path stroke-width=".775" d="M-328.45 383.66c0 4.198-2.355 7.601-5.26 7.601s-5.258-3.403-5.258-7.601 2.354-7.601 5.259-7.601c2.904 0 5.259 3.403 5.259 7.601z" transform="matrix(.55824 0 0 .74599 603.477 -231.616)"/><path stroke-width=".874" d="M-328.45 383.66c0 4.198-2.355 7.601-5.26 7.601s-5.258-3.403-5.258-7.601 2.354-7.601 5.259-7.601c2.904 0 5.259 3.403 5.259 7.601z" transform="matrix(-.53136 0 0 .61567 214.923 -183.743)"/><path stroke-width=".775" d="M-328.45 383.66c0 4.198-2.355 7.601-5.26 7.601s-5.258-3.403-5.258-7.601 2.354-7.601 5.259-7.601c2.904 0 5.259 3.403 5.259 7.601z" transform="matrix(-.55824 0 0 .74599 197.354 -231.616)"/></g><g stroke="#000"><path fill="#f4c901" stroke-width=".994" d="M-351.12 356.88c0 7.615-6.173 13.789-13.789 13.789s-13.789-6.173-13.789-13.789 6.173-13.789 13.789-13.789 13.789 6.173 13.789 13.789z" transform="matrix(.50328 0 0 .50316 584.155 -137.46)"/><path fill="#c68413" stroke-width=".994" d="M-489.99 419.32c-1.25.01-3.16.13-3.437.688v10.062c-2.984.233-7.99.419-10.062 1.562-.697.384-1.83 5.567.937 4.625 3.875-1.32 8.851-1.437 12.562-1.437s8.687.118 12.562 1.437c2.767.942 1.634-4.24.938-4.625-2.073-1.143-7.08-1.33-10.062-1.562v-10.062c-.279-.557-2.188-.678-3.438-.688z" transform="matrix(.50328 0 0 .50316 647.09 -176.027)"/><path fill="#f3cd00" stroke-width="1.189" d="M-1008.6 466.7h12.884v12.884h-12.884z" transform="matrix(.46609 -.18983 .46609 .18983 647.092 -176.025)"/><path fill="#880523" stroke-width=".994" d="M-288.78 426.7c0 25.97-34.064 47.023-76.084 47.023s-76.084-21.053-76.084-47.023 34.064-47.023 76.084-47.023 76.084 21.053 76.084 47.023z" transform="matrix(.50328 0 0 .50316 584.155 -137.64)"/><path fill="#c68413" stroke-width=".994" d="M-373.56 369.62c-3.738.107-7.087.607-6.312 1.875 5.83 9.644 9.26 42.256 9.5 51.5 1.33-.222 4.756-1.885 5.5-3.125.743 1.24 4.17 2.903 5.5 3.125.238-9.244 3.668-41.856 9.5-51.5 1.548-2.535-13.352-2.014-15-1.375-.824-.32-4.95-.607-8.688-.5z" transform="matrix(.50328 0 0 .50316 584.155 -137.975)"/></g><g stroke-width=".5"><path fill="#d59b11" d="M439.135 103.942c3.71-5.69 9.423-10.627 11.626-15.977 7.918-19.221-4.435-37.46-25.935-36.46-4.855 8.585-18.239 38.89-22.129 43.76 10.223 4.138 38.861 14.567 36.438 8.677"/><path fill="#d0a609" d="m443.888 88.42-1.29-4.715 4.003-1.423z"/><path fill="#ce8a14" d="m442.418 83.75 1.424 4.714-6.628-3.424z"/><path fill="#f2cc00" d="m440.415 78.905 2.224 4.936 3.96-1.512z"/><path fill="#e9c002" d="m440.375 78.814-3.074 6.192 5.327-1.203z"/><path fill="#d0a609" d="m437.967 85.176-1.642-4.543 3.852-1.954z"/><path fill="#ce8a14" d="m436.15 80.702 1.775 4.525-6.826-2.545z"/><path fill="#f2cc00" d="m433.793 76.122 2.584 4.642 3.801-2.038z"/><path fill="#e9c002" d="m433.746 76.037-2.563 6.6 5.18-1.91z"/><path fill="#d0a609" d="m431.472 82.527-1.642-4.43 3.852-2.22z"/><path fill="#ce8a14" d="m429.656 78.179 1.774 4.402-6.825-2.072z"/><path fill="#f2cc00" d="m427.298 73.762 2.584 4.463 3.801-2.301z"/><path fill="#e9c002" d="m427.251 73.68-2.563 6.778 5.18-2.27z"/><path fill="#d0a609" d="m424.855 80.396-1.642-4.43 3.853-2.22z"/><path fill="#ce8a14" d="m423.04 76.048 1.773 4.402-6.825-2.072z"/><path fill="#f2cc00" d="m420.682 71.631 2.583 4.463 3.802-2.3z"/><path fill="#e9c002" d="m420.635 71.55-2.564 6.777 5.18-2.269z"/><path fill="#d0a609" d="m450.182 89.415-.818-2.277 1.747-.327z"/><path fill="#ce8a14" d="m449.38 87.178.745 2.017-.863 1.614-5.205-2.456z"/><path fill="#f2cc00" d="m446.826 82.303 2.59 4.971 1.886-.694.597-1.641z"/><path fill="#e9c002" d="m446.78 82.212-2.64 6.11 5.263-1.086z"/><path fill="#d0a609" d="m447.046 81.66-1.81-4.54 3.819-1.863z"/><path fill="#ce8a14" d="m445.063 77.184 1.943 4.525-6.97-2.66z"/><path fill="#f2cc00" d="m442.529 72.594 2.764 4.656 3.764-1.946z"/><path fill="#e9c002" d="m442.479 72.508-2.361 6.498 5.16-1.792z"/><path fill="#d0a609" d="m440.334 78.313-1.642-4.543 3.853-1.954z"/><path fill="#ce8a14" d="m438.518 73.839 1.774 4.525-6.825-2.545z"/><path fill="#f2cc00" d="m436.16 69.26 2.584 4.64 3.801-2.037z"/><path fill="#e9c002" d="m436.114 69.174-2.564 6.6 5.18-1.91z"/><path fill="#d0a609" d="m433.528 75.532-1.642-4.43 3.853-2.22z"/><path fill="#ce8a14" d="m431.712 71.183 1.774 4.403-6.825-2.073z"/><path fill="#f2cc00" d="m429.355 66.767 2.583 4.462 3.802-2.3z"/><path fill="#e9c002" d="m429.308 66.685-2.563 6.778 5.18-2.27z"/><path fill="#d0a609" d="m426.734 73.267-1.642-4.429 3.852-2.221z"/><path fill="#ce8a14" d="m424.918 68.919 1.774 4.402-6.825-2.072z"/><path fill="#f2cc00" d="m422.56 64.502 2.584 4.463 3.801-2.3z"/><path fill="#e9c002" d="m422.513 64.42-2.563 6.778 5.18-2.269z"/><path fill="#ce8a14" d="m452.512 81.223.003 1.544-.624 2.088-5.11-2.52z"/><path fill="#f2cc00" d="m449.55 76.285 2.559 4.987.595-.024.452-3.2z"/><path fill="#e9c002" d="m449.503 76.193-2.64 6.11 5.263-1.085z"/><path fill="#d0a609" d="m449.325 75.552-1.29-4.714 4.004-1.423z"/><path fill="#ce8a14" d="m447.856 70.883 1.423 4.714-6.628-3.424z"/><path fill="#f2cc00" d="m445.852 66.038 2.225 4.936 3.959-1.512z"/><path fill="#e9c002" d="m445.812 65.947-3.074 6.192 5.328-1.203z"/><path fill="#d0a609" d="m442.87 71.82-1.642-4.543 3.852-1.954z"/><path fill="#ce8a14" d="m441.054 67.346 1.774 4.525-6.826-2.545z"/><path fill="#f2cc00" d="m438.696 62.766 2.584 4.642 3.8-2.038z"/><path fill="#e9c002" d="m438.65 62.681-2.564 6.6 5.18-1.91z"/><path fill="#d0a609" d="M436.242 68.638 434.6 64.21l3.852-2.221z"/><path fill="#ce8a14" d="m434.425 64.29 1.774 4.402-6.825-2.072z"/><path fill="#f2cc00" d="m432.068 59.873 2.583 4.463 3.802-2.3z"/><path fill="#e9c002" d="m432.02 59.791-2.562 6.778 5.18-2.269z"/><path fill="#d0a609" d="m429.492 66.329-1.642-4.43 3.852-2.22z"/><path fill="#ce8a14" d="m427.676 61.98 1.774 4.403-6.825-2.073z"/><path fill="#f2cc00" d="m425.318 57.564 2.584 4.462 3.801-2.3z"/><path fill="#e9c002" d="m425.271 57.482-2.563 6.778 5.18-2.27z"/><path fill="#ce8a14" d="m453.137 75.092.013 2.998-3.967-2.157z"/><path fill="#e9c002" d="m452.06 69.347-2.796 6.555 3.862-.686c.21-2.713-.425-4.404-1.066-5.87z"/><path fill="#ce8a14" d="m450.132 64.365 1.915 5.059-7.042-3.428z"/><path fill="#e9c002" d="m446.597 59.421-1.503 6.58 4.939-1.597z"/><path fill="#d0a609" d="m444.953 65.352-1.776-4.935 3.505-.995z"/><path fill="#ce8a14" d="m443.008 60.5 2.04 4.993-6.668-2.807z"/><path fill="#f2cc00" d="m440.61 54.907 2.633 5.628 3.29-1.117z"/><path fill="#e9c002" d="m440.547 54.901-2.225 7.78 4.896-2.173z"/><path fill="#d0a609" d="m438.687 61.626-2.018-4.272 3.646-2.545z"/><path fill="#ce8a14" d="m436.503 57.45 2.147 4.233-6.979-1.476z"/><path fill="#f2cc00" d="m433.443 52.561 3.293 4.913 3.589-2.62c-2.245-.73-4.045-2.477-6.882-2.293"/><path fill="#e9c002" d="m433.494 52.557-1.747 7.596 4.965-2.708z"/><path fill="#d0a609" d="m431.893 59.79-2.099-4.212 3.719-3.104z"/><path fill="#ce8a14" d="m429.632 55.679 2.383 4.105-7.05-1.079z"/><path fill="#f2cc00" d="m426.668 51.644 3.194 4.048 3.723-3.33c-2.262-.802-4.599-.637-6.917-.718"/><path fill="#e9c002" d="m426.61 51.57-1.57 7.073 4.803-2.984z"/><path fill="none" stroke="#000" stroke-width=".994" d="M-414.95 556.42c7.372-11.306 18.724-21.12 23.102-31.752 15.732-38.202-8.813-74.451-51.533-72.461-8.555 15.13-26.797 70.308-41.292 83.214-1.965 1.75.948 5.407.073 6.503 20.312 8.226 74.465 26.202 69.65 14.496z" transform="matrix(.50328 0 0 .50316 647.97 -176.027)"/></g><g stroke-width=".5"><path fill="#d59b11" d="M361.695 103.942c-3.71-5.69-9.423-10.627-11.627-15.977-7.917-19.221 4.435-37.46 25.936-36.46 4.322 7.643 13.639 33.172 20.48 42.213.765 1.01-.162 2.395.265 2.93-10.223 4.139-37.477 13.183-35.054 7.293z"/><path fill="#d0a609" d="m356.942 88.42 1.29-4.715-4.004-1.423z"/><path fill="#ce8a14" d="m358.411 83.75-1.423 4.714 6.628-3.424z"/><path fill="#f2cc00" d="m360.414 78.905-2.224 4.936-3.959-1.512z"/><path fill="#e9c002" d="m360.455 78.814 3.074 6.192-5.328-1.203z"/><path fill="#d0a609" d="m362.863 85.176 1.642-4.543-3.852-1.954z"/><path fill="#ce8a14" d="m364.679 80.702-1.774 4.525 6.825-2.545z"/><path fill="#f2cc00" d="m367.037 76.122-2.584 4.642-3.801-2.038z"/><path fill="#e9c002" d="m367.084 76.037 2.563 6.6-5.18-1.91z"/><path fill="#d0a609" d="m369.358 82.527 1.642-4.43-3.853-2.22z"/><path fill="#ce8a14" d="M371.174 78.179 369.4 82.58l6.825-2.072z"/><path fill="#f2cc00" d="m373.532 73.762-2.584 4.463-3.801-2.301z"/><path fill="#e9c002" d="m373.578 73.68 2.564 6.778-5.18-2.27z"/><path fill="#d0a609" d="m375.974 80.396 1.642-4.43-3.852-2.22z"/><path fill="#ce8a14" d="m377.79 76.048-1.774 4.402 6.826-2.072z"/><path fill="#f2cc00" d="m380.148 71.631-2.583 4.463-3.802-2.3z"/><path fill="#e9c002" d="m380.195 71.55 2.563 6.777-5.18-2.269z"/><path fill="#d0a609" d="m350.647 89.415.818-2.277-1.747-.327z"/><path fill="#ce8a14" d="m351.45 87.178-.746 2.017.864 1.614 5.204-2.456z"/><path fill="#f2cc00" d="m354.003 82.303-2.59 4.971-1.886-.694-.596-1.641z"/><path fill="#e9c002" d="m354.05 82.212 2.64 6.11-5.263-1.086z"/><path fill="#d0a609" d="m353.783 81.66 1.81-4.54-3.818-1.863z"/><path fill="#ce8a14" d="m355.767 77.184-1.943 4.525 6.97-2.66z"/><path fill="#f2cc00" d="m358.3 72.594-2.763 4.656-3.765-1.946z"/><path fill="#e9c002" d="m358.35 72.508 2.362 6.498-5.16-1.792z"/><path fill="#d0a609" d="m360.495 78.313 1.642-4.543-3.852-1.954z"/><path fill="#ce8a14" d="m362.312 73.839-1.774 4.525 6.825-2.545z"/><path fill="#f2cc00" d="m364.67 69.26-2.584 4.64-3.802-2.037z"/><path fill="#e9c002" d="m364.716 69.174 2.563 6.6-5.18-1.91z"/><path fill="#d0a609" d="m367.301 75.532 1.642-4.43-3.852-2.22z"/><path fill="#ce8a14" d="m369.117 71.183-1.774 4.403 6.826-2.073z"/><path fill="#f2cc00" d="m371.475 66.767-2.584 4.462-3.8-2.3z"/><path fill="#e9c002" d="m371.522 66.685 2.563 6.778-5.18-2.27z"/><path fill="#d0a609" d="m374.096 73.267 1.641-4.429-3.852-2.221z"/><path fill="#ce8a14" d="m375.912 68.919-1.774 4.402 6.825-2.072z"/><path fill="#f2cc00" d="m378.27 64.502-2.584 4.463-3.802-2.3z"/><path fill="#e9c002" d="m378.316 64.42 2.563 6.778-5.18-2.269z"/><path fill="#ce8a14" d="m348.318 81.223-.003 1.544.624 2.088 5.11-2.52z"/><path fill="#f2cc00" d="m351.28 76.285-2.559 4.987-.595-.024-.452-3.2z"/><path fill="#e9c002" d="m351.326 76.193 2.64 6.11-5.263-1.085z"/><path fill="#d0a609" d="m351.505 75.552 1.29-4.714-4.004-1.423z"/><path fill="#ce8a14" d="m352.974 70.883-1.423 4.714 6.628-3.424z"/><path fill="#f2cc00" d="m354.977 66.038-2.224 4.936-3.96-1.512z"/><path fill="#e9c002" d="m355.017 65.947 3.075 6.192-5.328-1.203z"/><path fill="#d0a609" d="m357.96 71.82 1.642-4.543-3.852-1.954z"/><path fill="#ce8a14" d="m359.776 67.346-1.774 4.525 6.825-2.545z"/><path fill="#f2cc00" d="m362.134 62.766-2.584 4.642-3.801-2.038z"/><path fill="#e9c002" d="m362.18 62.681 2.564 6.6-5.18-1.91z"/><path fill="#d0a609" d="m364.588 68.638 1.642-4.429-3.852-2.221z"/><path fill="#ce8a14" d="m366.404 64.29-1.774 4.402 6.826-2.072z"/><path fill="#f2cc00" d="m368.762 59.873-2.584 4.463-3.801-2.3z"/><path fill="#e9c002" d="m368.809 59.791 2.563 6.778-5.18-2.269z"/><path fill="#d0a609" d="m371.338 66.329 1.642-4.43-3.853-2.22z"/><path fill="#ce8a14" d="m373.154 61.98-1.774 4.403 6.825-2.073z"/><path fill="#f2cc00" d="m375.511 57.564-2.583 4.462-3.802-2.3z"/><path fill="#e9c002" d="m375.558 57.482 2.564 6.778-5.18-2.27z"/><path fill="#ce8a14" d="m347.693 75.092-.013 2.998 3.967-2.157z"/><path fill="#e9c002" d="m348.77 69.347 2.795 6.555-3.862-.686c-.21-2.713.425-4.404 1.067-5.87z"/><path fill="#ce8a14" d="m350.698 64.365-1.915 5.059 7.041-3.428z"/><path fill="#e9c002" d="m354.232 59.421 1.504 6.58-4.94-1.597z"/><path fill="#d0a609" d="m355.876 65.352 1.777-4.935-3.505-.995z"/><path fill="#ce8a14" d="m357.822 60.5-2.04 4.993 6.668-2.807z"/><path fill="#f2cc00" d="m360.22 54.907-2.633 5.628-3.29-1.117z"/><path fill="#e9c002" d="m360.283 54.901 2.225 7.78-4.897-2.173z"/><path fill="#d0a609" d="m362.143 61.626 2.018-4.272-3.647-2.545z"/><path fill="#ce8a14" d="m364.327 57.45-2.147 4.233 6.979-1.476z"/><path fill="#f2cc00" d="m367.386 52.561-3.292 4.913-3.589-2.62c2.245-.73 4.045-2.477 6.881-2.293"/><path fill="#e9c002" d="m367.336 52.557 1.747 7.596-4.965-2.708z"/><path fill="#d0a609" d="m368.936 59.79 2.1-4.212-3.719-3.104z"/><path fill="#ce8a14" d="m371.198 55.679-2.383 4.105 7.05-1.079z"/><path fill="#f2cc00" d="m374.162 51.644-3.194 4.048-3.724-3.33c2.263-.802 4.6-.637 6.917-.718z"/><path fill="#e9c002" d="m374.22 51.57 1.57 7.073-4.803-2.984z"/><path fill="none" stroke="#000" stroke-width=".994" d="M-414.95 556.42c7.372-11.306 18.724-21.12 23.102-31.752 15.732-38.202-8.813-74.451-51.533-72.461-8.6 15.209-24.45 67.002-41.39 84.152-1.742 1.763 1.01 4.514.171 5.565 20.312 8.226 74.465 26.202 69.65 14.496z" transform="matrix(-.50328 0 0 .50316 152.859 -176.027)"/></g><g stroke="#000" stroke-width=".994"><path fill="#d59b11" d="M-538.97 447.51c1.355-3.891 13.203-6.562 19.5 0-14.045 3.55 18.591 84.504 26.207 85.796-.555 2.881-1.663 3.737-3.715 2.913-23.205-9.316-43.768-74.22-41.992-88.709z" transform="matrix(.50328 0 0 .50316 645.958 -176.027)"/><g fill="#fff"><path d="M-338.26 432.8a3.712 3.712 0 1 1-7.425 0 3.712 3.712 0 0 1 7.425 0zm4.15-7.25a4.243 4.243 0 1 1-8.485 0 4.243 4.243 0 0 1 8.485 0z" transform="matrix(-.50328 0 0 .50316 215.165 -137.975)"/><path d="M-330.57 417.42a4.596 4.596 0 1 1-9.192 0 4.596 4.596 0 0 1 9.192 0z" transform="matrix(-.50328 0 0 .50316 215.165 -137.975)"/><path d="M-326.95 408.23a5.038 5.038 0 1 1-10.076 0 5.038 5.038 0 0 1 10.076 0z" transform="matrix(-.50328 0 0 .50316 215.165 -137.975)"/><path d="M-324.21 398.24a5.215 5.215 0 1 1-10.43 0 5.215 5.215 0 0 1 10.43 0z" transform="matrix(-.50328 0 0 .50316 215.165 -137.975)"/><path d="M-320.32 387.1a6.01 6.01 0 1 1-12.02 0 6.01 6.01 0 0 1 12.02 0z" transform="matrix(-.50328 0 0 .50316 215.165 -137.975)"/><path d="M-318.37 375.35a6.806 6.806 0 1 1-13.612 0 6.806 6.806 0 0 1 13.612 0z" transform="matrix(-.50328 0 0 .50316 215.165 -138.464)"/></g><path fill="#f2cc00" d="M-495.32 499.11c1.451-17.687-6.877-54.901-11.837-52.566.751-2.22 3.227-3.775 5.917-2.302 1.548.848 10.94 41.055 8.635 54.439-.176 1.022-1.96.154-2.715.428z" transform="matrix(.50328 0 0 .50316 645.958 -176.027)"/></g><g stroke="#000" stroke-width=".994"><path fill="#d59b11" d="M-315.75 371.89c-1.355-3.891-13.203-6.562-19.5 0 14.045 3.55-18.768 84.239-26.384 85.53.555 2.881 1.84 4.002 3.892 3.179 23.205-9.316 43.768-74.221 41.992-88.71z" transform="matrix(.50328 0 0 .50316 585.036 -137.975)"/><g fill="#fff"><path d="M-338.26 432.8a3.712 3.712 0 1 1-7.425 0 3.712 3.712 0 0 1 7.425 0zm4.15-7.25a4.243 4.243 0 1 1-8.485 0 4.243 4.243 0 0 1 8.485 0z" transform="matrix(.50328 0 0 .50316 585.663 -137.975)"/><path d="M-330.57 417.42a4.596 4.596 0 1 1-9.192 0 4.596 4.596 0 0 1 9.192 0z" transform="matrix(.50328 0 0 .50316 585.663 -137.975)"/><path d="M-326.95 408.23a5.038 5.038 0 1 1-10.076 0 5.038 5.038 0 0 1 10.076 0z" transform="matrix(.50328 0 0 .50316 585.663 -137.975)"/><path d="M-324.21 398.24a5.215 5.215 0 1 1-10.43 0 5.215 5.215 0 0 1 10.43 0z" transform="matrix(.50328 0 0 .50316 585.663 -137.975)"/><path d="M-320.32 387.1a6.01 6.01 0 1 1-12.02 0 6.01 6.01 0 0 1 12.02 0z" transform="matrix(.50328 0 0 .50316 585.663 -137.975)"/><path d="M-318.37 375.35a6.806 6.806 0 1 1-13.612 0 6.806 6.806 0 0 1 13.612 0z" transform="matrix(.50328 0 0 .50316 585.663 -138.464)"/></g><path fill="#f2cc00" d="M-484.1 499.11c-1.451-17.687 6.877-54.901 11.837-52.566-.751-2.22-3.227-3.775-5.917-2.302-1.548.848-10.94 41.055-8.635 54.439.176 1.022 1.96.154 2.715.428z" transform="matrix(.50328 0 0 .50316 647.97 -176.027)"/></g><path fill="#f3cd00" stroke="#000" stroke-width=".994" d="M-364.91 414.25c-4.509 2.39-3.24 4.603-4.187 7.313-.913-.664-7.26-2.054-8.782 5.75 9.505-.434 6.951 7.879 6.813 8.156-1.929 3.856-9.607.953-7.5-4.906-1.478.063-9.08.425-5.281 8.906-4.226.288-10.746 7.823-.282 9.75-.356 1.07-.76 10.672 6.907 7.437-1.11-1.657-.558-10.102 4.5-7.75 7.822 3.638-.687 13.885-7.782 16.25-7.098 2.162-35.986 1.767-27.938-11.312 3.382-3.381 6.344 3.135 6.344 5.656 0 1.07 6.565-1.084 3.625-8.5 11.055-4.26 3.654-8.937.281-8.937 1.95-4.09-3.397-8.89-7.437-6.594.87.862 1.529 9.627-5.938 5.781-.98-.504-4.056-8.81 3.625-6.843-.292-6.096-2.511-5.483-8.437-5-.638-8.088-12.197-6.247-8.531 2.25-5.796.295-8.281 3.376-5.875 7.718 2.109-.297 7.94-.679 6.343 4.438-1.74 5.576-6.884 1.3-7.718-1.656-4.463-.33-5.466 6.562-3.063 8.5-6.741 3.6-2.69 9.862 3.656 8.28-2.396 5.8 5.18 8.385 6.594 6-2.038-2.574-.712-8.834 3.344-7.718 9.18 2.526-3.594 16.672-9.813 17.844-4.025.759-23.235-1.515-17.312-7.437 2.166-2.166 4.3.125 6.375 3 3.399-2.515 1.832-6.572-2.343-7.282 7.338-2.454 3.137-10.15-2.438-6.656-.772-1.917-2.56-7.301-7.687-5.062.861.758 3.231 7.003-2.375 6.812-1.112-.038-6.449-5.838-.22-7.281-.922-4.415-6.47-2.309-7.218-2.438-.349-1.962-8.344-6.09-10.469 1.688 3.213-1.626 7.304 1.399 8.5 10.53 2.122 16.2 23.77 6.881 24.938 24.376l1.781-.719c18.29-6.65 74.935-13.838 75-13.969.066.13 56.711 7.319 75 13.97l1.75.718c1.169-17.495 22.816-8.176 24.938-24.375 1.196-9.132 5.288-12.157 8.5-10.531-2.125-7.778-10.089-3.65-10.438-1.688-.748.13-6.295-1.977-7.218 2.438 6.229 1.443.892 7.243-.22 7.281-5.606.191-3.236-6.054-2.374-6.812-5.128-2.24-6.915 3.145-7.688 5.062-5.574-3.493-9.807 4.202-2.469 6.656-4.175.71-5.71 4.767-2.312 7.282 2.075-2.875 4.21-5.166 6.375-3 5.922 5.922-13.319 8.196-17.344 7.437-6.219-1.172-18.992-15.318-9.812-17.844 4.055-1.116 5.413 5.144 3.374 7.719 1.414 2.384 8.99-.201 6.594-6 6.347 1.581 10.397-4.68 3.656-8.281 2.403-1.938 1.37-8.83-3.093-8.5-.835 2.956-5.947 7.232-7.688 1.656-1.597-5.117 4.235-4.735 6.344-4.438 2.406-4.342-.079-7.423-5.875-7.718 3.666-8.497-7.893-10.338-8.531-2.25-5.926-.483-8.146-1.096-8.438 5 7.681-1.967 4.605 6.339 3.625 6.843-7.466 3.846-6.84-4.92-5.969-5.78-4.04-2.297-9.387 2.502-7.437 6.593-3.373 0-10.774 4.678.281 8.937-2.94 7.416 3.625 9.57 3.625 8.5 0-2.52 2.994-9.037 6.375-5.656 8.049 13.08-20.839 13.474-27.938 11.312-7.095-2.365-15.604-12.613-7.781-16.25 5.057-2.351 5.61 6.093 4.5 7.75 7.667 3.235 7.263-6.367 6.906-7.437 10.465-1.927 3.913-9.462-.312-9.75 3.799-8.481-3.772-8.843-5.25-8.906 2.107 5.86-5.603 8.762-7.531 4.906-.139-.277-2.693-8.59 6.812-8.156-1.522-7.804-7.838-6.414-8.75-5.75-.948-2.71.321-4.923-4.187-7.313z" transform="matrix(.50328 0 0 .50316 584.155 -137.975)"/><g fill="#f2cc00" stroke="#000"><g stroke-width=".994"><path d="M-489.96 567.72c-39.804 0-66.129 8.4-76.062 14.062-3.31 7.23-1.695 19.412-.281 21.75 7.248-1.463 21.65-13.719 76.344-13.719s69.065 12.256 76.312 13.719c1.414-2.338 3.029-14.52-.281-21.75-9.934-5.662-36.227-14.062-76.031-14.062z" transform="matrix(.50328 0 0 .50316 647.09 -187.458)"/><path d="M-489.96 588.25c-54.657 0-85.64 16.812-77.844 16.812s23.151-12.75 77.844-12.75 70.016 12.75 77.812 12.75-23.156-16.812-77.812-16.812zm0-22.25c-54.657 0-85.64 16.812-77.844 16.812s23.151-12.75 77.844-12.75 70.016 12.75 77.812 12.75S-435.304 566-489.96 566z" transform="matrix(.50328 0 0 .50316 647.09 -187.458)"/></g><g stroke-width=".5"><g stroke-width=".994"><path d="M-301.93 489.63a3.536 3.536 0 1 1-7.071 0 3.536 3.536 0 0 1 7.071 0z" transform="matrix(.50328 0 0 .50316 584.155 -137.975)"/><path d="M-301.93 489.63a3.536 3.536 0 1 1-7.071 0 3.536 3.536 0 0 1 7.071 0z" transform="matrix(.50328 0 0 .50316 564.582 -141.711)"/><path d="M-299.94 492.32s14.713 10.301 14.688 6.563l-.062-9.125c-.017-2.388-9.364 1.44-14.625 2.562z" transform="matrix(.50328 0 0 .50316 584.155 -137.975)"/></g><path stroke-width="1.148" d="M-963.35 565.02h13.766v13.766h-13.766z" transform="matrix(.48696 -.1271 .4178 .28053 647.09 -176.027)"/><g stroke-width=".994"><path d="M-301.93 489.63a3.536 3.536 0 1 1-7.071 0 3.536 3.536 0 0 1 7.071 0z" transform="matrix(-.50328 0 0 .50316 216.212 -137.975)"/><path d="M-301.93 489.63a3.536 3.536 0 1 1-7.071 0 3.536 3.536 0 0 1 7.071 0z" transform="matrix(-.50328 0 0 .50316 235.784 -141.711)"/><path d="M-299.94 492.32s14.713 10.301 14.688 6.563l-.062-9.125c-.017-2.388-9.364 1.44-14.625 2.562z" transform="matrix(-.50328 0 0 .50316 216.212 -137.975)"/></g><path stroke-width="1.148" d="M-963.35 565.02h13.766v13.766h-13.766z" transform="matrix(-.48696 -.1271 -.4178 .28053 153.277 -176.027)"/></g></g><g fill="#fff" stroke="#000" stroke-width=".994"><path d="M-266.58 465.06c0 3.71-1.504 6.718-3.359 6.718s-3.359-3.008-3.359-6.718 1.504-6.717 3.36-6.717 3.358 3.007 3.358 6.717z" transform="matrix(.388 .32046 -.32053 .38791 702.904 2.57)"/><path d="M-308.65 449.86c0 3.808-1.979 6.894-4.42 6.894s-4.419-3.086-4.419-6.894 1.979-6.894 4.42-6.894 4.419 3.086 4.419 6.894z" transform="matrix(.49713 .0784 -.07842 .49702 617.505 -110.666)"/><path d="M-266.58 465.06c0 3.71-1.504 6.718-3.359 6.718s-3.359-3.008-3.359-6.718 1.504-6.717 3.36-6.717 3.358 3.007 3.358 6.717z" transform="matrix(-.388 .32046 .32053 .38791 97.775 2.57)"/><path d="M-308.65 449.86c0 3.808-1.979 6.894-4.42 6.894s-4.419-3.086-4.419-6.894 1.979-6.894 4.42-6.894 4.419 3.086 4.419 6.894z" transform="matrix(-.49713 .0784 .07842 .49702 183.174 -110.666)"/><path d="M-360.36 442.7c0 4.028-2.018 7.294-4.508 7.294s-4.508-3.266-4.508-7.294 2.019-7.294 4.508-7.294 4.508 3.266 4.508 7.294z" transform="matrix(.50328 0 0 .50316 584.155 -137.975)"/></g><path fill="#f2cc00" stroke="#000" stroke-width="1.179" d="M-1261.6 717.34h13.47v13.47h-13.47z" transform="scale(.65692 .27387)rotate(-45 -738.34 -1698.883)"/></svg>