<svg xmlns="http://www.w3.org/2000/svg" width="800" height="533.33" version="1.0"><defs><clipPath id="o"><path fill="none" stroke="#000" stroke-linejoin="round" stroke-width="4" d="M319.21 557.58c6.423-45.166 13.923-90.585-24.244-125.26-46.762 9.47-280.78 4.415-269.71 120.21l293.95 5.05z"/></clipPath><clipPath id="n"><path fill="none" stroke="#000" stroke-linejoin="round" stroke-width="4" d="M319.21 557.58c6.423-45.166 13.923-90.585-24.244-125.26-46.762 9.47-280.78 4.415-269.71 120.21l293.95 5.05z"/></clipPath><clipPath id="m"><path fill="none" stroke="#000" stroke-linejoin="round" stroke-width="4" d="M287.89 460.6c6.423-45.166-7.29-85.534-52.528-110.11-46.762 9.47-143.4 36.74-129.3 130.31l181.83-20.203z"/></clipPath><clipPath id="l"><path fill="none" stroke="#000" stroke-linejoin="round" stroke-width="4" d="M297.32 187.63c6.423-45.166-7.29-85.534-52.528-110.11-46.762 9.47-143.4 36.74-129.3 130.31l181.83-20.203z"/></clipPath><clipPath id="k"><path fill="none" stroke="#000" stroke-linejoin="round" stroke-width="4" d="M187.89 392.92c-37.833-61.95-199.78-62.494-219.2-4.04-1.176 97.798 1.503 193.58 111.12 233.35l108.09-229.3z"/></clipPath><clipPath id="j"><path fill="none" stroke="#000" stroke-linejoin="round" stroke-width="4" d="M187.89 392.92c-37.833-61.95-199.78-62.494-219.2-4.04-1.176 97.798 1.503 193.58 111.12 233.35l108.09-229.3z"/></clipPath><clipPath id="i"><path fill="none" stroke="#000" stroke-linejoin="round" stroke-width="4" d="M28.284 362.62c-8.557-64.847 102.26-74.943 127.28-76.772 51.701-4.549 89.61 7.094 79.802 74.751-62.584 80.135-137.28 10.946-207.08 2.02z"/></clipPath><clipPath id="h"><path fill="none" stroke="#000" stroke-linejoin="round" stroke-width="4" d="M28.284 362.62c-8.557-64.847 102.26-74.943 127.28-76.772 51.701-4.549 89.61 7.094 79.802 74.751-62.584 80.135-137.28 10.946-207.08 2.02z"/></clipPath><clipPath id="g"><path fill="none" stroke="#000" stroke-linejoin="round" stroke-width="4" d="M94.954 310.09c-35.921-44.817-74.602-37.176-113.14-32.325-9.15 65.295-3.535 116.44 51.518 120.21l61.619-87.883z"/></clipPath><clipPath id="f"><path fill="none" stroke="#000" stroke-linejoin="round" stroke-width="4" d="M94.954 310.09c-35.921-44.817-74.602-37.176-113.14-32.325-9.15 65.295-3.535 116.44 51.518 120.21l61.619-87.883z"/></clipPath><clipPath id="c"><path fill="none" stroke="#000" stroke-linejoin="round" stroke-width="4" d="M-17.173 148.47c35.725-49.378 104.05-10.763 112.13 20.203 16.028 31.305 11.1 98.18 47.477 137.38l-178.8 40.406 19.193-197.99z"/></clipPath><clipPath id="a"><path fill="none" stroke="#000" stroke-linejoin="round" stroke-width="4" d="M-17.173 148.47c35.725-49.378 104.05-10.763 112.13 20.203 16.028 31.305 11.1 98.18 47.477 137.38l-178.8 40.406 19.193-197.99z"/></clipPath><clipPath id="e"><path fill="none" stroke="#000" stroke-linejoin="round" stroke-width="4" d="M193.79.602c.186-17.047-11.707-48.801-23.46-49.173-54.875 2.955-84.355-83.577-88.298-101.87-.358-12.88-3.642-23.62-12.674-30.154 1.774-17.764 21.745-30.946 32.216-29.76 5.073 9.927 15.184 14.816 27.857 17.143 17.47 6.698 98.467 49.082 87.143 102.86-1.432 11.672 28.126 28.287 45 30.714-34.299 10.326-56.338 30.869-67.784 60.24z"/></clipPath><clipPath id="b"><path fill="none" stroke="#000" stroke-linejoin="round" stroke-width="4" d="M184.36 273.57c.186-17.047-11.707-48.801-23.46-49.173-54.875 2.955-84.355-83.577-88.298-101.87-.358-12.88-3.642-23.62-12.674-30.154 1.774-17.764 21.745-30.946 32.216-29.76 5.073 9.927 15.184 14.816 27.857 17.143 17.47 6.697 98.467 49.082 87.143 102.86-1.432 11.672 28.126 28.287 45 30.714-34.299 10.326-56.338 30.869-67.784 60.24z"/></clipPath></defs><path fill="#da251d" d="M-34.286-38.095h880v620h-880z"/><path fill="#fff" stroke="#000" stroke-linejoin="round" stroke-width="4" d="M264.29 220.83c10.453 13.828-32.761 70.687-73.571 62.5-16.533-47.572 17.908-86.044 73.571-62.5z"/><path fill="#ffd400" d="M-20.714 108.33h160.71V311.9h-160.71z" clip-path="url(#a)"/><path fill="#fff" d="M35.714 53.333h225v237.86h-225z" clip-path="url(#b)"/><path fill="#f19e29" d="M110.71 207.98c-12.524-15-57.65-98.905-116.43-60.714-9.216-46.748 37.943-30.246 63.929-37.5 29.049 28.508 55.305 60.338 52.5 98.214z" clip-path="url(#c)"/><path fill="none" stroke="#000" stroke-linejoin="round" stroke-width="4" d="M-17.173 148.46c35.725-49.378 104.05-10.763 112.13 20.203 16.028 31.305 11.1 98.18 47.477 137.38l-178.8 40.406 19.193-197.99z"/><path fill="#ccc" d="M192.29 6.077c12.601-22.62-.49-57.738-10-67.857-9.228-10.1-37.957-6.699-50-21.43-24.57-25.417-37.025-67.636-47.5-88.213-1.474-6.663-5.778-13.167-13.214-16.786l-7.857 40.714c19.378 76.05 78.795 109.71 128.57 153.57z" clip-path="url(#e)" transform="translate(-9.429 272.97)"/><path fill="#ffd400" d="M-22.223 260.59h105.06v114.15h-105.06z" clip-path="url(#f)"/><path fill="#f19e29" d="M81.822 318.17c-18.326-30.064-75.436-33.988-87.883-27.779-12.03-25.865 20.861-27.541 41.416-35.86 76.093 12.416 48.733 39.849 46.467 63.64z" clip-path="url(#g)"/><path fill="none" stroke="#000" stroke-linejoin="round" stroke-width="4" d="M94.951 310.088c-35.92-44.817-74.602-37.176-113.14-32.325-9.15 65.295-3.535 116.44 51.518 120.21l61.62-87.883z"/><path fill="#ffd400" d="M15.714 255.48h230.71v136.43H15.714z" clip-path="url(#h)"/><path fill="#f19e29" d="M237.5 303.33c-43.902-10.682-208.77-14.238-196.79 75-46.549-24.274-16.781-56.179-10.714-85.714 72.649-7.946 154.07-39.009 207.5 10.714z" clip-path="url(#i)"/><path fill="none" stroke="#000" stroke-linejoin="round" stroke-width="4" d="M28.284 362.616c-8.557-64.847 102.26-74.943 127.28-76.772 51.701-4.549 89.61 7.094 79.802 74.751-62.584 80.135-137.28 10.946-207.08 2.02z"/><path fill="#ffd400" d="M-37.376 313.12h206.07v239.41h-206.07z" clip-path="url(#j)"/><path fill="#f19e29" d="M170.72 388.88c-38.759-42.237-154.85-42.219-196.98 10.102-3.572-80.072 67.259-64.714 122.23-69.701 60.661 5.966 86.817 25.351 74.751 59.599z" clip-path="url(#k)"/><path fill="none" stroke="#000" stroke-linejoin="round" stroke-width="4" d="M187.891 392.92c-37.833-61.95-199.78-62.494-219.2-4.04-1.176 97.798 1.503 193.58 111.12 233.35l108.09-229.3z"/><path fill="#ffd400" d="M101.35 60.352h212.13v156.57H101.35z" clip-path="url(#l)" transform="translate(-9.429 272.97)"/><path fill="#f19e29" d="M247.99 352.52c-78.26 23.174-143.64 52.925-128.79 112.13l-55.558-1.01c32.45-77.64 108.83-145.81 184.35-111.12z" clip-path="url(#m)"/><path fill="none" stroke="#000" stroke-linejoin="round" stroke-width="4" d="M287.891 460.6c6.423-45.166-7.29-85.534-52.528-110.11-46.762 9.47-143.4 36.74-129.3 130.31l181.83-20.203z"/><path fill="#ffd400" d="M15.714 409.05h325v143.57h-325z" clip-path="url(#n)"/><g stroke="#000" stroke-linejoin="round" stroke-width="4"><path fill="none" d="M158.57 222.62c10.985-18.539 23.711-35.336 47.857-40.714"/><path fill="#fff" d="M59.286 92.262c-8.758 7.352-30.389-4.24-22.857-19.643 11.15-19.412 26.115-30.105 43.929-34.286 12.655-3.314 26.975 17.309 12.143 24.286"/><path fill="none" d="M40.357 89.048c10.461-22.634 29.553-36.637 54.286-45"/><path fill="#fff" d="M238.4 232.31c48.445 34.385 142.29 78.379 139.4 162.63 24.294 33.335 44.678 66.67 55.558 100.01 5.995 20.203 27.663 40.406 46.467 60.609l-152.53-9.091c41.694-75.042-49.585-197.65-66.67-213.14-21.683-20.274-40.52-46.24-59.599-71.721l37.376-29.294z"/></g><path fill="#f19e29" d="M50.003 559.6c-32.368-113.06 227.53-117.12 264.66-111.62l-12.627-30.305c-107.42 27.665-272.11-7.083-284.86 123.74l32.83 18.183z" clip-path="url(#o)"/><path fill="none" stroke="#000" stroke-linejoin="round" stroke-width="4" d="M319.211 557.58c6.423-45.166 13.923-90.585-24.244-125.26-46.762 9.47-280.78 4.415-269.71 120.21l293.95 5.05zm82.219-23.53c-26.695-14.397-43.715-37.088-57.143-62.857m-7.147-16.433c-3.818-59.424-46.419-95.577-76.429-139.29M218.57 256.9c19.554 27.202 41.683 51.313 70.714 67.143 26.273 12.56 56.562 37.952 80 65M289.29 334.05c47.948 35 75.817 70 91.429 105 14.57 35.215 36.158 66.921 62.143 96.429M257.14 280.48c40.165 27.827 84.619 52.794 108.57 91.429m-7.85-25.009c-25.216-43.693-84.07-65.981-127.86-97.857m-45.639 24.529c.186-17.047-11.707-48.801-23.46-49.173-54.875 2.955-84.355-83.577-88.298-101.87-.358-12.88-3.642-23.62-12.674-30.154 1.774-17.764 21.745-30.946 32.216-29.76 5.074 9.927 15.184 14.816 27.857 17.143 17.47 6.698 98.467 49.082 87.143 102.86-1.432 11.672 28.126 28.287 45 30.714-34.299 10.326-56.338 30.869-67.784 60.24z"/><g stroke-linejoin="round"><path fill="#fff" stroke="#000" stroke-width="4" d="M251.07 213.69c7.625-1.698 17.09 6.234 10.357 8.571-28.981 12.397-53.997 27.021-67.857 56.43-3.572 7.143-10.799.662-9.643-5 14.837-34.28 32.632-47.274 67.143-60z"/><path fill="none" stroke="#fff" stroke-width="4.9" d="m192.05 280.57 4.91-7.946m58.401-47.595 7.233-3.482"/></g></svg>