<svg xmlns="http://www.w3.org/2000/svg" width="900" height="600" viewBox="0 0 1575 1050"><clipPath id="a"><path d="M0 0h1575v1050H0z"/></clipPath><path fill="#0080ff" d="M0 0h1575v1050H0z"/><g clip-path="url(#a)"><path fill="#fff" fill-rule="evenodd" d="m-53.957 863.241 74.246-74.246-74.246-74.246L-29.208 690l24.748 24.749L20.29 690l49.497 49.497-24.75 24.75-24.748-24.75L69.787 690l24.748 24.749L119.285 690l24.748 24.749-74.246 74.246 24.748 24.749 24.75-24.75 24.748 24.75 49.497-49.498-24.748-24.749-24.75 24.75 49.498 49.497 24.749-24.75 24.749 24.75 24.749-24.75-74.247-74.245L218.28 690l24.749 24.749L267.777 690l49.497 49.497-24.749 24.75-24.748-24.75L317.274 690l24.749 24.749L366.77 690l24.75 24.749-74.247 74.246 24.749 24.749 24.748-24.75 24.75 24.75 49.497-49.498-24.75-24.749-24.748 24.75 49.498 49.497 24.748-24.75 24.75 24.75 24.748-24.75-74.246-74.245L465.766 690l24.75 24.749L515.263 690l49.497 49.497-24.748 24.75-24.75-24.75 49.5-49.497 24.75 24.749L614.258 690l24.749 24.749-74.247 74.246 24.75 24.749 24.748-24.75 24.749 24.75 49.497-49.498-24.749-24.749-24.748 24.75 49.497 49.497 24.749-24.75 24.749 24.75 24.748-24.75-74.246-74.245L713.254 690l24.749 24.749L762.75 690l49.498 49.497-24.749 24.75-24.749-24.75L812.25 690l24.748 24.749L861.747 690l24.748 24.749-74.246 74.246 24.748 24.749 24.75-24.75 24.748 24.75 49.497-49.498-24.748-24.749-24.75 24.75 49.498 49.497 24.75-24.75 24.748 24.75 24.749-24.75-74.247-74.245L960.742 690l24.748 24.749L1010.239 690l49.497 49.497-24.749 24.75-24.748-24.75L1059.736 690l24.749 24.749L1109.234 690l24.748 24.749-74.246 74.246 24.749 24.749 24.749-24.75 24.748 24.75 49.498-49.498-24.749-24.749-24.749 24.75 49.498 49.497 24.749-24.75 24.748 24.75 24.749-24.75-74.246-74.245L1208.229 690l24.748 24.749L1257.726 690l49.497 49.497-24.748 24.75-24.749-24.75L1307.223 690l24.75 24.749L1356.72 690l24.749 24.749-74.247 74.246 24.75 24.749 24.748-24.75 24.749 24.75 49.497-49.498-24.749-24.749-24.748 24.75 49.497 49.497 24.749-24.75 24.749 24.75 24.748-24.75-74.246-74.245 24.75-24.749 24.749 24.749L1505.213 690l49.498 49.497-24.749 24.75-24.749-24.75L1554.711 690l24.749 24.749L1604.208 690l24.75 24.749-74.247 74.246 74.246 74.246z"/></g><path fill="#0080ff" d="M0 858h1575v30H0z"/><path fill="red" d="M0 879h1575v21H0z"/></svg>