<svg xmlns="http://www.w3.org/2000/svg" width="600" height="400" version="1.0"><path fill="#3daa5f" d="M0 0h600v199.42H0z"/><path fill="#da2439" d="M0 198.76h600V400H0z"/><rect width="300.47" height="180.86" x="149.19" y="15.754" fill="#3daa5f" ry="0" style="paint-order:fill markers stroke"/><path fill="#fff" d="M205.58 174.13c-8.452-7.682-9.648-12.071-14.262-21.631.1-.9.456-1.5 1.456-1.7 2.365-1.46 7.24-2.29 17-4.3 1 1 1.089 2.487 1.089 3.787-5.015 2.529-11.374 1.932-15.834 3.656 2.937 5.238 5.108 10.743 11.445 15.957 4.991-1.947 10.367-4.234 14.7-6.1 2.387-1.307 6.107-1.834 8.637-2.025-.1.4.956.7.419 1.663-8.444 4.103-17.263 8.065-24.65 10.694zm177.39.96c8.452-7.682 9.648-12.071 14.262-21.631-.1-.9-.014-3.356-1.014-3.556-2.365-1.46-11.576-2.001-21.243-2.886-1 1-3.696 2.664-3.696 3.964 8.602.985 14.313 1.446 21.004 2.374-2.937 5.239-5.992 13.571-8.529 17.681-4.061-1.188-19.86-9.735-21.747-9.937-4.098-.484-7.364.347-6.826 1.31 8.444 4.102 20.4 10.053 27.788 12.681z" class="st5"/><path fill="#1d1d1b" d="M146.45 327.6V11.7h307.1v317.6c-.1.2-.3.4-.3.6.1 1.8-.5 3.5-.7 5.3-.2 1.7-.8 3.3-1.3 4.9-1.3 4.5-3.3 8.7-5.9 12.6-2.2 3.4-4.9 6.2-8 8.7-1.6 1.3-3.4 2.4-5.2 3.4-1.7.9-3.5 1.7-5.3 2.4-2.3.9-4.6 1.5-6.9 1.9-.8.1-1.7.2-2.5.4s-1.6.3-2.5.4c-.5 0-.9.1-1.6.2-.2 0-.6-.2-.9-.1-.9.2-1.9.1-2.8.1-1 .1-2.1 0-2.8.3h-3.6c-1.3 0-2.6 0-3.8.1-1.3 0-2.6.2-4 .2h-16.7c-.8-.2-1.6-.2-2.4-.1-.7.1-1.4 0-2.1 0-2-.2-4.1 0-6.1-.2-1.2-.2-2.5 0-3.7-.1-1.6-.2-3.3-.2-4.9-.3-1 0-2 0-2.9-.2-.8-.2-1.6-.2-2.4-.2s-1.6 0-2.4-.1-1.6-.1-2.4-.2c-.9 0-1.7.1-2.5-.1-1.4-.3-2.9-.3-4.4-.3h-1c-1.5-.3-2.9-.2-4.4-.1-1 .1-2 .2-3-.1h-.4c-1 .2-2.1.3-3.1.5-2.8.6-5.6 1.4-8.2 2.7-2 1-4 2-5.9 3.1-1.8 1.1-3.5 2.2-5.2 3.5-2.8 2.1-5.5 4.3-7.9 6.9-.9 1-1.9 2-2.9 2.9h-.3l-.9-.9c-.5-.5-1.1-1-1.6-1.5-.7-.7-1.4-1.5-2.2-2.2-.8-.8-1.6-1.5-2.4-2.2-2.1-1.8-4.3-3.4-6.5-5-2.4-1.6-4.9-3-7.5-4.3-2.5-1.2-5.1-2-7.7-2.7-.6-.2-1.2-.3-1.8-.4-.9-.2-1.8-.3-2.8-.4-.9-.1-1.9-.2-2.8-.1-1 0-2 .2-3.1.2-1.4-.1-2.9.1-4.4.2-.9 0-1.9.2-2.8.2-1.7.1-3.5 0-5.2.3-1.4.2-2.8 0-4.2.3s-2.8.2-4.2.2c-.4 0-.8.1-1.2.2s-.9-.1-1.4-.1c-1 .2-2.1.1-3.1.2-2 .1-4.1.2-6.1.3-2.4.1-4.7.1-7.1.2-3.2.2-6.5.1-9.8 0-2.9 0-5.8.1-8.7-.1-2-.2-4-.1-6-.1-1.5 0-3.1.2-4.7-.2-.2 0-.4 0-.6-.1-1.2 0-2.5 0-3.7-.2-1.7-.2-3.4-.2-5.1-.5-1.4-.3-2.8-.5-4.2-.8-.9-.1-1.7-.4-2.6-.7-2.4-.9-4.8-1.6-7-2.9-1.4-.8-2.9-1.6-4.3-2.5-1.3-.9-2.7-1.8-3.7-3l-.3-.3c-1.6-.9-2.6-2.5-3.7-3.8-.9-1-1.5-2.3-2.4-3.3-1-1.3-1.7-2.7-2.4-4.1-.8-1.6-1.5-3.2-2.2-4.9-1.1-2.8-1.9-5.6-2.4-8.5-.4-2.1-.9-4.1-.8-6.3 0-.2-.1-.4-.1-.5.2-.3 0-.4-.1-.4m4.6-126.5c0 .6-.1 1.2-.1 1.7v115.1c0 4.2-.2 8.4.3 12.6.1 1.1.3 2.2.5 3.4.2.9.5 1.7.6 2.6.5 2.8 1.5 5.4 2.6 7.9 2 4.4 4.6 8.3 8.1 11.7 2 1.9 4.2 3.5 6.6 4.9 3.9 2.2 8.1 3.5 12.5 4.4 1 .2 2 .5 3.1.4h.4c1.4.4 2.8.1 4.2.5 3 0 6 .4 8.9.3h.8l4.8.3h10.2c3.4 0 6.9.2 10.3-.2 1.5-.2 3 0 4.6-.1q2.25 0 4.5-.3c1-.1 2.1-.2 3.1-.2.9 0 1.8-.1 2.7-.1.4 0 .8-.1 1.3-.1 1.6-.1 3.1 0 4.7-.3 1.4-.2 2.8-.2 4.2-.3 2.1-.2 4.2 0 6.4-.3 1.1-.1 2.1-.2 3.2-.1h.7c.5 0 .9-.1 1.4-.1 2.1 0 4.2-.1 6.2.2 1.4.2 2.9.4 4.3.8 2.8.6 5.5 1.7 8.1 2.9 2.9 1.4 5.7 2.9 8.4 4.8 1.9 1.3 3.8 2.7 5.6 4.1 1.6 1.3 3.1 2.7 4.6 4 .4.4.9.6 1.3.9.9-.4 1.4-1 2-1.5 1.1-1 2.2-2.1 3.4-3 2.3-1.8 4.5-3.6 7-5.1 3.3-2 6.6-3.9 10.1-5.3 4.3-1.7 8.7-2.6 13.4-2.7 2 0 4 .1 5.9.2 2.6.1 5.3.4 7.9.4h.4c1.8.4 3.6.2 5.4.5s3.7 0 5.5.3c1.3.2 2.6.1 4 .2 2.4.2 4.9.4 7.4.3 1.1 0 2.3-.1 3.4.1 1.3.2 2.6.2 3.8.2h9.7c3.2 0 6.4.1 9.6-.2 2.1-.2 4.2-.1 6.3-.1h1.1c2.1-.3 4.1-.5 6.2-.5.5 0 .9-.1 1.4-.2.3 0 .6-.1.8-.1q1.2 0 2.4-.3c2-.3 4-.8 5.9-1.4 3.5-1 6.7-2.5 9.7-4.5 1.7-1.1 3.2-2.3 4.6-3.7.4-.4.8-.9 1.2-1.4 1-1 1.9-2 2.7-3.1s1.5-2.3 2.2-3.5c1.4-2.4 2.5-4.9 3.4-7.5 1-2.9 1.7-6 2.1-9.1.3-1.8.4-3.7.4-5.5V202c0-.3-.1-.5-.2-.8-.2-.1-.4-.1-.5-.1zM449.55 16c-.3 0-.5-.1-.7-.1-99.2 0-198.5 0-297.7.1-.1 0-.2.1-.3.2 0 .2 0 .5-.1.8v178.4c0 .4-.1.8.3 1.1h297.7c.3 0 .5-.1.8-.1z" class="st0"/><path fill="#da2439" d="m150.74 201.07 298.18.027c.1 0 .335.104.535.104.1.2.2.5.2.8v124c0 1.9-.1 3.7-.4 5.5a48 48 0 0 1-2.1 9.1c-.9 2.6-2 5.1-3.4 7.5-.7 1.2-1.4 2.3-2.2 3.5-.8 1.1-1.7 2.1-2.7 3.1-.4.4-.8.9-1.2 1.4-1.4 1.4-3 2.7-4.6 3.7-3 1.9-6.3 3.5-9.7 4.5-1.9.5-3.9 1.1-5.9 1.4l-2.4.3c-.3 0-.6.1-.8.1-.5.1-.9.2-1.4.2-2.1 0-4.1.2-6.2.5h-1.1c-2.1 0-4.2-.1-6.2.1-3.2.3-6.4.2-9.6.2h-9.7c-1.3 0-2.75.063-4.05-.137-1.1-.2-2.3-.1-3.4-.1-2.5.1-4.9-.2-7.4-.3-1.3-.1-2.6 0-4-.2-1.8-.3-3.7 0-5.5-.3s-3.6 0-5.4-.5h-.4c-2.6.1-5.3-.2-7.9-.4-2-.1-4-.237-5.9-.2-4.622.088-8.85.937-13.15 2.637-3.6 1.4-6.9 3.3-10.1 5.3-2.5 1.5-4.7 3.4-7 5.1-1.2.9-2.3 2-3.4 3-.6.5-1.277 1.554-2.177 1.854-.4-.3-.9-.6-1.3-.9-1.6-1.3-3-2.7-4.6-4-1.8-1.4-3.7-2.8-5.6-4.1q-3.9-2.7-8.4-4.8c-2.6-1.2-5.3-2.2-8.1-2.9-1.4-.3-2.878-.843-4.278-1.043-2.1-.3-4.045-.31-6.045-.31-.5 0-.9.1-1.4.1-1.345.02-2.822-.013-3.9.1-2.1.3-4.3.1-6.4.3-1.4.1-3.299.193-4.699.393-1.6.2-3.1.2-4.7.3-.4 0-.8.1-1.3.1-.9.1-1.8.1-2.7.1-1 0-2.1 0-3.1.2-1.5.2-3 .2-4.5.3-1.5 0-3.1-.1-4.6.1-3.4.4-6.9.2-10.3.2h-10.2c-1.6 0-3.2-.2-4.8-.3h-.8c-3 .1-6-.3-8.9-.3-1.4-.4-2.8 0-4.2-.5h-.4c-1 .1-2.1-.2-3.1-.4-4.4-.9-8.6-2.2-12.5-4.4-6.657-3.805-11.802-10.325-14.7-16.6-1.1-2.5-2.1-5.1-2.6-7.9-.2-.9-.5-1.7-.6-2.6-.2-1.1-.3-2.2-.5-3.4-.5-4.2-.3-8.4-.3-12.6v-12.6c.17-34.484.203-70.307-.013-104.32z" class="st1"/><path fill="#fff" d="M258.84 143.95c1.4.6 1.838 2.231 3.038 3.131 1.222-.537 1.771-.863 2.24.586-.2.9-1 1.389-1.5 2.189.1.6.135 1.344.335 2.144-1 1.5-2.6 2.2-4.1 2.9-2.541-.237-2.62-2.066-3.12-4.406.428-.388.05-.732.1-.974-.72-.01-.642-2.27-1.024-2.957.638-1.235 2.827-2.194 4.03-2.613" class="st5"/><path fill="#3daa5f" d="M356.25 182c.3 0 .6.1.8.1v.4c-.2 0-.4.1-.6.1-.1-.3-.1-.4-.2-.6" class="st2"/><path fill="#da2439" d="M284.35 268.8c-.7.8-1.7 1.3-2.6 1.8-2 1.1-3.4 2.9-4.4 4.9-1.3 2.5-2.7 5-4.3 7.3-1.8 2.7-4 5-6.8 6.7-1.8 1.1-3.7 1.7-5.6 2.2-2.3.6-4.7.4-7.1.3-1.5-.1-3-.5-4.6-1-3.9-1.1-7.6-2.8-11.2-4.6-3.2-1.7-6.4-3.4-9.5-5.3-3.7-2.2-7.5-4.4-11.4-6.3-3.3-1.6-6.8-3.1-10.3-4.4-.5-.2-1-.4-1.4-.6-.2-.1-.3-.2-.5-.3.5-.5 1-.6 1.5-.6h2.3c3-.1 6-.2 8.9-.3 2.9 0 5.9 0 8.8-.1 7-.3 14-.1 21-.2s14 0 21 0h15.5c.2 0 .4.1.5.2s.1.2.2.3m105-1c-.9.8-1.6 1.1-2.4 1.4-4.9 2-9.6 4.3-14 7.1-3.7 2.4-7.4 4.8-11.1 7-3.4 2.1-7 3.9-10.7 5.4-2.6 1-5.2 1.6-8 1.3-1.8-.2-3.6-.6-5.3-1.3-1.7-.6-3.3-1.4-4.9-2.2-2.3-1.2-4.4-2.6-6.3-4.3-1.6-1.4-3.2-2.8-4.6-4.4-2.2-2.5-4.3-5-6.8-7.2-.8-.7-1.7-1.3-2.5-2 0-.3.3-.2.4-.2h.6c7.8-.4 15.5-.1 23.3-.2 2 0 4 .1 6-.1 5-.4 10-.1 15-.2h30.2c.1 0 .5 0 1.1-.1m-89-24.3c.6-.4 1.2-.7 1.9-1.1 1.5-.8 3-1.5 4.6-2.3.4-.2.8-.5 1.2-.7h.7c2.2 3 4.3 6.1 6.2 9.4-1.8 3.1-3.9 5.9-5.8 8.9-1.9 2.9-3.9 5.8-5.9 8.6-.9.2-1.7.1-2.5.1-.2-.7-.4-1.4-.4-2.1v-20.1c-.1-.2-.1-.3 0-.7m-17.2 1.8c1.1-1.6 3.8-4.6 4.7-5.2 3.1.9 6.1 2.1 9 3.7 0 .4.1.8.1 1.1v19.9c0 .2-.2.4-.3.7-.3 0-.5-.1-.7-.1-.1-.2-.3-.4-.4-.6-.4-.9-.9-1.6-1.5-2.4-1.9-2.7-3.7-5.5-5.5-8.2-1.2-1.9-2.5-3.8-3.7-5.7l-1.5-2.4c-.1-.4-.1-.7-.2-.8" class="st1"/><path fill="#b9aea4" d="M294.53 331.56c1.5.3 3.044 1.45 4.144 2.35.62 2.627 1.485 5.295 1.831 7.744a152 152 0 0 0 1.744-7.756c.6-.5 1.169-1.088 1.869-1.488.6-.4 1.287-.862 1.987-1.062.4.2.2.5.1.8-1.69 6.075-3.48 11.894-5.4 17.45-.1.3-.544.687-.744.987-2.127-5.42-5.263-13.717-5.53-19.025zm40.01-16.5c2.081 5.993 4.566 11.874 5.556 17.575-1.008.238-2.317-.965-3.044-1.531-3.851-3.659-8.133-6.175-11.5-10 .1-.4.057-.713.257-.813.9-.1 2.268-.1 3.268-.1 2 1.8 3.775 3.506 5.975 5.506-.2-1.6-.9-2.393-1.4-3.593s-1.1-2.4-1.7-3.6c.1-.4.1-.8.2-1.1.2-.9 1-3.17 1.4-3.97.4.326.844.967.988 1.626m-66.59 2.74c.4.7.933 1.4.933 2.4-.982 2.418-2.103 4.867-2.812 7.144 3.799-3.823 4.525-4.322 6.479-5.944 1.377-.355 2.455.222 3.655.622l-1.122 1.166c-2.2 1.9-4.633 3.745-6.933 5.645-1.1.9-2.012 1.866-3.112 2.666-1 .8-2.122 1.511-3.122 2.311-.3.2-.766.423-1.266.723 0-.4-.1-.733 0-1.033.2-.6.3-1.3.6-1.9.9-2.6 2-5.2 2.9-7.8.5-1.4 1.1-2.7 1.4-4.1 0-.2.3-.4.4-.7.2-.5.852-2.039 1.152-2.439.47.215.734.642.848 1.239" class="st3"/><path fill="#da2439" d="m263.75 219.9 1.8 2.4c2 2.9 4 5.9 6 8.8 3.3 4.8 6.5 9.6 9.8 14.4 1.8 2.7 3.6 5.3 5.4 8 2.4 3.5 4.8 6.9 7.1 10.4.4.7.9 1.3 1.3 2 .1.1 0 .3.1.5-.2.1-.4.1-.7.2-.4-.5-.7-.9-1-1.4-2.5-3.6-4.9-7.3-7.4-10.9-.7-1-1.5-1.9-2.1-2.9-.2-.3-.4-.6-.5-.8-.3-.5-.6-1.1-.9-1.6-1.5-2.2-3-4.5-4.5-6.7-2.1-3-4.1-6-6.2-9-2.5-3.7-5-7.3-7.5-11-.4-.7-.8-1.4-1.2-2 .1-.2.2-.3.2-.3 0-.2.1-.1.3-.1m34.2-4c.6-.1.7.1.8.4.1.5.1.9.1 1.4V266c-.3.4-.6.6-1.1.4-.1-.6-.1-1.2-.1-1.8v-11.4c0-11.1 0-22.3.1-33.4 0-1.3.1-2.6.2-3.9m6.6 65.1c.4-.4.7-.3 1.1-.3 8.2 12.3 16.3 24.7 24.5 37-.1.3-.1.5-.2.7h-.7c-1.4-1.6-2.6-3.4-3.7-5.3-1.9-3.4-4.2-6.6-6.4-9.9-2.1-3.3-4.3-6.5-6.4-9.7-1.6-2.4-3.2-4.7-4.7-7-.9-1.4-1.9-2.8-2.8-4.3-.2-.3-.4-.8-.7-1.2m-3.2 52.2h-.9c0-.5-.1-1-.1-1.4v-3.3c-.4-9.3-.2-18.5-.3-27.8 0-.9-.2-1.8-.2-2.7 0-5.5-.1-11.1-.1-16.6 0-.3 0-.5.1-.8.4-.3.6.1.8.3v1.5c0 3.5-.1 6.9.1 10.4.2 4.5 0 9 .3 13.5.3 4.7.1 9.5.2 14.2 0 2-.1 4 .1 6 .2 1.9.1 3.9.2 5.8-.2.2-.2.5-.2.9m4.2-66.4h-.8c0-.2-.1-.3-.1-.3.5-1.2 1.3-2.2 2-3.2 1.8-2.6 3.5-5.2 5.2-7.9.8-1.3 1.6-2.5 2.5-3.8.7-1.1 1.4-2.3 2.2-3.5.5-.7 1-1.4 1.4-2.1 1.9-2.9 3.8-5.7 5.7-8.6 3.1-4.7 6.2-9.4 9.3-14.2.5-.8 1-1.7 1.8-2.5l.5.5c-.8 1.6-1.7 3-2.7 4.4-2 3.1-4.1 6.2-6.2 9.3-1.9 2.9-3.8 5.9-5.8 8.9-1 1.5-2 3.1-3 4.6-1.1 1.5-2 3.1-3.1 4.6-1 1.5-2 3.1-3.1 4.6-1.5 2.3-3.1 4.6-4.6 7-.4.5-.8 1.3-1.2 2.2m-35.5 55.5c-.2-.2-.3-.3-.5-.4.2-.8.7-1.5 1.2-2.1.2-.4.5-.7.7-1 2.2-3.4 4.5-6.8 6.7-10.2l4.8-7.5c1.9-3 3.9-5.9 5.9-8.9 1.5-2.2 2.9-4.5 4.4-6.8.6-1 1.3-2 2-2.9.1-.2.2-.5.4-.9.2-.1.4-.3.8-.5l.6.6c-1.4 2.1-2.7 4.1-4.1 6.2-2.8 4.2-5.5 8.4-8.2 12.5-1.6 2.4-3.2 4.9-4.8 7.3-2 3.1-4 6.2-6 9.2-.9 1.3-1.7 2.7-2.6 4-.4.6-.7 1-1.3 1.4" class="st1"/><path fill="#b9aea4" d="M345.35 225.18c-6.4 10.662-17.2 24.225-17.5 24.725h-1.3l-7.2-.6c-.4 0-.7-.2-1.2-.3.1-.7 15.938-24.6 16.338-25.1 3.23.145 8.182.192 10.862 1.275m-59.46-14.37c1.3.5 8.005 4.83 10.605 7.03.398 5.671.83 12.281.408 24.47-4.032-1.35-6.888-1.994-9.438-2.993-.4-.3-1.972-23.725-1.675-27.407 0-.3 0-.7.1-1.1m-17.93 35.9c-.1-.3-13.651-19-15.956-23.847.1-.1.25-.222.35-.222 1 0 2.1.1 3.1.1h6.5c.6 0 1.1 0 1.7.1.1.2.393.456.493.656 5.426 6.95 15.888 22.184 15.612 23.312l-.3.3c-.4.1-.8.1-1.1.1h-8.8c-.5-.1-1 0-1.6-.5zm60.38-33.88c1.3 1.9 2.994 5.125 3.994 7.225.3.5.6 1.1.6 1.8-.2.3-16.946 25.523-17.917 25.314-1.1-1.3-3.972-6.625-4.672-8.825 6.256-7.579 11.198-19.198 17.996-25.514zm-57.87-1.52c.1 0 .2 0 .2.1 1.528 1.028 15.978 24.688 16.278 24.988-.1.3-.1.7-.3 1-1.2 2.1-1.916 3.725-3.016 5.725-.2.3-1.056 1.063-1.256 1.263-.6 0-17.247-23.832-17.447-24.132.3-1.4 3.74-6.143 5.54-8.943z" class="st3"/><path fill="#da2439" d="M249.95 300.4c.6-.2 1 0 1.4.1.8.3 1.6.5 2.4.8 1 .4 2.1.5 3.2.5 1.8.1 3.5 0 5.1-.8.2-.1.3-.1.7-.1-1 1.2-2.3 1.6-3.6 1.8-2 .4-4.1.4-6.1-.4-1.1-.5-2.3-.9-3.1-1.9" class="st1"/><path fill="#b9aea4" d="m307.78 212.05.523.055c.4.3.268 25.05.068 25.35-.7.7-4.64 3.218-7.14 4.418-.2.1-.5.2-.7.3-.1-.1-.652-.731-.652-.831l-.195-23.864c2.4-1.6 5.696-3.828 8.096-5.428" class="st3"/><path fill="#1d1d1b" d="M266.95 312.5c1.1 2 1.6 4.1 2.6 6 .3.1.5-.1.6-.3.5-.6 1-1.2 1.4-1.8 2.2-3.3 4.3-6.6 6.4-10 2-3.1 3.9-6.2 5.9-9.3 1.4-2.3 2.9-4.5 4.4-6.8 1-1.5 1.9-3 2.9-4.5.9-1.4 1.8-2.8 2.6-4.2.2-.3.3-.6.5-1-.2-.1-.3-.2-.4-.2-2.8-.2-5.4.6-8 1.6-1.1.4-1.9 1.2-2.6 2.1-1.6 2-3.1 4-4.6 6.1q-3.3 4.5-7.5 8.1c-2.6 2.3-5.4 4.1-8.7 5.2-1.8.6-3.6 1-5.5 1h-1.6c-1.8 0-4.7-.6-6.5-1.2-2.7-1-5.2-2.5-7.6-4.1-3.7-2.5-7.6-4.8-11.3-7.2-2.3-1.5-4.5-3.1-6.8-4.6-3.8-2.6-7.5-5.4-11.5-7.7-1.7-1-3.5-2.1-5.4-2.8-1-.4-1.9-.9-2.8-1.2-1.2-.5-2.5-.8-3.8-1.2q-1.65-.45-3.3-.6c-.8-.1-1.6-.3-2.5-.2-.3.2-.8.4-1.2.6-.7 1.2-.8 2.5-.8 3.7-.8 2.1-2 3-4.1 3.1-1 0-1.9.1-2.8-.4-1.2-.7-1.7-1.9-1.9-3.2-.2-1-.3-1.9-.1-2.9.3-1.7 1.2-3 2.5-4s2.7-1.6 4.3-2.1c1.9-.5 3.8-.8 5.7-.8h5c.6 0 1.1.1 1.7.1.1 0 .2.1.3 0 1-.3 2 .1 3.1 0 1-.1 2 0 3 0s2.1.1 3.1 0c5.7-.4 11.4-.1 17.2-.2 5.7-.1 11.4.1 17.1-.1 6.8-.2 13.6-.1 20.5-.1 6.9-.1 13.8 0 20.8-.1 1.7 0 3.3-.3 4.9-.6.3-.1.5-.2.7-.3.2-.4.1-.6 0-.9-.6-.8-1.1-1.7-1.6-2.5-1.5-2.2-3-4.3-4.5-6.5-.9-1.4-2-2.7-2.9-4-1-1.5-2-2.9-3.2-4.4-1.1 0-2.3-.1-3.5.2-.4.1-.8.1-1.1.1-.9.1-1.9 0-2.8.3-.4.1-.9 0-1.4.1-.8 0-1.6.1-2.6.1-.1-.1-.4-.3-.6-.5-.8-1.1-1.6-2.1-2.3-3.2-1.3-1.9-2.6-3.7-3.8-5.6-1.1-1.6-2.1-3.1-3.2-4.7-1.3-2-2.7-4-4-6-1.3-2.1-2.7-4.1-4-6.2-.3-.4-.5-.8-.6-1.4.3-.1.5-.1.7-.1 1.3 0 2.7-.1 4 .2h.4c1 .2 2-.2 3.1-.1 1 .1 2.1.1 3.1.1.2 0 .4 0 .6-.1.1-.6-.4-1-.5-1.5q.6-.9 1.8-1.5c.3.2.6.5 1 .8.1-.1.3-.1.3-.2.3-.4.5-.8.7-1.2.4-.7.9-1.4 1.3-2.2.5-.9.9-1.7 1.4-2.6s1.1-1.7 1.8-2.3c.2-.2.5-.2.7-.4 1.1 1.3 2 2.8 2.5 4.1.1.3.2.5.4.7 1.5 1.8 2.6 3.9 3.9 5.9 1.1 1.7 2.1 3.3 3.2 5 .8 1.3 1.6 2.7 2.5 4 .7 1.1 1.3 2.3 2.3 3.2.3-1.1.3-1.4.3-2.4-.1-1.3 0-2.6-.1-4 0-1.1-.2-2.2-.2-3.2-.1-1.1-.1-2.2-.2-3.2-.1-.8-.1-1.6-.1-2.4s-.1-1.5-.1-2.3c0-.6.1-1.1.1-1.6-.2-.3-.4-.6-.5-.9v-2.9c.2-.2.3-.4.5-.6.1 0 .2 0 .3.1 1.2.7 2.4 1.4 3.6 2 1.8.9 3.5 1.9 5 3.2.5.4 1.2.6 1.8.8 0-.4.1-.8.1-1.1.4-.2.8-.3 1.1-.4h1.6c.6.3.9.8.9 1.4.6-.1 1.2-.3 1.7-.4 1.2-1.6 3-2.5 4.6-3.6.7-.4 1.4-.8 2-1.3.1-.1.3-.2.5-.2.4.4.4.8.4 1.3v4c0 .9-.1 1.7.2 2.5.1.2 0 .4 0 .6-.3 1.5-.2 2.9 0 4.4q.15 1.05 0 2.1c-.2 1.6-.2 3.1 0 4.6v.7c-.2.9-.1 1.9 0 2.8.1.7.1 1.4.2 2.1.4.1.6-.1.8-.3l3.3-3.9c1.5-1.9 2.9-3.8 4.3-5.6 2.4-3.1 4.7-6.3 7.1-9.3.9-1.1 1.5-2.4 2.4-3.5.3-.4.5-.8 1.1-.9.8 1.4 1.6 2.9 2.4 4.3s1.6 2.9 2.7 4.2c.5 0 .9-.8 1.8-.3.1 0 .3.3.6.6s.6.6.8.9c.1.8-.7 1.2-.8 1.9.7.2 1.4.4 2.1.4 1 0 2 0 3 .1 1.6.1 3.3.2 4.9.3.3 0 .5.2.8.3-.1.3 0 .5-.1.7-.3.5-.6 1.1-1 1.6-2 2.8-4 5.6-6.1 8.4-1.1 1.5-2.3 3-3.4 4.5-1.4 1.9-2.8 3.7-4.1 5.6-1.2 1.6-2.4 3.3-3.6 4.9-.3.4-.8.8-1.1 1.2-1.2-.1-2.2.1-3.3-.2h-.1c-1.9-.1-3.8-.2-5.7-.4-.3.3-.6.6-.8.9-2.2 3.3-4.3 6.5-6.5 9.8-.9 1.3-1.7 2.6-2.5 3.9-.3.4-.6.9-.4 1.6.2.1.4.3.6.3.3.1.7 0 1 0h28.9c6.5-.4 13-.1 19.4-.3 4.4-.2 8.7-.2 13.1-.2 4.3-.1 8.6.1 12.9-.1 3.7-.1 7.5-.1 11.2-.3 1.2-.1 2.3 0 3.5.4 1.3.4 2.5 1 3.5 1.8 1.6 1.5 2.5 3.3 2.3 5.5-.1.8-.4 1.5-.9 2.2-.8 1-1.6 1.7-2.8 2-.3.1-.5.2-.8.3h-2.1c-2-.7-3.1-2.2-3.8-4.1-.2-.6-.3-1.1-.5-1.8-1.3.3-2.4.4-3.6.7-3.7 1.1-7.1 2.9-10.3 4.8s-6.1 4.1-9.1 6.3c-1.5 1.1-2.9 2.3-4.2 3.5-3.3 2.9-6.8 5.4-10.6 7.6q-4.35 2.7-9.3 4.2l-3.3.9c-.3.1-.7 0-1 0h-4.1c-1.1 0-2.1-.4-3.2-.6-2.5-.6-4.7-1.9-6.8-3.3-2.5-1.7-4.6-3.8-6.6-6-1.3-1.5-2.7-3-4.2-4.4-1.8-1.8-3.9-3.3-6.1-4.5-1-.6-2.2-.9-3.5-.6.1.2.1.4.2.5 1.4 2.2 2.9 4.4 4.3 6.6 2 3 4.1 6 6.1 9 2.3 3.4 4.6 6.8 7 10.2l5.4 7.8c.2.3.5.5.8.9 1.2-1.7 1.3-3.7 2.3-5.4.3-.1.4.2.5.4.6 1.8 1.4 3.6 1.9 5.5.6 2.3 1.4 4.5 2.1 6.7.9 3.1 1.9 6.3 2.8 9.5.2.6.3 1.2.4 1.7-.4.3-.7 0-.9-.2l-3.3-2.4c-2-1.6-4.1-3.2-6.1-4.9-1.6-1.2-3.1-2.4-4.7-3.7 0 0-.1 0-.1-.1-1.1-1-2.2-2-3.3-2.9-.2-.2-.4-.4-.5-.6 0-.4.3-.6.6-.6 1.2-.1 2.4-.2 3.7-.3.4 0 .7-.1.9-.5-.1-.1-.1-.4-.2-.6-.5-.8-.9-1.6-1.4-2.4-1.8-2.7-3.5-5.5-5.3-8.2-1.1-1.8-2.3-3.5-3.5-5.3-2-3-4-6-6.1-9-1.2-1.8-2.6-3.6-3.8-5.5-.8-1.2-1.6-2.3-2.5-3.4-.8-1-1.5-1.9-2.6-2.7-.2.1-.5.2-.8.3 0 .3-.1.6-.1.9v5.3c0 1 0 2 .2 3 .1 1 .1 2 .1 3 .1 5 .1 10 .4 15 .2 3.3 0 6.6.2 9.9.2 2.2.2 4.4.2 6.7v4.7c0 .5-.1 1 .2 1.5.2-.1.4-.1.6-.2.9-.6 1.8-1.2 2.7-1.9.8-.6 1.7-1.2 2.5-1.9.2.1.3.1.5.2-.1.5-.2 1-.4 1.5l-2.1 6.9c-1.4 4.3-2.9 8.6-4.4 13-.4 1.2-.9 2.5-1.3 3.7-.1.2-.3.4-.5.6-.2-.4-.4-.6-.4-.8-.9-3.2-2.1-6.3-3-9.6-.5-1.9-1.2-3.8-1.8-5.7-.8-2.5-1.5-5.1-2.2-7.6-.2-.5-.2-1-.2-1.7.6.4 1 .7 1.4 1 .9.8 1.9 1.6 2.8 2.5.6.5 1.1 1 1.9 1.4.1-.2.2-.4.2-.6 0-.9.1-1.8 0-2.7 0-3.7.1-7.5-.1-11.2-.3-7.4 0-14.8-.3-22.2-.1-4-.1-8-.2-12.1 0-.5 0-1-.4-1.5h-.5c-.4.6-.9 1.3-1.3 1.9-1.9 3-3.9 6-5.8 9-2.4 3.6-4.7 7.3-7.1 10.9-2.7 4.2-5.3 8.4-7.9 12.6-.2.3-.4.5-.7.8 0 .8-1.2 1.4-.9 2.5.7.3 1.5 0 2.3.1s1.6-.4 2.4-.1c0 .2 0 .4.1.6-1.3 1.3-2.5 2.6-3.9 3.8-2.2 2-4.3 4.1-6.7 5.9-.5.4-.9.8-1.3 1.3-.4.4-.8.8-1.2.9-.8.7-1.4 1.3-2 1.9-1.2 1-2.3 1.9-3.5 2.9-.2.2-.5.2-.8.4 0-.4-.1-.6-.1-.8.1-.5.3-1.1.4-1.6.8-2.7 1.7-5.4 2.6-8.1.8-2.4 1.5-4.8 2.3-7.3.8-2.3 1.5-4.5 2.3-6.8-.4-.5-.3-.7 0-1m24.5-72.2c0 .1 0 .3.2.1-.1 0-.1-.1-.2-.1-.1-.2-.1-.5-.2-.6-.9-1-1.8-1.9-3-2.5-.1-.1-.3-.1-.5-.1-.2.5-.3 1.1-.2 1.8 1.1.9 2.5 1.3 3.9 1.4m107.8 30.4c-.1-.3-.2-.4-.5-.4.2.2.3.3.5.4.1.2.2.5.4.7.4.5.8 1 1 1.6-.4.8-1.5.6-2 1.3.4.8 1.1.9 1.8 1.1.4-.2.8-.4 1.1-.5.8-.9.6-1.7 0-2.4-.5-.6-1-1.1-1.6-1.6-.2-.2-.4-.3-.7-.2m-108.1-56-.6-.6c-1.4-.9-2.7-1.8-4.2-2.8-.1.3-.2.7-.4 1 .4.7.9 1.1 1.5 1.5.4.3.9.5 1 1.1-.5.1-1 0-1.4-.4-.3-.3-.6-.5-1.1-.4-.2.4-.2.9 0 1.2.1.2.3.3.5.4 3.9 3 8.5 6.1 9.9 6.6 0-.6.1-1.1-.1-1.6-.7-.4-1.3-.9-1.9-1.3-1.9-1.4-3.8-2.7-5.8-4.1-.1-.1-.3-.2-.2-.4.2.1.4.1.6.2l.6.3 5.4 3.6c.4.3.8.6 1.3.6.2-.5.1-1 0-1.5-1-.7-1.9-1.4-2.8-2.1-.5-.4-1.4-.9-2.3-1.3m-20-1.4c.3-.2.2-.5.1-.7-.2-.4-.4-.7-.7-1-.5.3-.8.6-.9 1.1-.5.8-.9 1.6-1.4 2.4-.7 1.1-1.3 2.3-2 3.4-.8.5-.9 1.4-.8 2.2.2.4.4.6.9.5 0 0 .1-.1.2-.3l3.9-6.6c.3-.3.3-.8.7-1m11.4 18.4c-1.5 2.4-2.9 4.8-4.2 7.3.3.4.4.9.9 1 .5-.3.7-.8 1-1.2.8-1.3 1.6-2.6 2.3-3.9.4-.8 1-1.4 1.2-2.3.1-.1.2-.1.4-.2-.4-.5-.5-1.1-1.1-1.3-.1.2-.3.4-.5.6m-9.3-15.3c-.2.4-.7.6-.8 1.1-.3 1.1-1.1 2.1-1.7 3.1-.8 1.3-1.5 2.6-2.3 3.9.3.4.6.7.9 1.1.6-.6 3.2-4.9 4.8-8 .1-.1.2-.3.2-.4-.1-.5-.3-.9-.8-1.3-.1.1-.2.3-.3.5m43.5 13.6c-.1.1-.2.2-.2.3 1.5 3.4 3.7 7.6 4.6 8.6.4-.3.6-.8.8-1.4-.3-.6-.5-1.1-.8-1.7-1-1.9-2.1-3.7-3.1-5.6-.1-.4-.2-.7-.7-.8-.3.3-.5.4-.6.6m-41.4-9.8c.1 0 .3-.1.4-.1.1-.2.1-.4.1-.5-.3-.4-.4-1-1-1.2-.2.3-.4.6-.5.9-.6 1.3-1.8 2.2-2.2 3.7-.6.5-.6 1.4-1.1 1.9-.5.6-.6 1.2-.8 1.9.1.2.2.4.4.6.1.2.2.5.4.4.1-.1.2-.1.2-.2 1.3-2.1 2.6-4.2 3.8-6.4.1-.4.2-.7.3-1m33.2 3.9q.3-.45 0-.9c-.1-.2-.1-.3-.2-.5-.6.4-1.1.7-1.7 1-1.6 1-3.2 2-4.9 3-.7.4-1.4.9-1.8 1.7 0 .4-.1.9.5 1.1.6-.4 1.1-.8 1.7-1.1 1.7-1.1 3.4-2.1 5-3.2.5-.3 1.1-.5 1.4-1.1m2.2 13.9c-.1.1-.2.3-.3.4.7 2.1 3.5 7.4 4.5 8.7.3-.4.5-.8.7-1.1 0-.8-.4-1.3-.6-1.8-1.1-2.1-2.1-4.2-3.4-6.1 0-.2-.1-.3-.1-.5-.5-.1-.6.1-.8.4m11.1-15c0-.1 0-.1-.1-.2-.1.1-.2.1-.2.1-.4.1-.7.4-.8.9 1.2 2.7 2.6 5.2 4 7.9.1.2.3.4.6.8.3-.5.6-.9.8-1.5-.1-.3-.3-.7-.5-1.1-.4-.7-.7-1.4-1.1-2.1-.9-1.7-1.6-3.4-2.7-4.8m-34.6-1.2 8.1 5.7c.4.3.8.6 1.4.6v-1.5c-.9-.6-1.8-1.3-2.7-2l-5.4-3.6c-.1-.3-.3-.5-.6-.5-.2-.1-.5-.2-.8-.3-.1-.4-.4-.6-.8-.5-.2.5-.1 1 0 1.5.2.2.3.6.8.6m20.42-7.133-.64.719c-.24.27-.68.414-.88.614-1.3.9-2.7 1.8-4 2.7-.2.1-.4.3-.6.3-.6.2-1.1.7-1.5 1.2 0 .4-.1.9.1 1.4.7-.4 1.3-.8 1.9-1.2 1.6-1 3.3-2.1 4.9-3.1.5-.3 1-.6 1.3-1.1 0-.4.1-.9-.2-1.3-.2-.1-1.486.822-1.796.816.3-.4 1.796-1.616 1.996-2.016 0-.4-.1-.8-.1-1.3-.4.1-.7.1-.8.3-.7.6-1.4 1.2-2 1.8-.8.2-1.6.6-2.3 1-.9.6-1.8 1.3-2.7 2-.1.1-.2.2-.2.3 0 .4-.1.8.2 1.3.7-.4 1.3-.8 2-1.2 1.1-.7 2.1-1.4 3.2-2 .3-.4 2.525-1.687 2.12-1.233m-39.72 103.13c-.1-.4-.3-.7-.7-1-.4.2-.6.4-.6.8-.3.4-.3 1-.6 1.4-.1.2-.4.4-.4.7-.2 1.5-.9 2.8-1.4 4.1-.9 2.6-1.9 5.2-2.9 7.8-.2.6-.4 1.2-.6 1.9-.1.2 0 .5 0 .9.4-.3.8-.5 1.2-.7 1.1-.8 2.1-1.6 3.1-2.4 1.1-.9 2.1-1.7 3.2-2.6 2.3-1.9 4.5-3.7 6.8-5.6.4-.3.7-.7 1.1-1.1-1.3-.4-2.3-.9-3.5-.6-.4.4-.9.7-1.3 1.1-.5.4-1 .8-1.4 1.3-1 1.3-2.2 2.4-3.5 3.4-.1.1-.2.1-.5.1.4-1.3.9-2.5 1.4-3.6.6-1.2 1-2.4 1.5-3.5-.2-1-.5-1.7-.9-2.4m65.2-3.1c-.4.8-.6 1.7-.9 2.5-.1.4-.2.7-.2 1.1.6 1.2 1.1 2.4 1.7 3.6.5 1.2 1.2 2.4 1.4 4-2.2-2-4.1-3.8-6.1-5.6-1 0-1.9.1-2.8.1-.3 0-.6 0-.6.5.4.5.9.9 1.3 1.5.5.6 1 1.2 1.8 1.5.2.1.4.3.7.5.9.8 1.9 1.6 2.8 2.4 1.6 1.4 3.3 2.7 4.9 4.1.7.5 1.4 1 2 1.5.2.1.4.3.7 0 0-.5-.1-1-.2-1.6-.5-1.6-1-3.2-1.5-4.9-1.2-3.6-2.4-7.1-3.7-10.7 0-.6-.3-1-.7-1.4-.4.3-.5.6-.6.9m-48.8-45.9c-.1-.1-.1-.2-.2-.2-.2-.1-.4-.2-.5-.2h-36.5c-7 .1-14-.1-21 .2-2.9.1-5.9 0-8.8.1-3 .1-5.9.2-8.9.3h-2.3c-.5 0-.9.1-1.5.6.2.1.3.2.5.3.5.2 1 .4 1.4.6 3.5 1.2 6.9 2.7 10.3 4.4 3.9 1.9 7.6 4.1 11.4 6.3 3.1 1.9 6.3 3.6 9.5 5.3 3.6 1.9 7.3 3.5 11.2 4.6 1.5.4 3 .9 4.6 1 2.3.2 4.7.3 7.1-.3 2-.5 3.9-1.1 5.6-2.2 2.8-1.7 5-4 6.8-6.7 1.6-2.4 3-4.8 4.3-7.3 1-2 2.4-3.7 4.4-4.9.9-.6 1.9-1.1 2.6-1.9m105-1h-31.6c-5 0-10-.2-15 .2-2 .1-4 0-6 .1-7.8.1-15.5-.2-23.3.2h-.6c-.1 0-.4-.1-.4.2.8.7 1.7 1.3 2.5 2 2.5 2.2 4.6 4.8 6.8 7.2 1.4 1.6 3 3 4.6 4.4 2 1.6 4.1 3 6.3 4.3 1.6.9 3.2 1.7 4.9 2.2 1.7.6 3.5 1 5.3 1.3 2.8.3 5.5-.3 8-1.3 3.8-1.5 7.3-3.3 10.7-5.4 3.8-2.3 7.4-4.7 11.1-7 4.4-2.8 9.1-5.1 14-7.1 1.1-.2 1.8-.5 2.7-1.3m-89.1-24.3v20.7c0 .7.2 1.4.4 2.1.9 0 1.6.1 2.5-.1 2-2.9 4-5.7 5.9-8.6 1.9-3 4-5.8 5.8-8.9-1.9-3.3-4-6.3-6.2-9.4h-.7c-.4.2-.8.5-1.2.7-1.5.8-3 1.5-4.6 2.3-.6.5-1.3.9-1.9 1.2m-17.1 1.7c0 .2 0 .4.1.6.5.8.9 1.6 1.5 2.4 1.2 1.9 2.5 3.8 3.7 5.7 1.8 2.8 3.6 5.5 5.5 8.2.5.8 1.1 1.5 1.5 2.4.1.2.2.4.4.6.2 0 .4.1.7.1.1-.2.3-.4.3-.7.1-.3 0-.7 0-1v-18.9c0-.4 0-.8-.1-1.1-2.9-1.6-5.9-2.8-9-3.7-.8.8-3.5 3.8-4.6 5.4m11.5 86.7c-.2.4-.1.8 0 1.1 1.1 4.5 2.6 9 4 13.4.4 1.2.8 2.5 1.2 3.8.1 0 .3 0 .5.1.1-.3.3-.5.4-.8.9-2.6 1.7-5.3 2.6-7.9.9-3.1 1.8-6.2 2.8-9.3.1-.3.2-.5-.1-.8-.7.2-1.2.6-1.8 1s-1.2.9-1.9 1.3c-.2.8-.4 1.6-.5 2.5-.2 1.7-.7 3.3-1 4.9 0 .2-.2.3-.4.7-.2-1.5-.7-2.8-.9-4-.2-1.3-.6-2.6-.9-3.9-1.3-.9-2.5-1.7-4-2.1m-31-112h-.5c-.1 0-.1.1-.2.3.4.6.7 1.4 1.2 2 2.5 3.7 5 7.3 7.5 11 2.1 3 4.1 6 6.2 9 1.5 2.2 3 4.4 4.5 6.7.3.5.6 1.1.9 1.6.2.3.4.6.5.8.6 1 1.5 1.9 2.1 2.9 2.5 3.6 5 7.2 7.4 10.9.3.5.6.9 1 1.4.3-.1.5-.1.7-.2 0-.2 0-.4-.1-.5-.4-.7-.9-1.4-1.3-2-2.4-3.5-4.8-6.9-7.1-10.4-1.8-2.6-3.6-5.3-5.4-8-3.3-4.8-6.5-9.6-9.8-14.4-2-2.9-4-5.9-6-8.8-.4-.8-1-1.5-1.6-2.3m34.3-4c-.1 1.3-.2 2.6-.2 3.8 0 11.1 0 22.3-.1 33.4v11.4c0 .6 0 1.2.1 1.8.5.2.8.1 1.1-.4v-48.3c0-.5 0-.9-.1-1.4-.1-.2-.3-.4-.8-.3m6.6 65.1c.2.4.4.9.7 1.3.9 1.4 1.9 2.9 2.8 4.3 1.6 2.4 3.2 4.7 4.7 7 2.1 3.2 4.3 6.4 6.4 9.7s4.4 6.5 6.4 9.9c1.1 1.9 2.3 3.6 3.7 5.3h.7c.1-.2.1-.4.2-.7-8.2-12.4-16.3-24.7-24.5-37-.4-.2-.7-.2-1.1.2m-3.3 52.2c0-.4.1-.7.1-1 0-1.9 0-3.9-.2-5.8-.2-2-.1-4-.1-6-.1-4.7.1-9.5-.2-14.2-.3-4.5-.1-9-.3-13.5-.2-3.5 0-6.9-.1-10.4v-1.5c-.3-.2-.4-.6-.8-.3 0 .2-.1.5-.1.8 0 5.5 0 11.1.1 16.6 0 .9.2 1.8.2 2.7.1 9.3-.1 18.5.3 27.8.1 1.1 0 2.2 0 3.3 0 .5.1.9.1 1.4zm4.2-66.5c.5-.8.9-1.6 1.3-2.4 1.5-2.3 3.1-4.6 4.6-7 1-1.5 2-3.1 3.1-4.6s2-3.1 3.1-4.6c1-1.5 2-3 3-4.6 2-2.9 3.9-5.9 5.8-8.9 2.1-3.1 4.1-6.2 6.2-9.3.9-1.4 1.9-2.8 2.7-4.4l-.5-.5c-.8.8-1.2 1.6-1.8 2.5-3.1 4.7-6.2 9.4-9.3 14.2-1.9 2.9-3.8 5.7-5.7 8.6-.5.7-1 1.4-1.4 2.1-.7 1.1-1.4 2.3-2.2 3.5-.8 1.3-1.6 2.5-2.5 3.8-1.8 2.6-3.5 5.2-5.2 7.9-.7 1.1-1.5 2.1-2 3.2 0 .1 0 .2.1.3.1.2.3.2.7.2m-35.5 55.6c.6-.3.9-.7 1.2-1.2.9-1.3 1.7-2.7 2.6-4 2.1-3 4-6.1 6-9.2 1.6-2.5 3.2-4.9 4.8-7.3 2.8-4.2 5.5-8.4 8.2-12.5 1.4-2 2.7-4.1 4.1-6.2l-.6-.6c-.3.2-.6.4-.8.5-.2.4-.3.6-.4.9-.6 1-1.3 2-2 2.9-1.5 2.3-2.9 4.5-4.4 6.8-1.9 3-3.9 5.9-5.9 8.9l-4.8 7.5c-2.2 3.4-4.5 6.8-6.7 10.2-.2.4-.5.7-.7 1-.4.6-.9 1.3-1.2 2.1.3-.1.5 0 .6.2m60.5-91.6.1.1c2.3.3 4.6.6 7 .9.8.1 1.5.2 2.2.2.3 0 .6 0 .9-.1.3-.5.9-.9.8-1.6-.2-.1-.4-.2-.6-.2-1.1-.1-2.1-.5-3.2-.4-.5 0-.9-.1-1.4-.1-1.3-.1-2.5-.3-3.8-.5h-1.1c-.4.7-.8 1.1-.9 1.7m1.9-2.5c3.8.7 8.8 1.3 10.3 1.1.4-.4.8-.9.9-1.5-.7-.3-1.4-.4-2.1-.5-1.6-.1-3.3-.3-4.9-.6-1.1-.2-2.1-.2-3.3-.2-.4.7-1 1-.9 1.7m.4-6.7c-.6-1.5-1.3-2.8-2-4.1-.7-1.4-1.5-2.7-2.3-4.1-.5.2-.9.5-1.1.9-.2.8.2 1.4.5 1.9l3.3 6.6c.1.2.2.4.5.4.5-.2.7-.9 1.1-1.6m-69 18.7c.6 0 1.3.1 1.9.1h8.1c.4 0 .8 0 1.1-.1.1 0 .1-.1.2-.2-.2-.3-.4-.7-.6-1.1-.4-.1-.8-.2-1.2-.2-3.3 0-6.6 0-9.9-.1-.2 0-.5-.1-.6.2.2.5.4 1 1 1.4m32.7-16.6-.6-.6c-1.6-1.1-3.3-2.3-4.9-3.4-1.3-.9-2.6-1.8-3.9-2.6-.2-.1-.5-.5-.9-.2 0 .4 0 .9.1 1.2 1.6 1.5 9.1 6.5 10.3 7 .1-.4 0-.9-.1-1.4m.3 11.4c-.2-.2-.3-.3-.4-.3l-7.5-5.1c-.7-.4-1.3-1-2.1-1.1-.3.4-.2.8-.1 1.4.3.3.8.7 1.2 1 1.3.9 2.6 1.8 3.9 2.6 1.4 1 2.9 2 4.3 3 .2.1.4.2.7 0zm30.3 1.2c1.1.1 2.2.3 3.3.4 1 .1 2 .4 3.1.4s2.1.6 3.3.2c.4-.4.9-.8.9-1.6-1.5-.6-3.1-.6-4.7-.8l-4.8-.6c-.5.7-1 1.1-1.1 2m1.8 12.1c-1.2-.5-2.2-.5-3.3-.6s-2.2-.2-3.2-.3h-3.2c-.4.5-.8.9-.9 1.6l1.2.3 7.2.6h1.3c.2-.5.5-1 .9-1.6m-71.4-17.4c.8.1 1.5.2 2.1.2h8.9c.2 0 .4-.1.8-.1-.4-.6-.7-1-1-1.5h-11.5c.3.5.5.9.7 1.4m82.4 2.1c-.6-.2-1.2-.4-1.8-.5-1.6-.2-3.1-.4-4.6-.5-1.2-.1-2.3-.2-3.5-.3-.4.5-.9.9-1 1.6 2.8.7 8.7 1.4 10 1.2.3-.4.7-.8.9-1.5m-6.1-7.3c.2.1.4.3.6.3 1.2 0 2.3.5 3.5.4.2 0 .4.1.6.1 1.5.2 3.1.4 4.6.5.3 0 .6 0 1-.1.4-.5.8-.9.7-1.5-1.1-.6-2.3-.3-3.3-.6-1.1-.3-2.2-.1-3.4-.4-1.1-.3-2.2-.2-3.4-.1-.5.4-.8.8-.9 1.4m-47.1 1c1.2.9 2.4 1.7 3.6 2.6 1.8 1.3 3.7 2.5 5.5 3.7.3.2.6.5 1.1.3 0-.5.1-1-.1-1.6-.8-.5-1.6-1.1-2.4-1.6-.9-.6-1.7-1.2-2.6-1.8-.8-.6-1.6-1.1-2.5-1.7-.9-.5-1.6-1.2-2.6-1.6zm37.1 14.9c1 .5 2.1.3 3.2.4s2.1.4 3.2.3 2.1.4 3.2.2c.4-.6.9-1.1.9-1.8-1.1-.3-2.1-.1-3.2-.4-1.1-.2-2.2 0-3.4-.2-1.1-.2-2.1-.2-3.2 0-.2.5-.7.8-.7 1.5m-2.2 2.6c.4.1.7.1 1 .1 1.1.1 2.2.1 3.2.3 1.8.2 3.7.3 5.6.4.3-.6.9-1 .7-1.7-.4-.4-.8-.3-1.1-.4-.7 0-1.3 0-2-.1-1-.2-2-.2-3-.2-.9 0-1.8 0-2.7-.2-.2-.1-.5 0-.7 0-.3.5-.7 1-1 1.8m3.9-5.4c1.2.1 2.2.3 3.3.4 1 .1 2 .4 3.1.5 1.1 0 2.1.4 3.2.2.4-.5.7-.9.8-1.5-.2-.1-.4-.3-.7-.3-1.8-.2-3.6-.6-5.4-.6-.2 0-.5 0-.7-.1-1-.3-1.9-.2-2.9-.1-.3.3-.6.9-.7 1.5m-38.8-14.8c.4.4.8.7 1.3 1 1.1.8 2.2 1.5 3.2 2.3l4.5 3c.3.2.7.5 1.2.4.1-.5.1-1-.1-1.6-3.3-2.2-6.5-4.7-10.1-6.7zm39-7.1c-.1.6 0 1.1.2 1.5 1.1 2.3 2.3 4.7 3.4 7 .1.2.3.4.4.5.5-.4.9-1 1.2-1.9-.6-1.6-1.1-2.4-1.8-3.3-.2-1.2-.9-2.1-1.4-3.1-.3-.6-.5-1.2-1.2-1.6-.3.4-.6.6-.8.9m-28.9 21c-2.8-2-5.6-4-8.4-5.9-.3-.2-.7-.4-1.1-.6-.1 0-.2 0-.3.1v1.2c.3.4.6.8.8 1 .5.4.9.6 1.3.9 2.1 1.5 4.2 3 6.4 4.5.2.1.4.3.6.4s.4.4.7.2zm32.8 9.5c.3-.5.6-.9.8-1.3.1-.2 0-.4.1-.7-.8 0-1.5-.1-2.2-.1-.8-.1-1.5-.2-2.2-.2-1.1-.1-2.2-.2-3.4-.2h-1.8c-.4.5-.8 1-.9 1.7 3.2.3 6.3.5 9.6.8m-42.3-13.3c0 .4-.1.8-.1 1 .2.6.6.9 1.1 1.2 2.5 1.8 5 3.6 7.5 5.3.3.2.5.5.9.5.2-.5.1-1.1.1-1.6-2.6-2.1-8.2-5.9-9.5-6.4m-14.2 2.8c-1.3-.3-5.2-.4-11.2-.2-.2 0-.3.1-.5.1.2.5.3 1 .8 1.2 3 .1 6.1.1 9.2.1.7 0 1.4-.1 2.1-.2 0-.2.1-.3 0-.3-.1-.2-.3-.4-.4-.7m-13.8-3.8c1.8.2 9.5.4 11.1.3.1 0 .2-.1.4-.2-.1-.6-.3-1-.7-1.4-.3 0-.7-.1-1-.1-3.3.1-6.7.1-10 .2-.1 0-.1.1-.3.2.1.4.3.8.5 1m22.2-4.8c-.3.5-.6 1-.9 1.4-.7 1.2-1.3 2.4-2 3.6-.2.5-.4 1-.8 1.3-.5.5-.8 1.1-1.1 1.7.4.5.7.9 1.1 1.3.9-.9 2.9-4.4 4.9-8-.4-.3-.6-.9-1.2-1.3m30.8 8.7c.8 1.6 1.6 3.1 2.2 4.6.5 1.3 1.4 2.3 2.2 3.6.3-.5.6-.9.8-1.4-.1-.4-.2-.8-.4-1.2-1.3-2.4-2.4-4.9-4-7.2l-.8.8c-.1.4 0 .6 0 .8m-59.6-13.1c.6.4 1.1.4 1.5.4h8.8c.4 0 .8 0 1.1-.1.1 0 .2-.2.3-.3-.1-.2-.2-.4-.3-.5s-.2-.3-.4-.5c-.6 0-1.1 0-1.7-.1h-6.5c-1 0-2.1-.1-3.1-.1-.1 0-.1.1-.3.2.3.4.5.7.6 1m24.8-2c-.3-.5-.6-.8-1-1.1-1.1 1.8-2.3 3.5-3.4 5.3-.6.9-1.2 1.8-1.4 2.9.2.4.5.9 1 1.1.7-.9 4.2-6.9 4.8-8.2m-.3 21.3h-11.1c-.1 0-.1.1-.2.2.3.4.5.7.8 1.1 3.8 0 7.5.1 11.3 0-.1-.5-.2-.9-.8-1.3m-.8-1.1c.1-.6-.2-.9-.6-1.2-1.2-.2-10.1-.2-11.4 0 0 .5.3.9.6 1.2 1.2.2 10 .2 11.4 0m-9.7-14.8c-1.6-.2-10.2-.1-11.3 0-.1.6.2.9.6 1.1 1.1.1 8.7.2 10.8.1.2 0 .3-.1.6-.1-.3-.4-.5-.7-.7-1.1m12.6 18.4h-11.6c.1.6.4 1 .8 1.3.2 0 .3.1.4.1h10c.1 0 .3 0 .4-.1.1 0 .1-.1.3-.2-.1-.3-.2-.7-.3-1.1m-7.8-11.1h-10.9c-.2 0-.3.1-.5.1.1.6.3 1 .7 1.2.1 0 .2.1.3.1h10.3c.2 0 .5.1.6-.3 0-.3-.2-.7-.5-1.1m-6.4-9.6c-.2-.1-.4-.1-.5-.1h-10.5c-.2 0-.3.1-.6.2.3.5.5.9.7 1.3h10.1c.4 0 .8 0 1.2-.4-.1-.4-.3-.7-.4-1m13.4-1.8c-.5.5-.8 1-1 1.4-.3.5-.6 1.1-.9 1.6-.9 1.6-1.7 3.1-2.6 4.7-.2.3-.3.7-.2 1.2.2.2.4.5.7.8.2-.2.4-.4.5-.6 1.4-2.5 2.9-5 4.4-7.5-.3-.5-.5-1-.9-1.6m50.9 3.6c-1-2.6-3.5-7.2-4.4-8.2-.5 0-.7.4-1 .8.1.4.3.9.5 1.3 1.3 2.4 2.6 4.7 3.9 7.1.1.1.2.2.4.3.1-.4.3-.9.6-1.3m-7-5.5c1.3 3.1 2.9 5.9 4.5 8.8.6-.3.7-.9 1-1.3-.1-.2-.1-.4-.2-.6-1.1-2.1-2.2-4.2-3.3-6.2-.2-.4-.5-.8-.8-1.1-.1-.1-.2-.1-.4-.2-.3.1-.5.2-.8.6m-41.3 21c1.5-2.5 2.9-5 4.4-7.4.1-.1.1-.3.1-.5-.2-.3-.5-.6-.7-.9-.3 0-.5 0-.8.1-1 2.6-2.7 4.9-4 7.4 0 .6 0 1.2 1 1.3m27.2-14.3c-.2.1-.4.1-.6.2-.9.5-1.8 1.1-2.6 1.6s-1.5 1.1-2.3 1.5c-1 .5-1.9 1.2-2.8 2 0 .5.1.9.1 1.5 2.9-1.8 5.6-3.5 8.2-5.2.1-.5.2-1.1 0-1.6m15 7c-.4-.7-.7-1.4-1.1-2.1-.8-1.5-1.6-3.1-2.5-4.6-.2-.4-.5-.7-.8-1-.1-.1-.2 0-.3-.1-.2.2-.4.4-.6.7 0 .2.1.3.1.4 1.2 2.6 2.6 5.2 4 7.8.1.2.3.3.5.5.5-.5.7-1 .7-1.6m-14.8-9.8c-1.8 1.1-3.4 2-5 2.9-1.2.8-2.4 1.6-3.5 2.6 0 .3 0 .7.1 1.1.2 0 .3.1.4 0 2.2-1.4 4.5-2.8 6.7-4.1.5-.3.9-.6 1.3-1zm10.8.3c-.1.8.4 1.3.7 1.9 1.1 2.1 2.2 4.2 3.3 6.2.1.2.3.4.6.7l.7-1.4c-.6-1.5-2.9-5.9-3.9-7.6-.1-.2-.4-.4-.6-.7-.4.4-.6.6-.8.9m-47-11.9c-.2.1-.3.2-.4.2-.7.8-.9 1.9-1.8 2.5-.2 1.1-.9 1.8-1.4 2.7-.6 1-1.2 2-1.7 3 .3.4.3.9.9 1.1.9-1 5.1-8.2 5-8.7-.1-.1-.3-.4-.6-.8m27.8 13.5c2.8-1.8 5.5-3.5 8.1-5.2.3-.6.5-1.1.1-1.9-2.8 1.7-5.5 3.6-8.2 5.4zm8.3 6.4c-.6-.2-.9.1-1.2.4-1 .6-1.9 1.2-2.8 1.9-.4.3-.9.6-1.3.8-1.1.6-2.1 1.2-3.1 2.2v.7c0 .2.1.4.1.6 2.4-1.2 4.6-2.9 6.9-4.2.5-.3 1-.7 1.4-1.1zm-22.3 2c-1.9 2.7-4.1 6.7-4.4 8.1.1.4.3.7.9.6.2-.2.4-.4.6-.7 1.2-2 2.4-4.1 3.5-6.1.2-.3.2-.7.3-1-.3-.3-.5-.6-.7-.8 0-.1-.1-.1-.2-.1m22-4.9c-1.4.9-2.8 1.7-4 2.6-1.3 1-2.7 1.9-4 2.8-.1.6-.2 1 .1 1.5 2.8-1.6 5.4-3.4 8.1-5.1 0-.6.1-1.2-.2-1.8m11.4 10.3c.1 0 .2-.1.2-.1.7-.7.6-1.4.2-2.2-1.1-2-2.1-4-3.2-6q-.3-.6-.9-1.2c-.3.4-.6.7-.8 1 .5 1.5 3.5 7.1 4.5 8.5m-11-23.5c-.4.1-.6.2-.8.3-2.6 1.6-5.1 3.3-7.7 5.1 0 .5.1.9.1 1.4.4-.1.6-.2.8-.4 2.2-1.3 4.3-2.7 6.5-4.1.4-.3.9-.5 1.2-1.1 0-.3 0-.6-.1-1.2m5.1 16.9c.1.3.1.7.3.9 1.3 2.4 2.6 4.8 3.8 7.2.1.2.3.3.5.6.3-.5.5-.9.7-1.3-.1-.4-.2-.7-.4-1-1.2-2.4-2.4-4.8-3.9-7.1 0-.1-.1-.1-.3-.2-.2.3-.4.6-.7.9m-37.6 1.3c.6-.3.9-.8 1.1-1.3 1-1.8 2-3.5 3-5.2.3-.5.7-1 .8-1.6-.2-.4-.4-.9-.9-1.1-.1.1-.3.2-.4.4-1.4 2.5-2.9 4.9-4.2 7.4.2.5.4.9.6 1.4m-26 64.8c.9 1 2 1.4 3.1 1.9 2 .8 4.1.8 6.1.4 1.2-.2 2.6-.6 3.6-1.8-.3 0-.5 0-.7.1-1.6.8-3.3.9-5.1.8-1.1 0-2.2-.2-3.2-.5-.8-.3-1.6-.5-2.4-.8-.4-.2-.9-.3-1.4-.1m57.7-64c-2.4 1.6-4.9 3-7.3 4.6v.8c0 .1.1.1.2.3.2-.1.5-.2.7-.3 2.4-1.2 6.3-3.7 7.1-4.3.1-.4.1-.7-.2-1zm26.2 60.3c2 2.7 8.9 4 12.2 1.1h-.6c-.6.1-1.3.3-1.9.5-1.3.2-2.6.3-3.8 0-1.3-.2-2.5-.7-3.8-1.1-.7-.3-1.4-.5-2.1-.5m-145.4-19.4c-.5-.4-1-.8-1.1-1.4.1-1.2 1.6-1.5 1.6-2.7-.7-.4-1.2-.1-1.8.2-.9.6-1.7 1.3-1.8 2.5.2.7.6 1.2 1.2 1.6.4.2.9.5 1.5.3.2-.2.3-.3.4-.5" class="st0"/><path fill="#da2439" d="M333.85 296.7c.8 0 1.4.3 2.1.5 1.3.4 2.5.9 3.8 1.1 1.2.2 2.5.2 3.8 0 .6-.1 1.3-.3 1.9-.5h.6c-3.3 2.9-10.2 1.6-12.2-1.1m-145.3-19.4c-.2.2-.2.4-.3.5-.6.2-1.1 0-1.5-.3-.6-.3-1-.9-1.2-1.6.1-1.2.9-1.9 1.8-2.5.5-.3 1.1-.6 1.8-.2-.1 1.2-1.5 1.5-1.6 2.7 0 .6.4 1 1 1.4m210.7-6.6c.3-.1.6 0 .8.2.6.5 1.1 1 1.6 1.6.6.7.7 1.5 0 2.4-.3.1-.7.4-1.1.5-.7-.2-1.4-.3-1.8-1.1.5-.7 1.6-.5 2-1.3-.3-.6-.6-1.1-1-1.6-.3-.1-.4-.4-.5-.7" class="st1"/><path fill="#b9aea4" d="M311.65 238h-.9c.1-.3.3-.5.8-.5 0 .2.1.4.1.5" class="st3"/><path fill="#da2439" d="M399.25 270.7c-.1-.1-.3-.2-.5-.4.3.1.4.2.5.4" class="st1"/><path fill="#866c5d" d="M308.55 224.1v-.9q.3.45 0 .9m-102.1-55.5c-.2-.1-.4-.2-.5-.4q-3.3-4.05-6.3-8.4c-1.184-1.717-2.907-3.659-4.113-5.088 7.186-1.174 15.301-4.022 15.825-4.5 0 0-.274-.55-.687-3.462 8.04-2.491 21.309-5.52 35.775-8 7.824-2.132 14.599-6.923 20.919-11.019 1.75-1.093 3.39-2.221 5.15-3.038 1.16 1.322 1.096 3.782 2.1 5.188-.4.4-1.369 1.019-1.869 1.419-4.045 3-8.138 6.21-12 8.9-1.64 1.43-2.248 1.91-4.8 1.8-1.413.468-2.235 1.463-2.825 2.412.157 2.292.23 4.155-1.875 5.188-1.5 1.1-3.1 2.2-4.6 3.3-2.5 1.9-5 3.8-7.5 5.6-.9.7-1.8 1.3-2.8 2-.9.6-1.9 1-3.1.9-1.3-.1-2.6.1-3.9-.2-.7-.1-1.4.1-2.1.1-.3 0-.7.1-1 .1-1.6 0-3.1.4-4.5.9-2.9 1-5.8 2.3-8.6 3.6-2 1-4.1 1.8-6.2 2.7 0-.1-.2 0-.5 0m184.96-13.66c-2.244 5.768-4.666 11.201-7.753 15.831-6.655-3.062-12.366-6.211-18.566-8.822-.9-.4-2.044-.733-3.044-.933-2-.3-3.9-.455-5.9-.555s-3.9-.667-5.7-1.867c-3.7-2.42-7.013-4.32-10-6.942-1.413-.982-2.45-2.12-3.025-3.557.2-.2.625-.1.825 0 .9.5 1.9 1.1 2.8 1.6.3.2.483.463.783.063-.1-.2-.216-.4-.416-.5-1.1-.9-2.255-1.706-3.455-2.506-2.4-1.8-4.712-3.32-7.112-5.02-2.5-1.8-11.725-7.8-14.425-9.4-1.6-1-15.388-10.35-16.888-11.35-.2-.2-.4-.4-.6-.5v-.6l1.2-2.1c.2-.3.5-.6.6-.8.6-.2 1 0 1.3.2.7.4 1.4.9 2.1 1.4 2.7 1.7 24.212 15.813 26.912 17.513 3.3 2.1 6.6 4.2 9.9 6.2 1.871 1.159 3.71 1.057 5.6 1.2.2 0 .4.2.7.3-1 1.1 24.598 2.693 27.335 2.68-2.862 3.998-3.602 4.272-2.455 4.744 8.813 1.162 21.379.534 19.283 3.72zm-28.69-83.232c-.3.2-.7.5-1.1.8-24.072 16.072-58.448 39.003-80.87 53.592a21.6 21.6 0 0 1-2.6 1.8c-.7-1.5-1.5-2.9-2.1-4.3-.276-.769-.36-1.252.581-1.747 24.004-15.759 60.496-39.22 83.288-52.345.5-.2 1-.6 1.7-.4.6.6 1.2 1.3 1.1 2.6zm-138.42.151c.48-1.346 1.203-2.692 2.5-2.2 21.329 13.929 43.856 27.17 63.653 40.541 2.22 1.43.868 1.674-2.287 3.662-21.873-14.4-38.15-24.446-63.866-42.003" class="st4"/><path fill="#fff" d="M285.15 115.3c-18.112-11.541-35.697-23.328-53.031-34.65.463-.76 1.017-1.012 1.662-1.603 18.712 10.063 35.505 23.349 51.75 33.772 2.608 1.518.778 1.911-.38 2.481zm47.27 30.52c-18.112-11.541-20.494-12.765-37.828-24.088.463-.76 2.166-1.233 2.812-1.824 16.962 11.235 19.153 13.007 35.398 23.43 2.607 1.518.777 1.911-.382 2.481zm64.16-92.52c-2.3 1.7-12.521 9.565-14.821 11.265-5.948 3.816-11.199 9.041-16.348 11.313-.4-.5-.963-1.178-1.263-1.678-2.728 1.264-5.344 3.78-7.953 5.125-.4-.4-.746-1.025-.646-1.725 1.7-1.4 3.4-2.8 5.4-4 .6-.4 1.2-.9 1.8-1.2s1.1-.7 1.8-.7c.4.2.9.4 1.4.7.7-.1 1.2-.6 1.8-1 3.1-2.1 6.3-4.2 9.4-6.3l18.29-12.536c.1-.1 2.034-.74 2.234-.84-.1.4-.64 1.208-1.093 1.576" class="st5"/><path fill="#999" d="M352.65 143.3h-2.6c-.1-.2-.3-.5-.4-.7-.6-2-1.3-4-1.9-6-.1-.4-.3-.8-.4-1.3-.3-.1-.6-.3-.9-.4-1.6-.5-3-1.2-4.6-1.7-.4-.2-.7-.5-1.2-.7-1-.3-2-.7-3-1-2.1 1-4.1 1.9-6.1 2.9-.1.1-.3 0-.5 0-.6-.3-1.4-.5-1.6-1.5 2.3-1 4.5-1.9 6.8-2.9.3-.1.5-.2.8-.3.6-.3 1.3-.3 1.9 0 2.7.9 5.4 1.8 8 2.7 1 .3 1.9.8 2.9 1.2.4 1 .7 2.1 1 3.2l.9 3.3c.4.9.7 2 .9 3.2" class="st6"/><path fill="#fff" d="M353.47 81.488c-5.108 3.93-87.818 59.209-92.643 62.299-.6-.4-1.077-1.087-1.277-1.787.45-.737 87.75-59.346 92.625-62.353.83.378 1.224 1.038 1.295 1.841" class="st5"/><path fill="#999" d="M243.65 138.2c-.7.2-1.3.4-1.8.5-.3-.2-.5-.5-.4-.7.3-.6.3-1.3.6-2 .4-.8.7-1.7 1.1-2.6.4-.8.8-1.6 1.3-2.4 2.2-1.5 4.6-2.8 7.1-4 .8-.4 1.6-.5 2.6-.3 2.1.5 4.2.8 6.3 1.3.6.1 1.1.4 1.6.6.2.4.1.7-.2.8-.3.2-.6.4-1 .6-1.4-.4-2.7-.9-4-1.3s-2.5-1.1-4.2-.7c-2.2 1.3-4.9 2.4-7 4-.7 2.2-1.3 4.2-2 6.2" class="st6"/><path fill="#fff" d="M329.22 148.99c.6.1.834.01.934-.59.2 0 .125-1.436.976-1.768.834-.325 1.402.894 2.202.894.6.3 1.205 1.08 1.705 1.68.394.013.508.156 1.114.975-.866 1.43-1.647 3.132-2.772 4.223-.614.224-1.624-.403-2.414-.327l-.445.435c-1.66.415-1.95-1.002-2.466-1.711 0-.2 0-.5-.1-.8-.497-.412-1.303-1.797-1.303-2.297.5-.5.755-1.728 2.569-.714M229.05 76.2c0 .6-.3.9-.6 1.3-2.5-1.5-6.027.157-8.427-1.442-.3-.2-26.552-19.957-26.752-20.156.2-.5.5-.8.9-1 .2.1 24.286 15.656 24.486 15.856 3.085-1.594 8.093 3.642 10.393 5.442" class="st5"/><path fill="#1d1d1b" d="M304.65 117.5c2.2 1.5 4.3 3.1 6.5 4.5 2.2 1.5 4.5 2.9 6.8 4.3 2.4 1.5 4.8 3 7.2 4.4.9.5 1.8.9 2.6 1.3.2.1.5.2.7.2 1.1-.4 2-.8 3-1.2 1.5-.6 3-1.3 4.5-1.9 1-.5 2-.6 3.1-.3 1.2.4 2.4.7 3.6 1.1 1.5.5 3 .8 4.4 1.5.3.2.7.3 1 .5.7.3 1.5.6 2.3.9.1.1.2.3.3.5.6 1.6 1.2 3.2 1.6 4.9.4 1.6.8 3.2 1.5 4.8 1 .4 2 .6 3.1.7 1.2.1 2.3.3 3.5.5.1 0 .3.1.4.1 1.2.1 2.4.2 3.7.3 1.8.2 3.6.5 5.4.8h.9c.8 0 1.5-.1 2.2.3h.3c1.6 0 3.3.3 4.9.6h.4c1.5 0 2.9.2 4.3.5h.4c1.4.1 2.7.1 4.1.3 1.7.3 3.5.4 5.2.6 1.4.2 2.7.4 4.1.6.3.1.6.2 1 .3.2.4.1.9.1 1.4-.3 2.3-.7 4.5-1.5 6.7-1.4 3.9-3.1 7.7-5.2 11.3-.7 1.3-1.6 2.6-2.4 3.9s-1.9 2.4-3 3.4c-.5.5-1.2.8-1.6 1-1.3.2-2.4-.1-3.4-.5-1.8-.7-3.5-1.3-5.3-2-1.2-.5-2.4-1.1-3.6-1.6-1.4-.6-2.8-1.3-4.2-2-1.8-.9-3.6-1.8-5.4-2.8-2.4-1.4-4.9-2.9-7.2-4.4-2.9-1.9-5.8-3.9-8.7-5.8-2.7-1.8-5.4-3.5-8.1-5.2-.5-.3-1-.6-1.6-.7-1.4 1-1.7 2.8-3 4-.4 0-.9.1-1.4.1-.7.3-1.3.6-1.8 1.1s-1.2.6-1.9.9c-.7-.2-1.4-.3-1.8-1-.4-1.2.1-2.5.3-3.7-.7-1.4-1.8-2.6-1.4-4.3.8-1.2 2.1-1.6 3.5-1.6.1-.7-.2-1.1-.6-1.6-.8 0-1.5 0-2.2.2-1.8.5-3.7.8-5.6.6-.9-.4-.9-1.2-1-2-.1-.6-.1-1.2-.1-1.9v-2.4c-.6-1-1.5-1.4-2.3-1.9-1.2-.8-2.5-1.5-3.7-2.3-1.3-.8-2.5-1.7-3.7-2.5-3.2-2-6.4-4.1-9.5-6.1-1.6-1-3.3-2.1-4.9-3.1-.6-.4-1.3-.6-2.3-.3-3.6 2.4-7.5 5.1-11.4 7.6-3.9 2.6-7.8 5.1-11.5 7.8-.7 1.6-.2 3.1-.5 4.5-.4.6-1 1-1.6 1.3-1.4-.2-2.5-1.1-3.5-1.9-.8 0-1.3.6-1.8.9-.6.4-1 .8-1.5 1.2 0 .6.3 1 .6 1.3.9.5 1.3-.5 2-.4.7.2.9.9 1.2 1.5.3.4.6.9.4 1.5-.6.5-1.2 1.1-1.8 1.6.2.8.3 1.6.4 2.3-.4.4-.8.8-1.2 1.1-1.1.9-2.3 1.6-3.7 2.1-.5.2-.9.2-1.5.1-1.4-1.5-2.7-3.2-3.7-5.3-.3-.2-.7-.5-1.4-.2-1.1.9-2.6 1.8-3.7 3l-.2.2c-2.6 1.7-5 3.8-7.6 5.6-3.3 2.2-6.7 4.3-10.2 6-3 1.4-5.9 2.8-9 4.1-3 1.2-5.9 2.5-8.9 3.7-2 .8-4 1.6-6.1 2.1-.5.1-1 .1-1.3.1-.9-.3-1.4-.7-1.9-1.2-1.5-1.5-3-2.9-4.4-4.4-1.3-1.5-2.5-3-3.6-4.7-1.2-1.9-2.2-4-3.1-6-.7-1.6-1.4-3.3-1.8-5-.3-1.1-.1-2.1-.2-3 .2-.5.5-.8.8-.9 1.3-.3 2.5-.8 3.8-.9.8-.1 1.7-.4 2.5-.6 2.2-.5 4.4-.9 6.6-1.4 1.9-.5 3.9-.7 5.8-1.3 1.1-.4 2.4-.5 3.6-.7.8-.2 1.6-.4 2.5-.6 1.8-.4 3.7-.8 5.5-1.1 1.2-.2 2.4-.6 3.6-.8 1.8-.4 3.7-.8 5.5-1.2 2.5-.6 5-1.1 7.6-1.7l.9-.3c.8-.3 1.4-.6 1.5-1.5.9-2 1.6-4 2.6-5.9.4-.9 1.1-1.5 1.9-2 1.6-.9 3.2-1.9 4.8-2.7.7-.4 1.5-.7 2.3-1.1 1.3-.2 2.5.1 3.8.4 2 .5 4 .9 6.1 1.4l.4.4h2.1c1.3-.2 2.3-1 3.5-1.7 1.7-1 3.4-2.1 5-3.2 1.7-1.1 3.3-2.2 4.9-3.3 1.1-.7 2.2-1.5 3.3-2.2.6-.4 1.2-.9 1.7-1.6-.2-.2-.3-.5-.5-.7-1.1-.8-2.2-1.6-3.4-2.3-2.9-1.9-5.9-3.9-8.9-5.8-2.3-1.5-4.6-3.1-6.9-4.6-3.2-2.1-6.5-4.2-9.7-6.3-2-1.3-4.1-2.6-6.1-3.9-1.2-.8-2.4-1.7-3.6-2.5-1.5-1-3.1-2-4.6-3s-3-1.9-4.5-2.9c-1.6-1-3.1-1.9-4.6-3-1.2-.8-2.5-1.6-3.7-2.4-.3-.2-.7-.4-1.1-.7-.4-.2-.8-.4-1.1-.5-.6.5-.8 1.3-1.7 1.6-.3-.2-.6-.3-.9-.5-1.3-.9-2.5-1.8-3.8-2.7-2.2-1.6-4.3-3.3-6.5-5-.9-.7-1.8-1.4-2.7-2-1-.7-2.1-1.3-3-2.1-1.2-1.1-2.6-2-3.9-3-1.5-1.1-2.9-2.3-4.4-3.4-1.2-.9-2.5-1.7-3.6-2.8-1.2-1-2.5-1.9-3.7-2.8-1.9-1.4-3.8-2.8-5.6-4.3-1.8-1.4-3.7-2.8-5.5-4.2-2-1.6-4-3.2-6-4.7l-2.4-1.8c-1.5-1.2-3.1-2.3-4.6-3.6-.6-.5-1.2-1.1-1.7-1.8.2-.5.6-.3.8-.2.5.2 1 .4 1.5.8 4.9 3.2 9.9 6.5 14.8 9.7 2.6 1.8 5.2 3.6 7.8 5.3 1.6 1.1 3.1 2.1 4.7 3.2 1.8 1.2 3.5 2.4 5.2 3.6 2.7 1.8 5.5 3.7 8.2 5.5 2.5 1.7 5.1 3.5 7.6 5.2l2.7 1.8c.3.2.6.4 1 .6.6-.5 1.1-1 1.6-1.5.8 0 1.3.7 2.1.8.4-.2.8-.7 1.1-1.2.4-.6 1-1.1 1.9-1.4.9.6 1.9 1.2 2.9 1.8 3.8 2.5 7.7 5 11.5 7.5 3.3 2.2 6.7 4.3 10 6.4 5.1 3.3 10.1 6.6 15.2 9.9 2.8 1.8 5.7 3.7 8.5 5.6 3.6 2.4 7.3 4.7 10.9 7.1 1.8 1.2 3.6 2.3 5.5 3.5.6.4 1.2.8 1.8 1.1.3.2.7.3 1.1.4.3-.1.7-.2 1-.4 1.2-.7 2.4-1.5 3.6-2.2 1.3-.8 2.6-1.5 3.8-2.3 2.2-1.4 4.5-2.8 6.7-4.2 1.7-1.1 3.4-2.2 5.2-3.2.9-.5 1.6-1.1 2.4-1.6 1.2-.8 2.4-1.5 3.7-2.3 2.5-1.5 4.9-3.2 7.5-4.6 1.2-.7 2.3-1.5 3.5-2.3 1.4-.9 2.8-1.7 4.2-2.6.7-.4 1.4-.9 2.1-1.4 1.3-.8 2.6-1.5 3.8-2.3 1.3-.8 2.4-1.7 3.8-2.4 1.6-.8 3.1-1.9 4.6-2.9s3-2 4.6-2.8c2.7-1.5 5.3-3.2 8-4.8.4-.2.7-.5 1.3-.3.2.1.5.3.8.5.7 0 1.1-.5 1.7-.8h.9c.1.1.3.2.4.4.3.5.6.9 1 1.4.1.2.3.3.5.5 1-.5 1.9-1 2.8-1.6 2.8-1.9 5.7-3.8 8.6-5.7 2.5-1.7 5.1-3.3 7.6-5 2.4-1.6 4.9-3.2 7.3-4.8 2-1.3 3.9-2.8 5.9-4.1 3-2 6-4 9.1-6 1.8-1.1 3.5-2.3 5.4-3.4 2.4-1.4 4.6-3 7-4.5.3-.2.6-.3.9-.4h.5c0 .5-.3.6-.5.9-1 .8-1.9 1.5-2.9 2.3-.7.6-1.6.8-2.2 1.4s-1.3 1.1-1.9 1.7c-3 2.3-6 4.6-9 6.8-2.8 2-5.5 4.1-8.3 6.2l-.1.1c-.8.7-1.8 1.1-2.6 1.9s-1.7 1.3-2.6 2-1.7 1.3-2.6 2c-2.2 1.6-4.4 3.2-6.7 4.8-2 1.4-3.9 2.9-5.9 4.4-3 2.2-6 4.4-9.1 6.6-1.2.8-2.3 1.8-3.5 2.6-.4.2-.8.5-1.2.7-.5-.3-1-.6-1.6-.9-.3.2-.7.4-1 .6l-19.5 12.9c-3 2-6 4-8.9 6-2.4 1.6-4.7 3.1-7.1 4.7-4.2 2.8-8.4 5.7-12.5 8.6-1.2.8-2.4 1.5-3.5 2.3-1 .7-2 1.5-3.1 2.2-.5.4-1 .7-1.5 1.1-.4.3-.8.7-1.1 1-.544-1.07.096.066.4.4m6 14.5c.2.1.6.2 1 .2.35-.505.224-1.066.3-1.6-.2-.2-.3-.4-.5-.6-.7-.6-1.4-1.1-2.1-1.7-3.3-2.4-6.6-4.7-10-7-.5-.3-1-.6-1.5-.8-1.085-.385-2.05.638-2.832 1.398l.932.502c2.904 1.203 5.013 3.147 7.6 4.7 2.796 1.666 4.755 3.076 7.1 4.9m-92.1-57.4c.1.1.2.2.3.2.433.378.766.613 1.21.901.772-.524.758-.833 1.29-1.601-2.667-2.158-5.687-4.104-8.7-6.2-2.073-1.494-3.618-2.513-5.7-4-1.802-1.325-3.638-2.175-5.2-3.4-2.762-1.726-4.982-4.245-7.8-5.1-.1-.1-.1-.3-.3-.1l.2.2c.4.8 1.1 1.2 1.7 1.7s1.2 1 1.9 1.5c2.965 2.263 5.861 4.963 9 6.8 2.921 2.109 4.984 4.222 7.8 6.1 1.613.808 2.835 2.174 4.3 3m170.8 91.7c.1.2.1.4.3.7q.15-.45.3-.6c.1-.3.1-.7.4-.9.6-.6.8-1.3 1-1.9-.1-1.2-.2-2.2-.2-3.3.1 0 .2-.1.3-.1.1.4.3.8.4 1.2-.2.3 0 .5.1.8.1.1.2.2.3 0 .1-.1.2-.1.2-.1.6-.8 1-1.7.9-2.7-.1-1.1 0-2.2 0-3.6.3.4.5.5.6.7.2.3.2.7.7.8.1-.1.2-.2.2-.3.6-2.1 1.1-4.2 1.4-6.3 0-.2-.1-.4-.1-.6-1.4-.1-2.4.9-3.6 1.1-.3-.6.4-.9.1-1.5-.1-.1-.3-.2-.5-.3-.9.4-1.7 1-2.4 1.5-.835.387-.74.05-.742.05l.642-.75c.3-.2.4-.6.4-1-1.1-.6-1.4-.6-2.4.4-.3.3-.6.6-1 .8-.2.2-.5.4-.9.3.1-.2.1-.3.2-.5.4-.4.4-.8.2-1.3-.7-.3-1.2-.2-1.7.4l-1.5.9c-.194-.03-.233-.06-.2-.3.1-.2.1-.4.2-.6.5-.5.2-.8-.1-1.2-.6-.1-1 0-1.3.5-.4.2-.7.5-1 .7s-.5.4-.8.5c-.1 0-.2 0-.3-.1 0-.2 0-.4-.1-.6.1-.2.2-.3.3-.4.3-.2.2-.5.1-.8-.5-.4-1-.7-1.7-.1-.8.1-1.3.7-2 1.1l-.3-.3c.1-.4.2-.7.3-1.1-.7-.4-1.3-.3-1.7.3-1 .7-1.8 1.5-2.5 2.5-.1.1 0 .3 0 .5 3.4.3 6.8.7 10.2 1s6.9.6 10.3 1.2c0 .2.1.4 0 .6-.3.9-.6 1.9-1 2.8l-4.2 9.3c-.4.9-.9 1.7-1.3 2.5s-1.1 1.5-1.4 2.4c-.1.4-.4.6-1 .8-.3-.1-.8-.2-1.2-.5-3.7-1.8-7.4-3.6-11.1-5.5l-6.6-3.3c-2.2-1.1-4.6-1-6.9-.8-.4 0-.7.2-1.1.3-.2.1-.3.2-.1.5 1 .1 2 .1 3.1.1.9 0 1.7 0 2.6.1.2 0 .4.1.4.4-.3 0-.6.1-.9.1-.5 0-1.1 0-1.6.1-.6.1-1.2.1-1.6.6 1.1.9 2.3 1.4 3.7 1.3 1.5 0 3 .1 4.5.1.6 0 1.2.1 1.8.1.1 0 .2.1.3.2-.2.4-.6.3-.9.3h-3.8c-.3 0-.6 0-.9.2.5.7 1.1.9 1.7 1.1 1.7.1 3.4.2 5 .3v.6h-1.4c-.2 0-.4 0-.5.1-.2 0-.5-.1-.5.4l2.2 1.1c2.2 0 4.3-.1 6.4-.1v.1c-1.2.2-2.4.5-3.8.8.3.3.5.5.8.6.9.5 1.8.9 2.6 1.4q.9.6 2.1.3c1.6-.3 3.2-.2 4.8-.3.3 0 .5.1 1 .1-.6.5-1.2.6-1.7.7s-1.1 0-1.6.3c0 .2 0 .4.1.5.7.7 1.6 1 2.6 1.3 1.2-.9 2.3-1.9 3.1-3.3v-2.5c.9.3.4 1.3 1.2 1.7 1-1.4 2.1-2.7 1.6-4.6l.6-.4.1.1zm7.9-114.2c-.6 0-1 .3-1.4.7h-.4c-.4.3-.8.7-1.2 1-1.3.9-2.7 1.7-4 2.5-.7.5-1.5.8-2 1.5-.1.1-.3.1-.4.2-3.5 2.4-7.1 4.7-10.6 7.1-3.1 2.1-6.3 4.2-9.4 6.3-.6.4-1.1.8-1.8 1-.5-.2-1-.5-1.4-.7-.7 0-1.3.4-1.8.7-.6.4-1.1.9-1.8 1.2-1.9 1.1-3.7 2.5-5.4 4-.1.7.2 1.1.6 1.6.7-.1 1.2-.6 1.8-1l5.1-3.6c.3-.2.6-.5 1.1-.4.4.5.8 1.1 1.2 1.6.7-.2 1.3-.6 1.8-1 4.8-3.5 9.7-7 14.5-10.5 2.3-1.7 4.5-3.4 6.8-5.1.3-.2.6-.3.8-.5 2-1.5 3.9-3 5.9-4.5.2-.2.5-.4.7-.7l.3-.3c.1-.1.1-.2.2-.2.4-.1.8-.4.8-.9.1 0 .3 0 .1-.2 0 0-.1.1-.1.2m-202.6 104.1c-.4-.1-.8-.2-1.1.1.1.6.5.9 1 1.1.4.6 1.2.9 1.6 1.7-.2.1-.3.2-.5.3-.2 0-.5 0-.8.1.2.6.4 1 1 1.1.4.3.9.7 1.3 1 .4.4 1 .5 1.3 1.1-.3.1-.6.1-.8.1h-.6c-.1.6.1.9.6 1 .5.7 1.3 1 1.9 1.6.3.3.6.5.9.7 0 .2-.1.4-.1.5-.2.1-.5.2-.8.3.2.3.2.6.4.8.6.5 1.2.9 1.9 1 .6.4 1.2.7 1.7 1.1v.4c-.4 0-.8.2-1.1.5.4.9 1 1.7 1.9 2.1.1.1.2.2.3.2.2.2.3.5.5.6.5.3.7.2 1.2-.4.6-.7 1.3-1.4 1.9-2 .2-.1.3-.4.7-.2 0 .2 0 .5-.1.8-.4.3-.2.6-.1 1.1.4-.4.9-.5 1-1.1.4-.4.8-.9 1.3-1.3.3-.3.5-.7 1-.7.1.4.1.7.1 1.1.6-.2.9-.7 1.3-1.1s.705-1.3 1.205-1.5c.4.5-.305 1.3-.005 1.7.5-.2.9-.6 1.4-1.2.7-1 1.1-1.3 2.1-1.6-.1.6-.2 1.2-.4 2 .8-.7 1.3-1.3 1.9-1.9l1.2-1.2c.1-.1.3-.1.5-.1 0 .4 0 .7.1 1.1.8-.4.8-.4 1.3-1.1.3-.3.6-.7 1-1 .3-.1.7-.3 1.2-.5l.3.9c.8-.5 1.6-1 2.1-1.9l1.2-.3c.4.2.9.1 1.4 0 .1-.1.2-.3.3-.5-.4-.6-.9-.8-1.4-.6l-2.3.1c-.1 0-.3.1-.4.1-1.1.2-2.2.5-3.2.9-.6.2-1.2.5-1.8.8-4.4 1.9-8.9 3.7-13.3 5.6-.5.2-1 .4-1.4.5-1.1-.4-1.9-1.1-2.5-1.9-1.3-1.5-2.5-3.1-3.7-4.6l-2.1-3c0-.2 0-.3-.2-.3-.3-.5-.6-.9-.8-1.4 0-.3 0-.5-.3-.6-.4-.7-.7-1.4-1.1-2 0-.2 0-.5-.3-.6-.2-.6-.4-1.1-.6-1.8.3-.2.5-.4.8-.4.6-.2 1.3-.3 1.9-.4 2.1-.4 4.1-.9 6.2-1.3 1.9-.4 3.8-.7 5.7-1.1.5-.1.9-.2 1.3-.5 0-1.3 0-2.5-1-3.5-1.2.3-2.4.2-3.4.9.1.6.3 1 .9 1.1 0 .3 0 .6-.4.7-.8-.4-1.6-.9-2.4-1.3l-.6.3c.1.4.2.8.3 1.1l-.2.2-1.5-.8c-.5-.6-1-.6-1.7-.3.1.4.1.8.2 1.2h-.3c-.4-.2-.6-.4-.9-.5-.4-.4-.9-.4-1.3-.2-.1.4 0 .6.3.7.2.4.5.7.8 1.1 0 .1-.1.1-.2.2-.2 0-.5-.1-.7-.1-.7-.3-1.4-.5-2-.8-.3-.5-.8-.3-1.2-.5-.2.1-.5.2-.8.4q.3.45.6.6c.3.15.4.2.5.4-.1.1-.2.3-.3.4-1 0-1.9-.3-2.7-.6-1 .1-1.2.8-1.3 1.7.2.4.5.8.8 1.2.7.8 1.5 1.6 2.3 2.4 0-.2.1-.1.1 0m61.5-7.1c.1.1.2.2.2.4v.4c-.1 0-.3.1-.4.1v1.4c.7 1.5 1.7 2.9 2.6 3.6 1.62-.97 3.506-1.81 4.4-3.1-.2-.8-.3-1.5-.4-2.1.5-.8 1.3-1.3 1.5-2.2-.1-.4-.3-.8-.8-.8-.5.1-1 .3-1.5.4-1.2-.9-1.7-2.5-3.1-3.1-.5.1-.9.3-1.3.6-1 .3-1.7 1.1-2.4 1.9.1 1 .6 1.8 1.2 2.5m64.4-6.9v.8c-.2.7.2 1.2.4 1.9.3 0 .6.1.9.1.7-.1 1.5-.1 2.2-.4.6-.2 1.4-.2 1.9-.9-.6-.8-1.3-1.5-2.2-1.9l-.9-.6c-.6-.7-1.3-.9-2.2-1.1-.2.9-.3 1.5-.1 2.1m-106.2 5.7c-.2-.1-.5-.1-.7-.2-.4-.2-.8-.5-1.2-.7-.5-.3-.9-.3-1.5-.1.2.8.6 1.4 1.1 1.9.7.5 1.3 1.1 2 1.6.5.4 1 .7 1.6.7.2-.1.4-.2.7-.4-.1-.3-.2-.5-.4-.8s-.6-.5-.6-.9l.1-.1c.3.2.6.3.8.5.6.5 1.2.8 2 1l.5-.5c-.1-.5-.3-.9-.7-1.3-.9-1-2-1.9-3.3-2.4-.4-.2-.8-.3-1.1 0 .4.7.6 1.2.7 1.7m116.1 6.6.6-.6c.4-.1.7 0 1.1.2.3.2.6.5 1.2.3.6-.5 1.1-1.2 1.4-2 .2-.4.3-.9.8-1.2.1-.1.1-.3.2-.5s.2-.4.3-.5c-.3-.4-.5-.8-1-.9-.703-.718-1.356-1.125-1.8-1.7-.6-.3-1.1-.8-2-.6-.4.3-.9.7-1 1.4-.2.6-.6.8-1.1.7-.3-.4-.7-.4-1.2-.3s-.9.3-1.1.8c-.1.4 0 .8.2 1.1.3.4.7.9 1.1 1.3-.22 1.07-.255 2.694.1 3.7.2.1.5.2.8.3.5-.4 1.1-.8 1.4-1.5m-54.1-22.8c-.3-.2-.5-.3-.8-.5-.8.2-1.5.7-2.1 1.2-2.3 1.6-4.7 3.2-7 4.8-2.1 1.4-4.1 3-6.3 4.3-.2.1-.4.4-.5.6.1.7.5 1.2 1.1 1.5.4-.2.7-.4 1.1-.7 4.6-3.1 9.2-6.1 13.8-9.2.3-.2.6-.5.9-.7.4-.1.6-.3.8-.8-.4-.2-.7-.4-1-.5m74.4-50.9c-1.7 1.2-3.4 2.3-5.2 3.5-5.9 3.9-11.7 7.8-17.6 11.7-6.2 4.1-12.4 8.2-18.5 12.4-5.1 3.4-10.1 6.8-15.2 10.2-4.4 2.9-8.7 5.9-13.1 8.8-.6.4-1.3.8-1.7 1.5l.3.6c0 .3.1.5.5.7.4-.1.8-.2 1-.7.4-.2.8-.4 1.2-.7 1-.6 1.9-1.2 2.9-1.9l2.7-1.8c.9-.6 1.9-1.3 2.8-1.9s1.9-1.3 2.8-1.9l2.7-1.8c.9-.6 1.9-1.2 2.9-1.9.9-.6 1.9-1.3 2.8-1.9s1.8-1.3 2.7-1.8c1-.5 1.8-1.2 2.8-1.8 1.2-.7 2.3-1.6 3.4-2.3 1.2-.8 2.4-1.6 3.6-2.3 5.9-3.9 11.8-7.9 17.7-11.8 6.2-4.1 12.4-8.3 18.7-12.4.7-.5 1.4-1 2.1-1.6.1-.1.2-.1.3-.2-.3-.6-.5-1.2-1-1.6-.2.1-.3.2-.4.2-.404.278-.758.464-1.2.7m-144.3 87.8c.2-.1.5-.1.7-.2 2.1-.9 4.2-1.7 6.2-2.7 2.8-1.3 5.6-2.6 8.6-3.6 1.5-.5 2.9-1 4.5-.9.3 0 .7-.1 1-.1.7-.1 1.4-.2 2.1-.1 1.3.3 2.6.1 3.9.2 1.1.1 2.1-.3 3.1-.9.9-.7 1.9-1.3 2.8-2 2.5-1.9 5-3.8 7.5-5.6 1.5-1.1 3.1-2.2 4.6-3.3.6-.5 1.3-1 1.4-1.8-.3-1.1.3-2.2.1-3.2.4-.6.8-1 1.3-1.6.6-.3 1.3-.6 1.9-1h2.1l2.7-1.8c1.3-.9 2.6-1.9 3.9-2.8 1.2-.9 2.4-1.7 3.5-2.6 1.5-1.2 3.1-2.4 4.6-3.5.5-.4.9-.7 1.4-1.2 0-.2 0-.4-.1-.6-.4-1.2-.9-2.5-1.4-3.7-.1-.2-.2-.3-.3-.5-.1-.1-.2-.1-.3-.2-.5 0-.9.3-1.2.5-1.1.7-2.1 1.4-3.2 2.1-2 1.3-3.9 2.6-5.9 3.9l-3.6 2.4-8.7 6-5.4 3.6c-1.3.8-2.6 1.7-4 2.4-3.9 2.1-7.9 3.7-12 5.4-2.6 1.1-5.2 2-7.8 2.9-2.4.8-4.9 1.5-7.4 2.1-3.2.8-6.4 1.4-9.7 1.9-.9.1-1.8.4-2.8.6-.3.1-.6.3-.8.4 0 .2 0 .4.1.5 1.9 2.9 4.1 5.6 6.3 8.4-.1.4.1.5.3.6m182.8-9.8c-.3 0-.5-.1-.7-.1-1 0-2.1-.1-3.1-.2-1.8-.1-3.6-.1-5.4-.3-1.6-.2-3.2-.2-4.8-.3h-.3c-.6-.3-1.3-.2-2-.2-.3 0-.7.1-1 0-1-.4-2.1-.2-3.2-.5-.9-.2-1.9-.1-2.8-.4s-1.9 0-2.8-.5c-1.6-.1-3.1-.5-4.6-.9-3.1-.7-6.1-1.8-8.9-3.2-1.3-.7-2.6-1.5-3.9-2.2-1.6-.9-2.9-2.1-4.2-3.3-.1-.1-.1-.3-.2-.6 1 .1 1.8.2 2.5.3 1.2-.8 2.5-1.4 3.4-2.5-.3-.1-.5-.3-.7-.3-.7 0-1.3 0-2-.1-1.3 0-2.5-.4-3.6-1.1-3.4-2-6.6-4.1-9.9-6.2-2.7-1.8-5.4-3.5-8.1-5.2-.7-.5-1.4-.9-2.1-1.4-.4-.2-.8-.4-1.3-.2-.2.2-.4.4-.6.8l-1.2 2.1c-.1.2 0 .4 0 .6.2.2.4.4.6.5 1.6 1 3.1 2.1 4.7 3.1 2.6 1.6 5.3 3.1 7.8 4.9s4.9 3.5 7.3 5.3c1.1.8 2.2 1.7 3.4 2.6.2.1.3.3.4.5-.4.4-.6.2-.9 0-.9-.6-1.9-1.1-2.8-1.6-.2-.1-.4-.2-.7 0 .2.7.6 1.4 1.2 1.9s1.1 1 1.7 1.5c.8.6 1.5 1.3 2.3 1.9 2.5 1.7 5.2 3.3 7.7 5 1.7 1.2 3.6 1.7 5.7 1.8 2 .1 3.9.3 5.9.6 1 .1 2 .4 3 .8 1.9.8 3.7 1.6 5.6 2.5 2 1 4 2.1 6.1 3.1.6.3 1.2.5 1.8.8 1.6 1 3.2 1.7 5 2.4.2-.3.5-.6.6-.9.5-.9 1.1-1.8 1.6-2.7 1.1-2 2.1-4 3.1-6 .2-.3.3-.7.4-1.1zM351.45 79c.1-1.2-.5-2-1.1-2.7-.7-.2-1.2.2-1.7.4-1.1.6-2.1 1.3-3.2 2-1.7 1-3.3 2-5 3.1-1.5.9-3.1 1.9-4.6 2.9-1.4.9-2.9 1.9-4.4 2.8-2 1.1-3.9 2.4-5.8 3.6-1.6 1-3.1 2-4.7 2.9-1.9 1.1-3.8 2.4-5.7 3.5-1.1.7-2.3 1.4-3.4 2.2-1.9 1.2-3.7 2.3-5.6 3.4-1.9 1.2-3.8 2.5-5.8 3.7-2.4 1.5-4.8 2.9-7.1 4.5-1.9 1.3-3.8 2.6-5.8 3.7-1.6.9-3 1.9-4.5 2.9-2.1 1.3-4.1 2.6-6.2 3.9q-.6.3-.9.9c0 .3 0 .6.1.8.7 1.4 1.4 2.9 2.1 4.3.4-.2.7-.4 1-.6.5-.4 1-.8 1.6-1.2 4.3-2.8 8.7-5.7 13-8.5l22.5-15c2.4-1.6 4.7-3.1 7.1-4.7 3.9-2.6 7.7-5.1 11.5-7.7 2.4-1.6 4.8-3.3 7.3-4.9 2.7-1.8 5.5-3.7 8.2-5.5.5-.2.8-.5 1.1-.7m-116.9-.6c9.98 6.863 19.506 12.776 28.7 19 3 2 6.1 4 9.1 6 2.7 1.8 5.4 3.6 8.2 5.3 1.7 1.1 3.4 2.3 5.2 3.4.9.6 1.7 1.2 2.7 1.5 1.1-.6 2.2-1.2 2.9-2.1-.1-.6-.5-.8-.8-1-2.3-1.5-4.5-3.1-6.8-4.5-2.1-1.3-4.2-2.7-6.3-4-3.2-2.1-6.4-4.1-9.7-6.1-3.1-2-6.2-4-9.3-5.9-3.5-2.2-6.9-4.4-10.3-6.6-3.6-2.4-7.2-4.7-11-6.9-.2-.1-.5-.2-.8-.3-.9.4-1.6 1-1.8 2.2m52.2 35.6c-.3-.2-.6-.5-.9-.7-.2-.2-.6-.2-.7-.4-.3-.5-.8-.7-1.2-1l-18.6-12.3-9.6-6.3c-3.1-2-6.2-4-9.3-6.1-3.7-2.4-7.4-4.9-11.2-7.3-.4-.3-.9-.6-1.4-.7-.3.2-.6.5-.8.7-.3.2-.5.5-.8.7 2.3 1.5 4.5 3 6.7 4.4s4.4 2.8 6.5 4.3c2.2 1.4 4.4 2.9 6.7 4.3 2.2 1.4 4.4 2.8 6.5 4.3 2.2 1.4 4.4 2.9 6.7 4.3 2.2 1.4 4.4 2.9 6.7 4.3l6.6 4.2c2.2 1.4 4.4 2.9 6.6 4.3.5-.1 1.3-.1 1.5-1m65.9 29.3c-.2-1.2-.5-2.3-.9-3.4l-.9-3.3c-.3-1.1-.6-2.2-1-3.2-1-.4-1.9-.9-2.9-1.2-2.7-.9-5.4-1.8-8-2.7-.6-.2-1.3-.3-1.9 0-.2.1-.5.2-.8.3-2.2 1-4.5 1.9-6.8 2.9.1 1 .9 1.2 1.6 1.5.2 0 .4.1.5 0 2-.9 4-1.9 6.1-2.9 1 .3 2 .7 3 1 .5.1.8.5 1.2.7 1.5.6 3 1.2 4.6 1.7.4.1.7.3.9.4.2.5.3.9.4 1.3.6 2 1.3 4 1.9 6 .1.2.2.5.4.7zm-53.8-23.3c.2.2.3.4.5.5 1.7 1.2 3.4 2.3 5.1 3.5.4.3.8.6 1.3.9l3.3 2.4c.6.4 1.2.9 1.8 1.4.8.6 1.7.9 2.5 1.3 1.1-.8 1.2-2.1 2-2.9 0-.2-.1-.4-.1-.6l-1.5-1.2c-3.4-2.2-6.7-4.5-10.1-6.7-.5-.3-1.1-.8-1.9-.8-1 .5-2.1 1.1-2.9 2.2m33.6 15.5c2.1 1.5 4.1 2.8 6.3 3.8 1.2-.9 2-2.2 3.5-2.9.3 0 .7 0 1.1.1.2.3.5.6.7.8.1.7 0 1.2-.2 1.8-.2.4-.4.8-.4 1.2-.1.6-.6 1.1-.4 1.7.7.1 4.2.2 4.8.1.2 0 .3-.2.5-.3-.5-1.8-1.2-3.6-1.9-5.4l-.9-.9c-.2-.2-.5-.3-.8-.4-1.9-.8-3.8-1.5-5.7-2.3h-1.4c-1 .4-1.9.8-2.8 1.1-.8.4-1.7.8-2.4 1.6m-72.8-4.6c-.4-.6-.9-.8-1.4-.9-.7-.2-1.5-.4-2.2-.6-.8-.3-1.5-.2-2.2-.1-1.7.3-3.1 1.1-4.5 1.9-1 .6-1.9 1.3-2.4 2.3l-1.2 2.4c-.3.7-.4 1.4-.6 2.2 0 .1.1.2.1.3 1.4-.3 2.9-.5 4.3-1.2-.1-.3-.1-.7-.2-1-.2-1.2-.2-2.3.2-3.5q.15-.3.6-.6c1 .9 1.9 1.8 2.7 2.6.9.2 1.5-.3 2.1-.7 1.8-.8 3.3-1.8 4.7-3.1m-16 7.2c.7-2 1.3-3.9 2-6.1 2.1-1.6 4.8-2.7 7-4 1.7-.3 2.9.4 4.2.7 1.3.4 2.7.8 4 1.3.3-.2.7-.4 1-.6.2-.2.4-.4.2-.8-.5-.2-1-.5-1.6-.6-2.1-.4-4.2-.8-6.3-1.3-.9-.2-1.8-.1-2.6.3-2.5 1.2-4.9 2.5-7.1 4-.5.8-.9 1.6-1.3 2.4s-.7 1.7-1.1 2.6c-.3.6-.3 1.3-.6 2-.1.2 0 .6.4.7.5-.2 1.1-.3 1.8-.6m72.3-3.9c.2.7.7 1 1.1 1.3 4.2 2.9 8.5 5.8 12.7 8.7.2.2.5.5 1 .3.1-.2.4-.4.6-.7.1-.2.2-.5.3-.8-.2-.2-.4-.3-.5-.4-2.3-1.5-4.6-3.1-6.9-4.6-.7-.5-1.4-1-2.2-1.3-.9-.4-1.7-.9-2.3-1.5-.7-.7-1.6-1.2-2.4-1.6-.1-.1-.3-.1-.6-.1-.3.2-.5.4-.8.7m37.7-60.4c.3.8.6 1.4.9 2 .1.2.3.3.4.5 2.5-1.5 5-3 7.3-4.5.1-.1.2-.3.3-.5-.2-.4-.3-.7-.5-1s-.4-.6-.7-.9c-2.7 1.1-5.1 2.8-7.7 4.4m-128.7-2.1c1.1 1.4 2.5 2.2 3.9 3 .4.2.8.5 1.3.3.4-.6 1-1.1 1.1-2-1.3-1.2-2.7-2.3-4.3-3-.2-.1-.4 0-.8 0-.4.5-.8 1.1-1.2 1.7m145 75.2c-1-.2-1.3-.2-2.1.2-1.1.6-2.3 1-3.2 1.9-.8.7-1.7 1.2-2.5 1.7-.1.5-.2.9 0 1.3.4.1.9.1 1.2-.1 1.7-.8 3.3-1.7 4.6-2.9.5-.4 1-.9 1.6-1.4.1-.1.2-.4.4-.7m4-.1c-.4 0-.7 0-1 .1-.4.1-.9.4-1.3.6-1.3.7-2.5 1.7-3.7 2.6-.8.6-1.4 1.4-1.6 2.4.1.1.1.2.2.2.1.1.3.1.4.2 1.8-.5 3.1-1.8 4.6-2.9.7-1.1 2-1.7 2.4-3.2m-7.7-.6c-.5-.1-.9-.1-1.4.1-.4.2-.9.3-1.3.5-1 .4-1.9 1-2.8 1.6-1 .6-1.8 1.4-2.5 2.3.1.2.1.4.1.5.2.1.3.1.4.1h.9c2.9-1.3 5.9-3.5 6.6-5.1m-137.2-70c-2.3-1.8-4.7-3.3-7.1-4.9l-.6-.3c-.4.2-.7.5-.9 1 .2.2.5.4.7.6 2.4 1.7 4.7 3.4 7.3 4.9.3-.4.5-.7.6-1.3m125.9 74.3c2.4-.4 4.1-1.6 5.9-2.9.9-.6 1.3-1.3 1.5-1.9-.6-.1-1.1-.1-1.6.1-1.2.6-2.4 1.2-3.6 1.9-.9.5-1.6 1.3-2.3 2.1 0 .2.1.4.1.7m2.3-5.2c-4.5 2-4.8 2.2-6.1 3.7 0 .1.1.3.1.5.5.2.9.1 1.3-.1 1.4-.7 2.9-1.3 4.2-2.3.6-.4 1.1-1 1.5-1.7-.4 0-.8 0-1-.1m-140.5.2c.8 1.7 2.8 3.4 4.7 4.1.2-.3.6-.4.6-.9-1.2-1.4-2.6-2.7-4.3-3.5-.4-.1-.7.1-1 .3m8.1 3.2c.2-.9-.2-1.4-.7-1.9-1-.9-2-1.9-3.4-2.3-.3 0-.6.1-.9.1v.3c.9 1.7 2.4 2.9 4.1 3.8.2.1.5 0 .9 0m40.9-7.1c.7 1 1.5 1.6 2.7 1.7l.7-.7c.1-1.1.3-2.2-.7-3-1 .4-2 .9-2.7 2m82.9 6.9c1.6-.2 2.9-1 4.1-1.8.7-.5 1.5-.8 1.8-1.7-.6-.5-1.1-.1-1.6.1-1.6.6-3.2 1.4-4.3 2.7zm-121.1-1.4c-1.1-1.3-2.1-2.4-3.6-3.2-.3 0-.7.1-1 .1v.6c1.2 1.1 2.1 2.6 3.9 3 .3-.1.4-.3.7-.5m-2-3.4c.9 1.8 2.5 2.7 4 3.7.2-.2.4-.4.5-.6-.8-1.5-2.3-2.8-4-3.4-.1 0-.2.1-.5.3m140.7 11.7c1.1.4 2.1.8 3.3.6.1-.5.2-1 0-1.6-1-.2-2-.9-3.2-.5-.1.6-.1 1-.1 1.5m-130.6-10.5c-.6-1.2-1.6-2.1-2.9-2.8-.4-.2-.8-.3-1.2-.1 0 .2 0 .4.1.5.9 1.3 2.2 2 3.5 2.8.1-.1.3-.2.5-.4m-3 .8c-.1-.3-.2-.6-.3-.8-.9-1.1-1.9-2-3.3-2.5-.2.1-.3.1-.4.2l-.2.2c.8 1.4 2.2 2.1 3.4 3 .3 0 .5 0 .8-.1m112.4 1.2c.5.1.9.1 1.2.1s.6-.1.8-.2c.7-.4 1.4-.8 1.9-1.4.3-.3.7-.5.7-1-.7-.4-1.2 0-1.8.2-1.1.4-2 1.1-2.8 2.3m25.7 6.2c1.1.3 2.1.6 3.1.4.3-.5.5-.9.1-1.4-1.1-.5-1.4-.6-2.9-.3-.1.3-.2.8-.3 1.3m-135.9-12c-.2 0-.5 0-.8.1.1.3.1.6.2.7.8 1 1.8 1.8 3 2.3l.5-.5c-.8-1.2-1.7-2-2.9-2.6m5.2 2.3c-.1-.3-.2-.7-.4-.9-.6-.6-1.3-1.2-2-1.7-.2-.1-.4-.2-.7-.3-.2.2-.3.4-.4.6.9 1 1.8 1.9 2.9 2.5.2-.1.4-.1.6-.2m133.5 11.8c-.8-.1-1.5-.6-2.4-.4 0 .3-.1.5-.1.7 0 .3.1.5.1.8.4.1.7.3 1 .3.4.1.8 0 1.1 0 .1 0 .1-.1.3-.2zm-170.7-1.6c-.6.1-1.3-.1-2 .2 0 .6-.2 1.2.3 1.7.5-.1 1-.1 1.5-.2.2 0 .4-.2.6-.3.1-.6.1-1.1-.4-1.4m159.2 1.2c.7.6 1.6.4 2.3.7.3-.5.6-.8.2-1.4-.7-.3-1.4-.7-2.2-.5q-.3.45-.3 1.2m-148.6-3.3c-.9.1-1.7-.1-2.4.2-.1.6 0 1.1.4 1.5.6 0 1.3 0 2-.1zm147.3 3.1c.5-.5.4-1 .3-1.5-.7-.2-1.4-.6-2.1-.3-.4.3-.4.7-.3 1.2.6.4 1.4.4 2.1.6m20.5 1.3h-2.1c-.1 0-.1.1-.3.2v.9c0 .1.1.1.2.3.7-.1 1.4.5 2.2.1zm-3.9-.2c-.8-.2-1.5-.2-2.3-.1v.9c0 .1.1.3.1.4.8.1 1.5.6 2.2.1.3-.4.3-.8 0-1.3m11.5-.5c.8 0 1.5.1 2.2 0 .2-.7.2-.7 0-1.4-.6-.1-1.3-.2-1.8-.3-.4.6-.6 1-.4 1.7m-9.8-2.7c-.1.6-.1 1.1.1 1.6.8 0 1.5.1 2.2 0 .1-.5.1-1 0-1.3-.7-.1-1.5-.2-2.3-.3m-169.2 1.2c0-.6.2-1.1-.2-1.6-.7.1-1.4-.2-2.1.4 0 .4.1.8.1 1.2.8.2 1.4.1 2.2 0m175.1-.2c-.1-.1-.2-.2-.3-.4h-1.7c-.1 0-.2.1-.4.2v.7c0 .1 0 .3.1.4 1.4.5 1.8.5 2.2.3-.1-.5 0-.9.1-1.2m2.8 1.5c.2-.6.5-1 .2-1.6-.3 0-.7-.1-1-.1h-1.3v1.3c.7.1 1.3.2 2.1.4m-183.5-1.9c-.1.6-.1 1 .5 1.4.5-.2 1.3.2 1.9-.4-.1-.4-.2-.9-.4-1.2-.7-.3-1.3 0-2 .2m181.5 3.3h-2.2c-.1 0-.1.1-.2.2-.1.4-.2.8.2 1.2.7 0 1.4.1 2.2-.1zm-188.1-.4c.9.2 1.5 0 2.2-.3 0-.4 0-.8-.1-1.3-.8 0-1.5-.1-2.2.1zm179.9-2.5c.1-.6.2-.9-.1-1.4-.7-.1-1.4-.1-2.2 0v1.4c.7.1 1.4.1 2.3 0m-160.3.4c-.1-.3-.2-.6-.4-.8h-1.8c-.1.2-.3.5-.3.7s.2.4.3.6c.7 0 1.2.1 1.8-.1zm-13.7 2.2c-.8 0-1.5-.1-2.2.1-.1.5-.2.9.2 1.2.7-.1 1.4.2 2-.4zm23.2-6.3c-.8.2-1.6-.2-2.3.4.2.3.3.6.5 1h1.3c.1 0 .3-.1.4-.1.4-.3.3-.7.1-1.3m-21.9 6.8c.9.1 1.6.1 2.2-.5-.1-.3-.1-.6-.2-.9-.8.1-1.5-.2-2.1.5 0 .3 0 .6.1.9m16.4-4.5c.8.5 1.5.3 2.3-.2-.1-.3-.2-.6-.2-.9-.8-.1-1.5-.1-2.1.4zm20.8-10.2c-.7-1-1.5-1.6-2.4-2h-.2l-.2.2c.5.9 1.4 1.4 2.3 2 .1 0 .2 0 .5-.2m-41.6 15.1h-1.8c-.2 0-.4.2-.6.3.2.3.3.6.4.8.7-.1 1.4.1 2-.2zm9.6-2.3c-.7 0-1.3-.1-1.9.1-.1 0-.2.2-.3.2-.1.4 0 .8.4 1l1.8-.3zm10.4-1.5c-.1-.5-.2-.8-.2-1.1-.7 0-1.4-.1-2.1.1 0 .3.1.6.1.9 0 .1 2.2.1 2.2.1m9.9-4.4h-1.9c-.1.2-.2.3-.4.5.2.2.3.4.4.5.6 0 1.2.1 1.9-.1l.3-.6zm-19.1 5.4c.1.2.1.4.1.6 0 0 .1.1.2.1.6 0 1.3.1 2.1-.1-.1-.3-.1-.6-.2-1-.8.1-1.5-.2-2.2.4m30.7-14.5c.6.3 1 .5 1.5.8h1c.3 0 .6.1 1-.2-1.1-.7-2.2-.8-3.5-.6m-6.9 7.6c.5-.1.9.1 1.3-.3-.1-.2-.1-.5-.2-.9-.5.1-.9.1-1.3.1-.1 0-.1.1-.2.3.1.2.2.5.4.8m-1.8 1.1c-.1-.4-.1-.7-.2-1.1-.4.1-.8.1-1.1.2-.2.4-.2.6 0 .9z" class="st0"/><path fill="#fff" d="M265.75 141.6c.7-1.1 1.7-1.6 2.8-2 .9.8.7 1.9.7 3l-.7.7c-1.2-.1-2.1-.7-2.8-1.7m54.8 1.4c-.042-.945-.308-1.525.119-2.892.9.2 1.526.326 2.153 1.084.801.477.086.021.875.577.9.4 1.686 1.031 2.286 1.931-.5.6-1.317.794-2.017.994s-1.415.214-2.115.314c-.3 0-.601-.108-1.001-.108-.1-.6-.5-1.2-.3-1.9m7.5 9.7c2.127 1.818.118 1.624 2.422 1.755-.3.7-.712 1.277-1.412 1.577-.3-.1-.854-.322-1.054-.422-.5-.4-.456-1.61.044-2.91" class="st5"/><path fill="#b9aea4" d="M390.95 160.4c.1-.1.1-.2.1-.3.1.1.1.1.2.1-.1.1-.2.2-.3.2" class="st3"/><path fill="#866c5d" d="m395.85 53.5.3-.3z" class="st4"/><path fill="#1d1d1b" d="M306.85 215.3c0-.1 0-.1.1-.2.1 0 .1.1.1.1-.1 0-.2 0-.2.1m-107.31-64.4c.097.09.097.182.195.273-.098 0-.308-.072-.406-.072 0-.09.211-.11.211-.201m4.41-2.05c.1.1.497.552.497.652-.1.2-.413.268-.513.168.1-.1-.084-.72.016-.82m10.7 19.45c.143.08.2.1.4.3-.2 0-.296.514-.396.514zm-.2-20.4c.1 0 .1.1.2.1-.1 0-.1.1-.1.1-.1-.1-.1-.1-.1-.2m1 1.2c-.1-.1-.1-.2-.2-.3.1.1.2.1.3.1 0 .1 0 .1-.1.2" class="st0"/></svg>